<?xml version="1.0" encoding="utf-8"?>
<!-- Generator: Adobe Illustrator 25.2.1, SVG Export Plug-In . SVG Version: 6.00 Build 0)  -->
<svg version="1.1" id="Layer_1" xmlns="http://www.w3.org/2000/svg" xmlns:xlink="http://www.w3.org/1999/xlink" x="0px" y="0px"
	 viewBox="0 0 250 200" style="enable-background:new 0 0 250 200;" xml:space="preserve">
<style type="text/css">
	.st0{fill:#ECECEC;}
	.st1{fill:#E1E1E1;}
	.st2{fill:#1A2E35;}
	.st3{fill:#FFBF9D;}
	.st4{fill:#49B8FF;}
	.st5{opacity:0.4;}
	.st6{opacity:0.2;}
	.st7{fill:#375A64;}
	.st8{fill:#FAFAFA;}
	.st9{opacity:0.3;}
	.st10{fill:#FF9A6C;}
	.st11{opacity:0.5;}
	.st12{fill:#FFFFFF;}
	.st13{fill:none;stroke:#E1E1E1;stroke-width:0.4079;stroke-miterlimit:10;}
	.st14{fill:#FFC8A5;}
	.st15{fill:#F68358;}
	.st16{fill:#D8765F;}
	.st17{fill:#8D4032;}
	.st18{fill:#F5F5F5;}
	.st19{fill:#F0F0F0;}
	.st20{fill:#E7E7E7;}
	.st21{fill:none;stroke:#FFFFFF;stroke-linecap:round;stroke-linejoin:round;stroke-miterlimit:10;}
	.st22{opacity:0.2;enable-background:new    ;}
	.st23{opacity:0.1;}
	.st24{opacity:0.6;fill:#FFFFFF;enable-background:new    ;}
	.st25{fill:#FFBE9C;}
	.st26{fill:#EE9E82;}
	.st27{opacity:0.4;fill:#FFFFFF;enable-background:new    ;}
	.st28{opacity:0.1;fill:#FFFFFF;enable-background:new    ;}
	.st29{fill:#0097D5;}
	.st30{fill:#E2E2E2;}
	.st31{fill:#B7B7B7;}
	.st32{fill:#BCBCBC;}
	.st33{fill:#B3B3B3;}
	.st34{fill:#AFDFFA;}
	.st35{fill:#7A7A7A;}
	.st36{fill:#E0E0E0;}
	.st37{fill:#E1F4FF;}
	.st38{fill:#A8A8A8;}
	.st39{opacity:0.6;}
	.st40{opacity:0.99;}
	.st41{clip-path:url(#SVGID_2_);}
	.st42{opacity:0.5;fill:#FFFFFF;}
	.st43{fill:#FF4F5B;}
	.st44{fill:none;stroke:#FF4F5B;stroke-width:0.4507;stroke-miterlimit:10;}
</style>
<g>
	<g>
		<g>
			<path class="st0" d="M243,127.1c0.2-1.8-2.3-3.3-4.2-3.4c-0.9-0.1-1.9,0.1-2.7-0.2c-1.9-0.6-2.6-3.1-4.4-3.8
				c-1.4-0.6-2.9-0.1-4.2,0.6c-1.3,0.7-2.6,1.5-4.1,1.6c-1.3,0.1-2.7-0.4-3.8,0.2c-0.8,0.5-1.3,1.4-2,2c-0.8,0.6-1.7,0.7-2.7,0.7
				c-0.9,0.1-1.9,0.1-2.8,0.4c-0.9,0.4-1.6,1.3-1.4,2.2L243,127.1z"/>
		</g>
	</g>
	<g>
		<g>
			<path class="st0" d="M122.8,90.6c0.4-2.8-3.6-5.2-6.6-5.4c-1.4-0.1-2.9,0.1-4.3-0.4c-2.9-1-4.1-4.8-7-6c-2.1-0.9-4.6-0.1-6.7,0.9
				c-2.1,1-4.1,2.4-6.5,2.5c-2,0.1-4.2-0.6-6,0.4c-1.3,0.7-2,2.3-3.2,3.2c-1.2,0.9-2.7,1.1-4.2,1.1c-1.5,0.1-3,0.1-4.3,0.7
				c-1.3,0.6-2.5,2-2.2,3.5L122.8,90.6z"/>
		</g>
	</g>
	<g>
		<g>
			<path class="st0" d="M61.3,145.5c0.4-2.8-3.6-5.2-6.6-5.4c-1.4-0.1-2.9,0.1-4.3-0.4c-2.9-1-4.1-4.8-7-6c-2.1-0.9-4.6-0.1-6.7,0.9
				c-2.1,1-4.1,2.4-6.5,2.5c-2,0.1-4.2-0.6-6,0.4c-1.3,0.7-2,2.3-3.2,3.2c-1.2,0.9-2.7,1.1-4.2,1.1c-1.5,0.1-3,0.1-4.3,0.7
				c-1.3,0.6-2.5,2-2.2,3.5L61.3,145.5z"/>
		</g>
	</g>
	<g>
		<g>
			<path class="st0" d="M231.2,57.6c0.2-1.7-2.2-3.2-4-3.3c-0.9-0.1-1.8,0.1-2.6-0.2c-1.8-0.6-2.5-2.9-4.3-3.7
				c-1.3-0.6-2.8-0.1-4.1,0.6c-1.3,0.6-2.5,1.4-3.9,1.5c-1.2,0.1-2.6-0.4-3.7,0.2c-0.8,0.4-1.2,1.4-2,1.9c-0.7,0.5-1.7,0.6-2.6,0.7
				c-0.9,0-1.8,0.1-2.7,0.4c-0.8,0.4-1.5,1.2-1.3,2.1L231.2,57.6z"/>
		</g>
	</g>
	<g>
		<path class="st30" d="M233.1,181.4c-1.6-1.1-2.5-3-3.6-4.9c-1-2-1.9-4.3-1.9-6.6c-0.1-3.9,3-6.2,2.5-10.2
			c-0.3-2.3-1.3-4.4-1.4-6.7c-0.2-2.6,1.3-3.9,2.3-6.1c1.3-2.9-1-8.6,2-10.1c2.5-1.2,5.1,2.2,5.7,4.7c0.9,4-0.8,9.6,1.8,12.8
			c1.5,1.8,2.1,3.4,2.4,6c0.3,2.6-1.3,4.4-1.4,6.9c-0.2,3.6,1.9,7.7,0.2,11.2c-1.2,2.5-4,4.1-6.4,3.9
			C234.5,182.1,233.7,181.8,233.1,181.4z"/>
		<path class="st31" d="M240,168.1c0,0.9-0.1,1.9-0.3,2.7c-0.4,1.5-1.6,2.7-2.9,2.7c0.1,2.4,0.2,4.8,0.2,7.3c0,1.5,0.1,2.9,0.1,4.4
			c0,0.7,0,1.4,0,2.2c0,0.6,0,1.2,0,1.7h-2.2c0-0.7,0-1.3,0-2c0-0.8,0-1.7,0-2.5c0-1.6,0-3.3-0.1-4.9c0-2.9-0.1-5.8-0.1-8.7
			c0-2.2,0-4.4,0-6.7c-0.5-0.2-1.1-0.6-1.5-1c-0.6-0.6-1-1.3-1.3-2.2c-0.3-0.9-0.5-1.9-0.7-2.9c-0.1-0.5-0.1-1-0.1-1.5
			c0-0.5-0.1-1.1,0.1-1.5c0.1-0.2,0.5-0.2,0.6,0c0.2,0.4,0.1,0.9,0.2,1.4c0,0.5,0.1,0.9,0.2,1.4c0.1,0.8,0.3,1.7,0.6,2.5
			c0.3,0.7,0.7,1.3,1.2,1.7c0.2,0.2,0.5,0.4,0.8,0.5c0-0.2,0-0.4,0-0.5c0-2.9,0-5.8-0.1-8.7c0-1.5,0-2.9,0-4.4c0-0.7,0-1.4,0-2.2
			c0-0.7,0-1.5,0.2-2.1c0,0,0.1,0,0.1,0c0.1,0.2,0.2,0.3,0.2,0.5c0,0.2,0.1,0.4,0.1,0.6c0.1,0.4,0.1,0.8,0.2,1.1
			c0.1,0.8,0.1,1.7,0.2,2.5c0.1,1.6,0.2,3.3,0.3,5c0.3,5.8,0.7,11.6,0.9,17.5c0,0,0,0,0,0c0.2,0,0.3,0,0.5-0.1
			c0.2-0.1,0.4-0.2,0.6-0.4c0.4-0.4,0.7-1,0.9-1.6c0.5-1.6,0.4-3.3,0.9-4.8c0-0.2,0.3-0.2,0.3,0C240,166.1,240,167.1,240,168.1z"/>
	</g>
	<g>
		<path class="st30" d="M116,173.9c-1.6-1.1-2.5-3-3.6-4.9c-1-2-1.9-4.3-1.9-6.6c-0.1-3.9,3-6.2,2.5-10.2c-0.3-2.3-1.3-4.4-1.4-6.7
			c-0.2-2.6,1.3-3.9,2.3-6.1c1.3-2.9-1-8.6,2-10.1c2.5-1.2,5.1,2.2,5.7,4.7c0.9,4-0.8,9.6,1.8,12.8c1.5,1.8,2.1,3.4,2.4,6
			c0.3,2.6-1.3,4.4-1.4,6.9c-0.2,3.6,1.9,7.7,0.2,11.2c-1.2,2.5-4,4.1-6.4,3.9C117.4,174.6,116.7,174.3,116,173.9z"/>
		<path class="st31" d="M122.9,160.6c0,0.9-0.1,1.9-0.3,2.7c-0.4,1.5-1.6,2.7-2.9,2.7c0.1,2.4,0.2,4.8,0.2,7.3
			c0,1.5,0.1,2.9,0.1,4.4c0,0.7,0,1.4,0,2.2c0,0.6,0,1.2,0,1.7h-2.2c0-0.7,0-1.3,0-2c0-0.8,0-1.7,0-2.5c0-1.6,0-3.3-0.1-4.9
			c0-2.9-0.1-5.8-0.1-8.7c0-2.2,0-4.4,0-6.7c-0.5-0.2-1.1-0.6-1.5-1c-0.6-0.6-1-1.3-1.3-2.2c-0.3-0.9-0.5-1.9-0.7-2.9
			c-0.1-0.5-0.1-1-0.1-1.5c0-0.5-0.1-1.1,0.1-1.5c0.1-0.2,0.5-0.2,0.6,0c0.2,0.4,0.1,0.9,0.2,1.4c0,0.5,0.1,0.9,0.2,1.4
			c0.1,0.8,0.3,1.7,0.6,2.5c0.3,0.7,0.7,1.3,1.2,1.7c0.2,0.2,0.5,0.4,0.8,0.5c0-0.2,0-0.4,0-0.5c0-2.9,0-5.8-0.1-8.7
			c0-1.5,0-2.9,0-4.4c0-0.7,0-1.4,0-2.2c0-0.7,0-1.5,0.2-2.1c0,0,0.1,0,0.1,0c0.1,0.2,0.2,0.3,0.2,0.5c0,0.2,0.1,0.4,0.1,0.6
			c0.1,0.4,0.1,0.8,0.2,1.1c0.1,0.8,0.1,1.7,0.2,2.5c0.1,1.6,0.2,3.3,0.3,5c0.3,5.8,0.7,11.6,0.9,17.5c0,0,0,0,0,0
			c0.2,0,0.3,0,0.5-0.1c0.2-0.1,0.4-0.2,0.6-0.4c0.4-0.4,0.7-1,0.9-1.6c0.5-1.6,0.4-3.3,0.9-4.8c0-0.2,0.3-0.2,0.3,0
			C123,158.6,122.9,159.6,122.9,160.6z"/>
	</g>
	<path class="st32" d="M102.9,170.9c2.5-0.5,4.7,1.9,4.8,3.5c4.5-4.1,6.5,3.2,7.2,5.3c1.9-3.7,5.5-0.5,7.4,1.4
		c0-3.2,3.8-5.8,6.7-2.2c-0.1-1.5-0.9-4.2,1-5.2c2-1.1,4.4,0,5.4,1.3c0.2-1.7,0.7-6.1,4.2-6.4c3.4-0.3,3.4,3.1,3.7,4.6
		c0.7-1.8,2-5.2,5.6-3.4c2.4,1.3,2.2,6,2.4,7.9c2.2-2.8,5.2-3.4,6.1,0.3c-0.4-3,3.9-2.4,5-0.3c0.2-1.8-0.3-3.5,2.4-4.5
		c1.6-0.6,3.6-0.6,4.9,0.2c1.8,1,2.4,5,2.6,6.5c0.3,3,0.1,6.1,0.3,9c-4,0.3-8.5,0.1-12.6,0.1c0,0-64.6,0-64.6,0
		c-0.1-3.5,0.9-7,2.2-10.4C98.4,176.5,99.4,171.5,102.9,170.9z"/>
	<g>
		<g>
			<g>
				<path class="st18" d="M79.8,124.7c-2.8,0.4-4,3.8-3.8,6.6c0.2,2.8,1.4,5.5,1.1,8.3c-0.4,3.5-3.1,6.5-3.4,10.1
					c-0.4,4.2,2.6,7.9,3.5,12c0.4,2,0.4,4.1,1.1,6c1.3,3.2,4.9,5.3,8.3,4.7c3.4-0.6,6.1-3.8,6.2-7.2c0.1-3.2-1.9-6.2-1.7-9.4
					c0.2-2.4,1.6-4.6,1.3-7c-0.4-2.8-2.9-4.8-3.9-7.5c-0.9-2.7,0-5.6-0.4-8.4C87.6,127.8,84.8,124.3,79.8,124.7"/>
			</g>
			<g>
				<path class="st0" d="M65.7,149.1c-0.5,4.7,1.6,10.1,4,14.2c2.4,4,6.1,7.2,10.4,9.1c0.5,0.2,1.1,0.4,1.5,0
					c0.3-0.3,0.4-0.8,0.4-1.2c0-4.9-1.6-9.8-4.5-13.7C74.6,153.4,70.4,150.5,65.7,149.1"/>
			</g>
			<g>
				<g>
					<path class="st1" d="M86,182c0,0-0.1-0.1-0.1-0.3c-0.1-0.2-0.2-0.5-0.3-0.8c-0.3-0.7-0.7-1.6-1.2-2.8c-1.1-2.4-2.6-5.6-4.6-9
						c-2-3.4-4-6.3-5.5-8.4c-0.8-1-1.4-1.9-1.8-2.4c-0.2-0.3-0.4-0.5-0.5-0.7c-0.1-0.2-0.2-0.2-0.2-0.2c0,0,0.1,0.1,0.2,0.2
						c0.1,0.2,0.3,0.4,0.5,0.6c0.5,0.6,1.1,1.4,1.9,2.4c1.6,2.1,3.6,5,5.6,8.4c2,3.4,3.5,6.6,4.6,9c0.5,1.2,0.9,2.2,1.2,2.8
						c0.1,0.3,0.2,0.6,0.3,0.8C85.9,181.9,86,182,86,182z"/>
				</g>
			</g>
			<g>
				<g>
					<path class="st1" d="M83,137.6c0,0,0,0.2,0.1,0.4c0,0.3,0.1,0.7,0.1,1.3c0.1,1.1,0.2,2.7,0.3,4.7c0.3,4,0.6,9.5,1,15.6
						c0.4,6.1,0.8,11.6,1.2,15.6c0.2,2,0.3,3.6,0.4,4.7c0,0.5,0.1,1,0.1,1.3c0,0.3,0,0.4,0,0.4c0,0,0-0.2-0.1-0.4
						c0-0.3-0.1-0.7-0.1-1.3c-0.1-1.1-0.3-2.7-0.4-4.7c-0.4-4-0.8-9.5-1.2-15.6c-0.4-6.1-0.8-11.6-1-15.6c-0.1-2-0.2-3.6-0.2-4.7
						c0-0.5,0-1,0-1.3C82.9,137.8,82.9,137.6,83,137.6z"/>
				</g>
			</g>
		</g>
		<g>
			<path class="st1" d="M78.7,175.4h11.7v8.6c0,3.1-2.5,5.6-5.6,5.6l0,0c-3,0-5.4-2.3-5.6-5.3L78.7,175.4z"/>
		</g>
	</g>
	<g>
		<path class="st2" d="M250,189c0,0.1-56,0.1-125,0.1c-69,0-125-0.1-125-0.1s56-0.1,125-0.1C194,188.9,250,189,250,189z"/>
	</g>
	<g>
		<g>
			<g>
				<rect x="126.2" y="105.5" class="st33" width="100.9" height="78.3"/>
				<rect x="164.8" y="114.6" class="st34" width="58.5" height="53.4"/>
				<g>
					<g>
						<rect x="130.2" y="114.6" class="st35" width="30.4" height="69.1"/>
						<rect x="133" y="119.8" class="st34" width="11.3" height="45.6"/>
						<rect x="146.5" y="119.8" class="st34" width="11.3" height="45.6"/>
					</g>
					<g>
						<path class="st12" d="M157.9,181.4H133v-12.9h24.9V181.4z M134.1,180.3h22.7v-10.7h-22.7V180.3z"/>
					</g>
				</g>
				<path class="st33" d="M230.4,88.6h-26.5c-2.7-9.2-13.5-16-26.4-16c-12.9,0-23.6,6.8-26.4,16h-28.3v20.7h37.9
					c4.6,2.8,10.4,4.4,16.8,4.4c6.3,0,12.2-1.7,16.8-4.4h36V88.6z"/>
				<rect x="118.2" y="102.4" class="st36" width="116.3" height="6.9"/>
				<polygon class="st37" points="216.7,114.6 164.8,166.5 164.8,155.3 167.6,152.5 169.9,150.2 183,137.1 188.9,131.2 203.2,116.9 
					205.5,114.6 				"/>
				<polygon class="st37" points="223.3,119.2 223.3,124.8 180.1,168 174.5,168 				"/>
				<path class="st33" d="M203.2,150.2h-17.9v-16.7h17.9V150.2z M223.3,133.5v-2.3h-17.8v-16.6h-2.3v16.6h-17.9v-16.6H183v16.6
					h-18.2v2.3H183v16.7h-18.2v2.3H183V168h2.3v-15.5h17.9V168h2.3v-15.5h17.8v-2.3h-17.8v-16.7H223.3z"/>
				<g>
					<polygon class="st37" points="133,138.8 144.3,127.4 144.3,132.8 133,144.1 					"/>
					<polygon class="st37" points="157.3,119.8 146.5,130.6 146.5,125.2 151.9,119.8 					"/>
					<polygon class="st37" points="133,152.4 144.3,141.1 144.3,151.4 133,162.8 					"/>
					<polygon class="st37" points="157.9,127.6 157.9,137.9 146.5,149.2 146.5,138.9 					"/>
				</g>
				<path class="st38" d="M169.9,174.9h-5.6c-0.9,0-1.6-0.7-1.6-1.6l0,0c0-0.9,0.7-1.6,1.6-1.6h5.6c0.9,0,1.6,0.7,1.6,1.6l0,0
					C171.5,174.2,170.8,174.9,169.9,174.9z"/>
				<path class="st38" d="M186.5,174.9h-5.6c-0.9,0-1.6-0.7-1.6-1.6l0,0c0-0.9,0.7-1.6,1.6-1.6h5.6c0.9,0,1.6,0.7,1.6,1.6l0,0
					C188.1,174.2,187.4,174.9,186.5,174.9z"/>
				<path class="st38" d="M179.4,181h-5.6c-0.9,0-1.6-0.7-1.6-1.6l0,0c0-0.9,0.7-1.6,1.6-1.6h5.6c0.9,0,1.6,0.7,1.6,1.6l0,0
					C181,180.3,180.3,181,179.4,181z"/>
				<path class="st38" d="M133.4,95.2h-5.6c-0.9,0-1.6-0.7-1.6-1.6l0,0c0-0.9,0.7-1.6,1.6-1.6h5.6c0.9,0,1.6,0.7,1.6,1.6l0,0
					C134.9,94.5,134.2,95.2,133.4,95.2z"/>
				<path class="st38" d="M153.7,95.2h-5.6c-0.9,0-1.6-0.7-1.6-1.6l0,0c0-0.9,0.7-1.6,1.6-1.6h5.6c0.9,0,1.6,0.7,1.6,1.6l0,0
					C155.3,94.5,154.6,95.2,153.7,95.2z"/>
				<path class="st38" d="M174.1,95.2h-5.6c-0.9,0-1.6-0.7-1.6-1.6l0,0c0-0.9,0.7-1.6,1.6-1.6h5.6c0.9,0,1.6,0.7,1.6,1.6l0,0
					C175.7,94.5,174.9,95.2,174.1,95.2z"/>
				<path class="st38" d="M194.4,95.2h-5.6c-0.9,0-1.6-0.7-1.6-1.6l0,0c0-0.9,0.7-1.6,1.6-1.6h5.6c0.9,0,1.6,0.7,1.6,1.6l0,0
					C196,94.5,195.3,95.2,194.4,95.2z"/>
				<path class="st38" d="M214.8,95.2h-5.6c-0.9,0-1.6-0.7-1.6-1.6l0,0c0-0.9,0.7-1.6,1.6-1.6h5.6c0.9,0,1.6,0.7,1.6,1.6l0,0
					C216.4,94.5,215.7,95.2,214.8,95.2z"/>
				<path class="st38" d="M142.8,100.6h-5.6c-0.9,0-1.6-0.7-1.6-1.6l0,0c0-0.9,0.7-1.6,1.6-1.6h5.6c0.9,0,1.6,0.7,1.6,1.6l0,0
					C144.3,99.9,143.6,100.6,142.8,100.6z"/>
				<path class="st38" d="M158.1,100.6h-5.6c-0.9,0-1.6-0.7-1.6-1.6l0,0c0-0.9,0.7-1.6,1.6-1.6h5.6c0.9,0,1.6,0.7,1.6,1.6l0,0
					C159.7,99.9,159,100.6,158.1,100.6z"/>
				<path class="st38" d="M183.8,100.6h-5.6c-0.9,0-1.6-0.7-1.6-1.6l0,0c0-0.9,0.7-1.6,1.6-1.6h5.6c0.9,0,1.6,0.7,1.6,1.6l0,0
					C185.4,99.9,184.7,100.6,183.8,100.6z"/>
				<path class="st38" d="M206,100.6h-5.6c-0.9,0-1.6-0.7-1.6-1.6l0,0c0-0.9,0.7-1.6,1.6-1.6h5.6c0.9,0,1.6,0.7,1.6,1.6l0,0
					C207.6,99.9,206.9,100.6,206,100.6z"/>
				<path class="st38" d="M226,100.6h-5.6c-0.9,0-1.6-0.7-1.6-1.6l0,0c0-0.9,0.7-1.6,1.6-1.6h5.6c0.9,0,1.6,0.7,1.6,1.6l0,0
					C227.6,99.9,226.9,100.6,226,100.6z"/>
				<path class="st38" d="M193.6,181H188c-0.9,0-1.6-0.7-1.6-1.6l0,0c0-0.9,0.7-1.6,1.6-1.6h5.6c0.9,0,1.6,0.7,1.6,1.6l0,0
					C195.2,180.3,194.5,181,193.6,181z"/>
				<path class="st38" d="M215,181h-5.6c-0.9,0-1.6-0.7-1.6-1.6l0,0c0-0.9,0.7-1.6,1.6-1.6h5.6c0.9,0,1.6,0.7,1.6,1.6l0,0
					C216.6,180.3,215.9,181,215,181z"/>
				<path class="st38" d="M204.1,174.9h-5.6c-0.9,0-1.6-0.7-1.6-1.6l0,0c0-0.9,0.7-1.6,1.6-1.6h5.6c0.9,0,1.6,0.7,1.6,1.6l0,0
					C205.6,174.2,204.9,174.9,204.1,174.9z"/>
				<path class="st38" d="M221.6,174.9H216c-0.9,0-1.6-0.7-1.6-1.6l0,0c0-0.9,0.7-1.6,1.6-1.6h5.6c0.9,0,1.6,0.7,1.6,1.6l0,0
					C223.2,174.2,222.5,174.9,221.6,174.9z"/>
			</g>
			<rect x="122.3" y="183.7" class="st36" width="108.6" height="5.3"/>
			<g>
				<path class="st36" d="M177.5,77.3c-10.4,0-19,5-20.6,11.4h1.9c1.6-5.4,9.4-9.6,18.7-9.6s17,4.1,18.7,9.6h1.9
					C196.5,82.3,187.8,77.3,177.5,77.3z"/>
			</g>
		</g>
	</g>
	<g>
		<g>
			<g>
				<g>
					<g>
						<g>
							<g>
								<g>
									<g>
										<g>
											<g>
												<g>
													<g>
														<g>
															<g>
																<path class="st7" d="M40.4,174.7L40,184c0,0,9.2,3.5,9.3,5.2l-17.9-0.1l0-14.4L40.4,174.7z"/>
															</g>
														</g>
													</g>
												</g>
											</g>
										</g>
									</g>
								</g>
							</g>
						</g>
					</g>
					<g>
						<g>
							<g>
								<g>
									<g>
										<g>
											<g>
												<g>
													<g>
														<g>
															<g>
																<g>
																	<path class="st1" d="M34.4,183.1c-0.3,0.1-0.6,0.5-0.5,0.8c0.1,0.4,0.5,0.6,0.8,0.5c0.3-0.1,0.7-0.5,0.5-0.9
																		C35.2,183.3,34.7,183,34.4,183.1"/>
																</g>
															</g>
														</g>
													</g>
												</g>
											</g>
										</g>
									</g>
								</g>
							</g>
						</g>
					</g>
					<g class="st39">
						<g>
							<g>
								<g>
									<g>
										<g>
											<g>
												<g>
													<g>
														<g>
															<g>
																<path class="st12" d="M31.4,189.1l0.1-1.5l17.2,0.7c0,0,0.8,0.4,0.7,0.9L31.4,189.1z"/>
															</g>
														</g>
													</g>
												</g>
											</g>
										</g>
									</g>
								</g>
							</g>
						</g>
					</g>
					<g>
						<g>
							<g>
								<g>
									<g>
										<g>
											<g>
												<g>
													<g>
														<g>
															<g>
																<g>
																	<path class="st2" d="M40.3,183.9c0,0.1-0.4,0.1-0.9,0.4c-0.4,0.3-0.7,0.6-0.7,0.6c-0.1,0,0.1-0.5,0.6-0.9
																		C39.8,183.7,40.3,183.8,40.3,183.9z"/>
																</g>
															</g>
														</g>
													</g>
												</g>
											</g>
										</g>
									</g>
								</g>
							</g>
						</g>
					</g>
					<g>
						<g>
							<g>
								<g>
									<g>
										<g>
											<g>
												<g>
													<g>
														<g>
															<g>
																<g>
																	<path class="st2" d="M42.1,184.7c0,0.1-0.4,0.2-0.7,0.6c-0.3,0.4-0.4,0.8-0.5,0.8c-0.1,0-0.1-0.5,0.2-1
																		C41.6,184.6,42.1,184.6,42.1,184.7z"/>
																</g>
															</g>
														</g>
													</g>
												</g>
											</g>
										</g>
									</g>
								</g>
							</g>
						</g>
					</g>
					<g>
						<g>
							<g>
								<g>
									<g>
										<g>
											<g>
												<g>
													<g>
														<g>
															<g>
																<g>
																	<path class="st2" d="M43.2,186.9c-0.1,0-0.2-0.4,0-0.9c0.2-0.5,0.6-0.7,0.7-0.6c0,0.1-0.2,0.3-0.4,0.7
																		C43.3,186.6,43.3,186.9,43.2,186.9z"/>
																</g>
															</g>
														</g>
													</g>
												</g>
											</g>
										</g>
									</g>
								</g>
							</g>
						</g>
					</g>
					<g>
						<g>
							<g>
								<g>
									<g>
										<g>
											<g>
												<g>
													<g>
														<g>
															<g>
																<g>
																	<path class="st2" d="M40.1,181.8c0,0.1-0.4,0-0.9,0c-0.5,0-0.9,0.2-0.9,0.1c-0.1-0.1,0.3-0.4,0.9-0.4
																		C39.8,181.4,40.2,181.7,40.1,181.8z"/>
																</g>
															</g>
														</g>
													</g>
												</g>
											</g>
										</g>
									</g>
								</g>
							</g>
						</g>
					</g>
				</g>
			</g>
		</g>
		<g>
			<g>
				<g>
					<g>
						<g>
							<g>
								<g>
									<g>
										<g>
											<g>
												<g>
													<g>
														<g>
															<g>
																<path class="st7" d="M68.2,174.7l-0.4,9.2c0,0,9.2,3.5,9.3,5.2l-17.9-0.1l0-14.4L68.2,174.7z"/>
															</g>
														</g>
													</g>
												</g>
											</g>
										</g>
									</g>
								</g>
							</g>
						</g>
					</g>
					<g>
						<g>
							<g>
								<g>
									<g>
										<g>
											<g>
												<g>
													<g>
														<g>
															<g>
																<g>
																	<path class="st1" d="M62.3,183.1c-0.3,0.1-0.6,0.5-0.5,0.8c0.1,0.4,0.5,0.6,0.8,0.5c0.3-0.1,0.7-0.5,0.5-0.9
																		C63,183.3,62.5,183,62.3,183.1"/>
																</g>
															</g>
														</g>
													</g>
												</g>
											</g>
										</g>
									</g>
								</g>
							</g>
						</g>
					</g>
					<g class="st39">
						<g>
							<g>
								<g>
									<g>
										<g>
											<g>
												<g>
													<g>
														<g>
															<g>
																<path class="st12" d="M59.2,189.1l0.1-1.5l17.2,0.7c0,0,0.8,0.4,0.7,0.9L59.2,189.1z"/>
															</g>
														</g>
													</g>
												</g>
											</g>
										</g>
									</g>
								</g>
							</g>
						</g>
					</g>
					<g>
						<g>
							<g>
								<g>
									<g>
										<g>
											<g>
												<g>
													<g>
														<g>
															<g>
																<g>
																	<path class="st2" d="M68.1,183.9c0,0.1-0.4,0.1-0.9,0.4c-0.4,0.3-0.7,0.6-0.7,0.6c-0.1,0,0.1-0.5,0.6-0.9
																		C67.6,183.7,68.1,183.8,68.1,183.9z"/>
																</g>
															</g>
														</g>
													</g>
												</g>
											</g>
										</g>
									</g>
								</g>
							</g>
						</g>
					</g>
					<g>
						<g>
							<g>
								<g>
									<g>
										<g>
											<g>
												<g>
													<g>
														<g>
															<g>
																<g>
																	<path class="st2" d="M70,184.7c0,0.1-0.4,0.2-0.7,0.6c-0.3,0.4-0.4,0.8-0.5,0.8c-0.1,0-0.1-0.5,0.2-1
																		C69.5,184.6,70,184.6,70,184.7z"/>
																</g>
															</g>
														</g>
													</g>
												</g>
											</g>
										</g>
									</g>
								</g>
							</g>
						</g>
					</g>
					<g>
						<g>
							<g>
								<g>
									<g>
										<g>
											<g>
												<g>
													<g>
														<g>
															<g>
																<g>
																	<path class="st2" d="M71,186.9c-0.1,0-0.2-0.4,0-0.9c0.2-0.5,0.6-0.7,0.7-0.6c0,0.1-0.2,0.3-0.4,0.7
																		C71.2,186.6,71.1,186.9,71,186.9z"/>
																</g>
															</g>
														</g>
													</g>
												</g>
											</g>
										</g>
									</g>
								</g>
							</g>
						</g>
					</g>
					<g>
						<g>
							<g>
								<g>
									<g>
										<g>
											<g>
												<g>
													<g>
														<g>
															<g>
																<g>
																	<path class="st2" d="M68,181.8c0,0.1-0.4,0-0.9,0c-0.5,0-0.9,0.2-0.9,0.1c-0.1-0.1,0.3-0.4,0.9-0.4
																		C67.6,181.4,68,181.7,68,181.8z"/>
																</g>
															</g>
														</g>
													</g>
												</g>
											</g>
										</g>
									</g>
								</g>
							</g>
						</g>
					</g>
				</g>
			</g>
		</g>
		<g>
			<g>
				<g>
					<g>
						<g>
							<g>
								<g>
									<g>
										<g>
											<g>
												<g>
													<g>
														<g>
															<g>
																<path class="st2" d="M31.5,53.5c-0.6-1.7-1.3-3.5-1.6-5.3c-0.3-1.8-0.3-3.7,0.2-5.5c0.1-0.3,0.9-2,1.1-2
																	c0.2,0-0.3,1.7-0.1,1.8c1,1.6,1.3,3.6,1.3,5.5C32.3,49.9,32,51.7,31.5,53.5"/>
															</g>
														</g>
													</g>
												</g>
											</g>
										</g>
									</g>
								</g>
								<g>
									<g>
										<g>
											<g>
												<g>
													<g>
														<g>
															<g>
																<g>
																	<path class="st3" d="M32.1,63.3l-0.7-16.7c-0.3-4.6,1.7-8.7,6.3-8.9l0.5,0c4.3,0.1,7.7,3.4,8,7.6
																		c0.3,4,0.5,8.5,0.4,10.6c-0.1,4.4-4.6,5-4.6,5c0,0,0.2,3.2,0.2,4.5c0,0-0.5,0.3-4.6,0.5
																		C33.6,66.1,32.1,63.3,32.1,63.3z"/>
																</g>
															</g>
														</g>
													</g>
												</g>
											</g>
										</g>
									</g>
								</g>
								<g>
									<g>
										<g>
											<g>
												<g>
													<g>
														<g>
															<g>
																<g>
																	<g>
																		<path class="st10" d="M42.1,61c0,0-2.8,0.1-5.7-1.8c0,0,1.3,3.2,5.8,2.9L42.1,61z"/>
																	</g>
																</g>
															</g>
														</g>
													</g>
												</g>
											</g>
										</g>
									</g>
								</g>
								<g>
									<g>
										<g>
											<g>
												<g>
													<g>
														<g>
															<g>
																<g>
																	<g>
																		<g>
																			<g>
																				<g>
																					<g>
																						<g>
																							<g>
																								<path class="st2" d="M44.7,49.4c0,0.3-0.3,0.6-0.6,0.6c-0.3,0-0.6-0.2-0.6-0.6c0-0.3,0.3-0.6,0.6-0.6
																									C44.4,48.8,44.7,49,44.7,49.4z"/>
																							</g>
																						</g>
																					</g>
																				</g>
																			</g>
																		</g>
																	</g>
																</g>
															</g>
														</g>
													</g>
												</g>
											</g>
										</g>
									</g>
								</g>
								<g>
									<g>
										<g>
											<g>
												<g>
													<g>
														<g>
															<g>
																<g>
																	<g>
																		<g>
																			<g>
																				<g>
																					<g>
																						<g>
																							<g>
																								<g>
																									<path class="st2" d="M45.1,47.8c-0.1,0.1-0.6-0.3-1.2-0.3c-0.7,0-1.2,0.3-1.3,0.2c0,0,0-0.2,0.3-0.3
																										c0.2-0.2,0.6-0.3,1-0.3c0.4,0,0.8,0.2,1,0.3C45.1,47.6,45.2,47.7,45.1,47.8z"/>
																								</g>
																							</g>
																						</g>
																					</g>
																				</g>
																			</g>
																		</g>
																	</g>
																</g>
															</g>
														</g>
													</g>
												</g>
											</g>
										</g>
									</g>
								</g>
								<g>
									<g>
										<g>
											<g>
												<g>
													<g>
														<g>
															<g>
																<g>
																	<g>
																		<g>
																			<g>
																				<g>
																					<g>
																						<g>
																							<g>
																								<g>
																									<path class="st2" d="M38.9,49.5c-0.1,0.1-0.6-0.3-1.2-0.3c-0.7,0-1.2,0.3-1.3,0.2c0,0,0-0.2,0.3-0.3
																										c0.2-0.2,0.6-0.3,1-0.3c0.4,0,0.8,0.2,1,0.3C38.9,49.3,39,49.4,38.9,49.5z"/>
																								</g>
																							</g>
																						</g>
																					</g>
																				</g>
																			</g>
																		</g>
																	</g>
																</g>
															</g>
														</g>
													</g>
												</g>
											</g>
										</g>
									</g>
								</g>
								<g>
									<g>
										<g>
											<g>
												<g>
													<g>
														<g>
															<g>
																<g>
																	<g>
																		<g>
																			<g>
																				<g>
																					<g>
																						<g>
																							<g>
																								<path class="st2" d="M41,53.1c0,0,0.4-0.1,1.1-0.2c0.2,0,0.3,0,0.4-0.2c0-0.1,0-0.3-0.1-0.5
																									c-0.2-0.4-0.3-0.9-0.5-1.3c-0.7-1.9-1.2-3.4-1.1-3.5c0.1,0,0.7,1.5,1.4,3.4c0.2,0.5,0.3,0.9,0.5,1.3
																									c0.1,0.2,0.2,0.4,0.1,0.7c0,0.1-0.2,0.2-0.3,0.2c-0.1,0-0.2,0-0.3,0C41.4,53.2,41,53.2,41,53.1z"/>
																							</g>
																						</g>
																					</g>
																				</g>
																			</g>
																		</g>
																	</g>
																</g>
															</g>
														</g>
													</g>
												</g>
											</g>
										</g>
									</g>
								</g>
								<g>
									<g>
										<g>
											<g>
												<g>
													<g>
														<g>
															<g>
																<g>
																	<g>
																		<g>
																			<g>
																				<path class="st2" d="M38.9,47.7c-0.1,0.2-0.8,0-1.6,0.1c-0.8,0-1.5,0.2-1.6,0c0-0.1,0.1-0.2,0.4-0.4
																					c0.3-0.2,0.7-0.3,1.2-0.3c0.5,0,0.9,0.1,1.2,0.2C38.8,47.4,39,47.6,38.9,47.7z"/>
																			</g>
																		</g>
																	</g>
																</g>
															</g>
														</g>
													</g>
												</g>
											</g>
										</g>
									</g>
								</g>
								<g>
									<g>
										<g>
											<g>
												<g>
													<g>
														<g>
															<g>
																<g>
																	<g>
																		<g>
																			<g>
																				<path class="st2" d="M45.4,45.2c-0.1,0.2-0.7,0.1-1.3,0.3c-0.6,0.1-1.2,0.4-1.3,0.2c-0.1-0.1,0-0.2,0.2-0.4
																					c0.2-0.2,0.6-0.4,1-0.5c0.4-0.1,0.9,0,1.1,0.1C45.3,45,45.4,45.1,45.4,45.2z"/>
																			</g>
																		</g>
																	</g>
																</g>
															</g>
														</g>
													</g>
												</g>
											</g>
										</g>
									</g>
								</g>
								<g>
									<g>
										<g>
											<g>
												<g>
													<g>
														<g>
															<g>
																<path class="st3" d="M31.7,49.8c-0.1,0-3-1-3,2.1c0,3,3.1,2.4,3.1,2.3C31.8,54.1,31.7,49.8,31.7,49.8z"/>
															</g>
														</g>
													</g>
												</g>
											</g>
										</g>
									</g>
								</g>
								<g>
									<g>
										<g>
											<g>
												<g>
													<g>
														<g>
															<g>
																<g>
																	<path class="st10" d="M30.8,53.1c0,0-0.1,0-0.1,0.1c-0.1,0-0.2,0.1-0.4,0c-0.3-0.1-0.6-0.6-0.6-1.2
																		c0-0.3,0-0.5,0.1-0.8c0.1-0.2,0.2-0.4,0.4-0.4c0.2,0,0.3,0.1,0.3,0.1c0,0.1,0,0.1,0,0.1c0,0,0.1-0.1,0-0.2
																		c0-0.1,0-0.1-0.1-0.2c-0.1-0.1-0.2-0.1-0.3-0.1c-0.2,0-0.4,0.2-0.5,0.5c-0.1,0.2-0.2,0.5-0.2,0.8
																		c0,0.6,0.3,1.2,0.8,1.3c0.2,0.1,0.4,0,0.5-0.1C30.8,53.1,30.8,53.1,30.8,53.1z"/>
																</g>
															</g>
														</g>
													</g>
												</g>
											</g>
										</g>
									</g>
								</g>
								<g>
									<g>
										<g>
											<g>
												<g>
													<g>
														<g>
															<g>
																<path class="st2" d="M44.2,40.4c0.5-0.3-1-1.8-2.2-2.4c-1.8-0.8-4.6-1.2-6.3-0.7C33.6,38,32,39,31,40.9
																	c-1,1.9-1.3,4-1.2,6.1c0,0.6,0.1,1.3,0.5,1.8c0.4,0.7,1.3,1.1,1.2,2c0,0.3,0.1,0.7,0.3,0.9c0.6,0.6,1.2,0,1.5-0.6
																	c0.6-1.2,0.7-2.6,0.7-4c0-1,0-2-0.3-2.9c-0.2-0.5-0.4-1-0.5-1.5c-0.1-0.5-0.1-1.1,0.2-1.5c0.1-0.1,0.1-0.2,0.2-0.3
																	c0.8-0.8,2-1,3.1-0.7c1.7,0.6,4.6,1.4,5.4,0.8c1.1-0.9,1.3-1.4,1.3-1.4L44.2,40.4z"/>
															</g>
														</g>
													</g>
												</g>
											</g>
										</g>
									</g>
								</g>
							</g>
						</g>
					</g>
				</g>
			</g>
			<g>
				<g>
					<path class="st2" d="M41.4,55c0,0-0.2,0.1-0.5,0.2c-0.3,0-0.7,0-1.2-0.2c-0.4-0.2-0.7-0.5-0.9-0.8c-0.2-0.3-0.2-0.5-0.1-0.5
						c0.1-0.1,0.5,0.5,1.2,0.9C40.7,55,41.4,54.9,41.4,55z"/>
				</g>
			</g>
		</g>
		<g>
			<path class="st3" d="M83.5,47.6c0,0-0.1-0.7-0.5-0.7c-0.3,0-0.9,0.2-1.1,0.7C81.7,48.1,83.5,47.6,83.5,47.6z"/>
			<path class="st3" d="M74.6,58.9l0.3-5.6l1.1-5.7c0,0,0.9-0.9,1.3-0.7c0.5,0.2,0.3,1,0.3,1s1.2-1.3,1.7-1c0.5,0.3,0.3,1,0.3,1
				s1.1-1.5,1.6-1.1c0.5,0.4,0,1.1,0,1.1s0.7,6.4,0.3,8.7c-0.3,2.3-2.3,3.2-2.3,3.2l-0.9,3.6l-4.6-2.5L74.6,58.9z"/>
			<g>
				<polygon class="st4" points="77.4,51.6 52.6,51.3 52.6,49.3 77.4,48.6 				"/>
				<path class="st4" d="M103.6,53.5l-35-1.5c-0.4-1.2-0.5-2.5,0-3.9l34.8-1.5C104.9,48.3,105,51.8,103.6,53.5z"/>
				<path class="st1" d="M103.2,47c0,0-1.1,1-1,3.1c0,2.2,1.1,3.1,1.1,3.1s1.1-1.2,1-3.4C104.2,47.7,103.2,47,103.2,47z"/>
				<g>
					<path class="st2" d="M101.8,53.5c0,0-0.3-0.3-0.7-0.8c-0.3-0.6-0.7-1.5-0.7-2.5c0-1,0.3-2,0.6-2.6c0.3-0.6,0.7-0.9,0.7-0.9
						c0,0-0.2,0.3-0.5,0.9c-0.3,0.6-0.5,1.5-0.5,2.5c0,1,0.3,1.9,0.6,2.4C101.6,53.2,101.9,53.5,101.8,53.5z"/>
				</g>
				<g>
					<path class="st2" d="M103.4,46.7c0,0-0.2,0.4-0.5,1c-0.3,0.6-0.6,1.5-0.5,2.5c0,1,0.3,1.9,0.6,2.5c0.3,0.6,0.6,0.8,0.6,0.8
						c0,0-0.1,0-0.3-0.1c-0.2-0.1-0.3-0.3-0.5-0.6c-0.4-0.6-0.7-1.5-0.7-2.5c0-1.1,0.3-2,0.6-2.6C103.1,47,103.4,46.7,103.4,46.7z"
						/>
				</g>
				<path class="st12" d="M103.9,48.5c0-0.1-0.1-0.2-0.2-0.3c-0.1-0.1-0.2-0.1-0.3-0.1c-0.1,0-0.2,0.1-0.2,0.2c0,0.1,0,0.2,0,0.3
					c0.1,0.3,0.3,0.5,0.3,0.7c0,0.3-0.1,0.5-0.1,0.8c0,0.1,0,0.2,0.1,0.3c0.1,0.1,0.1,0.1,0.2,0.1c0.1,0,0.2-0.2,0.3-0.3
					C104.1,49.7,104.1,49.1,103.9,48.5z"/>
				<g>
					<path class="st2" d="M68.6,52.2c-0.1,0-0.5-0.8-0.5-2c0-1.2,0.5-2,0.5-2c0.1,0-0.2,0.9-0.3,2C68.4,51.3,68.6,52.2,68.6,52.2z"
						/>
				</g>
				<g>
					<path class="st4" d="M52.6,51.8L52.6,51.8c-0.2,0-0.4-0.2-0.4-0.4v-2.1c0-0.2,0.2-0.4,0.4-0.4l0,0c0.2,0,0.4,0.2,0.4,0.4v2.1
						C53,51.6,52.8,51.8,52.6,51.8z"/>
					<g>
						<path class="st2" d="M52.6,51.8c0,0,0.1,0,0.2-0.1c0-0.1,0.1-0.1,0.1-0.2c0-0.1,0-0.3,0-0.4c0-0.3,0-0.7,0-1
							c0-0.2,0-0.4,0-0.6c0-0.2-0.1-0.3-0.2-0.3c-0.1,0-0.3,0.1-0.2,0.3c0,0.2,0,0.4,0,0.6c0,0.4,0,0.7,0,1c0,0.1,0,0.3,0,0.4
							c0,0.1,0,0.2,0.1,0.2C52.5,51.7,52.6,51.7,52.6,51.8c0,0-0.1,0.1-0.3,0c-0.1-0.1-0.2-0.2-0.2-0.3c0-0.1,0-0.3,0-0.4
							c0-0.3,0-0.7,0-1c0-0.2,0-0.4,0-0.6c0-0.1,0-0.3,0.1-0.4c0.1-0.1,0.2-0.2,0.4-0.2c0.2,0,0.3,0.1,0.4,0.2
							c0.1,0.1,0.1,0.3,0.1,0.4c0,0.2,0,0.4,0,0.6c0,0.4,0,0.7,0,1c0,0.1,0,0.3,0,0.4c0,0.1-0.1,0.2-0.2,0.3
							C52.7,51.8,52.6,51.8,52.6,51.8z"/>
					</g>
				</g>
			</g>
			<path class="st3" d="M56.9,55.9c0,0-0.5-6.5-0.4-7.1c0.2-0.7,2-2.6,2.6-2.6c0.6-0.1,0.7,0.6,0.7,0.6s0.9-0.6,1.7-0.6
				c0.9,0,1,0.8,1,0.8s0.5-0.4,1.4-0.2c0.4,0.1,0.8,0.7,0.8,0.7s0.9-0.4,1.4,0c0.6,0.5,0.5,1.4,0.5,1.4c-0.9-0.1-1.6,0.5-1.6,0.5
				s-0.2,2.8-0.6,4.2c-0.3,1.4-1.7,2.5-2.2,3.3l-0.4,4.8L56,58.6L56.9,55.9z"/>
			<g>
				<path class="st10" d="M58.2,49.3c-0.1,0-0.1-0.9,0.5-1.7c0.6-0.8,1.4-1.1,1.4-1c0,0.1-0.7,0.4-1.2,1.2
					C58.4,48.6,58.3,49.3,58.2,49.3z"/>
			</g>
			<g>
				<path class="st10" d="M61.1,49.2c-0.1,0-0.2-0.7,0.2-1.5c0.2-0.4,0.6-0.6,0.9-0.7c0.3-0.1,0.5-0.1,0.5,0c0,0.1-0.7,0.2-1.1,0.9
					C61.2,48.5,61.2,49.2,61.1,49.2z"/>
			</g>
			<g>
				<path class="st10" d="M63.2,49c-0.1,0,0.1-0.6,0.6-1.1c0.5-0.5,1.2-0.6,1.2-0.5c0,0.1-0.5,0.3-1,0.7C63.6,48.5,63.3,49,63.2,49z
					"/>
			</g>
			<g>
				<path class="st3" d="M78.4,57.5c1-1.2,0.2-4.3,0.2-4.3s1.4-0.5,1.7-1.9c0.3-1.4-0.3-1.6-0.3-1.6c-0.2,0.1-2.4,1.5-3.5,2.1
					c-1.1,0.6-1.5,6.5-1.5,6.5"/>
				<g>
					<path class="st10" d="M75.1,58.3c0,0,0-0.3,0-0.8c0-0.5,0.1-1.2,0.2-2.1c0.1-0.9,0.2-2,0.7-3.1c0.1-0.1,0.1-0.3,0.2-0.4
						c0.1-0.1,0.3-0.3,0.4-0.3c0.3-0.1,0.5-0.3,0.8-0.5c0.5-0.3,1.1-0.7,1.7-1c0.3-0.2,0.6-0.4,0.9-0.5l0.1,0l0.1,0
						c0.3,0.1,0.4,0.3,0.5,0.5c0.1,0.2,0.1,0.4,0.1,0.6c0,0.4-0.1,0.8-0.3,1.2c-0.4,0.7-1,1.2-1.6,1.4l0.1-0.1
						c0.3,1.3,0.3,2.4,0.2,3.2c-0.1,0.4-0.2,0.7-0.3,0.9c-0.1,0.2-0.2,0.3-0.2,0.2c0,0,0-0.1,0.1-0.3c0.1-0.2,0.2-0.5,0.2-0.8
						c0.1-0.7,0-1.9-0.3-3.1l0-0.1l0.1,0c0.6-0.2,1.1-0.7,1.5-1.3c0.2-0.3,0.2-0.7,0.3-1.1c0-0.4-0.1-0.8-0.3-0.9l0.1,0
						c-0.3,0.2-0.6,0.3-0.8,0.5c-0.6,0.4-1.1,0.7-1.7,1c-0.3,0.2-0.6,0.3-0.8,0.5c-0.2,0.1-0.2,0.1-0.3,0.2
						c-0.1,0.1-0.1,0.2-0.2,0.4c-0.4,1.1-0.6,2.1-0.7,3c-0.1,0.9-0.2,1.6-0.3,2.1C75.1,58.1,75.1,58.3,75.1,58.3z"/>
				</g>
			</g>
		</g>
		<g>
			<path class="st2" d="M32.1,109.6c0,0,0.7,28.3,0,31.7c-0.7,3.4-1.8,17.7-1.8,28.3s0.4,13,0.4,13h10.3c0,0,0.7-20.1,3.9-31.7
				c2.9-10.8,6.3-27.2,6.3-34.3c0-7.1,0-9.6,0-9.6H33L32.1,109.6z"/>
			<path class="st2" d="M56.9,106.8c0,0,10.8,29.9,11.5,38.6c0.7,8.7,0.7,37.1,0.7,37.1H58.4L57,148.2L48.8,126v-19.2H56.9z"/>
			<g>
				<path class="st7" d="M51.1,122.9c0,0,0,0.3-0.1,0.8c-0.1,0.6-0.3,1.3-0.4,2.2c-0.4,1.9-0.9,4.5-1.4,7.3
					c-0.5,2.8-1.1,5.4-1.5,7.3c-0.2,0.9-0.4,1.7-0.5,2.2c-0.1,0.5-0.2,0.8-0.2,0.8c0,0,0-0.3,0.1-0.8c0.1-0.6,0.3-1.3,0.4-2.2
					c0.4-1.9,0.9-4.5,1.4-7.3c0.5-2.8,1.1-5.4,1.5-7.3c0.2-0.9,0.4-1.7,0.5-2.2C51,123.2,51.1,122.9,51.1,122.9z"/>
			</g>
		</g>
		<g>
			<path class="st7" d="M61,120h2.3c0,0,0.5-7.9-0.8-13.2c-1.3-5.3-8-28.4-8-28.4L47,66.1l-4-1.8l13.1,43.9L61,120z"/>
			<path class="st9" d="M52.7,81.8c0,0,6.9,20.4,8,25.7c1.1,5.3,1.7,12.4,1.7,12.4H61l-5.4-14.2c0,0-5.6-22.6-5.4-22.6
				C50.4,83.2,52.7,81.8,52.7,81.8z"/>
			<path class="st1" d="M30.5,63.8l0.6-3.9l11,4.9v-2.4l4.9,8.1l10.7,30.3c0.3,0.9,0.8,4,0.1,4.8l-0.9,1.1l-11.6,1.5l-11-39.6
				L30.5,63.8z"/>
			<path class="st9" d="M32.3,122.9c0,0,14.7,1.6,17.7,0.5c3-1.2,3.2-4.3,3.2-4.3s1.5-10.4,1.4-12.7c-0.1-2.6-1-6.3-1-6.3l-21.3,21
				L32.3,122.9z"/>
			<path class="st4" d="M43.4,68.3c0,0,5,17.1,5,17.2c0,0.1,5.6,17.5,5.6,17.5l1.1-5.2l-7.8-26l-3.1-3.8L43.4,68.3z"/>
			<path class="st7" d="M27.2,65.4c-5.1,3.1-5.4,8-3.1,13.6c0.4,0.9,1.1,2.5,1.6,3.6c2.2,4.7,6.8,12.4,6.8,14.2
				c0,4.2-3.8,23.9-3.8,23.9s20.5,2.5,22.4,0.6c1.9-1.9,3.3-14,2.7-19.4c-0.7-6-3.7-16.1-5-19.8c-0.7-2.2-3.2-7.9-6.2-11.5
				c-2.2-2.7-4.8-5.1-7.8-7.1l-4.4-2.9l-0.9,3C29.6,63.5,28.4,64.7,27.2,65.4z"/>
			<path class="st7" d="M47.2,66.8c0.4,0,19.2,6.1,18.1,5.7l0.5-0.5l6.8-10.2l6.2,3.7c0,0-6.1,11.7-7.1,13.5c-0.9,1.6-2.7,3-5,2.9
				c-1.4,0-13.1-2-13.1-2L47.2,66.8z"/>
			<polygon class="st1" points="54.8,59.8 56.2,57.2 62.8,60.9 61.7,63.7 			"/>
			<path class="st9" d="M26,79.2c0,0,12.6,7,16.6,8c4,0.9,8.5,2.2,8.5,2.2l-1.8-5.7l-11-6.7L26,79.2z"/>
			<g>
				<path class="st7" d="M26,79.2c-0.2-0.1,18.9,6.7,22.8,5.4c3.9-1.2,5.2-5.1,6.5-7.5c2.5-4.3,7.1-13,7.1-13l-8.1-4.6l-8,13.5
					c0,0-14.2-5.9-15.5-6.2c-1.3-0.4-5.4-0.9-7.3,3.8C21.3,75.9,26,79.2,26,79.2z"/>
				<g>
					<path class="st2" d="M26,79.2c0,0-0.1,0-0.1-0.1c-0.1-0.1-0.2-0.2-0.4-0.3c-0.3-0.3-0.8-0.7-1.3-1.4c-0.5-0.7-1-1.6-1.3-2.9
						c-0.1-0.3-0.1-0.6-0.1-1c0-0.3,0-0.7,0-1c0.1-0.3,0.1-0.7,0.2-1.1c0.1-0.3,0.2-0.7,0.4-1.1c0.3-0.7,0.8-1.4,1.4-2.1
						c0.6-0.6,1.4-1.2,2.3-1.5c0.9-0.3,1.9-0.4,2.9-0.2c0.5,0.1,1,0.2,1.5,0.4c0.5,0.2,1,0.4,1.5,0.6c4,1.6,8.5,3.4,13.3,5.4
						L46.2,73c2.5-4.2,5.2-8.7,8-13.5l0.1-0.1l0.1,0.1c0.9,0.5,1.9,1.1,2.9,1.7c1.8,1,3.5,2,5.2,3l0.1,0.1l-0.1,0.1
						c-1.6,3-3.2,6-4.7,8.8c-0.8,1.4-1.5,2.8-2.3,4.1c-0.8,1.3-1.4,2.7-2.2,3.9c-0.8,1.2-1.8,2.3-3,3c-0.6,0.3-1.2,0.6-1.9,0.7
						c-0.7,0.1-1.3,0-2,0c-2.6-0.3-4.9-0.9-7-1.4c-4.2-1.1-7.6-2.2-9.8-3C27.3,79.6,26,79.2,26,79.2c0,0,0.1,0,0.2,0.1
						c0.2,0.1,0.4,0.1,0.7,0.2c0.6,0.2,1.5,0.5,2.6,0.8c2.3,0.7,5.6,1.8,9.9,2.9c2.1,0.5,4.4,1.1,7,1.4c0.6,0.1,1.3,0.1,1.9,0
						c0.6-0.1,1.3-0.4,1.8-0.7c1.2-0.7,2.2-1.7,2.9-3c0.8-1.2,1.4-2.6,2.2-3.9c0.8-1.3,1.5-2.7,2.3-4.1c1.5-2.8,3.1-5.7,4.7-8.8
						l0.1,0.2c-1.7-0.9-3.4-1.9-5.2-3c-1-0.6-2-1.1-2.9-1.7l0.2-0.1c-2.8,4.7-5.6,9.3-8.1,13.5l-0.1,0.1l-0.1,0
						c-4.8-2-9.3-3.8-13.3-5.4c-0.5-0.2-1-0.4-1.5-0.6c-0.5-0.2-1-0.4-1.5-0.4c-1-0.2-2-0.1-2.8,0.2c-0.9,0.3-1.6,0.8-2.2,1.4
						c-0.6,0.6-1,1.3-1.3,2c-0.2,0.3-0.3,0.7-0.4,1.1c-0.1,0.3-0.2,0.7-0.2,1c0,0.3-0.1,0.7-0.1,1c0,0.3,0,0.6,0.1,0.9
						c0.2,1.2,0.7,2.1,1.2,2.8c0.5,0.7,1,1.2,1.3,1.5c0.2,0.2,0.3,0.3,0.4,0.3C26,79.1,26,79.2,26,79.2z"/>
				</g>
			</g>
			<g>
				<polygon class="st7" points="35.2,108 37,104.4 49.3,104.6 48,108.3 				"/>
				<g>
					<path class="st2" d="M35.2,108c0,0,0.1,0,0.3,0c0.2,0,0.4,0,0.7,0c0.7,0,1.6,0,2.7,0c2.3,0,5.4,0.1,9.1,0.2l-0.1,0.1
						c0.4-1.1,0.9-2.3,1.3-3.5c0-0.1,0-0.1,0.1-0.2l0.1,0.2c-5-0.1-9.4-0.2-12.4-0.3l0.1-0.1c-0.6,1.1-1,1.9-1.3,2.6
						c-0.2,0.3-0.3,0.5-0.4,0.7C35.3,107.9,35.2,107.9,35.2,108c0,0,0-0.1,0.1-0.2c0.1-0.2,0.2-0.4,0.3-0.7c0.3-0.7,0.7-1.6,1.3-2.7
						l0-0.1l0.1,0c2.9,0,7.4,0.1,12.4,0.2l0.2,0l-0.1,0.2c0,0.1,0,0.1-0.1,0.2c-0.5,1.2-0.9,2.4-1.3,3.5l0,0.1l-0.1,0
						c-3.7-0.1-6.9-0.2-9.2-0.3c-1.1,0-2-0.1-2.6-0.1c-0.3,0-0.5,0-0.7,0C35.3,108,35.2,108,35.2,108z"/>
				</g>
			</g>
			<g>
				<path class="st2" d="M43.5,71.5c0,0.1-3.2-1.7-7-3.8c-3.8-2.2-6.9-4-6.9-4.1c0-0.1,3.2,1.7,7,3.8C40.4,69.6,43.5,71.4,43.5,71.5
					z"/>
			</g>
			<g>
				<path class="st2" d="M47.7,98.5c0,0.1-3,0-6.7-0.3c-3.7-0.2-6.6-0.5-6.6-0.6s3,0,6.7,0.3C44.8,98.2,47.7,98.4,47.7,98.5z"/>
			</g>
			<polygon class="st1" points="73,62 74.2,59.9 79.2,62.8 78.2,65.1 			"/>
			<g>
				<path class="st2" d="M66.6,76.8c-0.1,0.1-0.8-0.7-1.2-1.9c-0.4-1.2-0.3-2.3-0.2-2.3c0.1,0,0.1,1,0.5,2.2
					C66.1,75.9,66.7,76.7,66.6,76.8z"/>
			</g>
			<g>
				<path class="st2" d="M54.5,78.8c0.1,0,0.6,1.5,1.2,3.5c0.6,2,1,3.6,0.9,3.6c-0.1,0-0.6-1.5-1.2-3.5
					C54.9,80.4,54.5,78.8,54.5,78.8z"/>
			</g>
			<g>
				<path class="st2" d="M47,77.3c-0.1,0.1-0.7-0.8-1-2.1C45.8,74,46.2,73,46.2,73c0.1,0-0.2,1,0.1,2.2C46.5,76.4,47,77.3,47,77.3z"
					/>
			</g>
			<polygon class="st9" points="36.2,108 36,109.1 48.8,109.4 49.3,104.6 48,108.3 			"/>
			<polygon class="st4" points="41.8,67.2 42,67.3 43.4,68.3 44.1,67.9 43.6,66.4 42.1,65.3 			"/>
			<g>
				<path class="st2" d="M43.7,65.3c0,0,0.2,0.5,0.3,1.4l0,0.2l-0.2-0.1c-0.5-0.3-1.1-0.8-1.8-1.3l0.2-0.1c-0.1,0.4-0.1,0.9-0.2,1.4
					c0,0.3-0.1,0.6-0.1,0.8l0,0.2l-0.2-0.1c-1.1-0.5-2-1-2.7-1.4c-0.7-0.4-1.1-0.6-1-0.6c0,0,0.4,0.1,1.1,0.4s1.6,0.7,2.7,1.3
					l-0.2,0.1c0-0.3,0.1-0.6,0.1-0.8c0.1-0.5,0.2-1,0.2-1.4l0-0.2l0.2,0.1c0.7,0.5,1.3,1,1.8,1.4l-0.2,0.1
					C43.7,65.8,43.7,65.3,43.7,65.3z"/>
			</g>
		</g>
	</g>
</g>
</svg>
