<?xml version="1.0" encoding="utf-8"?>
<!-- Generator: Adobe Illustrator 25.2.1, SVG Export Plug-In . SVG Version: 6.00 Build 0)  -->
<svg version="1.1" id="Layer_1" xmlns="http://www.w3.org/2000/svg" xmlns:xlink="http://www.w3.org/1999/xlink" x="0px" y="0px"
	 viewBox="0 0 250 200" style="enable-background:new 0 0 250 200;" xml:space="preserve">
<style type="text/css">
	.st0{opacity:0.99;}
	.st1{fill:#E1E1E1;}
	.st2{fill:#ECECEC;}
	.st3{fill:#FAFAFA;}
	.st4{fill:#F5F5F5;}
	.st5{fill:#1A2E35;}
	.st6{fill:#FFBF9D;}
	.st7{fill:#FF9A6C;}
	.st8{fill:#375A64;}
	.st9{opacity:0.3;enable-background:new    ;}
	.st10{fill:#49B8FF;}
	.st11{opacity:0.5;}
	.st12{fill:#FFFFFF;}
	.st13{opacity:0.5;fill:#FFFFFF;enable-background:new    ;}
	.st14{fill:#FF4F5B;}
	.st15{fill:none;stroke:#FF4F5B;stroke-width:0.4507;stroke-miterlimit:10;}
</style>
<g class="st0">
	<g>
		<g>
			<polygon class="st1" points="54.1,60 58.1,70.2 55.6,70.2 53.6,63.9 			"/>
			<g>
				<g>
					<polygon class="st2" points="40.4,50.5 39,70.2 53.3,70.5 54.9,50.5 					"/>
					<polygon class="st3" points="41.8,52 40.7,68.4 51.3,68.9 52.7,52 					"/>
				</g>
				<polygon class="st1" points="44.1,54.4 43.3,65.9 49.1,65.9 50.1,54.4 				"/>
			</g>
		</g>
		<g>
			<rect x="26.3" y="60.4" class="st4" width="7.2" height="9.9"/>
			<path class="st1" d="M30.4,60.4c0,0,1.7-12.7,1.3-12.7c-0.5,0-1.7,11.6-1.7,11.6s-0.1-9.6-0.5-9.5c-0.5,0.1,0,10.2,0,10.2
				s-0.8-8.2-1.2-8c-0.4,0.2,0.2,8.5,0.2,8.5h1.9"/>
			<path class="st2" d="M29.1,60.4c0,0,0.6-6.3,0.8-5.9c0.2,0.4,0,3.8,0,3.8s1.7-8.2,2.1-7.9c0.4,0.3-1.7,8.9-1.7,8.9s1.6-4.9,2-4.4
				c0.4,0.5-1.4,5.1-1.4,5.1s1.8-3.3,1.9-2.8c0.1,0.4-0.8,3.2-0.8,3.2S29.1,60.4,29.1,60.4z"/>
			<path class="st2" d="M28.1,60.5c0,0-3.9-7.6-3.4-7.3c0.5,0.2,2.9,5.1,2.9,5.1s-1.6-4.7-1.3-4.9c0.4-0.1,2.2,5.3,2.2,5.3l0.4,1.8
				C28.9,60.5,28.1,60.5,28.1,60.5z"/>
			<polygon class="st1" points="29.7,60.4 29.8,70.3 26.4,70.3 26.3,60.4 			"/>
			<polygon class="st2" points="26.3,61.3 29.6,61.3 33.5,61.3 33.7,60.3 26.2,60.3 			"/>
		</g>
		<rect x="19" y="70" class="st1" width="50.6" height="2.6"/>
	</g>
	<g>
		<g>
			<g>
				<g>
					<g>
						<rect x="177.3" y="23.7" class="st3" width="50.1" height="87.6"/>
					</g>
				</g>
			</g>
			<g>
				<g>
					<path class="st2" d="M192.9,112.2c0,0-5.5-39.4-8.4-43.8c0,0,16.4-12.3,16.9-45.7h-24.9v89.5H192.9z"/>
				</g>
			</g>
			<g>
				<g>
					<path class="st2" d="M211.8,112c0,0,5.5-39.4,8.4-43.8c0,0-16.4-12.3-16.9-45.7h24.9V112H211.8z"/>
				</g>
			</g>
		</g>
		<g>
			<g>
				<path class="st1" d="M228.7,20.6h-2.3h-53.7V22v2v87.7v1.4v1.4h58.4V113v-1.4v-91C231.1,20.6,228.7,20.6,228.7,20.6z
					 M187.4,69.3v22.3h-10.1V69.3H187.4z M177.3,67.7V44.6h10.1v23.1H177.3z M202.7,67.7V44.6h12.6v23.1H202.7z M215.3,69.3v22.3
					h-12.6V69.3H215.3z M187.9,67.7V44.6h13.3v23.1H187.9z M201.1,69.3v22.3h-13.3V69.3H201.1z M187.9,44.2V23.9h13.3v20.3
					C201.2,44.2,187.9,44.2,187.9,44.2z M201.1,92.1v19.5h-13.3V92.1H201.1z M202.7,92.1h12.6v19.5h-12.6V92.1z M202.7,44.2V23.9
					h12.6v20.3C215.3,44.2,202.7,44.2,202.7,44.2z M215.8,69.3h10.7v22.3h-10.7V69.3z M215.8,67.7V44.6h10.7v23.1H215.8z
					 M226.4,44.2h-10.7V23.9h10.7V44.2z M187.4,23.9v20.3h-10.1V23.9H187.4z M177.3,92.1h10.1v19.5h-10.1V92.1z M215.8,111.5V92.1
					h10.7v19.5L215.8,111.5L215.8,111.5z"/>
			</g>
		</g>
	</g>
	<g>
		<g>
			<g>
				<path class="st4" d="M203.7,134.4c-2.2,0.4-3.2,3.1-3,5.3s1.1,4.4,0.9,6.7c-0.3,2.8-2.5,5.2-2.7,8.1c-0.3,3.4,2.1,6.3,2.8,9.6
					c0.3,1.6,0.3,3.3,0.9,4.8c1,2.6,4,4.2,6.7,3.7s4.9-3.1,5-5.8c0-2.6-1.5-5-1.3-7.6c0.1-1.9,1.3-3.7,1-5.6c-0.3-2.2-2.4-3.8-3.1-6
					c-0.7-2.1,0-4.5-0.3-6.8C210,136.9,207.8,134,203.7,134.4"/>
			</g>
			<g>
				<path class="st2" d="M192.4,153.9c-0.4,3.7,1.3,8.1,3.2,11.4c1.9,3.2,4.9,5.8,8.4,7.3c0.4,0.2,0.9,0.3,1.2,0
					c0.3-0.2,0.3-0.6,0.3-1c0-3.9-1.3-7.9-3.6-11C199.6,157.4,196.2,155,192.4,153.9"/>
			</g>
			<g>
				<g>
					<path class="st1" d="M208.7,180.4c0,0,0-0.1-0.1-0.2c-0.1-0.2-0.2-0.4-0.3-0.6c-0.2-0.5-0.6-1.3-1-2.2
						c-0.9-1.9-2.1-4.5-3.7-7.2c-1.6-2.7-3.2-5.1-4.4-6.8c-0.6-0.8-1.1-1.5-1.5-2c-0.2-0.2-0.3-0.4-0.4-0.5
						c-0.1-0.1-0.1-0.2-0.1-0.2s0.1,0.1,0.2,0.2c0.1,0.1,0.3,0.3,0.4,0.5c0.4,0.4,0.9,1.1,1.5,1.9c1.3,1.7,2.9,4,4.5,6.7
						s2.8,5.3,3.7,7.2c0.4,1,0.7,1.7,0.9,2.3c0.1,0.3,0.2,0.5,0.2,0.6C208.7,180.3,208.7,180.4,208.7,180.4z"/>
				</g>
			</g>
			<g>
				<g>
					<path class="st1" d="M206.3,144.7c0,0,0,0.1,0,0.4c0,0.3,0,0.6,0.1,1c0.1,0.9,0.1,2.2,0.2,3.8c0.2,3.2,0.5,7.6,0.8,12.5
						s0.7,9.3,0.9,12.5c0.1,1.6,0.2,2.9,0.3,3.8c0,0.4,0.1,0.8,0.1,1s0,0.4,0,0.4s0-0.1-0.1-0.4c0-0.3-0.1-0.6-0.1-1
						c-0.1-0.9-0.2-2.2-0.4-3.8c-0.3-3.2-0.6-7.6-1-12.5c-0.3-4.9-0.6-9.3-0.8-12.5c-0.1-1.6-0.1-2.9-0.2-3.8c0-0.4,0-0.8,0-1
						C206.3,144.8,206.3,144.7,206.3,144.7z"/>
				</g>
			</g>
		</g>
		<g>
			<path class="st1" d="M202.8,175h9.4v6.9c0,2.5-2,4.5-4.5,4.5l0,0c-2.4,0-4.4-1.9-4.5-4.3L202.8,175z"/>
		</g>
	</g>
	<g>
		<path class="st5" d="M232.4,186.2c0,0.1-48.1,0.1-107.4,0.1s-107.4-0.1-107.4-0.1c0-0.1,48.1-0.1,107.4-0.1
			C184.3,186.1,232.4,186.1,232.4,186.2z"/>
	</g>
	<g>
		<g>
			<g>
				<g>
					<path class="st6" d="M70,180.3c0,0,11.4-36.1,11.6-37.3c0.2-1.1-4.1-27-4.7-33.8l15.4,0.6c0,0,0,0,0,0.1l6.5,0.4L93,184.2h-7.1
						l0.7-24.5C82.3,171.4,76,183.3,76,183.3L70,180.3z"/>
				</g>
				<g>
					<path class="st7" d="M86.4,168.4c0-0.2,0.1-8.2,0.1-8.2c0.1,0.5,2.7-6.9,2.6-7.4C89.1,152.6,86.4,168.4,86.4,168.4z"/>
				</g>
			</g>
			<g>
				<path class="st7" d="M89.4,149.4c0,0,0,0.2,0,0.4c0,0.3,0,0.7,0,1.2c0,0.3,0,0.5-0.1,0.8c0,0.3-0.1,0.6-0.1,1
					c-0.1,0.7-0.3,1.4-0.6,2.2c-0.5,1.5-1.1,2.8-1.5,3.7c-0.2,0.4-0.4,0.8-0.5,1.1s-0.2,0.4-0.2,0.4s0-0.2,0.1-0.4
					c0.1-0.3,0.2-0.7,0.4-1.1c0.4-1,0.9-2.3,1.4-3.8c0.2-0.7,0.5-1.5,0.6-2.1c0.1-0.3,0.1-0.6,0.2-0.9c0-0.3,0.1-0.6,0.1-0.8
					c0-0.5,0.1-0.9,0.1-1.2C89.4,149.5,89.4,149.4,89.4,149.4z"/>
			</g>
		</g>
		<g>
			<g>
				<g>
					<g>
						<g>
							<g>
								<path class="st8" d="M99.4,123.9c0.3-10.3-0.9-21-1.8-24.2c-0.1-0.3-0.2-0.6-0.2-0.9l-1.7-7.3c0,0-0.7-0.6,1.2-3.2
									c0.9-1.2,0.7-5.8,0.7-5.8l-0.9,6.1l9.1-4.4c0,0-3.8-10.9-5.1-12.5c-3.2-4.1-9-3.4-9-3.4l-7.6-0.1c0,0-2.9,0.2-5.7,1.5h-0.2
									l0,0c-2.2,1.1-4.1,2.9-4.7,5.8c-0.9,4.8-0.6,6.9-0.6,6.9l6.2-0.1l-0.5,13.1c-0.5,1.6-1.8,1.2-3.7,8.7
									c-0.8,3.1-1.3,6-1.6,8.6c-0.4,3.4-0.3,6.8,0.1,10.2l3.5,26.4h21L99.4,123.9z"/>
							</g>
						</g>
					</g>
				</g>
				<polygon class="st8" points="82.2,80.2 83.3,85 72.7,85 73.4,77 				"/>
				<g>
					<path class="st5" d="M72.7,85c0,0,0.5-0.1,1.4-0.1c0.9-0.1,2.1-0.1,3.4-0.1s2.5,0.1,3.4,0.1c0.9,0.1,1.4,0.1,1.4,0.2
						c0,0-0.5,0-1.4,0S78.8,85,77.5,85s-2.5,0-3.4,0C73.2,85.1,72.7,85.1,72.7,85z"/>
				</g>
				<g>
					<path class="st5" d="M95.6,91.9c0,0,0-0.2-0.1-0.5c0-0.2,0-0.3,0-0.6c0-0.2,0.1-0.5,0.2-0.7c0.1-0.3,0.2-0.5,0.4-0.8
						c0.2-0.3,0.3-0.6,0.5-0.9c0.4-0.6,0.8-1.3,1.1-2c0.1-0.4,0.2-0.8,0.2-1.1c0-0.4,0-0.7,0-1.1c-0.1-0.7-0.2-1.3-0.4-1.8
						c-0.3-1-0.6-1.6-0.5-1.7c0,0,0.1,0.1,0.2,0.4s0.3,0.7,0.5,1.2s0.3,1.1,0.4,1.9c0,0.4,0.1,0.7,0,1.1c0,0.4-0.1,0.8-0.2,1.2
						c-0.3,0.8-0.7,1.5-1.1,2.1c-0.2,0.3-0.4,0.6-0.5,0.9c-0.2,0.3-0.3,0.5-0.4,0.8c-0.1,0.2-0.2,0.5-0.2,0.7
						c-0.1,0.2-0.1,0.4-0.1,0.5C95.7,91.7,95.7,91.9,95.6,91.9z"/>
				</g>
				<g>
					<path class="st5" d="M77,149.4c0,0,0-0.1,0-0.2c0-0.1,0.1-0.3,0.1-0.4c0.1-0.4,0.3-1,0.6-1.7c0.2-0.7,0.6-1.6,1-2.6
						s0.8-2.2,1.3-3.5c1-2.6,2.2-5.6,3.5-9c0.7-1.7,1.3-3.5,2.1-5.3c0.7-1.9,1.4-3.8,2.2-5.7c0.7-2,1.4-3.9,2.1-5.8
						c0.3-0.9,0.6-1.9,0.9-2.8s0.6-1.8,0.9-2.7c0.6-1.7,1-3.4,1.5-5c0.2-0.8,0.4-1.5,0.6-2.3c0.2-0.7,0.4-1.4,0.5-2.1
						s0.3-1.3,0.4-1.9c0.1-0.3,0.1-0.6,0.2-0.9c0-0.3,0.1-0.6,0.1-0.8c0.1-0.5,0.2-1,0.2-1.5c0.1-0.5,0.2-0.9,0.2-1.3
						c0.1-0.8,0.1-1.3,0.2-1.8c0-0.2,0-0.3,0-0.5c0-0.1,0-0.2,0-0.2s0,0.1,0,0.2s0,0.3,0,0.5c0,0.4-0.1,1-0.1,1.8
						c0,0.4-0.1,0.8-0.2,1.3s-0.1,1-0.2,1.5c0,0.3-0.1,0.6-0.1,0.8c-0.1,0.3-0.1,0.6-0.2,0.9c-0.1,0.6-0.3,1.3-0.4,1.9
						c-0.1,0.7-0.3,1.4-0.5,2.1s-0.4,1.5-0.6,2.3c-0.5,1.6-0.9,3.2-1.5,5c-0.3,0.9-0.6,1.8-0.9,2.7c-0.3,0.9-0.6,1.8-0.9,2.8
						c-0.6,1.9-1.3,3.8-2.1,5.8c-0.7,2-1.4,3.9-2.2,5.7c-0.7,1.9-1.4,3.6-2.1,5.3c-1.3,3.4-2.5,6.4-3.5,9c-0.5,1.3-0.9,2.4-1.3,3.5
						c-0.4,1-0.7,1.9-1,2.6c-0.3,0.7-0.5,1.3-0.6,1.7c-0.1,0.2-0.1,0.3-0.2,0.4C77,149.3,77,149.4,77,149.4z"/>
				</g>
				<g>
					<path class="st5" d="M82.6,76.9c0,0,0,0.5,0,1.2c0,0.8,0,1.8-0.1,2.9c0,1.1-0.1,2.2-0.1,2.9c-0.1,0.8-0.1,1.2-0.1,1.2
						s0-0.5,0-1.2c0-0.8,0-1.8,0.1-2.9c0-1.1,0.1-2.2,0.1-2.9C82.5,77.4,82.6,76.9,82.6,76.9z"/>
				</g>
				<path class="st9" d="M92.2,84.3c0,0-2.3,14.4-8.9,13.9c0,0-3,0-4-2v-0.8L92.2,84.3z"/>
			</g>
			<g>
				<path class="st5" d="M95.6,91.5c0,0.1-1.4,0.2-3.2,0.2c-1.8,0.1-3.2,0.1-3.2,0s1.4-0.2,3.2-0.2S95.6,91.5,95.6,91.5z"/>
			</g>
			<g>
				<path class="st5" d="M93.2,91.6c0,0-0.1,0-0.2-0.1s-0.2-0.3-0.4-0.5c-0.1-0.3-0.3-0.5-0.4-0.8C92.1,90,92,89.9,92,89.7
					c-0.1-0.2,0-0.5,0.3-0.6c0.1-0.1,0.3,0,0.4,0c0.1,0.1,0.2,0.1,0.2,0.2c0.1,0.2,0.2,0.3,0.3,0.5c0.1,0.3,0.2,0.7,0.2,0.9
					C93.4,91.2,93.3,91.6,93.2,91.6c0-0.1,0.1-0.4,0-0.9c0-0.3-0.1-0.5-0.2-0.9c-0.1-0.2-0.2-0.3-0.2-0.5c-0.1-0.1-0.2-0.2-0.3-0.2
					c-0.1,0.1-0.2,0.2-0.1,0.4c0,0.2,0.1,0.3,0.2,0.5c0.1,0.3,0.2,0.6,0.4,0.9c0.1,0.2,0.2,0.4,0.3,0.5
					C93.1,91.6,93.2,91.6,93.2,91.6z"/>
			</g>
			<g>
				<path class="st5" d="M93.2,91.9c0,0,0.1-0.4,0.3-0.9c0.1-0.3,0.3-0.6,0.4-1c0.1-0.2,0.2-0.4,0.3-0.6c0.1-0.1,0.1-0.2,0.2-0.3
					c0.1-0.1,0.3-0.2,0.4-0.1s0.2,0.2,0.2,0.4c0,0.1,0,0.3,0,0.4c-0.1,0.2-0.1,0.4-0.2,0.6c-0.2,0.4-0.5,0.6-0.7,0.8
					c-0.5,0.4-0.9,0.5-0.9,0.4c0,0,0.3-0.2,0.8-0.6c0.2-0.2,0.4-0.5,0.6-0.8c0.1-0.2,0.2-0.4,0.2-0.6c0.1-0.2,0.1-0.4-0.1-0.5
					c-0.1-0.1-0.3,0.1-0.3,0.3c-0.1,0.2-0.2,0.4-0.3,0.6c-0.2,0.4-0.3,0.7-0.5,0.9C93.4,91.5,93.2,91.9,93.2,91.9z"/>
			</g>
		</g>
		<polygon class="st9" points="82.6,78 83.9,86.6 83.1,88.1 82.1,85.2 82.3,85.1 		"/>
		<g>
			<g>
				<g>
					<g>
						<path class="st10" d="M93.1,184.5v-0.7l-7.2-0.3v2.7h0.4c2,0.1,10.1,0.5,11.4,0.1C99.3,185.9,93.1,184.5,93.1,184.5z"/>
					</g>
					<g class="st11">
						<path class="st12" d="M88.5,186.2c-0.1-0.6-0.4-1.2-0.9-1.5c-0.5-0.4-1.1-0.6-1.7-0.5v2H88.5z"/>
					</g>
				</g>
				<g>
					<path class="st13" d="M96.1,185.3c0,0,2.1,0.6,1.9,1c-0.3,0.4-8.5,0.3-12.1,0v-0.2l9.6,0.1C95.5,186.2,95.7,185.3,96.1,185.3z"
						/>
				</g>
				<g>
					<g>
						<path class="st5" d="M85.8,186.1C85.8,186.1,85.8,186.1,85.8,186.1c0.2,0,0.3,0,0.5,0c0.4,0,0.8,0,1.3,0.1
							c1.1,0,2.6,0.1,4.3,0.1c1.7,0,3.2,0,4.3-0.1c0.5,0,1,0,1.3,0c0.1,0,0.2,0,0.4,0c0.1,0,0.1,0,0.1,0s0,0-0.1,0s-0.2,0-0.4,0
							c-0.4,0-0.8,0-1.3,0c-1.1,0-2.6,0-4.3,0c-1.7,0-3.2,0-4.3-0.1c-0.5,0-1,0-1.3,0C86.2,186.1,86.1,186.1,85.8,186.1
							C85.8,186.1,85.8,186.1,85.8,186.1z"/>
					</g>
				</g>
				<g>
					<g>
						<path class="st5" d="M95.5,186.4c0,0,0-0.3,0.2-0.6s0.5-0.5,0.4-0.5c0,0-0.3,0.1-0.5,0.5C95.5,186,95.5,186.4,95.5,186.4z"/>
					</g>
				</g>
				<g>
					<g>
						<path class="st5" d="M93.4,185.3c0,0,0.1-0.1,0.2-0.3s0.2-0.3,0.2-0.3s-0.1,0.1-0.2,0.3C93.4,185.1,93.4,185.3,93.4,185.3z"/>
					</g>
				</g>
				<g>
					<g>
						<path class="st5" d="M92.8,185c0,0,0.1-0.1,0.3-0.2c0.1-0.1,0.2-0.2,0.2-0.2s-0.1,0.1-0.3,0.2C92.9,184.8,92.8,184.9,92.8,185
							z"/>
					</g>
				</g>
				<g>
					<g>
						<path class="st5" d="M92.4,184.3c0,0,0.2,0,0.4,0c0.2,0,0.4,0,0.4,0s-0.2,0-0.4,0C92.6,184.2,92.4,184.3,92.4,184.3z"/>
					</g>
				</g>
				<g>
					<g>
						<path class="st5" d="M92.3,183.8c0,0,0.2,0.1,0.4,0.1c0.2,0,0.4,0,0.4-0.1c0,0-0.2,0-0.4,0S92.3,183.8,92.3,183.8z"/>
					</g>
				</g>
				<g>
					<g>
						<path class="st5" d="M93.6,184.6c0,0,0.2,0,0.5,0c0.1,0,0.3,0,0.5-0.1c0.1,0,0.2-0.1,0.3-0.1l0.1-0.1c0-0.1,0-0.1-0.1-0.2
							c-0.4-0.2-0.9,0-1.1,0.2C93.8,184.4,93.7,184.6,93.6,184.6c0.1,0.1,0.1,0.1,0.1,0.1s0-0.2,0.2-0.4c0.1-0.1,0.2-0.2,0.4-0.3
							c0.2,0,0.4-0.1,0.6,0c0.1,0.1,0,0.1,0,0.2c-0.1,0-0.2,0.1-0.3,0.1c-0.2,0.1-0.3,0.1-0.5,0.1C93.8,184.6,93.6,184.6,93.6,184.6
							z"/>
					</g>
				</g>
				<g>
					<g>
						<path class="st5" d="M93.7,184.7c0,0,0.1-0.1,0.1-0.3c0-0.1,0-0.2-0.1-0.3s-0.2-0.2-0.4-0.2c-0.1,0-0.2,0.1-0.1,0.2
							c0,0.1,0,0.2,0.1,0.2c0.1,0.1,0.1,0.2,0.2,0.3C93.6,184.6,93.7,184.7,93.7,184.7s-0.1-0.1-0.3-0.2c-0.1-0.1-0.1-0.2-0.2-0.3
							s-0.1-0.3,0-0.3s0.2,0.1,0.3,0.2c0.1,0.1,0.1,0.2,0.1,0.3C93.8,184.5,93.7,184.7,93.7,184.7z"/>
					</g>
				</g>
				<g>
					<g>
						<path class="st5" d="M85.9,184.1c0,0,0.2,0,0.5,0s0.8,0.2,1.2,0.5c0.4,0.3,0.6,0.7,0.7,1s0.1,0.5,0.1,0.5V186
							c0-0.1,0-0.2-0.1-0.4c-0.1-0.3-0.3-0.8-0.7-1.1c-0.4-0.3-0.9-0.5-1.2-0.5c-0.2,0-0.3,0-0.4,0C86,184.1,85.9,184.1,85.9,184.1z
							"/>
					</g>
				</g>
				<g>
					<g>
						<path class="st5" d="M89.4,185.5c0,0,0.5,0.1,1.1,0.1s1.1-0.1,1.1-0.1s-0.5,0-1.1,0C89.9,185.6,89.4,185.5,89.4,185.5z"/>
					</g>
				</g>
				<g>
					<g>
						<path class="st5" d="M88,185.5c0,0,0,0.1,0.1,0.2c0,0.1,0.1,0.2,0.1,0.2s0-0.1,0-0.2C88.1,185.6,88,185.5,88,185.5z"/>
					</g>
				</g>
				<g>
					<g>
						<path class="st5" d="M87.5,184.9c0,0,0,0.1,0.1,0.2c0.1,0.1,0.1,0.1,0.2,0.1c0,0,0-0.1-0.1-0.2
							C87.6,184.9,87.5,184.8,87.5,184.9z"/>
					</g>
				</g>
				<g>
					<g>
						<path class="st5" d="M86.7,184.6c0,0,0.1,0,0.2,0.1c0.1,0,0.2,0.1,0.2,0.1s0-0.1-0.2-0.2C86.8,184.5,86.7,184.5,86.7,184.6z"
							/>
					</g>
				</g>
				<g>
					<g>
						<path class="st5" d="M86.2,184.4C86.2,184.4,86.2,184.5,86.2,184.4c0.2,0.1,0.2,0.1,0.2,0.1S86.4,184.4,86.2,184.4
							C86.2,184.4,86.2,184.4,86.2,184.4z"/>
					</g>
				</g>
			</g>
		</g>
		<g>
			<g>
				<g>
					<g>
						<path class="st10" d="M76.2,183.9l0.3-0.6L70,180l-1.1,2.5l0.4,0.2c1.8,0.9,9,4.6,10.4,4.7C81.2,187.7,76.2,183.9,76.2,183.9z
							"/>
					</g>
					<g class="st11">
						<path class="st12" d="M71.3,183.5c0.2-0.6,0.1-1.2-0.2-1.8c-0.3-0.5-0.7-1-1.3-1.2l-0.8,1.8L71.3,183.5z"/>
					</g>
				</g>
				<g>
					<path class="st13" d="M78.6,185.8c0,0,1.7,1.4,1.3,1.7c-0.4,0.2-7.9-3.2-11.1-5l0.1-0.1l8.7,4
						C77.6,186.4,78.2,185.7,78.6,185.8z"/>
				</g>
				<g>
					<g>
						<path class="st5" d="M68.8,182.3c0,0,0,0,0.1,0.1c0.1,0,0.2,0.1,0.3,0.2c0.3,0.2,0.7,0.4,1.2,0.6c1,0.5,2.4,1.2,3.9,1.9
							s2.9,1.3,4,1.7c0.5,0.2,0.9,0.4,1.2,0.5c0.1,0,0.2,0.1,0.3,0.1c0.1,0,0.1,0,0.1,0s0,0-0.1-0.1c-0.1,0-0.2-0.1-0.3-0.1
							c-0.3-0.1-0.7-0.3-1.2-0.5c-1-0.4-2.4-1-4-1.7c-1.5-0.7-2.9-1.4-3.9-1.8c-0.5-0.2-0.9-0.4-1.2-0.6
							C69.1,182.5,69,182.5,68.8,182.3C68.9,182.3,68.8,182.3,68.8,182.3z"/>
					</g>
				</g>
				<g>
					<g>
						<path class="st5" d="M77.6,186.5c0,0,0.2-0.3,0.5-0.5s0.6-0.2,0.6-0.3c0,0-0.3,0-0.7,0.2C77.7,186.2,77.6,186.5,77.6,186.5z"
							/>
					</g>
				</g>
				<g>
					<g>
						<path class="st5" d="M76.1,184.7c0,0,0.2-0.1,0.3-0.2c0.2-0.1,0.3-0.2,0.3-0.2s-0.2,0.1-0.3,0.2
							C76.2,184.5,76.1,184.6,76.1,184.7z"/>
					</g>
				</g>
				<g>
					<g>
						<path class="st5" d="M75.7,184.1c0,0,0.1,0,0.3,0c0.2-0.1,0.3-0.1,0.3-0.1s-0.1,0-0.3,0C75.8,184.1,75.7,184.1,75.7,184.1z"/>
					</g>
				</g>
				<g>
					<g>
						<path class="st5" d="M75.6,183.4c0,0,0.1,0.1,0.3,0.2c0.2,0.1,0.3,0.1,0.4,0.1c0,0-0.1-0.1-0.3-0.2
							C75.8,183.4,75.6,183.3,75.6,183.4z"/>
					</g>
				</g>
				<g>
					<g>
						<path class="st5" d="M75.7,182.9c0,0,0.1,0.2,0.3,0.3c0.2,0.1,0.4,0.1,0.4,0.1s-0.2-0.1-0.4-0.2
							C75.9,183,75.7,182.9,75.7,182.9z"/>
					</g>
				</g>
				<g>
					<g>
						<path class="st5" d="M76.6,184.2c0,0,0.1,0.1,0.4,0.2c0.1,0,0.3,0.1,0.5,0.1c0.1,0,0.2,0,0.3,0c0.1,0,0.1,0,0.2-0.1
							c0-0.1,0-0.1,0-0.2c-0.3-0.4-0.8-0.3-1.1-0.2C76.8,184.1,76.7,184.2,76.6,184.2c0,0.1,0,0.1,0,0.1s0.1-0.2,0.4-0.3
							c0.1-0.1,0.3-0.1,0.5-0.1s0.4,0.1,0.5,0.3c0,0.1,0,0.1-0.1,0.2c-0.1,0-0.2,0-0.3,0c-0.2,0-0.3,0-0.5-0.1
							C76.7,184.2,76.6,184.2,76.6,184.2z"/>
					</g>
				</g>
				<g>
					<g>
						<path class="st5" d="M76.7,184.3c0,0,0.1-0.1,0.2-0.3c0-0.1,0-0.2,0-0.4c0-0.1-0.1-0.3-0.3-0.4c-0.1,0-0.3,0.2-0.4,0.3
							c0,0.1,0.1,0,0.1,0.1s0,0.3,0.1,0.3C76.5,184.1,76.6,184.2,76.7,184.3c0,0-0.1-0.1-0.1-0.3c0-0.1-0.1-0.2-0.1-0.3
							s0-0.3,0.1-0.3s0.2,0.2,0.2,0.3s0,0.2,0,0.3C76.7,184.2,76.7,184.2,76.7,184.3z"/>
					</g>
				</g>
				<g>
					<g>
						<path class="st5" d="M69.8,180.6c0,0,0.2,0.1,0.5,0.2c0.3,0.2,0.6,0.5,0.9,0.9c0.2,0.4,0.3,0.9,0.2,1.2c0,0.3-0.1,0.5-0.1,0.5
							s0,0,0.1-0.1c0-0.1,0.1-0.2,0.1-0.4c0-0.3,0-0.8-0.2-1.3s-0.6-0.8-0.9-0.9c-0.1-0.1-0.3-0.1-0.4-0.2
							C69.8,180.6,69.8,180.6,69.8,180.6z"/>
					</g>
				</g>
				<g>
					<g>
						<path class="st5" d="M72.4,183.3c0,0,0.4,0.3,0.9,0.5s1,0.4,1,0.4s-0.4-0.2-1-0.4C72.8,183.5,72.4,183.3,72.4,183.3z"/>
					</g>
				</g>
				<g>
					<g>
						<path class="st5" d="M71.1,182.7c0,0,0,0.1,0,0.2c0,0.1,0,0.2,0,0.2s0.1-0.1,0.1-0.2S71.1,182.7,71.1,182.7z"/>
					</g>
				</g>
				<g>
					<g>
						<path class="st5" d="M70.9,181.9c0,0,0,0.1,0,0.2c0,0.1,0.1,0.2,0.1,0.2s0-0.1,0-0.2C70.9,181.9,70.9,181.9,70.9,181.9z"/>
					</g>
				</g>
				<g>
					<g>
						<path class="st5" d="M70.3,181.3c0,0,0.1,0.1,0.2,0.1c0.1,0.1,0.1,0.2,0.2,0.2c0,0,0-0.1-0.1-0.2
							C70.4,181.3,70.3,181.3,70.3,181.3z"/>
					</g>
				</g>
				<g>
					<g>
						<path class="st5" d="M69.9,180.9c0,0,0,0.1,0.1,0.1l0.1,0.1c0,0,0-0.1-0.1-0.1C69.9,180.9,69.9,180.9,69.9,180.9z"/>
					</g>
				</g>
			</g>
		</g>
		<g>
			<path class="st6" d="M97.1,71.6c0.1-0.6,0.2-1.4,0.2-1.8c0.1-1.1,0.3-1.4,0.7-1.2c0.6,0.3,0,3.2,0.4,3.2c0.2,0,0.6-1.7,0.7-2.5
				c0.1-0.9,0.2-2.1,0.3-2.5c0.1-0.5,0.9-0.6,0.8,0.3c0,0.9-0.1,3.3,0.1,3.4c0.6,0.3,0.5-3.2,0.7-4.3c0-0.3,0.1-0.4,0.2-0.5
				c0.2-0.3,0.7-0.2,0.8,0.2c0.1,1.1-0.1,4.1,0,4.5c0,0.1,0.4,0.2,0.5-0.3c0.1-0.7,0.1-3.8,0.7-3.5c0.7,0.3-0.1,4.1,0.2,4.4
				c0.5,0.7,0.6-3.4,1.3-3.2c0.3,0.1,0.3,0.2,0,2.4c-0.2,1-0.8,3.2-1.2,5c1.6,5.5,4.3,15.9,3.9,19.3c-0.2,2-4.8,3.3-6.7,1.8
				c-1.9-1.5-3.3-8-3.3-8l2.3-1.4l-2.3-12.5l0,0c-0.1-0.3-0.1-0.9-0.3-1.3C97,72.7,97.1,72,97.1,71.6z"/>
			<g>
				<path class="st7" d="M101.1,93.5c-0.1,0-0.4-1.5-0.8-3.3s-0.6-3.3-0.5-3.3s0.4,1.5,0.8,3.3C100.9,92,101.1,93.5,101.1,93.5z"/>
			</g>
		</g>
		<g>
			<g>
				<path class="st5" d="M95.5,63.3c2-0.3,4-0.4,6-0.2c0.3-0.6,0.4-1.3,0.1-1.9c-0.2-0.6-0.7-1.1-1.3-1.3c-0.2-0.1-0.5-0.1-0.7-0.3
					c-0.3-0.3-0.3-0.8-0.2-1.2c0.1-0.4,0.2-0.9,0.1-1.2c-0.3-0.6-1.2-0.6-1.6-1.1c-0.6-0.5-0.4-1.4-0.5-2.2
					c-0.2-1.4-1.4-2.5-2.7-2.7"/>
				<path class="st5" d="M88.2,47.8c-2.2-0.5-4.7,0.6-5.8,2.6c-0.6,1.1-0.9,2.5-2,3c-0.7,0.3-1.5,0.3-2.2,0.3
					c-0.8,0.1-1.6,0.4-1.8,1.2c-0.2,0.7,0.4,1.7-0.1,2.2c-0.3,0.4-0.9,0.3-1.3,0.5c-0.9,0.4-1.2,1.6-1.1,2.6s0.4,2,0.2,3
					c1,0.3,2,0.6,3.1,0.7c1.1,0.1,2.2-0.2,3-0.8c-0.1,0.4,0.2,0.9,0.6,1.1s0.8,0.3,1.3,0.3c1.4,0.1,2.9-0.1,4.3-0.5"/>
				<g>
					<g>
						<g>
							<path class="st6" d="M93.2,68.8c0-1.9-0.1-3.7-0.1-3.7s3-0.3,3.3-3.4c0.2-3.1,0.1-10.2,0.1-10.2L91,48.7l-5.9,4.7L85.4,69
								c0.1,2.2,1.9,3.9,4.1,3.8l0,0C91.6,72.7,93.2,70.9,93.2,68.8z"/>
						</g>
						<g>
							<g>
								<path class="st5" d="M95.8,56.8c0,0.2-0.2,0.4-0.4,0.4c-0.2,0-0.4-0.2-0.4-0.4s0.2-0.4,0.4-0.4
									C95.7,56.4,95.8,56.6,95.8,56.8z"/>
							</g>
							<g>
								<g>
									<path class="st5" d="M96.2,56.3c-0.1,0.1-0.3-0.2-0.7-0.2c-0.4,0-0.7,0.2-0.8,0.1c0,0,0-0.1,0.2-0.2
										c0.1-0.1,0.4-0.2,0.6-0.2c0.3,0,0.5,0.1,0.6,0.2C96.2,56.2,96.2,56.3,96.2,56.3z"/>
								</g>
							</g>
						</g>
						<g>
							<g>
								<path class="st5" d="M91.4,56.8c0,0.2-0.2,0.4-0.4,0.4c-0.2,0-0.4-0.2-0.4-0.4s0.2-0.4,0.4-0.4
									C91.2,56.4,91.4,56.6,91.4,56.8z"/>
							</g>
							<g>
								<g>
									<path class="st5" d="M91.6,56.3c-0.1,0.1-0.3-0.2-0.7-0.2c-0.4,0-0.7,0.2-0.8,0.1c0,0,0-0.1,0.2-0.2
										c0.1-0.1,0.4-0.2,0.6-0.2c0.3,0,0.5,0.1,0.6,0.2C91.6,56.2,91.6,56.3,91.6,56.3z"/>
								</g>
							</g>
						</g>
						<g>
							<g>
								<path class="st5" d="M93.1,59.8c0,0,0.3-0.1,0.7-0.1c0.1,0,0.2,0,0.2-0.1s0-0.2-0.1-0.3c-0.1-0.3-0.2-0.6-0.3-0.9
									c-0.4-1.3-0.7-2.3-0.6-2.3c0,0,0.4,1,0.8,2.3c0.1,0.3,0.2,0.6,0.3,0.9c0,0.1,0.1,0.3,0,0.4c0,0.1-0.1,0.1-0.2,0.2
									c-0.1,0-0.1,0-0.2,0C93.3,59.9,93.1,59.8,93.1,59.8z"/>
							</g>
						</g>
						<g>
							<path class="st5" d="M80.5,56.2C80.5,56,80.5,56.4,80.5,56.2L80.5,56.2L80.5,56.2c0.1-0.6,0.1-1.1,0.2-1.4
								c1.7-6.4,7.2-7.6,8.3-7.6c1.2,0,4.5-0.1,6.4,2.2c2.5,3.1,1.1,6.1,1.1,6.1l0,0l-4.9-0.9c0.4-1.2-0.1-2.7-0.4-3.4l0,0
								C90.3,56,85.3,57,85.3,57l-0.1,6.8C81.6,63.3,80.4,58.9,80.5,56.2L80.5,56.2z"/>
						</g>
					</g>
					<g>
						<g>
							<g>
								<path class="st6" d="M85.3,59.8c0-0.5,0.2-1.6,0.1-2c-0.2-0.4-0.6-0.5-1.2-0.5c-0.5,0-1.2,0.5-1.2,1.2
									c0,0.5,0.2,1.1,0.7,1.4C84.2,60.1,84.8,60.1,85.3,59.8"/>
							</g>
						</g>
						<g>
							<g>
								<g>
									<path class="st7" d="M84.8,59.2c0,0-0.2,0-0.3,0c-0.2-0.1-0.4-0.3-0.4-0.6c0-0.2,0-0.3,0.1-0.4c0.1-0.1,0.2-0.1,0.3-0.1
										c0.2,0,0.4,0.1,0.4,0c0,0-0.1-0.1-0.3-0.2c-0.1,0-0.3,0-0.5,0.1s-0.2,0.4-0.2,0.5c0,0.2,0.1,0.4,0.2,0.5s0.3,0.2,0.4,0.2
										C84.7,59.4,84.8,59.2,84.8,59.2z"/>
								</g>
							</g>
						</g>
					</g>
				</g>
				<g>
					<path class="st5" d="M93,60.7c0,0,0.1-0.1,0.3-0.1c0.1,0,0.2,0.1,0.3,0.3c0,0.1,0,0.3-0.1,0.4c-0.2,0.1-0.3,0.1-0.5,0
						c-0.1-0.1-0.2-0.2-0.1-0.3C92.9,60.8,93,60.7,93,60.7c0,0.1-0.1,0.1,0,0.3c0,0.1,0,0.1,0.1,0.2c0.1,0,0.2,0,0.2,0
						c0.1,0,0.1-0.1,0.1-0.2c0-0.1-0.1-0.1-0.1-0.2C93.1,60.7,93,60.7,93,60.7z"/>
				</g>
				<g>
					<path class="st5" d="M91.8,55.1c0,0.1-0.5,0-1,0.1s-0.9,0.4-1,0.3c0,0,0.3-0.4,0.9-0.5C91.4,54.9,91.9,55.1,91.8,55.1z"/>
				</g>
				<g>
					<path class="st8" d="M89.8,47.4c0,0-0.2,0-0.5,0s-0.8,0.1-1.3,0.3s-1.1,0.5-1.7,1.1c-0.5,0.5-1,1.3-1.3,2.1
						c-0.6,1.7-0.6,3.3-0.6,4.5c0,0.5,0,1,0.1,1.4c0,0.3,0,0.5,0,0.5s0-0.2-0.1-0.5c0-0.3-0.1-0.8-0.1-1.4c0-0.6-0.1-1.3,0-2.1
						s0.2-1.6,0.5-2.5c0.3-0.8,0.8-1.6,1.4-2.1s1.2-0.9,1.8-1.1c0.6-0.2,1.1-0.2,1.4-0.2C89.6,47.4,89.7,47.4,89.8,47.4
						C89.8,47.3,89.8,47.4,89.8,47.4z"/>
				</g>
			</g>
			<g>
				<path class="st7" d="M93.4,65c0,0-0.3,0.1-0.7,0.1c-0.5,0-1.1,0-1.8-0.2c-0.7-0.2-1.2-0.5-1.6-0.9c-0.3-0.3-0.5-0.6-0.5-0.6
					s0.2,0.2,0.6,0.5c0.3,0.3,0.9,0.6,1.5,0.8C92.3,65.1,93.4,64.9,93.4,65z"/>
			</g>
		</g>
		<g>
			<path class="st6" d="M78.5,85l3.6,0.2c0.2,1.2,1,2.9,1,2.9c2.9-5,5.1-11.7,5.6-14.3c-0.1-0.3-0.2-0.6-0.3-0.9
				c-0.1-0.4,0-1.1,0-1.5c0.1-0.6,0.3-1.4,0.3-1.8c0.2-1.1,0.3-1.3,0.7-1.2c0.5,0.2-0.2,3.2,0.2,3.2c0.2,0,0.5-1,0.6-1.8
				s0.5-3.4,0.7-3.6c0.4-0.3,0.8,0.1,0.7,1c-0.1,0.9-0.2,3.4,0.2,3.4c0.4,0,0.8-4.3,0.8-4.3s-0.1-0.9,0.4-0.9c0.9,0,0.2,4.6,0.1,5
				c-0.1,0.3,0.4,0.4,0.5,0c0-0.3,0.3-4.3,1.2-4.3c0.7,0-0.6,3.7-0.2,4.6s0.7-2.9,1.4-2.9c0.3,0,0.5,0.1,0,2.2c-0.3,1.2-1,3.3-1.7,5
				c-1.1,6-5.9,25-13.5,21.5c-4.2-2-6.2-11.6-6.2-11.6L78.5,85z"/>
			<g>
				<g>
					<path class="st7" d="M93.6,70.7C93.6,70.7,93.5,70.7,93.6,70.7c-0.2,0-0.3-0.1-0.3-0.3c0-0.3,0-0.6,0.1-1.1
						c0-0.5,0.2-1.1,0.2-1.8c0-0.3,0-0.7,0-1.1c0-0.2,0-0.4-0.1-0.6c0-0.2-0.2-0.4-0.3-0.4l0,0l0,0c-0.1,0-0.3,0.1-0.3,0.3
						c-0.1,0.2-0.1,0.4-0.1,0.6l0,0l0,0c-0.1,1.1-0.2,2.2-0.4,3.4c0,0.2-0.1,0.3-0.1,0.5c0,0.1-0.1,0.2-0.1,0.2s0,0.1-0.1,0.1
						c0,0-0.1,0.1-0.2,0.1c-0.2,0-0.2-0.1-0.3-0.2c0-0.1-0.1-0.2-0.1-0.3c0-0.2-0.1-0.3-0.1-0.5c0-0.7,0-1.4,0-2.1
						c0-0.4,0.1-0.7,0-1c0-0.2-0.1-0.3-0.2-0.4c-0.1,0-0.1,0-0.2,0h-0.1c0,0,0,0,0,0.1c-0.1,0.3-0.2,0.7-0.3,1
						c-0.1,0.4-0.1,0.7-0.2,1.1s-0.1,0.8-0.2,1.1c0,0.4-0.1,0.8-0.2,1.2c0,0.2-0.1,0.4-0.2,0.6c0,0.1-0.1,0.2-0.2,0.3
						c0,0-0.1,0.1-0.2,0.1s-0.1-0.1-0.2-0.2c-0.1-0.2,0-0.4,0-0.6s0-0.4,0-0.6c0-0.3,0.1-0.7,0.1-1c0-0.2,0-0.3,0-0.5
						c0-0.1,0-0.2-0.1-0.2v-0.1l0,0h-0.1c-0.3-0.1-0.4,0.3-0.4,0.6c-0.1,0.3-0.1,0.6-0.2,1c-0.1,0.6-0.2,1.3-0.3,1.9
						c0,0.3-0.1,0.6,0,0.9s0.2,0.6,0.3,0.9l0,0l0,0c-0.5,2.2-1.2,4.2-1.8,6c-0.7,1.8-1.3,3.3-1.9,4.5s-1.1,2.2-1.4,2.9
						c-0.2,0.3-0.3,0.6-0.4,0.7c-0.1,0.2-0.2,0.3-0.2,0.2c0,0,0-0.1,0.1-0.3c0.1-0.2,0.2-0.4,0.4-0.8c0.3-0.7,0.8-1.6,1.4-2.9
						c0.6-1.2,1.2-2.8,1.8-4.5c0.6-1.8,1.3-3.7,1.8-5.9v0.1c-0.1-0.3-0.2-0.6-0.3-0.9c-0.1-0.3-0.1-0.7-0.1-1
						c0.1-0.6,0.2-1.3,0.3-1.9c0.1-0.3,0.1-0.7,0.2-1c0-0.2,0.1-0.3,0.2-0.5c0-0.1,0.1-0.2,0.2-0.2s0.2,0,0.3,0h0.1
						c0,0,0.1,0,0.1,0.1c0.1,0,0.1,0.1,0.1,0.1c0,0.1,0.1,0.2,0.1,0.3c0,0.2,0,0.4,0,0.5c0,0.3,0,0.7-0.1,1c0,0.2,0,0.4,0,0.6
						s0,0.4,0,0.6c0,0,0,0,0,0.1l0,0l0,0l0,0l0,0l0,0l0,0c0-0.1,0.1-0.1,0.1-0.2c0.1-0.2,0.1-0.4,0.2-0.5c0.1-0.4,0.1-0.8,0.2-1.1
						c0-0.4,0.1-0.8,0.2-1.1c0.1-0.4,0.1-0.8,0.2-1.1c0.1-0.4,0.1-0.7,0.3-1.1l0.1-0.1c0,0,0.1,0,0.2-0.1c0.1,0,0.2,0,0.3,0
						c0.2,0.1,0.3,0.3,0.3,0.5s0,0.4,0,0.6s0,0.3-0.1,0.5c-0.1,0.7-0.1,1.4,0,2c0,0.2,0,0.3,0.1,0.5c0,0.1,0,0.1,0.1,0.2v0.1l0,0
						c0,0,0,0,0-0.1v-0.1c0-0.1,0.1-0.1,0.1-0.2s0.1-0.3,0.1-0.4c0.2-1.2,0.4-2.4,0.5-3.4l0,0c0-0.2,0-0.4,0.1-0.6
						c0-0.1,0.1-0.2,0.2-0.3c0.1-0.1,0.2-0.1,0.3-0.1l0,0c0.2,0,0.3,0.1,0.4,0.2s0.1,0.2,0.1,0.3c0,0.2,0,0.4,0.1,0.6
						c0,0.4,0,0.8,0,1.1c0,0.7-0.2,1.3-0.2,1.8c-0.1,0.5-0.1,0.9-0.1,1.1C93.3,70.5,93.4,70.6,93.6,70.7
						C93.5,70.6,93.6,70.6,93.6,70.7z"/>
				</g>
			</g>
		</g>
	</g>
	<g>
		<g>
			<g>
				<path class="st8" d="M176.9,135.6c-7-4.9-8.6-14-8.3-22.2c0-1.4-0.1-2.8,0.5-4s2.2-2,3.4-1.4c1,0.5,1.5,1.7,2,2.6
					c0.8,1.3,1.9,2.4,3.2,3.1c0.9,0.5,1.9,0.7,2.8,0.3c1.2-0.6,1.3-2.3,1.3-3.6c0-2.5,0-5.1,0-7.6c0-1.4,0-2.7,0.4-4
					s1.4-2.5,2.6-2.8c1.3-0.4,2.9,0.4,3.2,1.7c0.1,0.6,0,1.1,0,1.7s0.3,1.2,0.8,1.3c0.5,0.2,1.1-0.2,1.5-0.6
					c1.4-1.4,2.4-3.1,3.2-4.9c0.9-1.8,1.7-3.6,3-5c1.3-1.5,3-2.7,5-2.8c1.9-0.1,4,1.1,4.5,3s-0.6,3.9-1.8,5.4
					c-1.8,2.3-3.9,4.3-6.3,6c-0.4,0.3-0.9,0.6-1.1,1.1c-0.3,0.9,0.6,1.8,1.5,2.1c1,0.3,2.1,0.2,3.2,0.4c1.1,0.1,2.2,0.6,2.6,1.6
					c0.6,1.4-0.6,2.8-1.7,3.8c-2.3,1.9-4.9,3.4-7.7,4.4c-1,0.4-2,0.7-2.9,1.4c-0.8,0.7-1.3,1.9-0.8,2.9s1.7,1.3,2.8,1.1
					c1-0.2,2-0.8,3-1.1c1.9-0.7,4.3-0.6,5.5,1c0.8,1.1,0.9,2.5,0.5,3.8s-1.2,2.3-2.1,3.4c-3,3.5-6.8,6.3-11.1,7.8
					C185.2,136.7,181.2,137.1,176.9,135.6"/>
			</g>
		</g>
		<g>
			<g>
				<g>
					<path class="st5" d="M176.8,141.6c0.3-3.2,1-7.1,2.2-11.2c1.2-4.1,2.9-8.5,4.8-13.1c0.5-1.1,1-2.3,1.4-3.4
						c0.5-1.1,0.9-2.2,1.5-3.2c1-2.1,2.2-4,3.4-5.8s2.3-3.5,3.4-5c1.1-1.5,2.2-3,3.2-4.2c2-2.5,3.9-4.3,5.3-5.6
						c0.7-0.6,1.2-1.1,1.6-1.4c0.2-0.1,0.3-0.3,0.4-0.3c0.1-0.1,0.1-0.1,0.1-0.1s0,0-0.1,0.1s-0.2,0.2-0.4,0.4
						c-0.4,0.3-0.9,0.8-1.5,1.4c-1.3,1.2-3.2,3.1-5.2,5.6c-1,1.3-2.1,2.7-3.2,4.2c-1.1,1.6-2.3,3.2-3.4,5c-1.2,1.8-2.3,3.7-3.3,5.8
						c-0.5,1-1,2.1-1.5,3.2s-1,2.2-1.4,3.4c-1.9,4.5-3.6,8.9-4.8,13.1c-1.2,4.1-1.9,7.9-2.3,11.1"/>
				</g>
			</g>
		</g>
		<g>
			<g>
				<g>
					<path class="st5" d="M186.8,110.8c0,0-0.1-0.2-0.1-0.6c-0.1-0.4-0.2-0.9-0.3-1.6c-0.2-1.4-0.4-3.2-0.6-5.3
						c-0.2-2.1-0.4-3.9-0.7-5.3c-0.1-0.7-0.2-1.2-0.3-1.6s-0.1-0.6-0.1-0.6s0.1,0.2,0.2,0.6c0.1,0.4,0.2,0.9,0.3,1.6
						c0.3,1.3,0.5,3.2,0.7,5.3c0.2,2,0.4,3.9,0.5,5.3c0.1,0.6,0.1,1.2,0.2,1.6C186.8,110.5,186.9,110.8,186.8,110.8z"/>
				</g>
			</g>
		</g>
		<g>
			<g>
				<g>
					<path class="st5" d="M204.3,107.5c0,0-0.2,0-0.7,0.1c-0.4,0-1.1,0.1-1.9,0.2c-1.6,0.2-3.8,0.5-6.2,0.9c-2.4,0.5-4.6,1-6.1,1.4
						c-0.8,0.2-1.4,0.4-1.8,0.5c-0.4,0.1-0.7,0.2-0.7,0.2s0.2-0.1,0.7-0.3c0.4-0.2,1-0.4,1.8-0.6c1.5-0.5,3.7-1,6.1-1.5
						c2.4-0.5,4.6-0.7,6.2-0.9c0.8-0.1,1.5-0.1,1.9-0.1C204,107.5,204.3,107.5,204.3,107.5z"/>
				</g>
			</g>
		</g>
		<g>
			<g>
				<g>
					<path class="st5" d="M179.2,130.1c0,0,0-0.1-0.1-0.2c-0.1-0.2-0.2-0.4-0.3-0.6c-0.3-0.5-0.6-1.4-1-2.4c-0.8-2-1.9-4.8-3.1-7.9
						c-1.1-3.1-2.2-5.9-3-7.9c-0.4-1-0.7-1.8-1-2.4c-0.1-0.3-0.2-0.5-0.3-0.6s-0.1-0.2-0.1-0.2s0,0.1,0.1,0.2
						c0.1,0.2,0.2,0.4,0.3,0.6c0.3,0.5,0.6,1.4,1,2.4c0.8,2,1.9,4.8,3.1,7.9c1.1,3.1,2.2,5.9,3,7.9c0.4,1,0.7,1.8,1,2.4
						c0.1,0.3,0.2,0.5,0.3,0.6C179.2,130,179.3,130.1,179.2,130.1z"/>
				</g>
			</g>
		</g>
		<g>
			<g>
				<g>
					<path class="st5" d="M202.4,122.7c0,0-0.1,0-0.2,0.1c-0.2,0.1-0.4,0.1-0.7,0.2c-0.6,0.2-1.5,0.5-2.5,0.8
						c-2.1,0.7-5,1.7-8.2,2.7c-3.2,1.1-6.1,2-8.2,2.7c-1.1,0.3-1.9,0.6-2.5,0.7c-0.3,0.1-0.5,0.1-0.7,0.2c-0.2,0-0.2,0.1-0.2,0
						c0,0,0.1,0,0.2-0.1c0.2-0.1,0.4-0.1,0.7-0.2c0.6-0.2,1.5-0.5,2.5-0.8c2.1-0.7,5-1.7,8.2-2.7c3.2-1.1,6.1-2,8.2-2.7
						c1.1-0.3,1.9-0.6,2.5-0.7c0.3-0.1,0.5-0.1,0.7-0.2C202.3,122.7,202.4,122.7,202.4,122.7z"/>
				</g>
			</g>
		</g>
	</g>
	<g>
		<g>
			<g>
				<g>
					<g>
						<g>
							<g>
								<path class="st5" d="M168.6,155.8l-48.6-0.2c-5.8,0-10.6-4.8-10.5-10.6L110,23c0-5.9,4.8-10.6,10.6-10.5l48.6,0.2
									c5.8,0,10.6,4.8,10.5,10.6l-0.5,121.9C179.3,151.1,174.5,155.8,168.6,155.8z"/>
							</g>
							<g>
								<path class="st3" d="M169.2,16.7h-9.4c-1.3,0-2.3,1.1-2.3,2.4v1.7c0,1.3-1,2.4-2.3,2.4L136.8,23c-1.3,0-2.3-1.1-2.3-2.4
									v-1.7c0-1.3-1-2.4-2.3-2.4h-3.3h-8.3c-4.1,0-7.4,3.3-7.5,7.4l-0.5,119c0,4.1,3.3,7.4,7.4,7.4l48.5,0.2
									c4.1,0,7.4-3.3,7.5-7.4l0.5-119C176.6,20,173.3,16.7,169.2,16.7z"/>
							</g>
						</g>
					</g>
				</g>
			</g>
		</g>
		<g>
			<g>
				<path class="st2" d="M171.8,123.1h-54.4c-1.4,0-2.6-1.2-2.6-2.6V43.1c0-1.4,1.2-2.6,2.6-2.6h54.4c1.4,0,2.6,1.2,2.6,2.6v77.4
					C174.4,121.9,173.3,123.1,171.8,123.1z"/>
				<g>
					<g>
						<path class="st14" d="M138.5,59.2L126.4,87c-1.6,3.7,1.3,7.7,5.3,7.3c8.4-0.9,21-2.2,29.8-3.1c4.3-0.4,6.5-5.5,3.8-8.9
							l-18.6-24.1C144.5,55.2,139.9,55.8,138.5,59.2z"/>
						<g class="st11">
							<path class="st12" d="M139.1,61c0,0,0-0.1,0.1-0.3c0-0.1,0.1-0.2,0.2-0.3c0.1-0.1,0.2-0.3,0.3-0.4c0.1-0.2,0.3-0.3,0.4-0.5
								c0.2-0.1,0.4-0.3,0.6-0.5c0.4-0.3,1.1-0.6,1.8-0.7c0.7-0.1,1.5-0.1,2.4,0.2c0.4,0.2,0.8,0.4,1.2,0.7c0.1,0.1,0.2,0.2,0.3,0.2
								c0.1,0.1,0.2,0.2,0.3,0.3c0.2,0.2,0.3,0.4,0.5,0.6c1.2,1.6,2.6,3.4,4.2,5.3c3.1,4,6.8,8.7,10.9,14c0.5,0.7,1,1.3,1.5,2
								c0.6,0.7,0.9,1.6,1,2.5c0.3,1.8-0.5,3.8-2.1,5c-0.8,0.6-1.7,0.9-2.7,1c-0.9,0.1-1.8,0.2-2.8,0.3c-1.9,0.2-3.7,0.4-5.7,0.6
								c-3.8,0.4-7.5,0.8-11.2,1.1c-1.8,0.2-3.6,0.4-5.3,0.5c-0.4,0-0.9,0.1-1.3,0.1L133,93h-0.7c-0.9,0-1.8-0.3-2.5-0.8
								c-1.5-1-2.4-2.7-2.3-4.4c0-0.2,0-0.4,0.1-0.6c0-0.2,0.1-0.4,0.1-0.6l0.2-0.6c0.1-0.2,0.2-0.4,0.2-0.5
								c0.3-0.7,0.6-1.4,0.9-2.1c1.2-2.7,2.3-5.2,3.3-7.5c2-4.6,3.7-8.3,4.9-10.9c0.6-1.3,1-2.3,1.4-2.9
								C138.9,61.4,139.1,61,139.1,61s-0.1,0.4-0.4,1.1c-0.3,0.7-0.7,1.7-1.2,3c-1.1,2.6-2.7,6.3-4.7,11c-1,2.3-2.1,4.8-3.3,7.6
								c-0.3,0.7-0.6,1.4-0.9,2.1c-0.1,0.2-0.2,0.4-0.2,0.5l-0.2,0.5c0,0.2-0.1,0.4-0.1,0.5c0,0.2,0,0.4,0,0.5c-0.1,1.5,0.7,3,2,3.8
								c0.6,0.4,1.4,0.7,2.2,0.7h0.6l0.6-0.1c0.4,0,0.9-0.1,1.3-0.1c1.7-0.2,3.5-0.4,5.3-0.6c3.6-0.4,7.3-0.8,11.1-1.2
								c1.9-0.2,3.8-0.4,5.7-0.6c0.9-0.1,1.9-0.2,2.8-0.3c0.9-0.1,1.7-0.4,2.4-0.9c1.4-1,2.1-2.8,1.8-4.4c-0.1-0.8-0.4-1.6-0.9-2.2
								c-0.5-0.7-1-1.3-1.5-2c-4-5.3-7.7-10-10.7-14c-1.5-2-2.9-3.8-4.1-5.4c-0.2-0.2-0.3-0.4-0.5-0.6c-0.1-0.1-0.1-0.2-0.2-0.3
								c-0.1-0.1-0.2-0.1-0.3-0.2c-0.3-0.3-0.7-0.5-1.1-0.7c-0.8-0.3-1.5-0.4-2.2-0.3c-0.7,0.1-1.3,0.3-1.7,0.6
								c-0.2,0.1-0.4,0.3-0.6,0.4c-0.2,0.2-0.3,0.3-0.4,0.4c-0.1,0.1-0.2,0.3-0.3,0.4c-0.1,0.1-0.1,0.2-0.2,0.3
								C139.2,61,139.1,61,139.1,61z"/>
						</g>
						<path class="st13" d="M141,67.4l1.8,11.1c0.1,0.9,0.9,1.6,1.9,1.5l0,0c1,0,1.7-0.8,1.7-1.8l0.1-11.3c0-0.9-0.7-1.5-1.6-1.4
							l-2.7,0.3C141.5,65.8,140.9,66.6,141,67.4z"/>
						<path class="st13" d="M148,85.5c-0.3,1.5-1.8,2.4-3.3,2.1s-2.4-1.8-2.1-3.3c0.3-1.5,1.8-2.4,3.3-2.1
							C147.4,82.6,148.4,84,148,85.5z"/>
					</g>
					<g>
						<path class="st14" d="M125.6,52.6l-9,8.3c-1.2,1.1-0.8,3.1,0.8,3.6c3.2,1.1,8.1,2.7,11.5,3.8c1.7,0.5,3.3-1,2.9-2.7l-2.9-11.9
							C128.4,52.1,126.7,51.6,125.6,52.6z"/>
						<g class="st11">
							<path class="st12" d="M125.5,53.4c0,0,0.1-0.2,0.3-0.3c0.3-0.2,0.7-0.3,1.3-0.2c0.3,0.1,0.6,0.2,0.9,0.5
								c0.3,0.3,0.5,0.7,0.6,1.1c0.2,0.8,0.4,1.7,0.7,2.7c0.5,2,1.1,4.3,1.8,6.9c0.1,0.3,0.2,0.7,0.2,1c0.1,0.4,0.1,0.8,0,1.2
								c-0.2,0.8-0.9,1.5-1.7,1.6c-0.4,0.1-0.9,0.1-1.3-0.1c-0.4-0.1-0.7-0.2-1.1-0.3c-0.7-0.2-1.4-0.5-2.2-0.7
								c-1.5-0.5-2.9-1-4.3-1.4c-0.7-0.2-1.4-0.5-2-0.7c-0.2-0.1-0.3-0.1-0.5-0.2l-0.2-0.1l-0.3-0.1c-0.4-0.2-0.7-0.5-0.9-0.8
								c-0.4-0.7-0.5-1.5-0.1-2.2c0.1-0.2,0.2-0.3,0.3-0.5l0.2-0.2l0.2-0.2c0.2-0.2,0.5-0.4,0.7-0.6c0.9-0.8,1.7-1.5,2.5-2.2
								c1.5-1.3,2.8-2.4,3.6-3.2C125,53.7,125.5,53.4,125.5,53.4s-0.4,0.5-1.2,1.3c-0.8,0.8-2,1.9-3.5,3.3c-0.7,0.7-1.6,1.5-2.4,2.3
								c-0.2,0.2-0.4,0.4-0.7,0.6l-0.2,0.2l-0.1,0.1c-0.1,0.1-0.2,0.2-0.2,0.3c-0.2,0.5-0.2,1.1,0.1,1.6c0.2,0.2,0.4,0.4,0.6,0.5
								l0.2,0.1l0.2,0.1c0.2,0.1,0.3,0.1,0.5,0.2c0.7,0.2,1.4,0.4,2,0.7c1.4,0.5,2.8,0.9,4.3,1.4c0.7,0.2,1.5,0.5,2.2,0.7
								c0.4,0.1,0.7,0.2,1.1,0.4c0.3,0.1,0.6,0.1,0.9,0.1c0.6-0.1,1.1-0.6,1.2-1.2c0.1-0.3,0.1-0.6,0-0.9s-0.2-0.7-0.2-1
								c-0.6-2.6-1.2-5-1.6-7c-0.2-1-0.4-1.9-0.6-2.7c-0.1-0.4-0.2-0.7-0.4-0.9c-0.2-0.2-0.5-0.4-0.7-0.5c-0.5-0.2-0.9,0-1.2,0.1
								C125.6,53.3,125.5,53.4,125.5,53.4z"/>
						</g>
						<path class="st13" d="M125.2,56l-1.1,4.4c-0.1,0.4,0.1,0.7,0.4,0.9l0,0c0.4,0.1,0.8,0,0.9-0.4l1.9-4.2c0.1-0.3,0-0.7-0.3-0.8
							l-1.1-0.3C125.6,55.5,125.3,55.7,125.2,56z"/>
						<path class="st13" d="M124.8,63.9c-0.4,0.5-1.1,0.6-1.5,0.2c-0.5-0.4-0.6-1.1-0.2-1.5c0.4-0.5,1.1-0.6,1.5-0.2
							C125,62.7,125.1,63.4,124.8,63.9z"/>
					</g>
					<g>
						<path class="st14" d="M160.2,55.2l-2,9.3c-0.3,1.2,0.9,2.3,2.1,1.9c2.6-0.8,6.4-2,9-2.8c1.3-0.4,1.7-2.1,0.6-3l-7.2-6.3
							C161.8,53.6,160.4,54,160.2,55.2z"/>
						<g class="st11">
							<path class="st12" d="M160.5,55.7c0,0,0-0.1,0.1-0.4c0.1-0.2,0.3-0.6,0.8-0.8c0.2-0.1,0.5-0.1,0.8-0.1s0.6,0.2,0.9,0.4
								c0.5,0.4,1,0.9,1.6,1.4c1.2,1,2.7,2.3,4.2,3.6c0.2,0.2,0.4,0.3,0.6,0.5c0.2,0.2,0.4,0.5,0.5,0.8c0.2,0.6,0.1,1.4-0.4,1.9
								c-0.2,0.3-0.5,0.5-0.9,0.6c-0.3,0.1-0.6,0.2-0.8,0.3c-0.6,0.2-1.1,0.3-1.7,0.5c-1.2,0.4-2.3,0.7-3.4,1
								c-0.5,0.2-1.1,0.3-1.6,0.5l-0.4,0.1l-0.2,0.1l-0.2,0.1c-0.3,0.1-0.7,0-1-0.1c-0.6-0.2-1-0.8-1.1-1.4c0-0.1,0-0.3,0-0.4v-0.2
								v-0.2c0.1-0.2,0.1-0.5,0.2-0.7c0.2-0.9,0.4-1.8,0.6-2.5c0.4-1.5,0.7-2.8,0.9-3.6C160.3,56.2,160.5,55.7,160.5,55.7
								s0,0.5-0.2,1.4c-0.1,0.9-0.4,2.1-0.7,3.7c-0.2,0.8-0.3,1.6-0.5,2.5c0,0.2-0.1,0.5-0.1,0.7v0.2v0.1c0,0.1,0,0.2,0,0.3
								c0.1,0.4,0.4,0.7,0.7,0.9c0.2,0.1,0.4,0.1,0.6,0.1h0.2l0.2-0.1l0.4-0.1c0.5-0.2,1.1-0.3,1.6-0.5c1.1-0.3,2.2-0.7,3.4-1
								c0.6-0.2,1.2-0.4,1.7-0.5c0.3-0.1,0.6-0.2,0.8-0.3s0.4-0.2,0.6-0.4c0.3-0.3,0.4-0.8,0.3-1.2c-0.1-0.2-0.2-0.4-0.3-0.5
								c-0.2-0.2-0.4-0.4-0.6-0.5c-1.6-1.4-3-2.7-4.1-3.7c-0.6-0.5-1.1-1-1.6-1.4c-0.4-0.4-0.9-0.5-1.3-0.4
								c-0.4,0.1-0.6,0.4-0.7,0.6C160.6,55.6,160.5,55.7,160.5,55.7z"/>
						</g>
						<path class="st13" d="M161.5,57.5l1.2,3.3c0.1,0.3,0.4,0.4,0.7,0.4l0,0c0.3-0.1,0.5-0.4,0.4-0.7l-0.7-3.5
							c0-0.3-0.3-0.4-0.6-0.3l-0.8,0.3C161.5,57,161.4,57.3,161.5,57.5z"/>
						<path class="st13" d="M164.8,62.7c0,0.5-0.4,0.9-0.9,0.8c-0.5,0-0.9-0.4-0.8-0.9c0-0.5,0.4-0.9,0.9-0.8
							C164.4,61.8,164.8,62.2,164.8,62.7z"/>
					</g>
					<g>
						<path class="st5" d="M121.9,96.5c0,0-0.1-0.1-0.3-0.3c-0.1-0.1-0.2-0.2-0.3-0.4c-0.1-0.2-0.3-0.3-0.4-0.5
							c-0.3-0.4-0.6-0.9-0.9-1.5s-0.5-1.3-0.7-2s-0.2-1.5-0.2-2.1c0-0.7,0.1-1.3,0.2-1.7c0-0.2,0.1-0.5,0.2-0.7
							c0-0.2,0.1-0.4,0.1-0.5c0.1-0.3,0.2-0.4,0.2-0.4s-0.2,0.6-0.3,1.6c-0.1,0.5-0.1,1.1-0.1,1.7s0.1,1.4,0.2,2.1
							c0.2,0.7,0.4,1.4,0.6,2c0.3,0.6,0.5,1.1,0.8,1.5C121.5,96,121.9,96.4,121.9,96.5z"/>
					</g>
					<g>
						<path class="st5" d="M125.8,97c0,0-0.1-0.1-0.4-0.2c-0.1-0.1-0.3-0.2-0.4-0.3c-0.2-0.1-0.3-0.3-0.5-0.5
							c-0.4-0.4-0.8-0.9-1.2-1.4c-0.4-0.6-0.7-1.3-1-2c-0.3-0.8-0.5-1.5-0.5-2.2c-0.1-0.7-0.1-1.3-0.1-1.8c0-0.3,0.1-0.5,0.1-0.7
							s0.1-0.4,0.1-0.5C122,87.1,122,87,122,87s-0.1,0.6-0.1,1.7c0,0.5,0,1.1,0.1,1.8c0.1,0.7,0.3,1.4,0.6,2.1c0.3,0.7,0.6,1.4,1,2
							s0.8,1.1,1.1,1.4C125.3,96.6,125.9,97,125.8,97z"/>
					</g>
					<g>
						<path class="st5" d="M167.8,92.2c0,0,0.3-0.6,0.7-1.7c0.2-0.5,0.4-1.2,0.6-1.9c0.2-0.7,0.3-1.6,0.3-2.4c0-0.9,0-1.7-0.1-2.5
							s-0.2-1.4-0.4-2c-0.3-1.1-0.6-1.8-0.5-1.8c0,0,0.1,0.2,0.2,0.5c0.1,0.3,0.3,0.7,0.5,1.3c0.2,0.6,0.3,1.2,0.4,2
							c0.1,0.8,0.1,1.6,0.1,2.5s-0.2,1.7-0.3,2.5c-0.2,0.8-0.4,1.4-0.6,2c-0.2,0.5-0.4,1-0.6,1.2C167.9,92.1,167.8,92.3,167.8,92.2z
							"/>
					</g>
					<g>
						<path class="st5" d="M171.4,91.3c0,0,0.2-0.5,0.5-1.4c0.2-0.4,0.3-1,0.4-1.6c0.1-0.6,0.2-1.3,0.2-2s-0.1-1.4-0.2-2
							c-0.1-0.6-0.3-1.1-0.4-1.6c-0.3-0.9-0.6-1.4-0.6-1.4s0.1,0.1,0.2,0.3c0.1,0.2,0.3,0.6,0.5,1s0.4,1,0.5,1.6s0.2,1.3,0.2,2
							s-0.1,1.4-0.2,2c-0.1,0.6-0.3,1.2-0.5,1.6s-0.3,0.8-0.5,1C171.5,91.2,171.4,91.3,171.4,91.3z"/>
					</g>
				</g>
				<g>
					<path class="st15" d="M169.1,117h-46.9c-1.1,0-1.9-0.9-1.9-1.9v-9.3c0-1.1,0.9-1.9,1.9-1.9h46.9c1.1,0,1.9,0.9,1.9,1.9v9.3
						C171,116.1,170.1,117,169.1,117z"/>
				</g>
				<rect x="114.8" y="36.9" class="st1" width="59.6" height="8.2"/>
			</g>
			<circle class="st4" cx="118.5" cy="41.1" r="1.1"/>
			<circle class="st4" cx="123.1" cy="41.1" r="1.1"/>
			<path class="st4" d="M128.8,41.1c0,0.6-0.5,1.1-1.1,1.1s-1.1-0.5-1.1-1.1s0.5-1.1,1.1-1.1S128.8,40.5,128.8,41.1z"/>
		</g>
	</g>
	<g>
		<g>
			<path class="st5" d="M80.2,51.7c-0.5-0.1-2.7-0.7-7.1-1.7h0.1c-1.6,1-3.7,1.8-6.1,1.8c-1.2,0-2.5-0.2-3.8-0.6
				c-1.3-0.4-2.5-1.1-3.7-2c-2.3-1.8-4.1-4.6-4.5-7.9c-0.2-1.6-0.1-3.3,0.4-5c0.5-1.6,1.4-3.2,2.6-4.5c0.6-0.7,1.3-1.3,2-1.8
				c0.4-0.2,0.8-0.5,1.2-0.7l0.6-0.3l0.3-0.1l0.3-0.1c1.6-0.6,3.4-0.9,5.1-0.8c1.7,0.1,3.3,0.6,4.7,1.3c1.4,0.7,2.6,1.7,3.6,2.9
				c1,1.1,1.6,2.4,2.1,3.7c0.4,1.3,0.6,2.6,0.7,3.8c0,2.5-0.8,4.6-1.7,6.1v-0.1C79,49.5,80,51.3,80.2,51.7C80,51.3,79,49.5,76.9,46
				l0,0l0,0c0.9-1.5,1.7-3.6,1.6-6.1c0-1.2-0.2-2.5-0.7-3.8c-0.4-1.3-1.1-2.5-2.1-3.6c-0.9-1.1-2.1-2.1-3.5-2.8
				c-1.4-0.7-3-1.2-4.6-1.3c-1.7-0.1-3.4,0.1-5,0.8l-0.3,0.1L62,29.4l-0.6,0.3c-0.4,0.2-0.8,0.4-1.1,0.7c-0.7,0.5-1.4,1.1-2,1.7
				c-1.2,1.3-2,2.8-2.5,4.4c-0.5,1.6-0.6,3.3-0.4,4.9c0.4,3.2,2.1,6,4.4,7.7c1.1,0.9,2.4,1.5,3.6,1.9c1.3,0.4,2.5,0.5,3.7,0.6
				c2.4,0,4.5-0.8,6-1.8l0,0l0,0C77.5,51,79.7,51.6,80.2,51.7z"/>
		</g>
		<path class="st14" d="M65.9,34.7l0.4,5.9c0,0.5,0.4,0.9,0.9,0.9l0,0c0.5,0,1-0.3,1-0.9l0.7-5.9c0-0.4-0.3-0.8-0.8-0.8h-1.4
			C66.2,33.9,65.9,34.3,65.9,34.7z"/>
		<path class="st14" d="M68.8,44.8c-0.3,0.8-1.1,1.2-1.8,0.9c-0.8-0.3-1.2-1.1-0.9-1.8c0.3-0.8,1.1-1.2,1.8-0.9
			C68.6,43.3,69,44.1,68.8,44.8z"/>
	</g>
</g>
<g>
	<path class="st14" d="M126.4,107.7h2.2c0.5,0,1,0.1,1.2,0.4c0.2,0.2,0.3,0.5,0.3,0.8v0c0,0.1,0,0.3-0.1,0.4c0,0.1-0.1,0.2-0.1,0.3
		c-0.1,0.1-0.1,0.2-0.2,0.2c-0.1,0.1-0.2,0.1-0.2,0.2c0.3,0.1,0.5,0.2,0.6,0.4c0.2,0.2,0.2,0.4,0.2,0.7v0c0,0.2,0,0.4-0.1,0.6
		c-0.1,0.2-0.2,0.3-0.4,0.4c-0.2,0.1-0.3,0.2-0.6,0.2c-0.2,0.1-0.5,0.1-0.7,0.1h-2.2V107.7z M128.4,109.6c0.2,0,0.4,0,0.5-0.1
		c0.1-0.1,0.2-0.2,0.2-0.4v0c0-0.2-0.1-0.3-0.2-0.4c-0.1-0.1-0.3-0.1-0.5-0.1h-1v1H128.4z M128.6,111.5c0.2,0,0.4,0,0.5-0.1
		c0.1-0.1,0.2-0.2,0.2-0.4v0c0-0.2-0.1-0.3-0.2-0.4c-0.1-0.1-0.3-0.1-0.6-0.1h-1.2v1H128.6z"/>
	<path class="st14" d="M131.3,107.7h1v3.8h2.3v0.9h-3.4V107.7z"/>
	<path class="st14" d="M137,107.7h1l2,4.7h-1.1l-0.4-1.1h-2l-0.4,1.1H135L137,107.7z M138.1,110.4l-0.6-1.5l-0.6,1.5H138.1z"/>
	<path class="st14" d="M142.9,112.5c-0.3,0-0.7-0.1-1-0.2c-0.3-0.1-0.6-0.3-0.8-0.5c-0.2-0.2-0.4-0.5-0.5-0.8
		c-0.1-0.3-0.2-0.6-0.2-0.9v0c0-0.3,0.1-0.7,0.2-0.9c0.1-0.3,0.3-0.6,0.5-0.8c0.2-0.2,0.5-0.4,0.8-0.5c0.3-0.1,0.6-0.2,1-0.2
		c0.2,0,0.4,0,0.6,0.1c0.2,0,0.3,0.1,0.5,0.1c0.1,0.1,0.3,0.1,0.4,0.2s0.2,0.2,0.4,0.3l-0.7,0.8c-0.2-0.2-0.4-0.3-0.6-0.4
		c-0.2-0.1-0.4-0.1-0.6-0.1c-0.2,0-0.4,0-0.5,0.1c-0.2,0.1-0.3,0.2-0.4,0.3c-0.1,0.1-0.2,0.3-0.3,0.5c-0.1,0.2-0.1,0.4-0.1,0.6v0
		c0,0.2,0,0.4,0.1,0.6c0.1,0.2,0.2,0.3,0.3,0.5c0.1,0.1,0.3,0.2,0.4,0.3c0.2,0.1,0.4,0.1,0.6,0.1c0.3,0,0.5,0,0.7-0.1
		c0.2-0.1,0.4-0.2,0.6-0.4l0.7,0.7c-0.1,0.1-0.2,0.2-0.4,0.3c-0.1,0.1-0.3,0.2-0.4,0.3c-0.2,0.1-0.3,0.1-0.5,0.2
		S143.2,112.5,142.9,112.5z"/>
	<path class="st14" d="M145.7,107.7h1v2.1l1.9-2.1h1.3l-1.9,2l2,2.7h-1.2l-1.5-2l-0.5,0.6v1.4h-1V107.7z"/>
	<path class="st14" d="M150.6,107.7h1v3.8h2.3v0.9h-3.4V107.7z"/>
	<path class="st14" d="M154.8,107.7h1v4.7h-1V107.7z"/>
	<path class="st14" d="M158.7,112.5c-0.4,0-0.7-0.1-1.1-0.2c-0.3-0.1-0.7-0.3-0.9-0.6l0.6-0.7c0.2,0.2,0.4,0.3,0.7,0.4
		s0.5,0.2,0.7,0.2c0.2,0,0.4,0,0.5-0.1c0.1-0.1,0.2-0.2,0.2-0.3v0c0-0.1,0-0.1,0-0.2c0-0.1-0.1-0.1-0.1-0.1c-0.1,0-0.2-0.1-0.3-0.1
		c-0.1,0-0.3-0.1-0.5-0.1c-0.2-0.1-0.5-0.1-0.6-0.2c-0.2-0.1-0.4-0.2-0.5-0.3c-0.1-0.1-0.2-0.2-0.3-0.4c-0.1-0.2-0.1-0.4-0.1-0.6v0
		c0-0.2,0-0.4,0.1-0.6c0.1-0.2,0.2-0.3,0.3-0.4c0.1-0.1,0.3-0.2,0.5-0.3c0.2-0.1,0.4-0.1,0.7-0.1c0.3,0,0.7,0.1,1,0.2
		c0.3,0.1,0.6,0.3,0.8,0.4l-0.5,0.8c-0.2-0.1-0.4-0.3-0.6-0.3s-0.4-0.1-0.6-0.1c-0.2,0-0.4,0-0.5,0.1c-0.1,0.1-0.2,0.2-0.2,0.3v0
		c0,0.1,0,0.1,0,0.2c0,0.1,0.1,0.1,0.2,0.2c0.1,0,0.2,0.1,0.3,0.1c0.1,0,0.3,0.1,0.5,0.1c0.2,0.1,0.5,0.1,0.6,0.2
		c0.2,0.1,0.3,0.2,0.5,0.3c0.1,0.1,0.2,0.2,0.3,0.4c0.1,0.1,0.1,0.3,0.1,0.5v0c0,0.2,0,0.4-0.1,0.6s-0.2,0.3-0.4,0.5
		c-0.2,0.1-0.3,0.2-0.5,0.3C159.2,112.4,159,112.5,158.7,112.5z"/>
	<path class="st14" d="M162.4,108.7H161v-1h3.9v1h-1.4v3.8h-1V108.7z"/>
</g>
</svg>
