<?xml version="1.0" encoding="utf-8"?>
<!-- Generator: Adobe Illustrator 25.2.1, SVG Export Plug-In . SVG Version: 6.00 Build 0)  -->
<svg version="1.1" id="Layer_1" xmlns="http://www.w3.org/2000/svg" xmlns:xlink="http://www.w3.org/1999/xlink" x="0px" y="0px"
	 viewBox="0 0 250 200" style="enable-background:new 0 0 250 200;" xml:space="preserve">
<style type="text/css">
	.st0{fill:#ECECEC;}
	.st1{fill:#E1E1E1;}
	.st2{fill:#1A2E35;}
	.st3{fill:#FFBF9D;}
	.st4{fill:#49B8FF;}
	.st5{opacity:0.4;}
	.st6{opacity:0.2;}
	.st7{fill:#375A64;}
	.st8{fill:#FAFAFA;}
	.st9{opacity:0.3;}
	.st10{fill:#FF9A6C;}
	.st11{opacity:0.5;}
	.st12{fill:#FFFFFF;}
	.st13{fill:none;stroke:#E1E1E1;stroke-width:0.4079;stroke-miterlimit:10;}
	.st14{fill:#FFC8A5;}
	.st15{fill:#F68358;}
	.st16{fill:#D8765F;}
	.st17{fill:#8D4032;}
	.st18{fill:#F5F5F5;}
	.st19{fill:#F0F0F0;}
	.st20{fill:#E7E7E7;}
	.st21{fill:none;stroke:#FFFFFF;stroke-linecap:round;stroke-linejoin:round;stroke-miterlimit:10;}
	.st22{opacity:0.2;enable-background:new    ;}
	.st23{opacity:0.1;}
	.st24{opacity:0.6;fill:#FFFFFF;enable-background:new    ;}
	.st25{fill:#FFBE9C;}
	.st26{fill:#EE9E82;}
	.st27{opacity:0.4;fill:#FFFFFF;enable-background:new    ;}
	.st28{opacity:0.1;fill:#FFFFFF;enable-background:new    ;}
	.st29{fill:#0097D5;}
	.st30{fill:#E2E2E2;}
	.st31{fill:#B7B7B7;}
	.st32{fill:#BCBCBC;}
	.st33{fill:#B3B3B3;}
	.st34{fill:#AFDFFA;}
	.st35{fill:#7A7A7A;}
	.st36{fill:#E0E0E0;}
	.st37{fill:#E1F4FF;}
	.st38{fill:#A8A8A8;}
	.st39{opacity:0.6;}
	.st40{opacity:0.99;}
	.st41{clip-path:url(#SVGID_2_);}
	.st42{opacity:0.5;fill:#FFFFFF;}
	.st43{fill:#FF4F5B;}
	.st44{fill:none;stroke:#FF4F5B;stroke-width:0.4507;stroke-miterlimit:10;}
</style>
<g>
	<g>
		<rect y="170.6" class="st0" width="250" height="0.1"/>
		<rect x="208.4" y="178.6" class="st0" width="16.6" height="0.1"/>
		<rect x="161.3" y="180" class="st0" width="4.3" height="0.1"/>
		<rect x="198.3" y="174" class="st0" width="9.6" height="0.1"/>
		<rect x="26.2" y="174.8" class="st0" width="21.6" height="0.1"/>
		<rect x="52.3" y="174.8" class="st0" width="3.2" height="0.1"/>
		<rect x="65.7" y="176.9" class="st0" width="46.8" height="0.1"/>
		<path class="st0" d="M118.5,148.3H22c-1.6,0-2.9-1.3-2.9-2.9V9.7c0-1.6,1.3-2.9,2.9-2.9h96.5c1.6,0,2.9,1.3,2.9,2.9v135.7
			C121.4,147,120.1,148.3,118.5,148.3z M22,7c-1.5,0-2.7,1.2-2.7,2.7v135.7c0,1.5,1.2,2.7,2.7,2.7h96.5c1.5,0,2.7-1.2,2.7-2.7V9.7
			c0-1.5-1.2-2.7-2.7-2.7H22z"/>
		<path class="st0" d="M226.7,148.3h-96.5c-1.6,0-2.9-1.3-2.9-2.9V9.7c0-1.6,1.3-2.9,2.9-2.9h96.5c1.6,0,2.9,1.3,2.9,2.9v135.7
			C229.5,147,228.2,148.3,226.7,148.3z M130.1,7c-1.5,0-2.7,1.2-2.7,2.7v135.7c0,1.5,1.2,2.7,2.7,2.7h96.5c1.5,0,2.7-1.2,2.7-2.7
			V9.7c0-1.5-1.2-2.7-2.7-2.7H130.1z"/>
	</g>
	<g>
		<g>
			<rect x="60.4" y="32.4" class="st18" width="128" height="105.7"/>
			<rect x="60.4" y="34.7" class="st8" width="126" height="101.3"/>
			<g>
				<polygon class="st19" points="185.4,107.2 185.4,71.4 181.7,71.4 181.7,66.6 173.3,62.7 173.3,57.9 171.9,57.9 171.9,71.4 
					170.5,71.4 170.5,107.2 168.7,107.2 168.7,88.6 164.5,88.6 164.5,78.8 163.1,78.8 163.1,107.2 159.8,107.2 159.8,96.5 
					157.5,96.5 157.5,93.7 152.4,93.7 152.4,83.9 149.6,83.9 149.6,77.4 146.4,77.4 146.4,67.7 145,67.7 145,77.4 141.7,77.4 
					141.7,83.9 138.9,83.9 138.9,93.7 133.8,93.7 133.8,96.5 131.5,96.5 131.5,107.2 128.7,107.2 128.7,93.7 123.6,93.7 123.6,63.9 
					122.2,63.9 122.2,60.7 111,60.7 111,63.9 108.7,63.9 108.7,85.3 99.4,85.3 99.4,87.6 96.2,87.6 96.2,89 99.4,89 99.4,97.4 
					89.6,97.4 89.6,69.5 87.8,69.5 87.8,63.9 83.1,63.9 83.1,42.6 81.7,42.6 81.7,63.9 78.5,63.9 78.5,69.5 60.4,69.5 60.4,136 
					186.3,136 186.3,107.2 				"/>
				<g>
					<rect x="70.1" y="71" class="st18" width="1.3" height="1.3"/>
					<rect x="70.1" y="73.2" class="st18" width="1.3" height="1.3"/>
					<rect x="70.1" y="82" class="st18" width="1.3" height="1.3"/>
					<rect x="70.1" y="84.2" class="st18" width="1.3" height="1.3"/>
					<rect x="70.1" y="86.4" class="st18" width="1.3" height="1.3"/>
					<rect x="70.1" y="93.1" class="st18" width="1.3" height="1.3"/>
					<rect x="70.1" y="95.3" class="st18" width="1.3" height="1.3"/>
					<rect x="72.1" y="79.8" class="st18" width="1.3" height="1.3"/>
					<rect x="72.1" y="82" class="st18" width="1.3" height="1.3"/>
					<rect x="72.1" y="84.2" class="st18" width="1.3" height="1.3"/>
					<rect x="72.1" y="86.4" class="st18" width="1.3" height="1.3"/>
					<rect x="72.1" y="88.6" class="st18" width="1.3" height="1.3"/>
					<rect x="72.1" y="93.1" class="st18" width="1.3" height="1.3"/>
					<rect x="72.1" y="95.3" class="st18" width="1.3" height="1.3"/>
					<rect x="74.2" y="71" class="st18" width="1.3" height="1.3"/>
					<rect x="74.2" y="73.2" class="st18" width="1.3" height="1.3"/>
					<rect x="74.2" y="75.4" class="st18" width="1.3" height="1.3"/>
					<rect x="74.2" y="77.6" class="st18" width="1.3" height="1.3"/>
					<rect x="74.2" y="79.8" class="st18" width="1.3" height="1.3"/>
					<rect x="74.2" y="82" class="st18" width="1.3" height="1.3"/>
					<rect x="74.2" y="84.2" class="st18" width="1.3" height="1.3"/>
					<rect x="74.2" y="86.4" class="st18" width="1.3" height="1.3"/>
					<rect x="74.2" y="88.6" class="st18" width="1.3" height="1.3"/>
					<rect x="74.2" y="90.8" class="st18" width="1.3" height="1.3"/>
					<rect x="74.2" y="95.3" class="st18" width="1.3" height="1.3"/>
					<rect x="76.3" y="71" class="st18" width="1.3" height="1.3"/>
					<rect x="76.3" y="73.2" class="st18" width="1.3" height="1.3"/>
					<rect x="76.3" y="75.4" class="st18" width="1.3" height="1.3"/>
					<rect x="76.3" y="77.6" class="st18" width="1.3" height="1.3"/>
					<rect x="76.3" y="79.8" class="st18" width="1.3" height="1.3"/>
					<rect x="76.3" y="82" class="st18" width="1.3" height="1.3"/>
					<rect x="76.3" y="84.2" class="st18" width="1.3" height="1.3"/>
					<rect x="76.3" y="104.1" class="st18" width="1.3" height="1.3"/>
					<rect x="78.4" y="71" class="st18" width="1.3" height="1.3"/>
					<rect x="78.4" y="73.2" class="st18" width="1.3" height="1.3"/>
					<rect x="78.4" y="75.4" class="st18" width="1.3" height="1.3"/>
					<rect x="78.4" y="77.6" class="st18" width="1.3" height="1.3"/>
					<rect x="78.4" y="79.8" class="st18" width="1.3" height="1.3"/>
					<rect x="78.4" y="82" class="st18" width="1.3" height="1.3"/>
					<rect x="78.4" y="84.2" class="st18" width="1.3" height="1.3"/>
					<rect x="78.4" y="86.4" class="st18" width="1.3" height="1.3"/>
					<rect x="78.4" y="99.7" class="st18" width="1.3" height="1.3"/>
					<rect x="78.4" y="101.9" class="st18" width="1.3" height="1.3"/>
					<rect x="78.4" y="104.1" class="st18" width="1.3" height="1.3"/>
					<rect x="78.4" y="106.3" class="st18" width="1.3" height="1.3"/>
					<rect x="78.4" y="115.1" class="st18" width="1.3" height="1.3"/>
					<rect x="80.5" y="71" class="st18" width="1.3" height="1.3"/>
					<rect x="80.5" y="73.2" class="st18" width="1.3" height="1.3"/>
					<rect x="80.5" y="75.4" class="st18" width="1.3" height="1.3"/>
					<rect x="80.5" y="77.6" class="st18" width="1.3" height="1.3"/>
					<rect x="80.5" y="79.8" class="st18" width="1.3" height="1.3"/>
					<rect x="80.5" y="82" class="st18" width="1.3" height="1.3"/>
					<rect x="80.5" y="84.2" class="st18" width="1.3" height="1.3"/>
					<rect x="80.5" y="86.4" class="st18" width="1.3" height="1.3"/>
					<rect x="80.5" y="88.6" class="st18" width="1.3" height="1.3"/>
					<rect x="80.5" y="90.8" class="st18" width="1.3" height="1.3"/>
					<rect x="80.5" y="97.5" class="st18" width="1.3" height="1.3"/>
					<rect x="80.5" y="99.7" class="st18" width="1.3" height="1.3"/>
					<rect x="80.5" y="101.9" class="st18" width="1.3" height="1.3"/>
					<rect x="80.5" y="104.1" class="st18" width="1.3" height="1.3"/>
					<rect x="80.5" y="106.3" class="st18" width="1.3" height="1.3"/>
					<rect x="80.5" y="115.1" class="st18" width="1.3" height="1.3"/>
					<rect x="82.6" y="71" class="st18" width="1.3" height="1.3"/>
					<rect x="82.6" y="73.2" class="st18" width="1.3" height="1.3"/>
					<rect x="82.6" y="75.4" class="st18" width="1.3" height="1.3"/>
					<rect x="82.6" y="77.6" class="st18" width="1.3" height="1.3"/>
					<rect x="82.6" y="79.8" class="st18" width="1.3" height="1.3"/>
					<rect x="82.6" y="82" class="st18" width="1.3" height="1.3"/>
					<rect x="82.6" y="84.2" class="st18" width="1.3" height="1.3"/>
					<rect x="82.6" y="86.4" class="st18" width="1.3" height="1.3"/>
					<rect x="82.6" y="88.6" class="st18" width="1.3" height="1.3"/>
					<rect x="82.6" y="90.8" class="st18" width="1.3" height="1.3"/>
					<rect x="82.6" y="93.1" class="st18" width="1.3" height="1.3"/>
					<rect x="82.6" y="95.3" class="st18" width="1.3" height="1.3"/>
					<rect x="82.6" y="97.5" class="st18" width="1.3" height="1.3"/>
					<rect x="82.6" y="99.7" class="st18" width="1.3" height="1.3"/>
					<rect x="82.6" y="101.9" class="st18" width="1.3" height="1.3"/>
					<rect x="82.6" y="104.1" class="st18" width="1.3" height="1.3"/>
					<rect x="82.6" y="106.3" class="st18" width="1.3" height="1.3"/>
					<rect x="82.6" y="108.5" class="st18" width="1.3" height="1.3"/>
					<rect x="84.7" y="71" class="st18" width="1.3" height="1.3"/>
					<rect x="84.7" y="73.2" class="st18" width="1.3" height="1.3"/>
					<rect x="84.7" y="75.4" class="st18" width="1.3" height="1.3"/>
					<rect x="84.7" y="77.6" class="st18" width="1.3" height="1.3"/>
					<rect x="84.7" y="79.8" class="st18" width="1.3" height="1.3"/>
					<rect x="84.7" y="82" class="st18" width="1.3" height="1.3"/>
					<rect x="84.7" y="84.2" class="st18" width="1.3" height="1.3"/>
					<rect x="84.7" y="86.4" class="st18" width="1.3" height="1.3"/>
					<rect x="84.7" y="88.6" class="st18" width="1.3" height="1.3"/>
					<rect x="84.7" y="90.8" class="st18" width="1.3" height="1.3"/>
					<rect x="84.7" y="97.5" class="st18" width="1.3" height="1.3"/>
					<rect x="84.7" y="99.7" class="st18" width="1.3" height="1.3"/>
					<rect x="84.7" y="101.9" class="st18" width="1.3" height="1.3"/>
					<rect x="84.7" y="104.1" class="st18" width="1.3" height="1.3"/>
					<rect x="86.8" y="71" class="st18" width="1.3" height="1.3"/>
					<rect x="86.8" y="73.2" class="st18" width="1.3" height="1.3"/>
					<rect x="86.8" y="75.4" class="st18" width="1.3" height="1.3"/>
					<rect x="86.8" y="77.6" class="st18" width="1.3" height="1.3"/>
					<rect x="86.8" y="79.8" class="st18" width="1.3" height="1.3"/>
					<rect x="86.8" y="82" class="st18" width="1.3" height="1.3"/>
					<rect x="86.8" y="84.2" class="st18" width="1.3" height="1.3"/>
					<rect x="86.8" y="86.4" class="st18" width="1.3" height="1.3"/>
					<rect x="86.8" y="88.6" class="st18" width="1.3" height="1.3"/>
					<rect x="86.8" y="90.8" class="st18" width="1.3" height="1.3"/>
					<rect x="86.8" y="97.5" class="st18" width="1.3" height="1.3"/>
					<rect x="86.8" y="99.7" class="st18" width="1.3" height="1.3"/>
					<rect x="86.8" y="101.9" class="st18" width="1.3" height="1.3"/>
					<rect x="110.3" y="65.2" class="st18" width="1.3" height="1.3"/>
					<rect x="110.3" y="67.4" class="st18" width="1.3" height="1.3"/>
					<rect x="110.3" y="69.7" class="st18" width="1.3" height="1.3"/>
					<rect x="110.3" y="71.9" class="st18" width="1.3" height="1.3"/>
					<rect x="110.3" y="74.1" class="st18" width="1.3" height="1.3"/>
					<rect x="110.3" y="76.3" class="st18" width="1.3" height="1.3"/>
					<rect x="110.3" y="78.5" class="st18" width="1.3" height="1.3"/>
					<rect x="110.3" y="80.7" class="st18" width="1.3" height="1.3"/>
					<rect x="110.3" y="87.3" class="st18" width="1.3" height="1.3"/>
					<rect x="110.3" y="89.5" class="st18" width="1.3" height="1.3"/>
					<rect x="112.4" y="65.2" class="st18" width="1.3" height="1.3"/>
					<rect x="112.4" y="67.4" class="st18" width="1.3" height="1.3"/>
					<rect x="112.4" y="69.7" class="st18" width="1.3" height="1.3"/>
					<rect x="112.4" y="71.9" class="st18" width="1.3" height="1.3"/>
					<rect x="112.4" y="74.1" class="st18" width="1.3" height="1.3"/>
					<rect x="112.4" y="76.3" class="st18" width="1.3" height="1.3"/>
					<rect x="112.4" y="78.5" class="st18" width="1.3" height="1.3"/>
					<rect x="112.4" y="80.7" class="st18" width="1.3" height="1.3"/>
					<rect x="112.4" y="89.5" class="st18" width="1.3" height="1.3"/>
					<rect x="114.5" y="65.2" class="st18" width="1.3" height="1.3"/>
					<rect x="114.5" y="67.4" class="st18" width="1.3" height="1.3"/>
					<rect x="114.5" y="69.7" class="st18" width="1.3" height="1.3"/>
					<rect x="114.5" y="71.9" class="st18" width="1.3" height="1.3"/>
					<rect x="114.5" y="74.1" class="st18" width="1.3" height="1.3"/>
					<rect x="114.5" y="76.3" class="st18" width="1.3" height="1.3"/>
					<rect x="114.5" y="78.5" class="st18" width="1.3" height="1.3"/>
					<rect x="114.5" y="80.7" class="st18" width="1.3" height="1.3"/>
					<rect x="116.6" y="65.2" class="st18" width="1.3" height="1.3"/>
					<rect x="116.6" y="67.4" class="st18" width="1.3" height="1.3"/>
					<rect x="116.6" y="69.7" class="st18" width="1.3" height="1.3"/>
					<rect x="116.6" y="71.9" class="st18" width="1.3" height="1.3"/>
					<rect x="116.6" y="74.1" class="st18" width="1.3" height="1.3"/>
					<rect x="116.6" y="76.3" class="st18" width="1.3" height="1.3"/>
					<rect x="116.6" y="80.7" class="st18" width="1.3" height="1.3"/>
					<rect x="116.6" y="82.9" class="st18" width="1.3" height="1.3"/>
					<rect x="116.6" y="89.5" class="st18" width="1.3" height="1.3"/>
					<rect x="116.6" y="91.7" class="st18" width="1.3" height="1.3"/>
					<rect x="116.6" y="93.9" class="st18" width="1.3" height="1.3"/>
					<rect x="116.6" y="96.2" class="st18" width="1.3" height="1.3"/>
					<rect x="116.6" y="98.4" class="st18" width="1.3" height="1.3"/>
					<rect x="116.6" y="100.6" class="st18" width="1.3" height="1.3"/>
					<rect x="116.6" y="102.8" class="st18" width="1.3" height="1.3"/>
					<rect x="118.7" y="65.2" class="st18" width="1.3" height="1.3"/>
					<rect x="118.7" y="67.4" class="st18" width="1.3" height="1.3"/>
					<rect x="118.7" y="69.7" class="st18" width="1.3" height="1.3"/>
					<rect x="118.7" y="71.9" class="st18" width="1.3" height="1.3"/>
					<rect x="118.7" y="74.1" class="st18" width="1.3" height="1.3"/>
					<rect x="118.7" y="76.3" class="st18" width="1.3" height="1.3"/>
					<rect x="118.7" y="82.9" class="st18" width="1.3" height="1.3"/>
					<rect x="118.7" y="85.1" class="st18" width="1.3" height="1.3"/>
					<rect x="118.7" y="87.3" class="st18" width="1.3" height="1.3"/>
					<rect x="118.7" y="89.5" class="st18" width="1.3" height="1.3"/>
					<rect x="118.7" y="91.7" class="st18" width="1.3" height="1.3"/>
					<rect x="118.7" y="93.9" class="st18" width="1.3" height="1.3"/>
					<rect x="118.7" y="96.2" class="st18" width="1.3" height="1.3"/>
					<rect x="118.7" y="98.4" class="st18" width="1.3" height="1.3"/>
					<rect x="118.7" y="100.6" class="st18" width="1.3" height="1.3"/>
					<rect x="118.7" y="102.8" class="st18" width="1.3" height="1.3"/>
					<rect x="118.7" y="105" class="st18" width="1.3" height="1.3"/>
					<rect x="118.7" y="109.4" class="st18" width="1.3" height="1.3"/>
					<rect x="120.8" y="65.2" class="st18" width="1.3" height="1.3"/>
					<rect x="120.8" y="67.4" class="st18" width="1.3" height="1.3"/>
					<rect x="120.8" y="69.7" class="st18" width="1.3" height="1.3"/>
					<rect x="120.8" y="71.9" class="st18" width="1.3" height="1.3"/>
					<rect x="120.8" y="74.1" class="st18" width="1.3" height="1.3"/>
					<rect x="120.8" y="76.3" class="st18" width="1.3" height="1.3"/>
					<rect x="120.8" y="82.9" class="st18" width="1.3" height="1.3"/>
					<rect x="120.8" y="85.1" class="st18" width="1.3" height="1.3"/>
					<rect x="120.8" y="87.3" class="st18" width="1.3" height="1.3"/>
					<rect x="120.8" y="89.5" class="st18" width="1.3" height="1.3"/>
					<rect x="120.8" y="96.2" class="st18" width="1.3" height="1.3"/>
					<rect x="120.8" y="98.4" class="st18" width="1.3" height="1.3"/>
					<rect x="120.8" y="100.6" class="st18" width="1.3" height="1.3"/>
					<rect x="120.8" y="102.8" class="st18" width="1.3" height="1.3"/>
					<rect x="120.8" y="105" class="st18" width="1.3" height="1.3"/>
					<rect x="120.8" y="109.4" class="st18" width="1.3" height="1.3"/>
					<rect x="120.8" y="111.6" class="st18" width="1.3" height="1.3"/>
					<rect x="139.8" y="85.8" class="st18" width="1.3" height="1.3"/>
					<rect x="139.8" y="88" class="st18" width="1.3" height="1.3"/>
					<rect x="139.8" y="90.2" class="st18" width="1.3" height="1.3"/>
					<rect x="139.8" y="92.4" class="st18" width="1.3" height="1.3"/>
					<rect x="139.8" y="94.6" class="st18" width="1.3" height="1.3"/>
					<rect x="139.8" y="96.8" class="st18" width="1.3" height="1.3"/>
					<rect x="139.8" y="99" class="st18" width="1.3" height="1.3"/>
					<rect x="139.8" y="105.6" class="st18" width="1.3" height="1.3"/>
					<rect x="139.8" y="107.9" class="st18" width="1.3" height="1.3"/>
					<rect x="139.8" y="110.1" class="st18" width="1.3" height="1.3"/>
					<rect x="141.9" y="85.8" class="st18" width="1.3" height="1.3"/>
					<rect x="141.9" y="88" class="st18" width="1.3" height="1.3"/>
					<rect x="141.9" y="90.2" class="st18" width="1.3" height="1.3"/>
					<rect x="141.9" y="92.4" class="st18" width="1.3" height="1.3"/>
					<rect x="141.9" y="94.6" class="st18" width="1.3" height="1.3"/>
					<rect x="141.9" y="96.8" class="st18" width="1.3" height="1.3"/>
					<rect x="141.9" y="99" class="st18" width="1.3" height="1.3"/>
					<rect x="144" y="85.8" class="st18" width="1.3" height="1.3"/>
					<rect x="144" y="88" class="st18" width="1.3" height="1.3"/>
					<rect x="144" y="90.2" class="st18" width="1.3" height="1.3"/>
					<rect x="144" y="92.4" class="st18" width="1.3" height="1.3"/>
					<rect x="144" y="94.6" class="st18" width="1.3" height="1.3"/>
					<rect x="144" y="96.8" class="st18" width="1.3" height="1.3"/>
					<rect x="144" y="99" class="st18" width="1.3" height="1.3"/>
					<rect x="146.1" y="85.8" class="st18" width="1.3" height="1.3"/>
					<rect x="146.1" y="88" class="st18" width="1.3" height="1.3"/>
					<rect x="146.1" y="90.2" class="st18" width="1.3" height="1.3"/>
					<rect x="146.1" y="92.4" class="st18" width="1.3" height="1.3"/>
					<rect x="146.1" y="94.6" class="st18" width="1.3" height="1.3"/>
					<rect x="146.1" y="96.8" class="st18" width="1.3" height="1.3"/>
					<rect x="146.1" y="99" class="st18" width="1.3" height="1.3"/>
					<rect x="146.1" y="101.2" class="st18" width="1.3" height="1.3"/>
					<rect x="146.1" y="103.4" class="st18" width="1.3" height="1.3"/>
					<rect x="146.1" y="105.6" class="st18" width="1.3" height="1.3"/>
					<rect x="146.1" y="107.9" class="st18" width="1.3" height="1.3"/>
					<rect x="148.2" y="85.8" class="st18" width="1.3" height="1.3"/>
					<rect x="148.2" y="88" class="st18" width="1.3" height="1.3"/>
					<rect x="148.2" y="90.2" class="st18" width="1.3" height="1.3"/>
					<rect x="148.2" y="92.4" class="st18" width="1.3" height="1.3"/>
					<rect x="148.2" y="94.6" class="st18" width="1.3" height="1.3"/>
					<rect x="148.2" y="96.8" class="st18" width="1.3" height="1.3"/>
					<rect x="148.2" y="99" class="st18" width="1.3" height="1.3"/>
					<rect x="148.2" y="101.2" class="st18" width="1.3" height="1.3"/>
					<rect x="148.2" y="103.4" class="st18" width="1.3" height="1.3"/>
					<rect x="148.2" y="105.6" class="st18" width="1.3" height="1.3"/>
					<rect x="148.2" y="107.9" class="st18" width="1.3" height="1.3"/>
					<rect x="148.2" y="110.1" class="st18" width="1.3" height="1.3"/>
					<rect x="148.2" y="116.7" class="st18" width="1.3" height="1.3"/>
					<rect x="148.2" y="118.9" class="st18" width="1.3" height="1.3"/>
					<rect x="150.2" y="85.8" class="st18" width="1.3" height="1.3"/>
					<rect x="150.2" y="88" class="st18" width="1.3" height="1.3"/>
					<rect x="150.2" y="90.2" class="st18" width="1.3" height="1.3"/>
					<rect x="150.2" y="96.8" class="st18" width="1.3" height="1.3"/>
					<rect x="150.2" y="99" class="st18" width="1.3" height="1.3"/>
					<rect x="150.2" y="101.2" class="st18" width="1.3" height="1.3"/>
					<rect x="150.2" y="103.4" class="st18" width="1.3" height="1.3"/>
					<rect x="150.2" y="105.6" class="st18" width="1.3" height="1.3"/>
					<rect x="150.2" y="107.9" class="st18" width="1.3" height="1.3"/>
					<rect x="150.2" y="110.1" class="st18" width="1.3" height="1.3"/>
					<rect x="150.2" y="116.7" class="st18" width="1.3" height="1.3"/>
					<rect x="150.2" y="118.9" class="st18" width="1.3" height="1.3"/>
					<rect x="150.2" y="121.1" class="st18" width="1.3" height="1.3"/>
					<rect x="172.2" y="72.5" class="st18" width="1.3" height="1.3"/>
					<rect x="172.2" y="74.7" class="st18" width="1.3" height="1.3"/>
					<rect x="172.2" y="76.9" class="st18" width="1.3" height="1.3"/>
					<rect x="172.2" y="79.1" class="st18" width="1.3" height="1.3"/>
					<rect x="172.2" y="81.4" class="st18" width="1.3" height="1.3"/>
					<rect x="172.2" y="83.6" class="st18" width="1.3" height="1.3"/>
					<rect x="172.2" y="85.8" class="st18" width="1.3" height="1.3"/>
					<rect x="172.2" y="88" class="st18" width="1.3" height="1.3"/>
					<rect x="172.2" y="90.2" class="st18" width="1.3" height="1.3"/>
					<rect x="172.2" y="92.4" class="st18" width="1.3" height="1.3"/>
					<rect x="172.2" y="94.6" class="st18" width="1.3" height="1.3"/>
					<rect x="172.2" y="96.8" class="st18" width="1.3" height="1.3"/>
					<rect x="172.2" y="99" class="st18" width="1.3" height="1.3"/>
					<rect x="172.2" y="101.2" class="st18" width="1.3" height="1.3"/>
					<rect x="172.2" y="103.4" class="st18" width="1.3" height="1.3"/>
					<rect x="172.2" y="105.6" class="st18" width="1.3" height="1.3"/>
					<rect x="172.2" y="107.9" class="st18" width="1.3" height="1.3"/>
					<rect x="172.2" y="110.1" class="st18" width="1.3" height="1.3"/>
					<rect x="172.2" y="112.3" class="st18" width="1.3" height="1.3"/>
					<rect x="172.2" y="114.5" class="st18" width="1.3" height="1.3"/>
					<rect x="172.2" y="116.7" class="st18" width="1.3" height="1.3"/>
					<rect x="172.2" y="118.9" class="st18" width="1.3" height="1.3"/>
					<rect x="172.2" y="121.1" class="st18" width="1.3" height="1.3"/>
					<rect x="174.3" y="72.5" class="st18" width="1.3" height="1.3"/>
					<rect x="174.3" y="74.7" class="st18" width="1.3" height="1.3"/>
					<rect x="174.3" y="76.9" class="st18" width="1.3" height="1.3"/>
					<rect x="174.3" y="79.1" class="st18" width="1.3" height="1.3"/>
					<rect x="174.3" y="81.4" class="st18" width="1.3" height="1.3"/>
					<rect x="174.3" y="83.6" class="st18" width="1.3" height="1.3"/>
					<rect x="174.3" y="85.8" class="st18" width="1.3" height="1.3"/>
					<rect x="174.3" y="88" class="st18" width="1.3" height="1.3"/>
					<rect x="174.3" y="90.2" class="st18" width="1.3" height="1.3"/>
					<rect x="174.3" y="92.4" class="st18" width="1.3" height="1.3"/>
					<rect x="174.3" y="94.6" class="st18" width="1.3" height="1.3"/>
					<rect x="174.3" y="96.8" class="st18" width="1.3" height="1.3"/>
					<rect x="174.3" y="99" class="st18" width="1.3" height="1.3"/>
					<rect x="174.3" y="101.2" class="st18" width="1.3" height="1.3"/>
					<rect x="174.3" y="103.4" class="st18" width="1.3" height="1.3"/>
					<rect x="174.3" y="105.6" class="st18" width="1.3" height="1.3"/>
					<rect x="174.3" y="107.9" class="st18" width="1.3" height="1.3"/>
					<rect x="174.3" y="110.1" class="st18" width="1.3" height="1.3"/>
					<rect x="174.3" y="112.3" class="st18" width="1.3" height="1.3"/>
					<rect x="176.4" y="72.5" class="st18" width="1.3" height="1.3"/>
					<rect x="176.4" y="74.7" class="st18" width="1.3" height="1.3"/>
					<rect x="176.4" y="76.9" class="st18" width="1.3" height="1.3"/>
					<rect x="176.4" y="79.1" class="st18" width="1.3" height="1.3"/>
					<rect x="176.4" y="81.4" class="st18" width="1.3" height="1.3"/>
					<rect x="176.4" y="83.6" class="st18" width="1.3" height="1.3"/>
					<rect x="176.4" y="85.8" class="st18" width="1.3" height="1.3"/>
					<rect x="176.4" y="88" class="st18" width="1.3" height="1.3"/>
					<rect x="176.4" y="90.2" class="st18" width="1.3" height="1.3"/>
					<rect x="176.4" y="92.4" class="st18" width="1.3" height="1.3"/>
					<rect x="176.4" y="94.6" class="st18" width="1.3" height="1.3"/>
					<rect x="176.4" y="96.8" class="st18" width="1.3" height="1.3"/>
					<rect x="176.4" y="99" class="st18" width="1.3" height="1.3"/>
					<rect x="176.4" y="101.2" class="st18" width="1.3" height="1.3"/>
					<rect x="176.4" y="103.4" class="st18" width="1.3" height="1.3"/>
					<rect x="176.4" y="105.6" class="st18" width="1.3" height="1.3"/>
					<rect x="176.4" y="107.9" class="st18" width="1.3" height="1.3"/>
					<rect x="176.4" y="110.1" class="st18" width="1.3" height="1.3"/>
					<rect x="176.4" y="112.3" class="st18" width="1.3" height="1.3"/>
					<rect x="178.4" y="72.5" class="st18" width="1.3" height="1.3"/>
					<rect x="178.4" y="74.7" class="st18" width="1.3" height="1.3"/>
					<rect x="178.4" y="76.9" class="st18" width="1.3" height="1.3"/>
					<rect x="178.4" y="79.1" class="st18" width="1.3" height="1.3"/>
					<rect x="178.4" y="81.4" class="st18" width="1.3" height="1.3"/>
					<rect x="178.4" y="83.6" class="st18" width="1.3" height="1.3"/>
					<rect x="178.4" y="85.8" class="st18" width="1.3" height="1.3"/>
					<rect x="178.4" y="88" class="st18" width="1.3" height="1.3"/>
					<rect x="178.4" y="90.2" class="st18" width="1.3" height="1.3"/>
					<rect x="178.4" y="92.4" class="st18" width="1.3" height="1.3"/>
					<rect x="178.4" y="94.6" class="st18" width="1.3" height="1.3"/>
					<rect x="178.4" y="96.8" class="st18" width="1.3" height="1.3"/>
					<rect x="178.4" y="99" class="st18" width="1.3" height="1.3"/>
					<rect x="178.4" y="101.2" class="st18" width="1.3" height="1.3"/>
					<rect x="178.4" y="103.4" class="st18" width="1.3" height="1.3"/>
					<rect x="180.5" y="72.5" class="st18" width="1.3" height="1.3"/>
					<rect x="180.5" y="74.7" class="st18" width="1.3" height="1.3"/>
					<rect x="180.5" y="76.9" class="st18" width="1.3" height="1.3"/>
					<rect x="180.5" y="79.1" class="st18" width="1.3" height="1.3"/>
					<rect x="180.5" y="81.4" class="st18" width="1.3" height="1.3"/>
					<rect x="180.5" y="83.6" class="st18" width="1.3" height="1.3"/>
					<rect x="180.5" y="85.8" class="st18" width="1.3" height="1.3"/>
					<rect x="180.5" y="88" class="st18" width="1.3" height="1.3"/>
					<rect x="180.5" y="90.2" class="st18" width="1.3" height="1.3"/>
					<rect x="180.5" y="92.4" class="st18" width="1.3" height="1.3"/>
					<rect x="180.5" y="94.6" class="st18" width="1.3" height="1.3"/>
					<rect x="180.5" y="96.8" class="st18" width="1.3" height="1.3"/>
					<rect x="180.5" y="99" class="st18" width="1.3" height="1.3"/>
					<rect x="182.6" y="72.5" class="st18" width="1.3" height="1.3"/>
					<rect x="182.6" y="74.7" class="st18" width="1.3" height="1.3"/>
					<rect x="182.6" y="76.9" class="st18" width="1.3" height="1.3"/>
					<rect x="182.6" y="79.1" class="st18" width="1.3" height="1.3"/>
					<rect x="182.6" y="81.4" class="st18" width="1.3" height="1.3"/>
					<rect x="182.6" y="83.6" class="st18" width="1.3" height="1.3"/>
					<rect x="182.6" y="85.8" class="st18" width="1.3" height="1.3"/>
					<rect x="182.6" y="88" class="st18" width="1.3" height="1.3"/>
					<rect x="182.6" y="90.2" class="st18" width="1.3" height="1.3"/>
					<rect x="182.6" y="92.4" class="st18" width="1.3" height="1.3"/>
					<rect x="182.6" y="94.6" class="st18" width="1.3" height="1.3"/>
					<rect x="182.6" y="96.8" class="st18" width="1.3" height="1.3"/>
					<rect x="60.5" y="71.9" class="st18" width="1.3" height="1.3"/>
					<rect x="60.5" y="74.1" class="st18" width="1.3" height="1.3"/>
					<rect x="60.5" y="76.3" class="st18" width="1.3" height="1.3"/>
					<rect x="60.5" y="78.5" class="st18" width="1.3" height="1.3"/>
					<rect x="60.5" y="80.7" class="st18" width="1.3" height="1.3"/>
					<rect x="60.5" y="82.9" class="st18" width="1.3" height="1.3"/>
					<rect x="60.5" y="85.1" class="st18" width="1.3" height="1.3"/>
					<rect x="60.5" y="87.3" class="st18" width="1.3" height="1.3"/>
					<rect x="60.5" y="89.5" class="st18" width="1.3" height="1.3"/>
					<rect x="60.5" y="91.7" class="st18" width="1.3" height="1.3"/>
					<rect x="60.5" y="93.9" class="st18" width="1.3" height="1.3"/>
					<rect x="60.5" y="96.2" class="st18" width="1.3" height="1.3"/>
					<rect x="60.5" y="98.4" class="st18" width="1.3" height="1.3"/>
					<rect x="60.5" y="100.6" class="st18" width="1.3" height="1.3"/>
					<rect x="60.5" y="102.8" class="st18" width="1.3" height="1.3"/>
					<rect x="60.5" y="105" class="st18" width="1.3" height="1.3"/>
					<rect x="60.5" y="107.2" class="st18" width="1.3" height="1.3"/>
					<rect x="60.5" y="111.6" class="st18" width="1.3" height="1.3"/>
					<rect x="60.5" y="113.8" class="st18" width="1.3" height="1.3"/>
					<rect x="60.5" y="116" class="st18" width="1.3" height="1.3"/>
					<rect x="60.5" y="118.2" class="st18" width="1.3" height="1.3"/>
					<rect x="60.5" y="120.4" class="st18" width="1.3" height="1.3"/>
					<rect x="62.6" y="71.9" class="st18" width="1.3" height="1.3"/>
					<rect x="62.6" y="74.1" class="st18" width="1.3" height="1.3"/>
					<rect x="62.6" y="76.3" class="st18" width="1.3" height="1.3"/>
					<rect x="62.6" y="78.5" class="st18" width="1.3" height="1.3"/>
					<rect x="62.6" y="80.7" class="st18" width="1.3" height="1.3"/>
					<rect x="62.6" y="82.9" class="st18" width="1.3" height="1.3"/>
					<rect x="62.6" y="85.1" class="st18" width="1.3" height="1.3"/>
					<rect x="62.6" y="87.3" class="st18" width="1.3" height="1.3"/>
					<rect x="62.6" y="89.5" class="st18" width="1.3" height="1.3"/>
					<rect x="62.6" y="91.7" class="st18" width="1.3" height="1.3"/>
					<rect x="62.6" y="93.9" class="st18" width="1.3" height="1.3"/>
					<rect x="62.6" y="96.2" class="st18" width="1.3" height="1.3"/>
					<rect x="62.6" y="98.4" class="st18" width="1.3" height="1.3"/>
					<rect x="62.6" y="100.6" class="st18" width="1.3" height="1.3"/>
					<rect x="62.6" y="102.8" class="st18" width="1.3" height="1.3"/>
					<rect x="62.6" y="105" class="st18" width="1.3" height="1.3"/>
					<rect x="62.6" y="118.2" class="st18" width="1.3" height="1.3"/>
					<rect x="62.6" y="120.4" class="st18" width="1.3" height="1.3"/>
					<rect x="64.7" y="71.9" class="st18" width="1.3" height="1.3"/>
					<rect x="64.7" y="74.1" class="st18" width="1.3" height="1.3"/>
					<rect x="64.7" y="76.3" class="st18" width="1.3" height="1.3"/>
					<rect x="64.7" y="78.5" class="st18" width="1.3" height="1.3"/>
					<rect x="64.7" y="80.7" class="st18" width="1.3" height="1.3"/>
					<rect x="64.7" y="82.9" class="st18" width="1.3" height="1.3"/>
					<rect x="64.7" y="85.1" class="st18" width="1.3" height="1.3"/>
					<rect x="64.7" y="87.3" class="st18" width="1.3" height="1.3"/>
					<rect x="64.7" y="89.5" class="st18" width="1.3" height="1.3"/>
					<rect x="64.7" y="91.7" class="st18" width="1.3" height="1.3"/>
					<rect x="64.7" y="93.9" class="st18" width="1.3" height="1.3"/>
					<rect x="64.7" y="96.2" class="st18" width="1.3" height="1.3"/>
					<rect x="64.7" y="98.4" class="st18" width="1.3" height="1.3"/>
					<rect x="64.7" y="100.6" class="st18" width="1.3" height="1.3"/>
					<rect x="64.7" y="102.8" class="st18" width="1.3" height="1.3"/>
					<rect x="64.7" y="105" class="st18" width="1.3" height="1.3"/>
					<rect x="64.7" y="109.4" class="st18" width="1.3" height="1.3"/>
					<rect x="64.7" y="111.6" class="st18" width="1.3" height="1.3"/>
					<rect x="64.7" y="113.8" class="st18" width="1.3" height="1.3"/>
					<rect x="64.7" y="116" class="st18" width="1.3" height="1.3"/>
					<rect x="64.7" y="120.4" class="st18" width="1.3" height="1.3"/>
					<rect x="101.2" y="87.3" class="st18" width="1.3" height="1.3"/>
					<rect x="101.2" y="89.5" class="st18" width="1.3" height="1.3"/>
					<rect x="101.2" y="91.7" class="st18" width="1.3" height="1.3"/>
					<rect x="101.2" y="93.9" class="st18" width="1.3" height="1.3"/>
					<rect x="101.2" y="96.2" class="st18" width="1.3" height="1.3"/>
					<rect x="101.2" y="98.4" class="st18" width="1.3" height="1.3"/>
					<rect x="101.2" y="100.6" class="st18" width="1.3" height="1.3"/>
					<rect x="101.2" y="102.8" class="st18" width="1.3" height="1.3"/>
					<rect x="101.2" y="105" class="st18" width="1.3" height="1.3"/>
					<rect x="101.2" y="107.2" class="st18" width="1.3" height="1.3"/>
					<rect x="101.2" y="109.4" class="st18" width="1.3" height="1.3"/>
					<rect x="101.2" y="111.6" class="st18" width="1.3" height="1.3"/>
					<rect x="101.2" y="113.8" class="st18" width="1.3" height="1.3"/>
					<rect x="101.2" y="118.2" class="st18" width="1.3" height="1.3"/>
					<rect x="101.2" y="120.4" class="st18" width="1.3" height="1.3"/>
					<rect x="101.2" y="122.6" class="st18" width="1.3" height="1.3"/>
					<rect x="101.2" y="124.9" class="st18" width="1.3" height="1.3"/>
					<rect x="101.2" y="129.3" class="st18" width="1.3" height="1.3"/>
					<rect x="101.2" y="131.5" class="st18" width="1.3" height="1.3"/>
					<rect x="101.2" y="133.7" class="st18" width="1.3" height="1.3"/>
					<rect x="103.3" y="87.3" class="st18" width="1.3" height="1.3"/>
					<rect x="103.3" y="89.5" class="st18" width="1.3" height="1.3"/>
					<rect x="103.3" y="91.7" class="st18" width="1.3" height="1.3"/>
					<rect x="103.3" y="93.9" class="st18" width="1.3" height="1.3"/>
					<rect x="103.3" y="96.2" class="st18" width="1.3" height="1.3"/>
					<rect x="103.3" y="98.4" class="st18" width="1.3" height="1.3"/>
					<rect x="103.3" y="100.6" class="st18" width="1.3" height="1.3"/>
					<rect x="103.3" y="102.8" class="st18" width="1.3" height="1.3"/>
					<rect x="103.3" y="105" class="st18" width="1.3" height="1.3"/>
					<rect x="103.3" y="107.2" class="st18" width="1.3" height="1.3"/>
					<rect x="103.3" y="109.4" class="st18" width="1.3" height="1.3"/>
					<rect x="103.3" y="111.6" class="st18" width="1.3" height="1.3"/>
					<rect x="103.3" y="113.8" class="st18" width="1.3" height="1.3"/>
					<rect x="103.3" y="120.4" class="st18" width="1.3" height="1.3"/>
					<rect x="103.3" y="122.6" class="st18" width="1.3" height="1.3"/>
					<rect x="103.3" y="127.1" class="st18" width="1.3" height="1.3"/>
					<rect x="103.3" y="129.3" class="st18" width="1.3" height="1.3"/>
					<rect x="103.3" y="131.5" class="st18" width="1.3" height="1.3"/>
					<rect x="103.3" y="133.7" class="st18" width="1.3" height="1.3"/>
					<rect x="105.4" y="87.3" class="st18" width="1.3" height="1.3"/>
					<rect x="105.4" y="89.5" class="st18" width="1.3" height="1.3"/>
					<rect x="105.4" y="91.7" class="st18" width="1.3" height="1.3"/>
					<rect x="105.4" y="93.9" class="st18" width="1.3" height="1.3"/>
					<rect x="105.4" y="96.2" class="st18" width="1.3" height="1.3"/>
					<rect x="105.4" y="98.4" class="st18" width="1.3" height="1.3"/>
					<rect x="105.4" y="100.6" class="st18" width="1.3" height="1.3"/>
					<rect x="105.4" y="102.8" class="st18" width="1.3" height="1.3"/>
					<rect x="105.4" y="105" class="st18" width="1.3" height="1.3"/>
					<rect x="105.4" y="107.2" class="st18" width="1.3" height="1.3"/>
					<rect x="105.4" y="109.4" class="st18" width="1.3" height="1.3"/>
					<rect x="105.4" y="111.6" class="st18" width="1.3" height="1.3"/>
					<rect x="105.4" y="113.8" class="st18" width="1.3" height="1.3"/>
					<rect x="105.4" y="116" class="st18" width="1.3" height="1.3"/>
					<rect x="105.4" y="120.4" class="st18" width="1.3" height="1.3"/>
					<rect x="105.4" y="124.9" class="st18" width="1.3" height="1.3"/>
					<rect x="105.4" y="127.1" class="st18" width="1.3" height="1.3"/>
					<rect x="105.4" y="129.3" class="st18" width="1.3" height="1.3"/>
					<rect x="105.4" y="131.5" class="st18" width="1.3" height="1.3"/>
					<rect x="105.4" y="133.7" class="st18" width="1.3" height="1.3"/>
					<rect x="92.7" y="99.9" class="st18" width="1.3" height="1.3"/>
					<rect x="92.7" y="102.1" class="st18" width="1.3" height="1.3"/>
					<rect x="92.7" y="104.3" class="st18" width="1.3" height="1.3"/>
					<rect x="92.7" y="106.5" class="st18" width="1.3" height="1.3"/>
					<rect x="92.7" y="108.7" class="st18" width="1.3" height="1.3"/>
					<rect x="92.7" y="110.9" class="st18" width="1.3" height="1.3"/>
					<rect x="92.7" y="117.6" class="st18" width="1.3" height="1.3"/>
					<rect x="92.7" y="119.8" class="st18" width="1.3" height="1.3"/>
					<rect x="92.7" y="122" class="st18" width="1.3" height="1.3"/>
					<rect x="92.7" y="124.2" class="st18" width="1.3" height="1.3"/>
					<rect x="92.7" y="126.4" class="st18" width="1.3" height="1.3"/>
					<rect x="92.7" y="128.6" class="st18" width="1.3" height="1.3"/>
					<rect x="92.7" y="130.8" class="st18" width="1.3" height="1.3"/>
					<rect x="94.8" y="99.9" class="st18" width="1.3" height="1.3"/>
					<rect x="94.8" y="102.1" class="st18" width="1.3" height="1.3"/>
					<rect x="94.8" y="104.3" class="st18" width="1.3" height="1.3"/>
					<rect x="94.8" y="106.5" class="st18" width="1.3" height="1.3"/>
					<rect x="94.8" y="108.7" class="st18" width="1.3" height="1.3"/>
					<rect x="94.8" y="110.9" class="st18" width="1.3" height="1.3"/>
					<rect x="94.8" y="117.6" class="st18" width="1.3" height="1.3"/>
					<rect x="94.8" y="119.8" class="st18" width="1.3" height="1.3"/>
					<rect x="94.8" y="122" class="st18" width="1.3" height="1.3"/>
					<rect x="94.8" y="124.2" class="st18" width="1.3" height="1.3"/>
					<rect x="94.8" y="126.4" class="st18" width="1.3" height="1.3"/>
					<rect x="94.8" y="128.6" class="st18" width="1.3" height="1.3"/>
					<rect x="94.8" y="133" class="st18" width="1.3" height="1.3"/>
					<rect x="164.3" y="90.2" class="st18" width="1.3" height="1.3"/>
					<rect x="164.3" y="92.4" class="st18" width="1.3" height="1.3"/>
					<rect x="164.3" y="94.6" class="st18" width="1.3" height="1.3"/>
					<rect x="164.3" y="96.8" class="st18" width="1.3" height="1.3"/>
					<rect x="164.3" y="99" class="st18" width="1.3" height="1.3"/>
					<rect x="164.3" y="101.2" class="st18" width="1.3" height="1.3"/>
					<rect x="164.3" y="103.4" class="st18" width="1.3" height="1.3"/>
					<rect x="164.3" y="105.6" class="st18" width="1.3" height="1.3"/>
					<rect x="164.3" y="107.9" class="st18" width="1.3" height="1.3"/>
					<rect x="164.3" y="110.1" class="st18" width="1.3" height="1.3"/>
					<rect x="164.3" y="112.3" class="st18" width="1.3" height="1.3"/>
					<rect x="164.3" y="116.7" class="st18" width="1.3" height="1.3"/>
					<rect x="164.3" y="118.9" class="st18" width="1.3" height="1.3"/>
					<rect x="164.3" y="121.1" class="st18" width="1.3" height="1.3"/>
					<rect x="164.3" y="123.3" class="st18" width="1.3" height="1.3"/>
					<rect x="164.3" y="125.5" class="st18" width="1.3" height="1.3"/>
					<rect x="164.3" y="127.7" class="st18" width="1.3" height="1.3"/>
					<rect x="164.3" y="129.9" class="st18" width="1.3" height="1.3"/>
					<rect x="164.3" y="132.1" class="st18" width="1.3" height="1.3"/>
					<rect x="166.4" y="90.2" class="st18" width="1.3" height="1.3"/>
					<rect x="166.4" y="92.4" class="st18" width="1.3" height="1.3"/>
					<rect x="166.4" y="94.6" class="st18" width="1.3" height="1.3"/>
					<rect x="166.4" y="96.8" class="st18" width="1.3" height="1.3"/>
					<rect x="166.4" y="99" class="st18" width="1.3" height="1.3"/>
					<rect x="166.4" y="101.2" class="st18" width="1.3" height="1.3"/>
					<rect x="166.4" y="103.4" class="st18" width="1.3" height="1.3"/>
					<rect x="166.4" y="105.6" class="st18" width="1.3" height="1.3"/>
					<rect x="166.4" y="107.9" class="st18" width="1.3" height="1.3"/>
					<rect x="166.4" y="110.1" class="st18" width="1.3" height="1.3"/>
					<rect x="166.4" y="112.3" class="st18" width="1.3" height="1.3"/>
					<rect x="166.4" y="114.5" class="st18" width="1.3" height="1.3"/>
					<rect x="166.4" y="116.7" class="st18" width="1.3" height="1.3"/>
					<rect x="166.4" y="118.9" class="st18" width="1.3" height="1.3"/>
					<rect x="166.4" y="121.1" class="st18" width="1.3" height="1.3"/>
					<rect x="166.4" y="123.3" class="st18" width="1.3" height="1.3"/>
					<rect x="166.4" y="125.5" class="st18" width="1.3" height="1.3"/>
					<rect x="166.4" y="127.7" class="st18" width="1.3" height="1.3"/>
					<rect x="166.4" y="129.9" class="st18" width="1.3" height="1.3"/>
					<rect x="166.4" y="132.1" class="st18" width="1.3" height="1.3"/>
					<rect x="154" y="98.8" class="st18" width="1.3" height="1.3"/>
					<rect x="154" y="101" class="st18" width="1.3" height="1.3"/>
					<rect x="154" y="103.2" class="st18" width="1.3" height="1.3"/>
					<rect x="154" y="105.4" class="st18" width="1.3" height="1.3"/>
					<rect x="154" y="107.6" class="st18" width="1.3" height="1.3"/>
					<rect x="154" y="109.8" class="st18" width="1.3" height="1.3"/>
					<rect x="154" y="112" class="st18" width="1.3" height="1.3"/>
					<rect x="154" y="114.2" class="st18" width="1.3" height="1.3"/>
					<rect x="154" y="116.5" class="st18" width="1.3" height="1.3"/>
					<rect x="154" y="118.7" class="st18" width="1.3" height="1.3"/>
					<rect x="156.1" y="98.8" class="st18" width="1.3" height="1.3"/>
					<rect x="156.1" y="101" class="st18" width="1.3" height="1.3"/>
					<rect x="156.1" y="103.2" class="st18" width="1.3" height="1.3"/>
					<rect x="156.1" y="105.4" class="st18" width="1.3" height="1.3"/>
					<rect x="156.1" y="107.6" class="st18" width="1.3" height="1.3"/>
					<rect x="156.1" y="109.8" class="st18" width="1.3" height="1.3"/>
					<rect x="156.1" y="112" class="st18" width="1.3" height="1.3"/>
					<rect x="156.1" y="114.2" class="st18" width="1.3" height="1.3"/>
					<rect x="156.1" y="116.5" class="st18" width="1.3" height="1.3"/>
				</g>
			</g>
			<g>
				<rect x="143.6" y="32.7" class="st18" width="2.2" height="105.5"/>
				<rect x="102" y="32.7" class="st18" width="2.2" height="105.5"/>
				<rect x="60.4" y="32.7" class="st18" width="2.2" height="105.5"/>
			</g>
		</g>
		<g>
			<g>
				<path class="st19" d="M118.8,124.7h-6.7v-0.4c0-0.9,1-1.6,2.2-1.5l2.6,0.1c1.1,0,1.9,0.7,1.9,1.5V124.7z"/>
				<g>
					<path class="st20" d="M102.8,112.4c0-0.5-0.4-0.8-0.9-0.8h-6c-0.5,0-0.9,0.4-0.9,0.8l1.4,12.5h8.9L102.8,112.4z"/>
					<path class="st20" d="M119.1,93.3h-2.2l-2.5,23.5h2.2c0.4,0,0.7-0.3,0.7-0.7l2.4-22.2C119.7,93.6,119.4,93.3,119.1,93.3z"/>
					<path class="st0" d="M115.6,116.8H82.2c-0.4,0-0.6-0.3-0.6-0.7L84,93.9c0-0.4,0.4-0.7,0.7-0.7h33.4c0.4,0,0.6,0.3,0.6,0.7
						l-2.4,22.2C116.3,116.5,116,116.8,115.6,116.8z"/>
					<path class="st8" d="M115,114.6H83.5c-0.3,0-0.6-0.3-0.5-0.6l2.1-19.4c0-0.3,0.3-0.6,0.6-0.6h31.5c0.3,0,0.6,0.3,0.5,0.6
						l-2.1,19.4C115.6,114.4,115.3,114.6,115,114.6z"/>
					<path class="st20" d="M105.8,123.9h-11c-0.3,0-0.5,0.2-0.5,0.5v0c0,0.3,0.2,0.5,0.5,0.5h11c0.3,0,0.5-0.2,0.5-0.5v0
						C106.3,124.1,106.1,123.9,105.8,123.9z"/>
				</g>
				<rect x="105.6" y="124.6" class="st20" width="27.2" height="4.1"/>
				<g>
					<path class="st20" d="M57.1,170.4h-0.7c-0.1,0-0.2-0.1-0.2-0.2l-1.1-41.5l3.1,0l-1.1,41.5C57.2,170.3,57.2,170.4,57.1,170.4z"
						/>
				</g>
				<g>
					<polygon class="st19" points="32.9,170.4 31.3,170.4 35.8,128.7 38.9,128.7 					"/>
				</g>
				<polygon class="st20" points="133.9,170.4 133.9,170.4 127.9,128.7 131,128.7 135.4,170.4 				"/>
				<rect x="33.9" y="124.6" class="st18" width="79.4" height="4.1"/>
				<polygon class="st19" points="110.9,170.4 109.1,170.4 109.1,170.4 108.4,128.7 111.6,128.7 				"/>
				<g>
					<g>
						<path class="st18" d="M85.5,123.9h-0.8c-0.1,0-0.2-0.1-0.2-0.2v-0.9c0-0.1,0.1-0.2,0.2-0.2h0.6c0.1,0,0.1,0,0.2,0.1l0.2,0.9
							C85.7,123.8,85.6,123.9,85.5,123.9z"/>
						<path class="st18" d="M86.7,123.9h-0.8c-0.1,0-0.2-0.1-0.2-0.2v-0.9c0-0.1,0.1-0.2,0.2-0.2h0.6c0.1,0,0.1,0,0.2,0.1l0.2,0.9
							C86.9,123.8,86.8,123.9,86.7,123.9z"/>
						<path class="st18" d="M87.8,123.9H87c-0.1,0-0.2-0.1-0.2-0.2v-0.9c0-0.1,0.1-0.2,0.2-0.2h0.6c0.1,0,0.1,0,0.2,0.1l0.2,0.9
							C88,123.8,87.9,123.9,87.8,123.9z"/>
						<path class="st18" d="M89,123.9h-0.8c-0.1,0-0.2-0.1-0.2-0.2v-0.9c0-0.1,0.1-0.2,0.2-0.2h0.6c0.1,0,0.1,0,0.2,0.1l0.2,0.9
							C89.2,123.8,89.1,123.9,89,123.9z"/>
						<path class="st18" d="M90.1,123.9h-0.8c-0.1,0-0.2-0.1-0.2-0.2v-0.9c0-0.1,0.1-0.2,0.2-0.2h0.6c0.1,0,0.1,0,0.2,0.1l0.2,0.9
							C90.3,123.8,90.2,123.9,90.1,123.9z"/>
						<path class="st18" d="M91.3,123.9h-0.8c-0.1,0-0.2-0.1-0.2-0.2v-0.9c0-0.1,0.1-0.2,0.2-0.2H91c0.1,0,0.1,0,0.2,0.1l0.2,0.9
							C91.5,123.8,91.4,123.9,91.3,123.9z"/>
						<path class="st18" d="M92.4,123.9h-0.8c-0.1,0-0.2-0.1-0.2-0.2v-0.9c0-0.1,0.1-0.2,0.2-0.2h0.6c0.1,0,0.1,0,0.2,0.1l0.2,0.9
							C92.6,123.8,92.5,123.9,92.4,123.9z"/>
						<path class="st18" d="M93.6,123.9h-0.8c-0.1,0-0.2-0.1-0.2-0.2v-0.9c0-0.1,0.1-0.2,0.2-0.2h0.6c0.1,0,0.1,0,0.2,0.1l0.2,0.9
							C93.8,123.8,93.7,123.9,93.6,123.9z"/>
						<path class="st18" d="M94.7,123.9h-0.8c-0.1,0-0.2-0.1-0.2-0.2v-0.9c0-0.1,0.1-0.2,0.2-0.2h0.6c0.1,0,0.1,0,0.2,0.1l0.2,0.9
							C94.9,123.8,94.8,123.9,94.7,123.9z"/>
						<path class="st18" d="M95.9,123.9H95c-0.1,0-0.2-0.1-0.2-0.2v-0.9c0-0.1,0.1-0.2,0.2-0.2h0.6c0.1,0,0.1,0,0.2,0.1l0.2,0.9
							C96.1,123.8,96,123.9,95.9,123.9z"/>
						<path class="st18" d="M97,123.9h-0.8c-0.1,0-0.2-0.1-0.2-0.2v-0.9c0-0.1,0.1-0.2,0.2-0.2h0.6c0.1,0,0.1,0,0.2,0.1l0.2,0.9
							C97.2,123.8,97.1,123.9,97,123.9z"/>
						<path class="st18" d="M98.2,123.9h-0.8c-0.1,0-0.2-0.1-0.2-0.2v-0.9c0-0.1,0.1-0.2,0.2-0.2h0.6c0.1,0,0.1,0,0.2,0.1l0.2,0.9
							C98.4,123.8,98.3,123.9,98.2,123.9z"/>
						<path class="st18" d="M99.3,123.9h-0.8c-0.1,0-0.2-0.1-0.2-0.2v-0.9c0-0.1,0.1-0.2,0.2-0.2h0.6c0.1,0,0.1,0,0.2,0.1l0.2,0.9
							C99.5,123.8,99.4,123.9,99.3,123.9z"/>
						<path class="st18" d="M100.5,123.9h-0.8c-0.1,0-0.2-0.1-0.2-0.2v-0.9c0-0.1,0.1-0.2,0.2-0.2h0.6c0.1,0,0.1,0,0.2,0.1l0.2,0.9
							C100.7,123.8,100.6,123.9,100.5,123.9z"/>
						<path class="st18" d="M101.6,123.9h-0.8c-0.1,0-0.2-0.1-0.2-0.2v-0.9c0-0.1,0.1-0.2,0.2-0.2h0.6c0.1,0,0.1,0,0.2,0.1l0.2,0.9
							C101.8,123.8,101.7,123.9,101.6,123.9z"/>
					</g>
					<rect x="83.9" y="123.3" class="st0" width="18.6" height="1.4"/>
				</g>
			</g>
		</g>
		<g>
			<path class="st1" d="M69.6,132.4H40.8c-1.4,0-2.5,1.1-2.5,2.5v1.9h33.8v-1.9C72.1,133.6,71,132.4,69.6,132.4z"/>
			<path class="st1" d="M39.4,161.8l10.8-1.1v-15.2h4.3v15.2l10.9,1.1c1.1,0.1,1.9,1,1.9,2.1v1.6H52.8H52H37.5v-1.6
				C37.5,162.9,38.3,161.9,39.4,161.8z"/>
			<path class="st1" d="M63.3,167.6c0,1.5,1.3,2.8,2.8,2.8c1.5,0,2.8-1.3,2.8-2.8s-1.3-2.8-2.8-2.8C64.6,164.8,63.3,166,63.3,167.6z
				"/>
			<path class="st1" d="M41.5,167.6c0,1.5-1.3,2.8-2.8,2.8c-1.5,0-2.8-1.3-2.8-2.8s1.3-2.8,2.8-2.8C40.2,164.8,41.5,166,41.5,167.6z
				"/>
			<path class="st20" d="M51.6,148.8h1.6c1.1,0,2.1-0.9,2.1-2.1v-11.5h-5.8v11.5C49.5,147.9,50.4,148.8,51.6,148.8z"/>
			<path class="st0" d="M58.1,132.7c-1.5-5.7-4.9-20.3-5.6-39.6c-0.1-3-2.6-5.4-5.6-5.4H37c-3.1,0-5.6,2.5-5.6,5.5
				c0,9.1,0.6,27.7,5.7,42.8l19-0.7C57.5,135.3,58.4,134,58.1,132.7z"/>
			<g>
				<path class="st20" d="M55.4,135.1c0,0-5.1-18.2-6-41.3c-0.1-2.8-2.4-4.9-5.1-4.9h-9.2c-2.8,0-5.1,2.3-5.1,5.1
					c0,8.4,0.6,27.2,5.3,41.2H55.4z"/>
				<path class="st20" d="M51.4,121.8c0,0,10.9-2.2,21.5-1.1c10.6,1.1-5,14.9-5,14.9h-2.2c0,0,8.2-8.8,7.8-10.9
					c-0.5-2.2-21.2,0.7-21.2,0.7L51.4,121.8z"/>
				<path class="st1" d="M35.2,135.1h17.9c0,0-5.1-18.2-6-41.3c-0.1-2.8-2.4-4.9-5.1-4.9h-7c-2.8,0-5.1,2.3-5.1,5.1
					C29.9,102.3,30.5,121.1,35.2,135.1z"/>
			</g>
			<g>
				<path class="st1" d="M72.3,134.6H35.9c-0.6,0-1,0.5-1,1v0.2c0,0.6,0.5,1,1,1h36.4c0.6,0,1-0.5,1-1v-0.2
					C73.3,135.1,72.9,134.6,72.3,134.6z"/>
			</g>
		</g>
		<g>
			<g>
				<g>
					<path class="st1" d="M208.3,152.1c0-0.2,0.7-19.8,3.9-22.9c3.1-3,6.7-0.1,6.8,0l0.3-0.4c0,0-4.1-3.3-7.5,0
						c-3.3,3.2-4,22.5-4,23.3L208.3,152.1z"/>
				</g>
				<g>
					<path class="st1" d="M208,155.9c0-0.2,2.2-23.6-6.3-33.4l-0.4,0.3c8.4,9.6,6.2,32.8,6.2,33L208,155.9z"/>
				</g>
				<g>
					<path class="st1" d="M208.3,153.5l0.5,0c0-0.3-1.7-26.5,4.6-32.3l-0.3-0.4C206.6,126.7,208.2,152.4,208.3,153.5z"/>
				</g>
				<g>
					<path class="st1" d="M207.5,153.5l0.5,0c0-0.7-0.2-17.7-5-20.5c-1.1-0.6-2.1-0.7-3.1-0.3c-2.9,1.2-4.4,6.4-4.4,6.6l0.5,0.1
						c0-0.1,1.4-5.2,4.1-6.3c0.9-0.4,1.8-0.3,2.7,0.3C207.3,136,207.5,153.3,207.5,153.5z"/>
				</g>
				<g>
					<path class="st1" d="M209.4,153.5l0.5,0c0-0.1-0.7-13.5,2.9-18.1c0.9-1.1,1.8-1.7,2.8-1.6c2.4,0.2,4.3,3.6,4.3,3.6l0.4-0.2
						c-0.1-0.2-2.1-3.7-4.7-3.9c-1.2-0.1-2.3,0.5-3.2,1.8C208.6,139.8,209.3,152.9,209.4,153.5z"/>
				</g>
				<g>
					<path class="st1" d="M208.6,155.3c0.1-1.3,2.3-31.7-1.6-37.1l-0.4,0.3c3.9,5.2,1.5,36.4,1.5,36.7L208.6,155.3z"/>
				</g>
			</g>
			<g>
				<path class="st0" d="M198.7,135.7c0,0,2.4,0.9,1.7,2.9c-0.7,2.1-8.2,5.5-8.2,5.5s-3.1-2.9-0.3-7.6
					C194.8,131.9,198.7,134.2,198.7,135.7z"/>
			</g>
			<g>
				<path class="st0" d="M209.1,131.8c0,0-2.5-0.1-2.7,2.1c-0.1,2.2,5.5,8.2,5.5,8.2s4-1.5,3.2-6.9
					C214.2,129.7,209.7,130.4,209.1,131.8z"/>
			</g>
			<g>
				<path class="st0" d="M211.2,121.3c0,0-1.7-0.2-1.6-1.2s6.6-3.7,10.3,0.6c0,0-2.4,4.2-5.9,4.2C210.6,125,211.2,121.3,211.2,121.3
					z"/>
			</g>
			<g>
				<path class="st0" d="M208.1,118.8c0,0,1.5,0.7,2-0.2c0.4-0.9-3.6-6.6-9.1-5c0,0-0.1,4.8,2.8,6.7
					C206.7,122.3,208.1,118.8,208.1,118.8z"/>
			</g>
			<g>
				<path class="st0" d="M216.1,134.9c0,0-1.2-0.9,0.1-1.4c1.3-0.5,7.4-0.3,7.5,5.8c0,0-7.2,1.2-8.1-1.1
					C214.7,135.8,216.1,134.9,216.1,134.9z"/>
			</g>
			<g>
				<path class="st0" d="M201.4,121.2c0,0,1.2-0.9-0.1-1.4c-1.3-0.5-7.4-0.3-7.5,5.8c0,0,7.2,1.2,8.1-1.1
					C202.8,122.1,201.4,121.2,201.4,121.2z"/>
			</g>
			<g>
				<path class="st0" d="M205.2,126.1c0,0,0.1-1.1-0.8-0.7c-0.9,0.4-4.1,3.9-0.8,7.2c0,0,4.5-3.3,3.7-5.1
					C206.4,125.8,205.2,126.1,205.2,126.1z"/>
			</g>
			<g>
				<path class="st0" d="M217.1,127.7c0,0-0.7-0.9,0.3-1c1-0.1,5.6,1.1,4.5,5.7c0,0-5.6-0.4-5.8-2.3
					C215.9,128.2,217.1,127.7,217.1,127.7z"/>
			</g>
			<polygon class="st19" points="198.3,170.4 217.4,170.4 219.4,149.5 196.2,149.5 			"/>
			
				<rect x="195.2" y="147.2" transform="matrix(-1 -1.224647e-16 1.224647e-16 -1 415.6742 298.945)" class="st20" width="25.3" height="4.6"/>
		</g>
	</g>
	<ellipse id="_x3C_Path_x3E__1_" class="st18" cx="125" cy="187.5" rx="96.9" ry="5.7"/>
	<g>
		<path class="st29" d="M201.6,188.6h-84.1c-1.6,0-2.8-1.3-2.6-2.9l14.4-143.2c0.2-1.6,1.6-2.9,3.2-2.9h84.1c1.6,0,2.8,1.3,2.6,2.9
			l-14.4,143.2C204.7,187.3,203.2,188.6,201.6,188.6z"/>
		<path class="st2" d="M189,50.4H158c-1.3,0-2.2-1-2.1-2.3l0.9-8.6c0-0.2,0.2-0.4,0.5-0.4h34.9c0.2,0,0.4,0.2,0.4,0.4l-0.9,8.6
			C191.5,49.4,190.3,50.4,189,50.4z"/>
		<path class="st2" d="M175,35.2c-1.3,0-2.4,1-2.6,2.3l-0.4,3.6h4.6l0.4-3.6C177.3,36.2,176.3,35.2,175,35.2z M174.7,38.6
			c-0.5,0-0.9-0.4-0.8-0.9c0.1-0.5,0.5-0.9,1-0.9c0.5,0,0.9,0.4,0.8,0.9C175.7,38.2,175.2,38.6,174.7,38.6z"/>
		<path class="st21" d="M189.3,41.6l-0.6,6.2h-12.6c0-1.2-0.9-2.2-2.1-2.2c-1.2,0-2.3,1-2.5,2.2h-12.6l0.6-6.2H189.3z"/>
		<path class="st29" d="M186.9,41.6c0.1-0.5,0.4-0.7,0.4-0.7h-26c0,0-0.3,0.2-0.4,0.7c-0.1,0.5,0.3,0.7,0.3,0.7h26
			C187.2,42.3,186.9,42.2,186.9,41.6z"/>
		<g>
			<g>
				<polygon class="st12" points="201.9,184.2 118.5,184.2 132.7,44 216.1,44 				"/>
			</g>
			<g>
				<path class="st2" d="M209.4,58.8h-73.1c-0.1,0-0.2-0.1-0.2-0.2c0-0.1,0.1-0.2,0.2-0.2h73.1c0.1,0,0.2,0.1,0.2,0.2
					C209.7,58.7,209.6,58.8,209.4,58.8z"/>
			</g>
			<g>
				<g>
					<g>
						<path class="st29" d="M145.9,52.1c-0.2,2.2-2.2,4-4.4,4c-2.2,0-3.8-1.8-3.6-4c0.2-2.2,2.2-4,4.4-4
							C144.5,48.2,146.1,49.9,145.9,52.1z"/>
					</g>
					<g>
						<path class="st2" d="M139.7,51.5c0,0-2.1,2.8-1.5,3.7s6.5-4,8-5.6c1.4-1.6-0.2-1-0.2-1s0.6,0,0.3,0.5c-0.7,1-6.3,4.7-6.9,4.5
							C138.7,53.5,139.7,51.5,139.7,51.5z"/>
					</g>
				</g>
				<g>
					<g>
						<path class="st2" d="M209.3,50.8h-7.5c-0.3,0-0.5-0.2-0.5-0.5c0-0.3,0.2-0.5,0.5-0.5h7.5c0.3,0,0.5,0.2,0.5,0.5
							C209.8,50.6,209.6,50.8,209.3,50.8z"/>
					</g>
					<g>
						<path class="st2" d="M209.1,53.1h-4.8c-0.3,0-0.5-0.2-0.5-0.5s0.2-0.5,0.5-0.5h4.8c0.3,0,0.5,0.2,0.5,0.5
							S209.4,53.1,209.1,53.1z"/>
					</g>
					<g>
						<path class="st2" d="M208.9,55.5h-12.7c-0.3,0-0.5-0.2-0.5-0.5s0.2-0.5,0.5-0.5h12.7c0.3,0,0.5,0.2,0.5,0.5
							S209.1,55.5,208.9,55.5z"/>
					</g>
				</g>
			</g>
			<g>
				<path d="M155.3,64.8c0.1-1.3,1.2-2.2,2.5-2.2c0.7,0,1.2,0.2,1.6,0.7l-0.6,0.5c-0.3-0.3-0.6-0.5-1.1-0.5c-0.9,0-1.6,0.6-1.6,1.5
					c-0.1,0.9,0.5,1.5,1.4,1.5c0.4,0,0.8-0.2,1.2-0.5l0.5,0.5c-0.4,0.5-1,0.7-1.7,0.7C156,66.9,155.1,66,155.3,64.8z"/>
				<path d="M159.5,64.8c0.1-1.2,1.2-2.2,2.5-2.2c1.3,0,2.2,0.9,2,2.2c-0.1,1.2-1.2,2.2-2.5,2.2C160.3,66.9,159.4,66,159.5,64.8z
					 M163.3,64.8c0.1-0.9-0.5-1.5-1.3-1.5c-0.8,0-1.5,0.6-1.6,1.5c-0.1,0.9,0.5,1.5,1.3,1.5C162.5,66.2,163.2,65.6,163.3,64.8z"/>
				<path d="M168.8,62.7l-0.4,4.2h-0.6l-2-2.8l-0.3,2.8h-0.8l0.4-4.2h0.6l2,2.8l0.3-2.8H168.8z"/>
				<path d="M170.7,63.3h-1.4l0.1-0.7h3.6l-0.1,0.7h-1.4l-0.4,3.5h-0.8L170.7,63.3z"/>
				<path d="M175.9,66.9l-0.7-1.2c-0.1,0-0.1,0-0.2,0h-0.9l-0.1,1.2h-0.8l0.4-4.2h1.7c1.1,0,1.7,0.6,1.6,1.5c-0.1,0.6-0.4,1.1-1,1.3
					l0.8,1.4H175.9z M175.2,63.3h-0.9l-0.2,1.7h0.9c0.7,0,1.1-0.3,1.1-0.8C176.2,63.6,175.9,63.3,175.2,63.3z"/>
				<path d="M180.4,65.9h-2.1l-0.5,1h-0.8l2.3-4.2h0.8l1.5,4.2h-0.8L180.4,65.9z M180.2,65.3l-0.6-1.8l-1,1.8H180.2z"/>
				<path d="M181.9,64.8c0.1-1.3,1.2-2.2,2.5-2.2c0.7,0,1.2,0.2,1.6,0.7l-0.6,0.5c-0.3-0.3-0.6-0.5-1.1-0.5c-0.9,0-1.6,0.6-1.6,1.5
					c-0.1,0.9,0.5,1.5,1.4,1.5c0.4,0,0.8-0.2,1.2-0.5l0.5,0.5c-0.4,0.5-1,0.7-1.7,0.7C182.6,66.9,181.8,66,181.9,64.8z"/>
				<path d="M187.5,63.3h-1.4l0.1-0.7h3.6l-0.1,0.7h-1.4l-0.4,3.5h-0.8L187.5,63.3z"/>
			</g>
			<g>
				<g>
					<path class="st2" d="M152.8,72.8h-17c-0.3,0-0.5-0.2-0.5-0.5c0-0.3,0.2-0.5,0.5-0.5h17c0.3,0,0.5,0.2,0.5,0.5
						C153.3,72.5,153.1,72.8,152.8,72.8z"/>
				</g>
				<g>
					<path class="st2" d="M144.1,75.5h-8.5c-0.3,0-0.5-0.2-0.5-0.5c0-0.3,0.2-0.5,0.5-0.5h8.5c0.3,0,0.5,0.2,0.5,0.5
						C144.6,75.2,144.3,75.5,144.1,75.5z"/>
				</g>
				<g>
					<path class="st2" d="M205,89.6h-70.8c-0.3,0-0.5-0.2-0.5-0.5c0-0.3,0.2-0.5,0.5-0.5H205c0.3,0,0.5,0.2,0.5,0.5
						C205.5,89.4,205.2,89.6,205,89.6z"/>
				</g>
				<g>
					<path class="st2" d="M204.6,92.7h-70.8c-0.3,0-0.5-0.2-0.5-0.5c0-0.3,0.2-0.5,0.5-0.5h70.8c0.3,0,0.5,0.2,0.5,0.5
						C205.1,92.4,204.9,92.7,204.6,92.7z"/>
				</g>
				<g>
					<path class="st2" d="M204.3,95.7h-70.8c-0.3,0-0.5-0.2-0.5-0.5c0-0.3,0.2-0.5,0.5-0.5h70.8c0.3,0,0.5,0.2,0.5,0.5
						C204.8,95.5,204.6,95.7,204.3,95.7z"/>
				</g>
				<g>
					<path class="st2" d="M204,98.8h-70.8c-0.3,0-0.5-0.2-0.5-0.5c0-0.3,0.2-0.5,0.5-0.5H204c0.3,0,0.5,0.2,0.5,0.5
						C204.5,98.6,204.3,98.8,204,98.8z"/>
				</g>
				<g>
					<path class="st2" d="M203.7,101.9h-70.8c-0.3,0-0.5-0.2-0.5-0.5c0-0.3,0.2-0.5,0.5-0.5h70.8c0.3,0,0.5,0.2,0.5,0.5
						C204.2,101.7,204,101.9,203.7,101.9z"/>
				</g>
				<g>
					<path class="st2" d="M203.4,105h-70.8c-0.3,0-0.5-0.2-0.5-0.5c0-0.3,0.2-0.5,0.5-0.5h70.8c0.3,0,0.5,0.2,0.5,0.5
						C203.9,104.8,203.7,105,203.4,105z"/>
				</g>
				<g>
					<path class="st2" d="M203.1,108.1h-70.8c-0.3,0-0.5-0.2-0.5-0.5c0-0.3,0.2-0.5,0.5-0.5h70.8c0.3,0,0.5,0.2,0.5,0.5
						C203.6,107.8,203.4,108.1,203.1,108.1z"/>
				</g>
				<g>
					<path class="st2" d="M202.8,111.2H132c-0.3,0-0.5-0.2-0.5-0.5c0-0.3,0.2-0.5,0.5-0.5h70.8c0.3,0,0.5,0.2,0.5,0.5
						C203.3,110.9,203.1,111.2,202.8,111.2z"/>
				</g>
				<g>
					<path class="st2" d="M167.5,114.2h-35.8c-0.3,0-0.5-0.2-0.5-0.5c0-0.3,0.2-0.5,0.5-0.5h35.8c0.3,0,0.5,0.2,0.5,0.5
						C168,114,167.7,114.2,167.5,114.2z"/>
				</g>
				<g>
					<path class="st2" d="M207.2,72.8H195c-0.3,0-0.5-0.2-0.5-0.5c0-0.3,0.2-0.5,0.5-0.5h12.2c0.3,0,0.5,0.2,0.5,0.5
						C207.7,72.5,207.5,72.8,207.2,72.8z"/>
				</g>
				<g>
					<path class="st2" d="M202.1,118.4h-63.3c-0.3,0-0.5-0.2-0.5-0.5c0-0.3,0.2-0.5,0.5-0.5h63.3c0.3,0,0.5,0.2,0.5,0.5
						C202.6,118.2,202.4,118.4,202.1,118.4z"/>
				</g>
				<g>
					<path class="st2" d="M201.7,121.5h-70.8c-0.3,0-0.5-0.2-0.5-0.5c0-0.3,0.2-0.5,0.5-0.5h70.8c0.3,0,0.5,0.2,0.5,0.5
						C202.2,121.3,202,121.5,201.7,121.5z"/>
				</g>
				<g>
					<path class="st2" d="M201.4,124.6h-70.8c-0.3,0-0.5-0.2-0.5-0.5c0-0.3,0.2-0.5,0.5-0.5h70.8c0.3,0,0.5,0.2,0.5,0.5
						C201.9,124.4,201.7,124.6,201.4,124.6z"/>
				</g>
				<g>
					<path class="st2" d="M201.1,127.7h-70.8c-0.3,0-0.5-0.2-0.5-0.5c0-0.3,0.2-0.5,0.5-0.5h70.8c0.3,0,0.5,0.2,0.5,0.5
						C201.6,127.4,201.4,127.7,201.1,127.7z"/>
				</g>
				<g>
					<path class="st2" d="M200.8,130.7H130c-0.3,0-0.5-0.2-0.5-0.5c0-0.3,0.2-0.5,0.5-0.5h70.8c0.3,0,0.5,0.2,0.5,0.5
						C201.3,130.5,201.1,130.7,200.8,130.7z"/>
				</g>
				<g>
					<path class="st2" d="M155.5,133.8h-25.8c-0.3,0-0.5-0.2-0.5-0.5s0.2-0.5,0.5-0.5h25.8c0.3,0,0.5,0.2,0.5,0.5
						S155.8,133.8,155.5,133.8z"/>
				</g>
			</g>
			<g class="st22">
				<polygon points="201.9,184.2 118.5,184.2 132.7,44 216.1,44 				"/>
			</g>
		</g>
		<g>
			<g>
				<path class="st12" d="M188.4,180c-27.8,0-55.6,0-83.4,0c15.3-45.1,24.6-90.9,26.6-136c27.8,0,55.6,0,83.4,0
					C213,89.1,203.7,134.9,188.4,180z"/>
			</g>
			<g>
				<path class="st2" d="M208.6,58.3c-24.4,0-48.7,0-73.1,0c-0.1,0-0.3-0.1-0.3-0.2c0-0.1,0.1-0.2,0.2-0.2c24.4,0,48.7,0,73.1,0
					c0.1,0,0.3,0.1,0.3,0.2C208.8,58.2,208.7,58.3,208.6,58.3z"/>
			</g>
			<g>
				<g>
					<g>
						<path class="st29" d="M144.8,51.9c-0.1,2.1-2,3.8-4.2,3.8c-2.2,0-3.8-1.7-3.7-3.8c0.1-2.1,2-3.8,4.2-3.8
							C143.2,48,144.9,49.7,144.8,51.9z"/>
					</g>
					<g>
						<path class="st2" d="M138.5,51.3c0,0-2,2.7-1.4,3.5c0.7,0.8,6.4-3.8,7.7-5.4c1.3-1.6-0.3-1-0.3-1c0,0,0.6,0,0.3,0.5
							c-0.6,1-6.1,4.6-6.7,4.4C137.7,53.2,138.5,51.3,138.5,51.3z"/>
					</g>
				</g>
				<g>
					<g>
						<path class="st2" d="M208.2,50.6c-2.5,0-5,0-7.5,0c-0.3,0-0.5-0.2-0.5-0.5c0-0.3,0.2-0.5,0.5-0.5c2.5,0,5,0,7.5,0
							c0.3,0,0.5,0.2,0.5,0.5C208.7,50.4,208.4,50.6,208.2,50.6z"/>
					</g>
					<g>
						<path class="st2" d="M208,52.8c-1.6,0-3.2,0-4.8,0c-0.3,0-0.5-0.2-0.5-0.5c0-0.3,0.2-0.5,0.5-0.5c1.6,0,3.2,0,4.8,0
							c0.3,0,0.5,0.2,0.5,0.5C208.5,52.6,208.3,52.8,208,52.8z"/>
					</g>
					<g>
						<path class="st2" d="M207.9,55.1c-4.2,0-8.4,0-12.7,0c-0.3,0-0.5-0.2-0.5-0.5c0-0.3,0.2-0.5,0.5-0.5c4.2,0,8.4,0,12.7,0
							c0.3,0,0.5,0.2,0.5,0.5C208.4,54.9,208.1,55.1,207.9,55.1z"/>
					</g>
				</g>
			</g>
			<g>
				<path d="M154.5,64.1c0.1-1.2,1.1-2.1,2.4-2.1c0.7,0,1.3,0.2,1.6,0.7c-0.2,0.2-0.4,0.3-0.5,0.5c-0.3-0.3-0.6-0.5-1.1-0.5
					c-0.9,0-1.6,0.6-1.6,1.4c-0.1,0.8,0.5,1.4,1.4,1.4c0.4,0,0.8-0.2,1.2-0.5c0.2,0.2,0.3,0.3,0.5,0.5c-0.4,0.4-1,0.7-1.7,0.7
					C155.3,66.2,154.4,65.3,154.5,64.1z"/>
				<path d="M158.8,64.1c0.1-1.2,1.1-2.1,2.4-2.1c1.3,0,2.2,0.9,2.1,2.1c-0.1,1.2-1.2,2.1-2.5,2.1C159.5,66.2,158.7,65.3,158.8,64.1
					z M162.5,64.1c0.1-0.8-0.5-1.4-1.3-1.4c-0.8,0-1.5,0.6-1.6,1.4c-0.1,0.8,0.5,1.4,1.3,1.4C161.7,65.5,162.4,64.9,162.5,64.1z"/>
				<path d="M168,62c-0.1,1.4-0.2,2.7-0.4,4.1c-0.2,0-0.4,0-0.6,0c-0.7-0.9-1.4-1.8-2.1-2.8c-0.1,0.9-0.2,1.8-0.2,2.8
					c-0.3,0-0.5,0-0.8,0c0.1-1.4,0.2-2.7,0.4-4.1c0.2,0,0.4,0,0.6,0c0.7,0.9,1.4,1.8,2.1,2.8c0.1-0.9,0.2-1.8,0.2-2.8
					C167.5,62,167.8,62,168,62z"/>
				<path d="M170,62.7c-0.5,0-0.9,0-1.4,0c0-0.2,0-0.4,0.1-0.6c1.2,0,2.4,0,3.6,0c0,0.2,0,0.4-0.1,0.6c-0.5,0-0.9,0-1.4,0
					c-0.1,1.1-0.2,2.3-0.3,3.4c-0.3,0-0.5,0-0.8,0C169.8,65,169.9,63.8,170,62.7z"/>
				<path d="M175.2,66.1c-0.2-0.4-0.5-0.8-0.7-1.2c-0.1,0-0.1,0-0.2,0c-0.3,0-0.6,0-0.9,0c0,0.4-0.1,0.8-0.1,1.2c-0.3,0-0.5,0-0.8,0
					c0.1-1.4,0.2-2.7,0.4-4.1c0.6,0,1.2,0,1.7,0c1.1,0,1.7,0.5,1.7,1.4c-0.1,0.6-0.4,1.1-1,1.3c0.3,0.4,0.6,0.9,0.8,1.3
					C175.7,66.1,175.4,66.1,175.2,66.1z M174.4,62.7c-0.3,0-0.6,0-0.9,0c0,0.5-0.1,1.1-0.1,1.6c0.3,0,0.6,0,0.9,0
					c0.7,0,1.1-0.3,1.1-0.8C175.4,63,175.1,62.7,174.4,62.7z"/>
				<path d="M179.6,65.2c-0.7,0-1.4,0-2.1,0c-0.2,0.3-0.3,0.6-0.5,0.9c-0.3,0-0.5,0-0.8,0c0.8-1.4,1.5-2.7,2.3-4.1
					c0.3,0,0.5,0,0.8,0c0.5,1.4,1,2.7,1.5,4.1c-0.3,0-0.5,0-0.8,0C179.8,65.8,179.7,65.5,179.6,65.2z M179.4,64.6
					c-0.2-0.6-0.4-1.2-0.6-1.8c-0.3,0.6-0.6,1.2-0.9,1.8C178.3,64.6,178.9,64.6,179.4,64.6z"/>
				<path d="M181.1,64.1c0.1-1.2,1.1-2.1,2.4-2.1c0.7,0,1.3,0.2,1.6,0.7c-0.2,0.2-0.4,0.3-0.5,0.5c-0.3-0.3-0.6-0.5-1.1-0.5
					c-0.9,0-1.5,0.6-1.6,1.4c-0.1,0.8,0.5,1.4,1.4,1.4c0.4,0,0.8-0.2,1.2-0.5c0.2,0.2,0.3,0.3,0.5,0.5c-0.4,0.4-1,0.7-1.7,0.7
					C181.9,66.2,181,65.3,181.1,64.1z"/>
				<path d="M186.7,62.7c-0.5,0-0.9,0-1.4,0c0-0.2,0-0.4,0.1-0.6c1.2,0,2.4,0,3.6,0c0,0.2,0,0.4-0.1,0.6c-0.5,0-0.9,0-1.4,0
					c-0.1,1.1-0.2,2.3-0.3,3.4c-0.3,0-0.5,0-0.8,0C186.5,65,186.6,63.8,186.7,62.7z"/>
			</g>
			<g>
				<g>
					<path class="st2" d="M152.1,71.8c-5.7,0-11.3,0-17,0c-0.3,0-0.5-0.2-0.5-0.5c0-0.3,0.2-0.5,0.5-0.5c5.7,0,11.3,0,17,0
						c0.3,0,0.5,0.2,0.5,0.5C152.6,71.6,152.4,71.8,152.1,71.8z"/>
				</g>
				<g>
					<path class="st2" d="M143.3,74.5c-2.8,0-5.7,0-8.5,0c-0.3,0-0.5-0.2-0.5-0.5c0-0.3,0.2-0.5,0.5-0.5c2.8,0,5.7,0,8.5,0
						c0.3,0,0.5,0.2,0.5,0.5C143.8,74.2,143.6,74.5,143.3,74.5z"/>
				</g>
				<g>
					<path class="st2" d="M203.9,88.2c-23.6,0-47.2,0-70.8,0c-0.3,0-0.5-0.2-0.5-0.5c0-0.3,0.2-0.5,0.5-0.5c23.6,0,47.2,0,70.8,0
						c0.3,0,0.5,0.2,0.5,0.5C204.4,87.9,204.2,88.2,203.9,88.2z"/>
				</g>
				<g>
					<path class="st2" d="M203.5,91.1c-23.6,0-47.2,0-70.8,0c-0.3,0-0.5-0.2-0.5-0.5c0-0.3,0.2-0.5,0.5-0.5c23.6,0,47.2,0,70.8,0
						c0.3,0,0.5,0.2,0.5,0.5C204,90.9,203.8,91.1,203.5,91.1z"/>
				</g>
				<g>
					<path class="st2" d="M203,94.1c-23.6,0-47.2,0-70.8,0c-0.3,0-0.5-0.2-0.5-0.5c0-0.3,0.2-0.5,0.5-0.5c23.6,0,47.2,0,70.8,0
						c0.3,0,0.5,0.2,0.5,0.5C203.5,93.9,203.3,94.1,203,94.1z"/>
				</g>
				<g>
					<path class="st2" d="M202.6,97.1c-23.6,0-47.2,0-70.8,0c-0.3,0-0.5-0.2-0.5-0.5c0-0.3,0.3-0.5,0.5-0.5c23.6,0,47.2,0,70.8,0
						c0.3,0,0.5,0.2,0.5,0.5C203.1,96.9,202.8,97.1,202.6,97.1z"/>
				</g>
				<g>
					<path class="st2" d="M202.1,100.1c-23.6,0-47.2,0-70.8,0c-0.3,0-0.5-0.2-0.5-0.5c0-0.3,0.3-0.5,0.5-0.5c23.6,0,47.2,0,70.8,0
						c0.3,0,0.5,0.2,0.5,0.5C202.6,99.9,202.4,100.1,202.1,100.1z"/>
				</g>
				<g>
					<path class="st2" d="M201.6,103.1c-23.6,0-47.2,0-70.8,0c-0.3,0-0.5-0.2-0.5-0.5c0-0.3,0.3-0.5,0.5-0.5c23.6,0,47.2,0,70.8,0
						c0.3,0,0.5,0.2,0.5,0.5C202.1,102.9,201.8,103.1,201.6,103.1z"/>
				</g>
				<g>
					<path class="st2" d="M201,106.1c-23.6,0-47.2,0-70.8,0c-0.3,0-0.5-0.2-0.5-0.5c0-0.3,0.3-0.5,0.5-0.5c23.6,0,47.2,0,70.8,0
						c0.3,0,0.5,0.2,0.5,0.5C201.6,105.9,201.3,106.1,201,106.1z"/>
				</g>
				<g>
					<path class="st2" d="M200.5,109.1c-23.6,0-47.2,0-70.8,0c-0.3,0-0.5-0.2-0.5-0.5c0-0.3,0.3-0.5,0.5-0.5c23.6,0,47.2,0,70.8,0
						c0.3,0,0.5,0.2,0.5,0.5C201,108.9,200.8,109.1,200.5,109.1z"/>
				</g>
				<g>
					<path class="st2" d="M164.9,112.1c-11.9,0-23.9,0-35.8,0c-0.3,0-0.5-0.2-0.5-0.5c0-0.3,0.3-0.5,0.5-0.5c11.9,0,23.9,0,35.8,0
						c0.3,0,0.5,0.2,0.5,0.5C165.4,111.9,165.2,112.1,164.9,112.1z"/>
				</g>
				<g>
					<path class="st2" d="M206.5,71.8c-4.1,0-8.1,0-12.2,0c-0.3,0-0.5-0.2-0.5-0.5c0-0.3,0.2-0.5,0.5-0.5c4.1,0,8.1,0,12.2,0
						c0.3,0,0.5,0.2,0.5,0.5C207,71.6,206.7,71.8,206.5,71.8z"/>
				</g>
				<g>
					<path class="st2" d="M199.2,116.2c-21.1,0-42.2,0-63.3,0c-0.3,0-0.5-0.2-0.5-0.5c0-0.3,0.3-0.5,0.5-0.5c21.1,0,42.2,0,63.3,0
						c0.3,0,0.5,0.2,0.5,0.5C199.7,116,199.4,116.2,199.2,116.2z"/>
				</g>
				<g>
					<path class="st2" d="M198.5,119.2c-23.6,0-47.2,0-70.8,0c-0.3,0-0.5-0.2-0.4-0.5c0-0.3,0.3-0.5,0.5-0.5c23.6,0,47.2,0,70.8,0
						c0.3,0,0.5,0.2,0.5,0.5C199,119,198.8,119.2,198.5,119.2z"/>
				</g>
				<g>
					<path class="st2" d="M197.9,122.2c-23.6,0-47.2,0-70.8,0c-0.3,0-0.5-0.2-0.4-0.5c0-0.3,0.3-0.5,0.6-0.5c23.6,0,47.2,0,70.8,0
						c0.3,0,0.5,0.2,0.4,0.5C198.4,121.9,198.2,122.2,197.9,122.2z"/>
				</g>
				<g>
					<path class="st2" d="M197.2,125.2c-23.6,0-47.2,0-70.8,0c-0.3,0-0.5-0.2-0.4-0.5c0-0.3,0.3-0.5,0.6-0.5c23.6,0,47.2,0,70.8,0
						c0.3,0,0.5,0.2,0.4,0.5C197.8,124.9,197.5,125.2,197.2,125.2z"/>
				</g>
				<g>
					<path class="st2" d="M196.6,128.2c-23.6,0-47.2,0-70.8,0c-0.3,0-0.5-0.2-0.4-0.5c0-0.3,0.3-0.5,0.6-0.5c23.6,0,47.2,0,70.8,0
						c0.3,0,0.5,0.2,0.4,0.5C197.1,127.9,196.8,128.2,196.6,128.2z"/>
				</g>
				<g>
					<path class="st2" d="M150.9,131.1c-8.6,0-17.2,0-25.8,0c-0.3,0-0.5-0.2-0.4-0.5c0-0.3,0.3-0.5,0.6-0.5c8.6,0,17.2,0,25.8,0
						c0.3,0,0.5,0.2,0.4,0.5C151.4,130.9,151.2,131.1,150.9,131.1z"/>
				</g>
			</g>
			<g class="st23">
				<path d="M188.4,180c-27.8,0-55.6,0-83.4,0c15.3-45.1,24.6-90.9,26.6-136c27.8,0,55.6,0,83.4,0C213,89.1,203.7,134.9,188.4,180z"
					/>
			</g>
		</g>
		<g>
			<g>
				<path class="st12" d="M177.1,171.1c-27.8,0-55.6,0-83.4,0c19.2-42.2,32-85,38-127.2c27.8,0,55.6,0,83.4,0
					C209.1,86.1,196.3,129,177.1,171.1z"/>
			</g>
			<g>
				<path class="st2" d="M207.8,57.3c-24.4,0-48.7,0-73.1,0c-0.1,0-0.2-0.1-0.2-0.2c0-0.1,0.1-0.2,0.3-0.2c24.4,0,48.7,0,73.1,0
					c0.1,0,0.2,0.1,0.2,0.2C208.1,57.2,208,57.3,207.8,57.3z"/>
			</g>
			<g>
				<g>
					<g>
						<path class="st29" d="M144.6,51.3c-0.3,2-2.4,3.6-4.6,3.6c-2.2,0-3.7-1.6-3.4-3.6c0.3-2,2.3-3.6,4.5-3.6
							C143.4,47.8,144.9,49.4,144.6,51.3z"/>
					</g>
					<g>
						<path class="st2" d="M138.4,50.8c0,0-2.3,2.5-1.7,3.3c0.6,0.8,6.7-3.6,8.2-5.1c1.5-1.5-0.2-0.9-0.2-0.9c0,0,0.6,0,0.3,0.5
							c-0.7,0.9-6.5,4.3-7.1,4.1C137.4,52.6,138.4,50.8,138.4,50.8z"/>
					</g>
				</g>
				<g>
					<g>
						<path class="st2" d="M208.1,50.1c-2.5,0-5,0-7.5,0c-0.3,0-0.5-0.2-0.5-0.5c0-0.2,0.2-0.5,0.5-0.5c2.5,0,5,0,7.5,0
							c0.3,0,0.5,0.2,0.5,0.5C208.6,49.9,208.4,50.1,208.1,50.1z"/>
					</g>
					<g>
						<path class="st2" d="M207.7,52.2c-1.6,0-3.2,0-4.8,0c-0.3,0-0.5-0.2-0.5-0.5c0-0.2,0.2-0.5,0.5-0.5c1.6,0,3.2,0,4.8,0
							c0.3,0,0.5,0.2,0.5,0.5C208.3,52,208,52.2,207.7,52.2z"/>
					</g>
					<g>
						<path class="st2" d="M207.4,54.4c-4.2,0-8.4,0-12.7,0c-0.3,0-0.5-0.2-0.5-0.5c0-0.2,0.2-0.5,0.5-0.5c4.2,0,8.4,0,12.7,0
							c0.3,0,0.5,0.2,0.5,0.5C207.9,54.1,207.7,54.4,207.4,54.4z"/>
					</g>
				</g>
			</g>
			<g>
				<g>
					<path class="st2" d="M128.4,164.1c-8.5,0-17.1,0-25.6,0c-0.3,0-0.4-0.2-0.4-0.5c0.1-0.2,0.4-0.5,0.6-0.5c8.5,0,17.1,0,25.6,0
						c0.3,0,0.4,0.2,0.4,0.5C129,163.9,128.7,164.1,128.4,164.1z"/>
				</g>
				<g>
					<path class="st2" d="M174.4,164.1c-9.8,0-19.7,0-29.5,0c-0.3,0-0.4-0.2-0.4-0.5c0.1-0.2,0.4-0.5,0.6-0.5c9.8,0,19.7,0,29.5,0
						c0.3,0,0.4,0.2,0.4,0.5C175,163.9,174.7,164.1,174.4,164.1z"/>
				</g>
				<g>
					<path class="st2" d="M133,137.9c-4.5,0-9,0-13.6,0c-0.3,0-0.4-0.2-0.4-0.5c0.1-0.3,0.3-0.5,0.6-0.5c4.5,0,9,0,13.6,0
						c0.3,0,0.4,0.2,0.4,0.5C133.6,137.7,133.3,137.9,133,137.9z"/>
				</g>
				<g>
					<path class="st2" d="M180.1,137.9c-6.6,0-13.2,0-19.8,0c-0.3,0-0.4-0.2-0.4-0.5c0.1-0.3,0.3-0.5,0.6-0.5c6.6,0,13.2,0,19.8,0
						c0.3,0,0.4,0.2,0.4,0.5C180.7,137.7,180.4,137.9,180.1,137.9z"/>
				</g>
			</g>
			<g>
				<path class="st2" d="M158.6,158.8c-0.5,0-0.9-0.1-1.2-0.3c-0.6-0.4-0.8-1-0.4-1.8c0-0.1,0.1-0.2,0.2-0.3c-2.1,0.8-4.2,1.4-6,1.5
					c-1.2,0.1-1.5-0.4-1.6-0.8c-0.1-0.7,0.7-1.9,1.8-3.3c-2.7,1.2-4.7,1.9-4.7,2c-0.1,0.1-0.3,0-0.3-0.1c0-0.1,0.1-0.2,0.2-0.3
					c0,0,2.4-0.9,5.5-2.3c3.1-3.4,8.3-7.6,11-9c1.9-1,3.1-1.3,3.3-0.8c0.5,0.7-1.8,3-5.4,5.4c-2.7,1.8-5.9,3.5-8.7,4.7
					c-1.4,1.5-2.3,2.9-2.3,3.6c0,0.1,0,0.6,1.1,0.5c1.8-0.1,4.1-0.8,6.3-1.6c1.6-2.1,5.2-4.6,6.8-5c0.6-0.2,0.9,0,1,0.2
					c0.1,0.2,0.1,0.4-0.2,0.9c-0.9,1.1-4,3-7.3,4.3c-0.2,0.2-0.3,0.4-0.4,0.7c-0.3,0.6-0.2,1.1,0.3,1.4c1.1,0.6,4-0.3,6.9-1.6
					c0-0.1,0.1-0.3,0.1-0.5c0.8-1.8,4.7-4.6,6.8-4.5c0.4,0,0.5,0.2,0.5,0.4c0,0.7-1.7,1.9-3.2,2.8c-1,0.6-2.4,1.4-3.7,2
					c0.1,0.2,0.3,0.4,0.7,0.5c3.1,0.5,10.3-4,10.4-4.1c0.1-0.1,0.3-0.1,0.3,0c0.1,0.1,0,0.2-0.1,0.3c-0.3,0.2-7.5,4.7-10.8,4.2
					c-0.6-0.1-0.9-0.3-1-0.7C162.4,158,160.1,158.8,158.6,158.8z M171.2,152c-1.8,0-5.4,2.6-6,4.1c0,0,0,0.1-0.1,0.1
					c1.2-0.6,2.4-1.3,3.5-1.9c2.1-1.3,2.9-2.1,2.9-2.3c0,0,0,0-0.2,0C171.3,152,171.3,152,171.2,152z M164.6,151.2
					c-0.1,0-0.2,0-0.3,0c-1.4,0.4-4.5,2.4-6.1,4.3c3-1.2,5.7-2.8,6.4-3.8c0.1-0.2,0.2-0.3,0.1-0.4
					C164.8,151.2,164.7,151.2,164.6,151.2z M165.7,143.3c-0.3,0-1,0.2-2.5,1c-2.6,1.4-7.1,5-10.1,8.1c2.5-1.2,5.3-2.6,7.6-4.2
					c3.8-2.6,5.4-4.5,5.2-4.8C165.9,143.4,165.8,143.3,165.7,143.3z"/>
			</g>
			<g>
				<g>
					<path class="st2" d="M150.2,70c-5.7,0-11.3,0-17,0c-0.3,0-0.5-0.2-0.5-0.5c0-0.3,0.3-0.5,0.5-0.5c5.7,0,11.3,0,17,0
						c0.3,0,0.5,0.2,0.5,0.5C150.7,69.8,150.5,70,150.2,70z"/>
				</g>
				<g>
					<path class="st2" d="M141.2,72.5c-2.8,0-5.7,0-8.5,0c-0.3,0-0.5-0.2-0.5-0.5c0-0.3,0.3-0.5,0.5-0.5c2.8,0,5.7,0,8.5,0
						c0.3,0,0.5,0.2,0.5,0.5C141.7,72.3,141.5,72.5,141.2,72.5z"/>
				</g>
				<g>
					<path class="st2" d="M200.6,85.3c-23.6,0-47.2,0-70.8,0c-0.3,0-0.5-0.2-0.4-0.5c0-0.3,0.3-0.5,0.6-0.5c23.6,0,47.2,0,70.8,0
						c0.3,0,0.5,0.2,0.4,0.5C201.1,85.1,200.9,85.3,200.6,85.3z"/>
				</g>
				<g>
					<path class="st2" d="M199.9,88.1c-23.6,0-47.2,0-70.8,0c-0.3,0-0.5-0.2-0.4-0.5c0-0.3,0.3-0.5,0.6-0.5c23.6,0,47.2,0,70.8,0
						c0.3,0,0.5,0.2,0.4,0.5C200.4,87.9,200.2,88.1,199.9,88.1z"/>
				</g>
				<g>
					<path class="st2" d="M199.2,90.9c-23.6,0-47.2,0-70.8,0c-0.3,0-0.5-0.2-0.4-0.5c0-0.3,0.3-0.5,0.6-0.5c23.6,0,47.2,0,70.8,0
						c0.3,0,0.5,0.2,0.4,0.5C199.7,90.7,199.4,90.9,199.2,90.9z"/>
				</g>
				<g>
					<path class="st2" d="M198.4,93.7c-23.6,0-47.2,0-70.8,0c-0.3,0-0.5-0.2-0.4-0.5c0-0.3,0.3-0.5,0.6-0.5c23.6,0,47.2,0,70.8,0
						c0.3,0,0.5,0.2,0.4,0.5C199,93.5,198.7,93.7,198.4,93.7z"/>
				</g>
				<g>
					<path class="st2" d="M197.7,96.5c-23.6,0-47.2,0-70.8,0c-0.3,0-0.5-0.2-0.4-0.5c0-0.3,0.3-0.5,0.6-0.5c23.6,0,47.2,0,70.8,0
						c0.3,0,0.5,0.2,0.4,0.5C198.2,96.3,198,96.5,197.7,96.5z"/>
				</g>
				<g>
					<path class="st2" d="M196.9,99.3c-23.6,0-47.2,0-70.8,0c-0.3,0-0.5-0.2-0.4-0.5c0-0.3,0.3-0.5,0.6-0.5c23.6,0,47.2,0,70.8,0
						c0.3,0,0.5,0.2,0.4,0.5C197.5,99.1,197.2,99.3,196.9,99.3z"/>
				</g>
				<g>
					<path class="st2" d="M196.1,102.1c-23.6,0-47.2,0-70.8,0c-0.3,0-0.5-0.2-0.4-0.5c0-0.3,0.3-0.5,0.6-0.5c23.6,0,47.2,0,70.8,0
						c0.3,0,0.5,0.2,0.4,0.5C196.7,101.9,196.4,102.1,196.1,102.1z"/>
				</g>
				<g>
					<path class="st2" d="M195.3,104.9c-23.6,0-47.2,0-70.8,0c-0.3,0-0.5-0.2-0.4-0.5c0-0.3,0.3-0.5,0.6-0.5c23.6,0,47.2,0,70.8,0
						c0.3,0,0.5,0.2,0.4,0.5C195.9,104.7,195.6,104.9,195.3,104.9z"/>
				</g>
				<g>
					<path class="st2" d="M159.5,107.7c-11.9,0-23.9,0-35.8,0c-0.3,0-0.5-0.2-0.4-0.5c0-0.3,0.3-0.5,0.6-0.5c11.9,0,23.9,0,35.8,0
						c0.3,0,0.5,0.2,0.4,0.5C160,107.5,159.8,107.7,159.5,107.7z"/>
				</g>
				<g>
					<path class="st2" d="M204.5,70c-4.1,0-8.1,0-12.2,0c-0.3,0-0.5-0.2-0.5-0.5c0-0.3,0.3-0.5,0.5-0.5c4.1,0,8.1,0,12.2,0
						c0.3,0,0.5,0.2,0.5,0.5C205.1,69.8,204.8,70,204.5,70z"/>
				</g>
				<g>
					<path class="st2" d="M193.4,111.5c-21.1,0-42.2,0-63.3,0c-0.3,0-0.5-0.2-0.4-0.5c0-0.3,0.3-0.5,0.6-0.5c21.1,0,42.2,0,63.3,0
						c0.3,0,0.5,0.2,0.4,0.5C193.9,111.3,193.7,111.5,193.4,111.5z"/>
				</g>
				<g>
					<path class="st2" d="M192.5,114.3c-23.6,0-47.2,0-70.8,0c-0.3,0-0.5-0.2-0.4-0.5c0.1-0.3,0.3-0.5,0.6-0.5c23.6,0,47.2,0,70.8,0
						c0.3,0,0.5,0.2,0.4,0.5C193,114.1,192.8,114.3,192.5,114.3z"/>
				</g>
				<g>
					<path class="st2" d="M191.6,117.1c-23.6,0-47.2,0-70.8,0c-0.3,0-0.5-0.2-0.4-0.5c0.1-0.3,0.3-0.5,0.6-0.5c23.6,0,47.2,0,70.8,0
						c0.3,0,0.5,0.2,0.4,0.5C192.1,116.9,191.9,117.1,191.6,117.1z"/>
				</g>
				<g>
					<path class="st2" d="M190.7,119.9c-23.6,0-47.2,0-70.8,0c-0.3,0-0.5-0.2-0.4-0.5c0.1-0.3,0.3-0.5,0.6-0.5c23.6,0,47.2,0,70.8,0
						c0.3,0,0.5,0.2,0.4,0.5C191.2,119.7,191,119.9,190.7,119.9z"/>
				</g>
				<g>
					<path class="st2" d="M189.8,122.7c-23.6,0-47.2,0-70.8,0c-0.3,0-0.5-0.2-0.4-0.5c0.1-0.3,0.3-0.5,0.6-0.5c23.6,0,47.2,0,70.8,0
						c0.3,0,0.5,0.2,0.4,0.5C190.3,122.5,190,122.7,189.8,122.7z"/>
				</g>
				<g>
					<path class="st2" d="M143.8,125.5c-8.6,0-17.2,0-25.8,0c-0.3,0-0.5-0.2-0.4-0.5c0.1-0.3,0.3-0.5,0.6-0.5c8.6,0,17.2,0,25.8,0
						c0.3,0,0.5,0.2,0.4,0.5C144.3,125.3,144.1,125.5,143.8,125.5z"/>
				</g>
			</g>
			<g class="st6">
				<g>
					<g>
						<path d="M141.1,147.9c0.3-0.2,0.9-0.7,1.3-1c0.2-0.1,0.4-0.1,0.5,0c0.2,0.3,0.4,0.5,0.6,0.8c0,0-0.7,0.8-0.9,1.1
							c-2.3,2.7-3.7,5.3-3.5,5.8c2.4-0.2,17.7-7.8,24.6-12.2c-1.5-3.2-5.2-5.2-10.1-5c-7,0.3-14.6,5.2-17.8,11.5
							c-1.2,2.2-1.7,4.3-1.6,6.2C136.6,152.1,139.9,149,141.1,147.9z"/>
					</g>
					<g>
						<path d="M136.5,160.8c1.7,1.6,4.2,2.5,7.3,2.5c7.9,0,16.8-5.8,19.7-12.9c0.8-1.9,1-3.8,0.8-5.4
							C157.3,149.9,143.7,158.2,136.5,160.8z"/>
					</g>
				</g>
				<g>
					<path d="M141.8,148.4c0,0-10.3,9.1-9,11.9c1.5,2.8,27.5-12.9,34-18.2c6.5-5.4,0-3.2,0-3.2c0,0,2.2,0.1,0.6,1.8
						c-3.3,3.4-27,15.5-28.9,14.8C136.6,154.8,141.8,148.4,141.8,148.4z"/>
				</g>
			</g>
			<g>
				<path class="st29" d="M110,159.7c-3.7,0-4.4-1.4-4.4-2.7c0.1-3.6,7.2-9.9,14.6-12.8c4.1-1.6,7.3-1.7,8.3-0.3
					c0.8,1.2-0.2,3.2-2.7,5.5c-4.9,4.5-9,5.5-10.7,4.5c-0.3-0.1-0.5-0.3-0.6-0.6c-0.5,0.2-0.9,0.4-1.5,0.7c-0.1,0.1-0.3,0-0.3-0.1
					c0-0.1,0.1-0.2,0.2-0.3c0.5-0.2,1-0.4,1.4-0.6c-0.1-0.4,0-0.9,0.3-1.4c0.7-1,2-1.6,2.8-1.5c0.5,0,0.7,0.2,0.7,0.6
					c0,0.7-1.1,1.5-3.2,2.5c0.1,0.2,0.3,0.3,0.5,0.4c1.2,0.7,4.7,0.5,10.1-4.4c2.3-2.1,3.2-3.9,2.5-4.9c-0.8-1.3-3.9-1.1-7.7,0.4
					c-7.2,2.9-14.1,8.8-14.2,12.3c-0.1,1.6,1.5,2.4,4.5,2.3c3.8-0.1,7.8-1.7,11.2-3.5c1.1-2,4.2-4.7,7.5-6.3c0.7-0.3,1-0.4,1.2-0.2
					c0.1,0.1,0.1,0.3-0.1,0.6c-0.7,1.1-4,3.8-8.2,6.1c-0.1,0.1-0.1,0.2-0.1,0.4c-0.2,0.6-0.1,1.1,0.2,1.4c1.4,1.2,6.5-2.3,8.4-3.8
					c0.1-0.1,0.3-0.1,0.4,0c0.1,0.1,0,0.2-0.1,0.3c-0.3,0.2-7.1,5.5-9.1,3.8c-0.5-0.4-0.6-1-0.3-1.8c-3.4,1.8-7.4,3.3-11.1,3.4
					C110.4,159.7,110.2,159.7,110,159.7z M130.1,149.6c-0.1,0-0.3,0.1-0.6,0.2c-2.9,1.4-5.6,3.7-6.9,5.5c2.6-1.5,4.7-3,6-4.2
					C129.7,150.3,130,149.8,130.1,149.6z M117.3,150.5c-0.6,0-1.6,0.4-2.1,1.2c-0.2,0.4-0.3,0.7-0.3,1.1c2.2-1.1,2.8-1.8,2.8-2.1
					C117.7,150.6,117.5,150.5,117.3,150.5C117.3,150.5,117.3,150.5,117.3,150.5z"/>
			</g>
			<g>
				<path d="M146,64.8c-0.3,0-0.6-0.1-0.9-0.2c-0.3-0.1-0.6-0.3-0.8-0.5l0.5-0.7c0.2,0.2,0.4,0.3,0.6,0.4c0.2,0.1,0.4,0.1,0.7,0.1
					c0.2,0,0.3,0,0.4-0.1c0.1-0.1,0.2-0.2,0.2-0.3v0c0-0.1,0-0.1,0-0.2c0,0-0.1-0.1-0.1-0.1c-0.1,0-0.1-0.1-0.3-0.1
					c-0.1,0-0.3-0.1-0.4-0.1c-0.2-0.1-0.4-0.1-0.6-0.2c-0.2-0.1-0.3-0.1-0.4-0.2c-0.1-0.1-0.2-0.2-0.3-0.4c-0.1-0.1-0.1-0.3-0.1-0.5
					v0c0-0.2,0-0.4,0.1-0.5s0.2-0.3,0.3-0.4c0.1-0.1,0.3-0.2,0.5-0.3c0.2-0.1,0.4-0.1,0.6-0.1c0.3,0,0.6,0,0.8,0.1
					c0.3,0.1,0.5,0.2,0.7,0.4l-0.5,0.7c-0.2-0.1-0.4-0.2-0.6-0.3s-0.4-0.1-0.5-0.1c-0.2,0-0.3,0-0.4,0.1c-0.1,0.1-0.1,0.2-0.1,0.3v0
					c0,0.1,0,0.1,0,0.2c0,0.1,0.1,0.1,0.1,0.1s0.2,0.1,0.3,0.1c0.1,0,0.3,0.1,0.4,0.1c0.2,0.1,0.4,0.1,0.6,0.2s0.3,0.2,0.4,0.3
					c0.1,0.1,0.2,0.2,0.3,0.3s0.1,0.3,0.1,0.5v0c0,0.2,0,0.4-0.1,0.6c-0.1,0.2-0.2,0.3-0.3,0.4c-0.1,0.1-0.3,0.2-0.5,0.3
					C146.4,64.8,146.2,64.8,146,64.8z"/>
				<path d="M150.1,64.8c-0.6,0-1-0.2-1.3-0.5s-0.5-0.8-0.5-1.4v-2.4h0.9v2.4c0,0.3,0.1,0.6,0.2,0.8c0.2,0.2,0.4,0.3,0.7,0.3
					c0.3,0,0.5-0.1,0.7-0.3c0.2-0.2,0.2-0.4,0.2-0.8v-2.4h0.9v2.4c0,0.3,0,0.6-0.1,0.8c-0.1,0.2-0.2,0.4-0.4,0.6
					c-0.2,0.2-0.4,0.3-0.6,0.4C150.6,64.8,150.3,64.8,150.1,64.8z"/>
				<path d="M152.8,60.6h1.9c0.5,0,0.9,0.1,1.2,0.4c0.2,0.2,0.4,0.6,0.4,1v0c0,0.3-0.1,0.6-0.2,0.8c-0.2,0.2-0.4,0.4-0.7,0.5l1,1.5
					h-1.1l-0.9-1.3h0h-0.7v1.3h-0.9V60.6z M154.7,62.6c0.2,0,0.4-0.1,0.5-0.2s0.2-0.3,0.2-0.4v0c0-0.2-0.1-0.3-0.2-0.4
					c-0.1-0.1-0.3-0.1-0.5-0.1h-0.9v1.2H154.7z"/>
				<path d="M158.6,60.5h0.9l1.8,4.2h-1l-0.4-0.9h-1.8l-0.4,0.9h-0.9L158.6,60.5z M159.6,63l-0.6-1.4l-0.6,1.4H159.6z"/>
				<path d="M162.9,61.4h-1.3v-0.9h3.5v0.9h-1.3v3.3h-0.9V61.4z"/>
				<path d="M169.1,64.8c-0.3,0-0.6-0.1-0.9-0.2c-0.3-0.1-0.6-0.3-0.8-0.5l0.5-0.7c0.2,0.2,0.4,0.3,0.6,0.4s0.4,0.1,0.7,0.1
					c0.2,0,0.3,0,0.4-0.1c0.1-0.1,0.2-0.2,0.2-0.3v0c0-0.1,0-0.1,0-0.2c0,0-0.1-0.1-0.1-0.1c-0.1,0-0.1-0.1-0.3-0.1
					c-0.1,0-0.3-0.1-0.4-0.1c-0.2-0.1-0.4-0.1-0.6-0.2c-0.2-0.1-0.3-0.1-0.4-0.2s-0.2-0.2-0.3-0.4c-0.1-0.1-0.1-0.3-0.1-0.5v0
					c0-0.2,0-0.4,0.1-0.5c0.1-0.2,0.2-0.3,0.3-0.4c0.1-0.1,0.3-0.2,0.5-0.3c0.2-0.1,0.4-0.1,0.6-0.1c0.3,0,0.6,0,0.8,0.1
					c0.3,0.1,0.5,0.2,0.7,0.4l-0.5,0.7c-0.2-0.1-0.4-0.2-0.6-0.3c-0.2-0.1-0.4-0.1-0.5-0.1c-0.2,0-0.3,0-0.4,0.1
					c-0.1,0.1-0.1,0.2-0.1,0.3v0c0,0.1,0,0.1,0,0.2s0.1,0.1,0.1,0.1s0.2,0.1,0.3,0.1c0.1,0,0.3,0.1,0.4,0.1c0.2,0.1,0.4,0.1,0.6,0.2
					c0.2,0.1,0.3,0.2,0.4,0.3c0.1,0.1,0.2,0.2,0.3,0.3c0.1,0.1,0.1,0.3,0.1,0.5v0c0,0.2,0,0.4-0.1,0.6c-0.1,0.2-0.2,0.3-0.3,0.4
					c-0.1,0.1-0.3,0.2-0.5,0.3C169.5,64.8,169.3,64.8,169.1,64.8z"/>
				<path d="M173.5,64.8c-0.3,0-0.6-0.1-0.9-0.2c-0.3-0.1-0.5-0.3-0.7-0.5c-0.2-0.2-0.4-0.4-0.5-0.7c-0.1-0.3-0.2-0.5-0.2-0.8v0
					c0-0.3,0.1-0.6,0.2-0.8c0.1-0.3,0.3-0.5,0.5-0.7s0.4-0.4,0.7-0.5s0.6-0.2,0.9-0.2s0.6,0.1,0.9,0.2s0.5,0.3,0.7,0.5
					s0.4,0.4,0.5,0.7c0.1,0.3,0.2,0.5,0.2,0.8v0c0,0.3-0.1,0.6-0.2,0.8c-0.1,0.3-0.3,0.5-0.5,0.7c-0.2,0.2-0.4,0.4-0.7,0.5
					C174.1,64.8,173.8,64.8,173.5,64.8z M173.5,64c0.2,0,0.4,0,0.5-0.1c0.2-0.1,0.3-0.2,0.4-0.3c0.1-0.1,0.2-0.3,0.3-0.4
					c0.1-0.2,0.1-0.3,0.1-0.5v0c0-0.2,0-0.3-0.1-0.5c-0.1-0.2-0.1-0.3-0.3-0.4c-0.1-0.1-0.2-0.2-0.4-0.3s-0.3-0.1-0.5-0.1
					c-0.2,0-0.4,0-0.5,0.1c-0.2,0.1-0.3,0.2-0.4,0.3c-0.1,0.1-0.2,0.3-0.3,0.4c-0.1,0.2-0.1,0.3-0.1,0.5v0c0,0.2,0,0.4,0.1,0.5
					c0.1,0.2,0.2,0.3,0.3,0.4c0.1,0.1,0.2,0.2,0.4,0.3C173.1,64,173.3,64,173.5,64z"/>
				<path d="M176.6,60.6h1l1.1,1.8l1.1-1.8h1v4.2h-0.9V62l-1.2,1.8h0l-1.2-1.8v2.7h-0.9V60.6z"/>
				<path d="M183.2,60.5h0.9l1.8,4.2h-1l-0.4-0.9h-1.8l-0.4,0.9h-0.9L183.2,60.5z M184.2,63l-0.6-1.4l-0.6,1.4H184.2z"/>
				<path d="M188,64.8c-0.3,0-0.6-0.1-0.9-0.2c-0.3-0.1-0.6-0.3-0.8-0.5l0.5-0.7c0.2,0.2,0.4,0.3,0.6,0.4s0.4,0.1,0.7,0.1
					c0.2,0,0.3,0,0.4-0.1c0.1-0.1,0.2-0.2,0.2-0.3v0c0-0.1,0-0.1,0-0.2c0,0-0.1-0.1-0.1-0.1c-0.1,0-0.1-0.1-0.3-0.1
					c-0.1,0-0.3-0.1-0.4-0.1c-0.2-0.1-0.4-0.1-0.6-0.2c-0.2-0.1-0.3-0.1-0.4-0.2c-0.1-0.1-0.2-0.2-0.3-0.4c-0.1-0.1-0.1-0.3-0.1-0.5
					v0c0-0.2,0-0.4,0.1-0.5s0.2-0.3,0.3-0.4c0.1-0.1,0.3-0.2,0.5-0.3c0.2-0.1,0.4-0.1,0.6-0.1c0.3,0,0.6,0,0.8,0.1
					c0.3,0.1,0.5,0.2,0.7,0.4l-0.5,0.7c-0.2-0.1-0.4-0.2-0.6-0.3s-0.4-0.1-0.5-0.1s-0.3,0-0.4,0.1c-0.1,0.1-0.1,0.2-0.1,0.3v0
					c0,0.1,0,0.1,0,0.2c0,0.1,0.1,0.1,0.1,0.1c0.1,0,0.2,0.1,0.3,0.1c0.1,0,0.3,0.1,0.4,0.1c0.2,0.1,0.4,0.1,0.6,0.2
					s0.3,0.2,0.4,0.3c0.1,0.1,0.2,0.2,0.3,0.3s0.1,0.3,0.1,0.5v0c0,0.2,0,0.4-0.1,0.6s-0.2,0.3-0.3,0.4c-0.1,0.1-0.3,0.2-0.5,0.3
					C188.4,64.8,188.2,64.8,188,64.8z"/>
				<path d="M190.4,60.6h0.9v4.2h-0.9V60.6z"/>
				<path d="M193.9,64l1.4-1.1c0.1-0.1,0.2-0.2,0.3-0.3c0.1-0.1,0.2-0.2,0.2-0.2c0.1-0.1,0.1-0.2,0.1-0.2c0-0.1,0-0.2,0-0.2
					c0-0.2-0.1-0.3-0.2-0.4c-0.1-0.1-0.2-0.1-0.4-0.1c-0.2,0-0.3,0-0.4,0.1c-0.1,0.1-0.3,0.2-0.4,0.4l-0.6-0.5
					c0.1-0.1,0.2-0.3,0.3-0.4c0.1-0.1,0.2-0.2,0.3-0.3c0.1-0.1,0.3-0.1,0.4-0.2c0.1,0,0.3-0.1,0.5-0.1c0.2,0,0.4,0,0.6,0.1
					s0.3,0.1,0.5,0.3c0.1,0.1,0.2,0.2,0.3,0.4c0.1,0.2,0.1,0.3,0.1,0.5v0c0,0.2,0,0.3-0.1,0.5s-0.1,0.3-0.2,0.4
					c-0.1,0.1-0.2,0.2-0.3,0.4c-0.1,0.1-0.3,0.3-0.5,0.4l-0.7,0.5h1.8v0.8h-3.1V64z"/>
			</g>
		</g>
	</g>
	<g id="_x3C_Group_x3E__1_">
		<g>
			<path class="st29" d="M92.3,67.9c0,0-9.2-9.1-20.3-9.7c0,0-6.6,16-9.8,31.8l21.9,3.9C84.2,93.9,87.2,77.5,92.3,67.9z"/>
			<path class="st24" d="M92.3,67.9c-5.1,9.6-8.1,26-8.1,26L62.2,90c1.2-5.8,2.8-11.7,4.4-16.7c1.2-3.8,2.4-7.2,3.3-9.7
				c1.2-3.3,2-5.3,2-5.3C83.1,58.8,92.3,67.9,92.3,67.9z"/>
		</g>
		<g>
			<path class="st25" d="M87.5,58.8c-0.2,0.2-0.5,0.4-0.7,0.7c0,0-0.1,0.1-0.1,0.1c-0.5,0.5-0.8,1.1-1,1.7c-0.1,0.3-0.1,0.5-0.1,0.8
				c0,0.8,0.3,1.7,1.2,2.6c0,1.1-2.9,0-2.9,0s-4.2-2.2-4.7-4.8c1.6-0.3,3.1-2.1,4.2-4.1c0.3-0.5,0.6-1,0.8-1.5
				c0.4-0.9,0.8-1.7,1.1-2.5L87.5,58.8z"/>
			<path class="st22" d="M86.9,59.5c0,0-0.1,0.1-0.1,0.1c-0.5,0.5-0.8,1.1-1,1.7c-0.1,0.3-0.1,0.5-0.1,0.8c-1.2-1.2-2.8-3.4-2.1-6.2
				c0.1-0.6,0.3-1.2,0.7-1.8l0.1,0.3L86.9,59.5z"/>
		</g>
		<g>
			<path class="st2" d="M98,49.4c0,0-1.2,5.5-4.7,6.5c-3.5,1,0.2-8.8,0.2-8.8L98,49.4z"/>
			<path class="st25" d="M83.7,57c0.6,2.4,2.6,3.8,4.7,3.9c1.4,0.1,2.8-0.3,3.9-1.3c0.2-0.1,0.3-0.3,0.4-0.4
				c2.6-2.7,5.1-8.1,2.6-11.5c-1.8-2.4-5.3-2.9-7.7-1.1c-0.7,0.5-1.2,1.2-1.6,2C84.2,52.2,83,54.2,83.7,57z"/>
			<path class="st2" d="M90.7,52.7c-0.2,0.3-0.2,0.6,0,0.7c0.2,0.1,0.5,0,0.6-0.3c0.2-0.3,0.1-0.6,0-0.7
				C91.2,52.2,90.9,52.4,90.7,52.7z"/>
			<path class="st2" d="M93.9,54.5c-0.2,0.3-0.1,0.6,0,0.7c0.2,0.1,0.5,0,0.6-0.3c0.2-0.3,0.1-0.6,0-0.7
				C94.4,54.1,94.1,54.3,93.9,54.5z"/>
			<path class="st26" d="M92.8,54.1c-0.2,1.1-0.2,2.1-0.1,3.2c-0.6,0-1.1-0.2-1.5-0.5L92.8,54.1z"/>
			<path class="st2" d="M95.9,53.9c-0.1,0-0.1,0-0.2-0.1c-0.2-0.4-0.6-0.7-1.1-0.8c-0.1,0-0.2-0.1-0.2-0.2c0-0.1,0.1-0.2,0.2-0.2
				c0,0,0,0,0,0c0.6,0.1,1.1,0.5,1.4,1C96.1,53.7,96.1,53.8,95.9,53.9C96,53.9,96,53.9,95.9,53.9C96,53.9,95.9,53.9,95.9,53.9z"/>
			<path class="st2" d="M90.9,51C90.8,51,90.8,51,90.9,51c-0.1-0.2,0-0.3,0.1-0.3c0,0,0,0,0,0c0.6-0.1,1.2,0.1,1.7,0.5
				c0.1,0.1,0.1,0.2,0,0.3l0,0c-0.1,0.1-0.2,0.1-0.3,0l0,0C92,51.1,91.5,51,91,51.1C91,51.1,90.9,51.1,90.9,51z"/>
			<path class="st2" d="M91.1,45.8l-0.6,1.7c-0.7,0-1.3,0.4-1.4,1.2c-0.2,1.6-2,3.2-3.5,3.5c0,0,0.3-0.6-0.3-0.7
				c-0.6-0.1-2,2.9-1.8,4.8c0,0-0.7-2,0.1-5.6c0.8-3.3,2-5.7,3.1-6.5L91.1,45.8z"/>
			<path class="st25" d="M82.9,50.5c-0.1,1,0.2,2,0.9,2.8c0.9,1,2.1,0.4,2.4-0.8c0.3-1.1,0.3-2.9-0.9-3.5
				C84.1,48.5,83,49.3,82.9,50.5z"/>
			<g>
				<path class="st2" d="M90.5,57.5c-0.5,0.3-1.2,1-1.2,1c-0.1-0.1-0.1-0.1-0.2-0.2c-1-0.7-1.2-1.4-1.1-1.9c0-0.3,0.2-0.5,0.3-0.7
					c0.1-0.2,0.3-0.3,0.3-0.3c0.3,0.7,1.1,1.5,1.6,1.8C90.4,57.4,90.5,57.5,90.5,57.5z"/>
				<path class="st12" d="M90.2,57.3l-0.4,0.3c-0.9-0.7-1.5-1.3-1.5-1.8c0.1-0.2,0.3-0.3,0.3-0.3C88.9,56.1,89.7,56.9,90.2,57.3z"/>
				<path class="st26" d="M89.1,58.3c-1-0.7-1.2-1.4-1.1-1.9c0.3,0.3,0.7,0.6,0.9,1C89.1,57.8,89.1,58.1,89.1,58.3z"/>
			</g>
			<path class="st2" d="M90.5,47.5c0,0,7.2,6,8.4,0.1c0,0-3.5-4.4-7.6-5.1c-4.2-0.8-5.4,3.4-5.4,3.4L90.5,47.5z"/>
		</g>
		<path d="M64.5,184.5h-5.1c-0.2,0-0.3,0.1-0.4,0.3l-0.8,3.7c-0.1,0.3,0.1,0.7,0.5,0.7c0,0,0.1,0,0.1,0c1.6,0,2.8-0.1,4.9-0.1
			c1.3,0,5.1,0.1,6.8,0.1c1.8,0,2-1.7,1.3-1.9c-3.2-0.7-5.6-1.7-6.7-2.6C65,184.6,64.8,184.5,64.5,184.5z"/>
		<path d="M86,184.3H81c-0.2,0-0.3,0.1-0.4,0.3l-0.8,3.7c-0.1,0.3,0.1,0.7,0.5,0.7c0,0,0.1,0,0.1,0c1.6,0,2.8-0.1,4.9-0.1
			c1.3,0,5.1,0.1,6.8,0.1c1.8,0,2-1.7,1.3-1.9c-3.2-0.7-5.6-1.7-6.7-2.6C86.5,184.4,86.3,184.3,86,184.3z"/>
		<path class="st2" d="M62.2,88.2l22.5,3.4c0.3,1.4-0.4,4.3-0.4,4.3c2.6,17,7.8,57.2,3.6,89.1h-7.5c0,0,0.7-55-5.9-72.8
			c-0.8,9.5-8.5,72.8-8.5,72.8h-7.6c0,0,1.1-23.8,2.3-46.3c0.6-11.9-0.6-36.3,0.5-45L62.2,88.2z"/>
		<path class="st22" d="M74.5,112.1c1,2.6,1.8,5.9,2.5,9.6c0.6-8.5-1.9-17.5-1.9-17.5L74.5,112.1z"/>
		<g>
			<g>
				<polygon points="68.4,92.4 81.1,94.3 81.4,91.8 68.7,89.9 				"/>
				<polygon points="67.7,89.8 61.9,88.9 61.4,91.4 67.3,92.3 				"/>
				<polygon points="82.4,92 81.9,94.5 84.4,94.8 84.7,92.3 				"/>
			</g>
			<g>
				<path class="st12" d="M77.7,91.3c-0.2-0.2-0.4-0.4-0.7-0.5l-2-0.4c-0.5-0.1-1,0.2-1,0.8l-0.1,1.3c0,0.3,0.1,0.6,0.2,0.8
					c0.2,0.2,0.4,0.4,0.6,0.4c0,0,0.1,0,0.1,0l2,0.3c0.5,0.1,1-0.2,1-0.8l0.1-1.3C77.9,91.8,77.9,91.5,77.7,91.3z M76.8,93.6l-2-0.3
					c-0.1,0-0.3-0.1-0.4-0.2c-0.1-0.1-0.1-0.3-0.1-0.4l0.1-1.3c0-0.3,0.2-0.4,0.5-0.4l2,0.4c0,0,0,0,0,0c0.1,0,0.2,0.1,0.3,0.2
					c0.1,0.1,0.1,0.3,0.1,0.4l0,0.2c0,0,0,0-0.1,0L76.7,92c-0.2,0-0.3,0.1-0.4,0.3c0,0.2,0.1,0.4,0.3,0.4l0.6,0.1c0,0,0,0,0,0l0,0.4
					C77.2,93.5,77,93.7,76.8,93.6z"/>
			</g>
		</g>
		<path class="st2" d="M80.6,63.6l0.8,3.7c0,0-1.7,9.4,0.5,18l2.2,1.3l1.2-1.7c0,0-3.4-8.5-2.6-16.9l2-2.7L80.6,63.6z"/>
		<path class="st29" d="M81,59.1l2.1,5l2.7-2.8l1.9,2.9c0,0,0,2.3-1.9,3.8L83,65.2l-4.2,0.5c0,0-1.3-4.3-1-5.4
			C78.1,59.2,81,59.1,81,59.1z"/>
		<path class="st22" d="M66.7,73.3c1.2-3.8,2.4-7.2,3.3-9.7l1.4-0.6C71.4,62.9,73.1,68.3,66.7,73.3z"/>
		<path class="st27" d="M81,59.1l2.1,5l2.7-2.8l1.9,2.9c0,0,0,2.3-1.9,3.8L83,65.2l-4.2,0.5c0,0-1.3-4.3-1-5.4
			C78.1,59.2,81,59.1,81,59.1z"/>
		<g>
			<path class="st29" d="M72,58.2c-3-0.1-8.9,6.9-10.5,8.2c-1.5,1.3-5.7,1.1-8.1-1.2c0,0-1.9-0.4-2.7,0.9c0,0,4,5.7,9.6,5.1
				c5.6-0.6,9.3-6,9.3-6s1.6-1.6,2.4-3.6C72.8,59.6,72,58.2,72,58.2z"/>
			<path class="st24" d="M72,58.2c-3-0.1-8.9,6.9-10.5,8.2c-1.5,1.3-5.7,1.1-8.1-1.2c0,0-1.9-0.4-2.7,0.9c0,0,4,5.7,9.6,5.1
				c5.6-0.6,9.3-6,9.3-6s1.6-1.6,2.4-3.6C72.8,59.6,72,58.2,72,58.2z"/>
		</g>
		<g>
			<polygon class="st2" points="123.4,128.6 123.9,129.6 122.9,129.2 119.2,125.4 119.8,124.9 			"/>
			<path class="st2" d="M48.1,48.5l-2.7,2.7L38,43.6c-0.3-0.3-0.3-0.7,0-1l1.8-1.7c0.3-0.3,0.7-0.3,1,0L48.1,48.5z"/>
			<path class="st28" d="M48.1,48.5l-2.7,2.7L38,43.6c-0.3-0.3-0.3-0.7,0-1l1.8-1.7c0.3-0.3,0.7-0.3,1,0L48.1,48.5z"/>
			<path class="st29" d="M46.8,46.2l-3.7,3.6c-0.7,0.7-0.7,1.8-0.1,2.5c22.1,24.5,45,48.2,68.8,71l0,0c0,0,5.2,4.2,10.2,5.3l0.9-0.9
				c-0.9-5.1-4.9-10.4-4.9-10.4l0,0C96,92.8,73.1,69.1,49.3,46.2C48.6,45.5,47.5,45.5,46.8,46.2z"/>
			<path class="st2" d="M48.5,42.7l-6.3,6.1c-0.2,0.2-0.2,0.5,0,0.8l0.6,0.6l6.4-6.2c9.7,9.1,17,17.4,17,17.4l-0.3,0.7l2.3,1.4
				C66.3,59.2,52,45.3,49.4,42.7C49.1,42.5,48.8,42.5,48.5,42.7z"/>
			
				<rect x="73.5" y="82" transform="matrix(0.7189 -0.6951 0.6951 0.7189 -35.5559 78.1145)" class="st29" width="10.6" height="2"/>
			<path class="st2" d="M87.2,99.8c6.9,7,13.9,13.9,20.9,20.7c0.3,0.3,0.8,0.3,1.1,0l6-5.8c0.3-0.3,0.3-0.8,0-1.1
				c-6.5-7.2-13.2-14.4-19.9-21.6c-0.3-0.3-0.8-0.3-1.2,0l-6.9,6.7C86.9,99,86.9,99.5,87.2,99.8z"/>
			
				<rect x="73.5" y="82" transform="matrix(0.7189 -0.6951 0.6951 0.7189 -35.5559 78.1145)" class="st22" width="10.6" height="2"/>
			<path class="st24" d="M48.5,42.7l-6.3,6.1c-0.2,0.2-0.2,0.5,0,0.8l0.6,0.6l6.4-6.2c9.7,9.1,17,17.4,17,17.4l-0.3,0.7l2.3,1.4
				C66.3,59.2,52,45.3,49.4,42.7C49.1,42.5,48.8,42.5,48.5,42.7z"/>
			<path class="st28" d="M87.2,99.8c6.9,7,13.9,13.9,20.9,20.7c0.3,0.3,0.8,0.3,1.1,0l6-5.8c0.3-0.3,0.3-0.8,0-1.1
				c-6.5-7.2-13.2-14.4-19.9-21.6c-0.3-0.3-0.8-0.3-1.2,0l-6.9,6.7C86.9,99,86.9,99.5,87.2,99.8z"/>
		</g>
		<path class="st25" d="M97.7,90.7l-0.6,0.8c0,0-0.9-0.3-1.8,0.3c0,0,0.1,2,0.1,2.3c0.2,0.6,2.8,2.3,3.5,2.4c0.2,0,0.6-1.4,0.5-1.8
			c-0.1-0.5-0.9-1.8-0.9-1.8l0.5-0.7L97.7,90.7z"/>
		<path class="st25" d="M53.5,66.2l0.1-0.6c0,0,0.4,0.1,0.6-0.6c0.2-0.7,0.5-2.5,0.3-3c-0.3-0.4-1.9-2.2-2.2-2.5
			c-0.4-0.3-1.2,1.2-1.4,1.9c-0.2,0.7,0.8,3.4,0.8,3.4l0,1.2C51.5,66,52.4,66.7,53.5,66.2z"/>
		<g>
			<path class="st29" d="M92.3,67.9c1.4,1.6,5.9,8.3,7.2,11.5c1.7,4.5,0,13.7,0,13.7l-3-2c0,0,0.6-7-0.2-9.4
				c-0.8-2.5-6.9-7.1-6.9-7.1s0.1-1.4,0.9-3.2C91.3,69.1,92.3,67.9,92.3,67.9z"/>
			<path class="st24" d="M99.5,93.2l-3-2c0,0,0.6-7-0.2-9.4c-0.4-1.4-2.6-3.5-4.4-5.1c-1.4-1.2-2.5-2.1-2.5-2.1s0.1-1.3,0.8-3
				c0-0.1,0.1-0.2,0.1-0.2c0.9-2.2,2-3.4,2-3.4c1.4,1.6,5.9,8.3,7.2,11.5C101.2,84,99.5,93.2,99.5,93.2z"/>
			<path class="st22" d="M91.9,76.7c-1.4-1.2-2.5-2.1-2.5-2.1s0.1-1.3,0.8-3C90.9,72.6,91.8,74.3,91.9,76.7z"/>
		</g>
	</g>
</g>
</svg>
