<?xml version="1.0" encoding="utf-8"?>
<!-- Generator: Adobe Illustrator 25.2.1, SVG Export Plug-In . SVG Version: 6.00 Build 0)  -->
<svg version="1.1" id="Layer_1" xmlns="http://www.w3.org/2000/svg" xmlns:xlink="http://www.w3.org/1999/xlink" x="0px" y="0px"
	 viewBox="0 0 250 200" style="enable-background:new 0 0 250 200;" xml:space="preserve">
<style type="text/css">
	.st0{fill:#ECECEC;}
	.st1{fill:#E1E1E1;}
	.st2{fill:#1A2E35;}
	.st3{fill:#FFBF9D;}
	.st4{fill:#49B8FF;}
	.st5{opacity:0.4;}
	.st6{opacity:0.2;}
	.st7{fill:#375A64;}
	.st8{fill:#FAFAFA;}
	.st9{opacity:0.3;}
	.st10{fill:#FF9A6C;}
	.st11{opacity:0.5;}
	.st12{fill:#FFFFFF;}
	.st13{fill:none;stroke:#E1E1E1;stroke-width:0.4079;stroke-miterlimit:10;}
	.st14{fill:#FFC8A5;}
	.st15{fill:#F68358;}
	.st16{fill:#D8765F;}
	.st17{fill:#8D4032;}
	.st18{fill:#F5F5F5;}
	.st19{fill:#F0F0F0;}
	.st20{fill:#E7E7E7;}
	.st21{fill:none;stroke:#FFFFFF;stroke-linecap:round;stroke-linejoin:round;stroke-miterlimit:10;}
	.st22{opacity:0.2;enable-background:new    ;}
	.st23{opacity:0.1;}
	.st24{opacity:0.6;fill:#FFFFFF;enable-background:new    ;}
	.st25{fill:#FFBE9C;}
	.st26{fill:#EE9E82;}
	.st27{opacity:0.4;fill:#FFFFFF;enable-background:new    ;}
	.st28{opacity:0.1;fill:#FFFFFF;enable-background:new    ;}
	.st29{fill:#0097D5;}
	.st30{fill:#E2E2E2;}
	.st31{fill:#B7B7B7;}
	.st32{fill:#BCBCBC;}
	.st33{fill:#B3B3B3;}
	.st34{fill:#AFDFFA;}
	.st35{fill:#7A7A7A;}
	.st36{fill:#E0E0E0;}
	.st37{fill:#E1F4FF;}
	.st38{fill:#A8A8A8;}
	.st39{opacity:0.6;}
	.st40{opacity:0.99;}
	.st41{clip-path:url(#SVGID_2_);}
	.st42{opacity:0.5;fill:#FFFFFF;}
	.st43{fill:#FF4F5B;}
	.st44{fill:none;stroke:#FF4F5B;stroke-width:0.4507;stroke-miterlimit:10;}
</style>
<g>
	<g>
		<g>
			<g>
				<g>
					<g>
						<g>
							<g>
								<g>
									<g>
										<path class="st1" d="M193.4,172.1h1.4l3-4.2l0-2.8c0,0,2.2-0.1,1.9,3.5c-0.3,3.6,0,2.7,0,2.7s4.6,0,4.9,0.4
											c0.3,0.3,0.4,4.8,0.4,7.3c0,1.2-0.7,2.4-1.9,2.7c-0.2,0-0.3,0.1-0.5,0.1c-1.1,0-7-0.9-7-0.9l-2.4,0V172.1z"/>
									</g>
								</g>
							</g>
						</g>
					</g>
				</g>
				<g>
					<g>
						<g>
							<g>
								<g>
									<g>
										<polygon class="st1" points="189.4,171.3 190.2,180.8 192.6,180.8 192.6,171.5 										"/>
									</g>
								</g>
							</g>
						</g>
					</g>
				</g>
			</g>
		</g>
	</g>
	<g>
		<g>
			<path class="st1" d="M122.2,28.9l6,8.6c0.7,0.9,2.1,0.9,2.7,0l5.8-8.9L122.2,28.9z"/>
		</g>
		<g>
			<path class="st1" d="M137.4,33.6h-16.8c-2.6,0-4.7-2.1-4.7-4.7v-9.7c0-2.6,2.1-4.7,4.7-4.7h16.8c2.6,0,4.7,2.1,4.7,4.7v9.7
				C142.1,31.5,140,33.6,137.4,33.6z"/>
		</g>
		<g>
			<path class="st12" d="M134.1,22.3c-0.8-1.5-2.2-1.8-3.2-1.4c-1,0.4-1.5,1.4-1.5,1.4s-0.5-1-1.5-1.4c-0.9-0.4-2.3-0.1-3.2,1.4
				c-1.8,3.2,4.7,7.4,4.7,7.4S135.9,25.5,134.1,22.3z"/>
		</g>
	</g>
	<g>
		<path class="st1" d="M56.3,162.5h13.8c3.1,0,5.6,2.5,5.6,5.6v7c0,3.1-2.5,5.6-5.6,5.6h-3.6l-2.5,3.6c-0.6,0.9-2,0.9-2.5,0
			l-2.3-3.6h-2.8c-3.1,0-5.6-2.5-5.6-5.6v-7C50.8,165,53.3,162.5,56.3,162.5z"/>
		<g>
			<polygon class="st12" points="62.8,168.1 62.8,175.3 57.6,171.7 			"/>
			<path class="st12" d="M69.6,175.9c0,0-0.3-5.1-4.4-5.2h-2.6v2.2l2.6,0C65.2,172.9,67.9,172.8,69.6,175.9z"/>
		</g>
	</g>
	<g>
		<ellipse transform="matrix(0.2306 -0.973 0.973 0.2306 -37.3726 126.1758)" class="st1" cx="61.1" cy="86.7" rx="3.7" ry="3.7"/>
		<path class="st1" d="M61.1,89.9c-3.5,0-6.3,2.8-6.3,6.3h12.5C67.4,92.7,64.6,89.9,61.1,89.9z"/>
	</g>
	<g>
		<path class="st1" d="M163.8,17.8c0,1.4-1.1,2.6-2.6,2.6c-1.4,0-2.5-1.1-2.5-2.6c0-1.4,1.1-2.6,2.5-2.6
			C162.7,15.3,163.8,16.4,163.8,17.8z"/>
		<path class="st1" d="M170.9,23.8c0,1.4-1.1,2.6-2.5,2.6c-1.4,0-2.6-1.1-2.6-2.6c0-1.4,1.1-2.5,2.6-2.5
			C169.7,21.2,170.9,22.4,170.9,23.8z"/>
		<path class="st1" d="M163.8,29.9c0,1.4-1.1,2.6-2.6,2.6s-2.5-1.1-2.5-2.6c0-1.4,1.1-2.5,2.5-2.5S163.8,28.5,163.8,29.9z"/>
		<polyline class="st13" points="161.2,17.8 168.3,23.8 161.3,29.9 		"/>
	</g>
	<g>
		<path class="st1" d="M207.8,77.6c-1.1-2-2.9-2.3-4.2-1.9c-1.3,0.5-2,1.9-2,1.9s-0.7-1.4-2-1.9c-1.2-0.5-3.1-0.1-4.2,1.9
			c-2.3,4.2,6.2,9.7,6.2,9.7S210.1,81.8,207.8,77.6z"/>
	</g>
	<g>
		<path class="st1" d="M197.8,97.2c-0.8-1.4-2.1-1.7-3-1.3c-1,0.4-1.4,1.3-1.4,1.3s-0.5-1-1.4-1.3c-0.9-0.3-2.2-0.1-3,1.3
			c-1.6,3,4.4,6.9,4.4,6.9S199.4,100.2,197.8,97.2z"/>
	</g>
	<g>
		<g>
			<path class="st12" d="M204.4,27.7h-27.2c-3.3,0-6,2.7-6,6v16.5c0,3.3,2.7,6,6,6h8.4l4.7,6.7c0.6,0.9,2,0.9,2.6,0l4.4-6.7h7.1
				c3.3,0,6-2.7,6-6V33.7C210.4,30.4,207.7,27.7,204.4,27.7z"/>
			<g>
				<path class="st2" d="M204.4,27.7c0,0,0.1,0,0.2,0c0.1,0,0.3,0,0.6,0c0.5,0.1,1.3,0.2,2.2,0.7c0.9,0.5,1.9,1.4,2.5,2.7
					c0.3,0.7,0.5,1.5,0.6,2.3c0,0.8,0,1.7,0,2.7c0,3.8,0,8.3,0,13.5c0,0.6,0,1.3-0.2,2c-0.1,0.7-0.4,1.3-0.8,1.9
					c-0.7,1.2-1.9,2.1-3.3,2.6c-0.7,0.2-1.4,0.3-2.2,0.3c-0.7,0-1.5,0-2.2,0c-1.5,0-3,0-4.6,0l0.1,0c-0.8,1.3-1.6,2.5-2.5,3.8
					c-0.4,0.7-0.9,1.3-1.3,2c-0.2,0.3-0.4,0.7-0.7,1c-0.3,0.3-0.7,0.6-1.1,0.6c-0.4,0.1-0.9,0-1.2-0.3c-0.2-0.1-0.3-0.3-0.4-0.5
					l-0.4-0.5c-0.5-0.7-0.9-1.3-1.4-2c-1-1.4-1.9-2.7-2.9-4.1l0.1,0c-1.5,0-3,0-4.6,0c-1.1,0-2.3,0-3.4,0c-0.6,0-1.1,0-1.7-0.1
					c-0.6-0.1-1.1-0.3-1.6-0.6c-1-0.5-1.8-1.4-2.4-2.3c-0.6-1-0.8-2.1-0.8-3.2c0-4.3,0-8.5,0-12.5c0-1,0-2,0-2.9c0-0.5,0-1,0-1.4
					c0-0.2,0.1-0.5,0.1-0.7c0.1-0.2,0.1-0.5,0.2-0.7c0.3-0.9,0.8-1.7,1.5-2.4c0.6-0.7,1.4-1.2,2.3-1.5c0.2-0.1,0.4-0.1,0.6-0.2
					c0.2-0.1,0.4-0.1,0.7-0.1c0.4-0.1,0.9-0.1,1.3-0.1c0.9,0,1.7,0,2.5,0c1.6,0,3.2,0,4.7,0c6,0,10.9,0,14.2,0c1.7,0,3,0,3.9,0
					c0.4,0,0.8,0,1,0C204.3,27.7,204.4,27.7,204.4,27.7s-0.1,0-0.3,0c-0.2,0-0.6,0-1,0c-0.9,0-2.2,0-3.9,0c-3.4,0-8.2,0-14.2,0
					c-1.5,0-3.1,0-4.7,0c-0.8,0-1.7,0-2.5,0c-0.4,0-0.9,0-1.3,0.1c-0.2,0-0.4,0.1-0.6,0.1c-0.2,0.1-0.4,0.1-0.6,0.2
					c-0.8,0.3-1.6,0.8-2.2,1.4c-0.6,0.6-1.1,1.4-1.4,2.3c-0.1,0.2-0.1,0.4-0.2,0.7c0,0.2-0.1,0.5-0.1,0.7c0,0.5,0,1,0,1.4
					c0,1,0,2,0,2.9c0,4,0,8.1,0,12.5c0,1.1,0.3,2.1,0.8,3.1c0.5,0.9,1.4,1.7,2.3,2.3c0.5,0.3,1,0.5,1.5,0.6c0.5,0.1,1.1,0.2,1.7,0.1
					c1.1,0,2.3,0,3.4,0c1.6,0,3.1,0,4.6,0l0.1,0l0,0c1,1.4,1.9,2.8,2.9,4.1c0.5,0.7,0.9,1.4,1.4,2l0.4,0.5c0.1,0.2,0.2,0.3,0.4,0.4
					c0.3,0.2,0.7,0.3,1.1,0.3c0.4-0.1,0.7-0.3,1-0.6c0.2-0.3,0.4-0.7,0.7-1c0.4-0.7,0.9-1.3,1.3-2c0.9-1.3,1.7-2.6,2.5-3.8l0,0
					l0.1,0c1.6,0,3.1,0,4.6,0c0.8,0,1.5,0,2.2,0c0.7,0,1.4-0.1,2.1-0.3c1.4-0.4,2.5-1.4,3.2-2.5c0.4-0.6,0.6-1.2,0.8-1.8
					c0.1-0.6,0.2-1.3,0.2-1.9c0-5.2,0-9.7,0-13.5c0-0.9,0-1.8,0-2.7c0-0.8-0.2-1.6-0.5-2.3c-0.6-1.3-1.6-2.2-2.5-2.7
					c-0.9-0.5-1.7-0.7-2.2-0.8c-0.3-0.1-0.5,0-0.6-0.1C204.4,27.7,204.4,27.7,204.4,27.7z"/>
			</g>
		</g>
		<g>
			<polygon class="st4" points="191.6,36.5 191.6,47.8 199.6,42.1 			"/>
			<path class="st4" d="M180.8,48.6c0,0,0.5-8,6.9-8.1h4.1V44l-4,0.1C187.8,44,183.5,43.9,180.8,48.6z"/>
		</g>
	</g>
	<g>
		<path class="st12" d="M43.5,67.4h56.1c3.2,0,5.7-2.6,5.7-5.7V18.3c0-3.2-2.6-5.7-5.7-5.7H43.5c-3.2,0-5.7,2.6-5.7,5.7v43.4
			C37.7,64.9,40.3,67.4,43.5,67.4z"/>
		<path class="st7" d="M68.8,65.7C68.1,67.4,54.7,80,54.7,80V65.7H68.8z"/>
		<g>
			<g>
				<path class="st2" d="M85.2,36.7c0-2.9,0.5-5.7,0.4-8.6c-0.1-2.9-0.9-5.8-2.9-7.9c-2-2.1-5.5-2.8-7.8-1.2l-0.5,2.4
					c0.9,11,1.8,22.1,2.8,33.1c0.1,1.4,0.3,2.9,0.9,4.2c0.7,1.3,2,2.4,3.4,2.3c1.9-0.1,3.1-2,3.7-3.8C87.4,50.6,85.1,43.5,85.2,36.7
					z"/>
			</g>
			<g>
				<path class="st4" d="M78.3,21.8c-0.4-0.7-0.8-1.4-1.5-2c-0.6-0.5-1.4-0.9-2.3-0.8c-0.4,0.1-0.8,0.3-0.9,0.7
					c-0.1,0.4,0.1,0.9,0.5,0.8l0.1,0.1c0.9,0.8,1.7,1.5,2.6,2.2c0.2,0.2,0.5,0.4,0.7,0.5c0.3,0.1,0.6,0,0.8-0.2
					C78.8,22.8,78.5,22.2,78.3,21.8z"/>
			</g>
			<g>
				<path class="st2" d="M79.9,24.6c-2.9-3.5-6.7-5.5-11.2-5.6c-2.5,0-3.6,0.5-5.4,1c-1.8,0.5-3.5,1.5-4.6,3
					c-1.3,1.8-2.4,3.9-2.6,6.1c-0.3,2.3-0.5,4.6-0.3,6.9c0.2,2.3,0.8,4.6,2.2,6.5l5.9,1c3.2,0.1,6.5,0.2,9.7-0.5
					c3.2-0.7,6.2-2.4,7.9-5.2C83.7,34.1,82.8,28.1,79.9,24.6z"/>
			</g>
			<g>
				<g>
					<g>
						<g>
							<g>
								<g>
									<g>
										<path class="st14" d="M63.8,54c0-2.1,0.1-4.6,0.1-4.6c0,0-4.8-0.5-6.1-6.7c-0.7-3-0.8-8.1-0.7-12.2c0-3.7,3.2-8.8,7.8-8.8
											l2-0.2l7.8,3.1c1.1,0.1,2,1,2.1,2.1l0.3,26.9l-5,8.4l-9-6.9L63.8,54z"/>
									</g>
								</g>
							</g>
						</g>
					</g>
				</g>
				<g>
					<g>
						<path class="st15" d="M67,41.3c0-0.3-0.2-0.6-0.5-0.8c-0.5-0.4-1.1-0.4-1.6-0.1c-0.5,0.3-0.8,1-0.7,1.7l0,0
							c0.3,0.4,0.7,0.6,1.2,0.7c0.1,0,0.1,0,0.2,0c0.4,0,0.7-0.1,1-0.4C66.9,42.1,67,41.7,67,41.3z"/>
					</g>
				</g>
				<g>
					<g>
						<g>
							<g>
								<g>
									<g>
										<g>
											<g>
												<g>
													<g>
														<g>
															<g>
																<g>
																	<g>
																		<g>
																			<g>
																				<g>
																					<g>
																						<g>
																							<g>
																								<path class="st2" d="M59.5,35.3c0,0.4,0.4,0.8,0.8,0.8c0.4,0,0.8-0.3,0.8-0.8c0-0.4-0.4-0.8-0.8-0.8
																									C59.9,34.5,59.5,34.9,59.5,35.3z"/>
																							</g>
																						</g>
																					</g>
																				</g>
																			</g>
																		</g>
																	</g>
																</g>
															</g>
														</g>
													</g>
												</g>
											</g>
										</g>
									</g>
								</g>
							</g>
							<g>
								<g>
									<g>
										<g>
											<g>
												<g>
													<g>
														<g>
															<g>
																<g>
																	<g>
																		<g>
																			<g>
																				<g>
																					<g>
																						<g>
																							<g>
																								<g>
																									<path class="st2" d="M58.5,32.6c0.1,0.1,0.7-0.4,1.5-0.4c0.9-0.1,1.5,0.3,1.6,0.2c0,0-0.1-0.2-0.4-0.4
																										c-0.3-0.2-0.7-0.3-1.3-0.3c-0.5,0-1,0.3-1.2,0.5C58.5,32.4,58.4,32.6,58.5,32.6z"/>
																								</g>
																							</g>
																						</g>
																					</g>
																				</g>
																			</g>
																		</g>
																	</g>
																</g>
															</g>
														</g>
													</g>
												</g>
											</g>
										</g>
									</g>
								</g>
							</g>
							<g>
								<g>
									<g>
										<g>
											<g>
												<g>
													<g>
														<g>
															<g>
																<g>
																	<g>
																		<g>
																			<g>
																				<g>
																					<g>
																						<g>
																							<g>
																								<path class="st2" d="M63.9,39.3c0,0-0.5-0.1-1.4-0.2c-0.2,0-0.4,0-0.5-0.2c-0.1-0.2,0-0.4,0.1-0.7
																									c0.2-0.5,0.4-1.1,0.6-1.7c0.8-2.4,1.3-4.4,1.2-4.4c-0.1,0-0.8,1.9-1.6,4.3c-0.2,0.6-0.4,1.2-0.5,1.7
																									c-0.1,0.3-0.2,0.5-0.1,0.9c0.1,0.2,0.2,0.3,0.4,0.3c0.1,0,0.3,0,0.4,0C63.4,39.4,63.9,39.3,63.9,39.3z"/>
																							</g>
																						</g>
																					</g>
																				</g>
																			</g>
																		</g>
																	</g>
																</g>
															</g>
														</g>
													</g>
												</g>
											</g>
										</g>
									</g>
								</g>
							</g>
							<g>
								<g>
									<g>
										<g>
											<g>
												<g>
													<g>
														<g>
															<g>
																<g>
																	<g>
																		<g>
																			<g>
																				<g>
																					<g>
																						<g>
																							<path class="st15" d="M63.9,49.4c0,0,4.2,0,8.2-2.7c0,0-2,4.4-8.2,4.2L63.9,49.4z"/>
																						</g>
																					</g>
																				</g>
																			</g>
																		</g>
																	</g>
																</g>
															</g>
														</g>
													</g>
												</g>
											</g>
										</g>
									</g>
								</g>
							</g>
							<g>
								<g>
									<g>
										<g>
											<g>
												<g>
													<g>
														<g>
															<g>
																<g>
																	<g>
																		<g>
																			<g>
																				<g>
																					<g>
																						<g>
																							<g>
																								<path class="st2" d="M66.5,39.7c-0.1,0-0.1,0.9-0.8,1.6c-0.8,0.7-1.7,0.7-1.7,0.8c0,0.1,0.2,0.2,0.6,0.2
																									c0.4,0,1-0.2,1.5-0.6c0.5-0.4,0.6-1,0.7-1.4C66.7,40,66.5,39.7,66.5,39.7z"/>
																							</g>
																						</g>
																					</g>
																				</g>
																			</g>
																		</g>
																	</g>
																</g>
															</g>
														</g>
													</g>
												</g>
											</g>
										</g>
									</g>
								</g>
							</g>
							<g>
								<g>
									<g>
										<g>
											<g>
												<g>
													<g>
														<g>
															<g>
																<g>
																	<g>
																		<g>
																			<g>
																				<g>
																					<g>
																						<g>
																							<g>
																								<g>
																									<g>
																										<path class="st2" d="M58.7,29.6c0.2,0.2,0.8,0,1.6,0c0.8,0,1.4,0.2,1.6,0c0.1-0.1,0-0.3-0.3-0.5
																											c-0.3-0.2-0.7-0.4-1.3-0.4c-0.5,0-1,0.2-1.3,0.3C58.8,29.3,58.7,29.5,58.7,29.6z"/>
																									</g>
																								</g>
																							</g>
																						</g>
																					</g>
																				</g>
																			</g>
																		</g>
																	</g>
																</g>
															</g>
														</g>
													</g>
												</g>
											</g>
										</g>
									</g>
								</g>
							</g>
							<g>
								<g>
									<g>
										<g>
											<g>
												<g>
													<g>
														<g>
															<g>
																<g>
																	<g>
																		<g>
																			<g>
																				<g>
																					<g>
																						<g>
																							<g>
																								<path class="st2" d="M69.2,35.1c0,0.4-0.3,0.8-0.8,0.8c-0.4,0-0.8-0.3-0.8-0.7c0-0.4,0.3-0.8,0.8-0.8
																									C68.8,34.4,69.2,34.7,69.2,35.1z"/>
																							</g>
																						</g>
																					</g>
																				</g>
																			</g>
																		</g>
																	</g>
																</g>
															</g>
														</g>
													</g>
												</g>
											</g>
										</g>
									</g>
								</g>
							</g>
							<g>
								<g>
									<g>
										<g>
											<g>
												<g>
													<g>
														<g>
															<g>
																<g>
																	<g>
																		<g>
																			<g>
																				<g>
																					<g>
																						<g>
																							<g>
																								<g>
																									<path class="st2" d="M70,32.3c-0.1,0.1-0.7-0.3-1.6-0.3c-0.9,0-1.5,0.5-1.6,0.4c0,0,0.1-0.2,0.3-0.4
																										c0.3-0.2,0.7-0.4,1.3-0.4c0.5,0,1,0.2,1.2,0.4C70,32,70,32.2,70,32.3z"/>
																								</g>
																							</g>
																						</g>
																					</g>
																				</g>
																			</g>
																		</g>
																	</g>
																</g>
															</g>
														</g>
													</g>
												</g>
											</g>
										</g>
									</g>
								</g>
							</g>
							<g>
								<g>
									<g>
										<g>
											<g>
												<g>
													<g>
														<g>
															<g>
																<g>
																	<g>
																		<g>
																			<g>
																				<g>
																					<g>
																						<g>
																							<g>
																								<g>
																									<g>
																										<path class="st2" d="M69.5,29.5c-0.2,0.2-0.8,0-1.6,0c-0.8,0-1.5,0.2-1.6,0c-0.1-0.1,0-0.3,0.3-0.5
																											c0.3-0.2,0.8-0.3,1.3-0.3c0.5,0,1,0.2,1.3,0.4C69.5,29.2,69.6,29.4,69.5,29.5z"/>
																									</g>
																								</g>
																							</g>
																						</g>
																					</g>
																				</g>
																			</g>
																		</g>
																	</g>
																</g>
															</g>
														</g>
													</g>
												</g>
											</g>
										</g>
									</g>
								</g>
							</g>
						</g>
					</g>
				</g>
				<g>
					<g>
						<g>
							<g>
								<g>
									<g>
										<g>
											<g>
												<g>
													<g>
														<g>
															<g>
																<g>
																	<g>
																		<g>
																			<g>
																				<g>
																					<path class="st14" d="M75.7,37.1c0-0.5,0.4-1.6,0.9-1.7c1.2-0.3,3.4-0.3,3.6,2.8c0.3,4.2-4,3.6-4,3.5
																						C76.1,41.6,75.8,38.7,75.7,37.1z"/>
																				</g>
																			</g>
																		</g>
																	</g>
																</g>
															</g>
														</g>
													</g>
												</g>
											</g>
										</g>
									</g>
								</g>
							</g>
						</g>
					</g>
					<g>
						<g>
							<g>
								<g>
									<g>
										<g>
											<g>
												<g>
													<g>
														<g>
															<g>
																<g>
																	<g>
																		<g>
																			<g>
																				<g>
																					<g>
																						<path class="st15" d="M77.2,40.1c0,0,0.1,0,0.2,0.1c0.1,0,0.3,0.1,0.5,0c0.4-0.2,0.8-0.9,0.7-1.7
																							c0-0.4-0.1-0.7-0.3-1c-0.1-0.3-0.4-0.5-0.6-0.5c-0.2,0-0.4,0.1-0.4,0.2c0,0.1,0,0.2,0,0.2
																							c0,0-0.1-0.1-0.1-0.2c0-0.1,0.1-0.2,0.1-0.3c0.1-0.1,0.2-0.1,0.4-0.1c0.3,0,0.6,0.3,0.8,0.6
																							c0.2,0.3,0.3,0.7,0.3,1.2c0,0.9-0.4,1.7-1,1.9c-0.3,0.1-0.5,0-0.7-0.1C77.2,40.2,77.2,40.1,77.2,40.1z"/>
																					</g>
																				</g>
																			</g>
																		</g>
																	</g>
																</g>
															</g>
														</g>
													</g>
												</g>
											</g>
										</g>
									</g>
								</g>
							</g>
						</g>
					</g>
				</g>
			</g>
			<g>
				<g>
					<path class="st2" d="M76.8,35.4l-1.1,1.1C71.1,32.1,62.1,21,62.6,21.7c0,0,3.2-1.3,6.6-0.7c3.4,0.6,10,2.3,9.9,6.4
						C78.9,31.4,76.8,35.4,76.8,35.4z"/>
				</g>
			</g>
			<g>
				<path class="st7" d="M82.9,34.5c0,0,0-0.1-0.1-0.2c-0.1-0.2-0.1-0.4-0.3-0.7c-0.3-0.6-0.9-1.3-1.8-2c-0.9-0.7-2.1-1.3-3.5-1.7
					c-1.4-0.5-3-0.8-4.6-1.5c-1.6-0.6-3-1.5-4.2-2.3c-1.2-0.9-2.2-1.8-2.9-2.6c-0.8-0.8-1.3-1.5-1.7-2c-0.2-0.2-0.3-0.4-0.4-0.6
					c-0.1-0.1-0.2-0.2-0.2-0.2c0,0,0,0.1,0.1,0.2c0.1,0.1,0.2,0.3,0.4,0.6c0.4,0.5,0.9,1.2,1.7,2.1c0.8,0.8,1.7,1.7,2.9,2.6
					c1.2,0.9,2.6,1.7,4.2,2.4c1.6,0.7,3.2,1,4.6,1.5c1.4,0.4,2.6,1,3.5,1.6c0.9,0.6,1.5,1.4,1.8,1.9C82.8,34.2,82.9,34.5,82.9,34.5z
					"/>
			</g>
			<g>
				<path class="st7" d="M81.7,35.2c0,0,0-0.3-0.2-0.9c-0.2-0.6-0.7-1.3-1.6-2c-0.9-0.7-2.1-1.1-3.5-1.4c-1.4-0.3-2.9-0.7-4.4-1.4
					c-1.5-0.7-2.8-1.5-3.9-2.4c-1.1-0.9-2-1.8-2.7-2.6c-0.7-0.8-1.2-1.5-1.5-2c-0.1-0.2-0.3-0.4-0.4-0.6c-0.1-0.1-0.1-0.2-0.1-0.2
					c0,0,0,0.1,0.1,0.2c0.1,0.2,0.2,0.4,0.3,0.6c0.3,0.5,0.8,1.3,1.4,2.1c0.7,0.8,1.6,1.8,2.7,2.7c1.1,0.9,2.4,1.8,3.9,2.4
					c1.5,0.7,3,1.1,4.4,1.4c1.4,0.3,2.6,0.7,3.5,1.3c0.9,0.6,1.4,1.3,1.6,1.9C81.7,34.8,81.6,35.2,81.7,35.2z"/>
			</g>
			<g>
				<g>
					<path class="st7" d="M76.6,42.6c0,0,0.4-0.1,1-0.2c0.6-0.2,1.5-0.6,2.4-1.3c0.9-0.8,1.6-1.9,2.2-3.4c0.5-1.4,0.9-3.1,0.9-4.9
						c0-0.9,0-1.7-0.2-2.6c-0.2-0.8-0.4-1.6-0.7-2.3c-0.6-1.4-1.4-2.5-2.2-3.4c-1.6-1.7-2.9-2.4-2.8-2.5c0,0,0.1,0,0.2,0.1
						c0.1,0.1,0.4,0.2,0.6,0.4c0.5,0.4,1.3,1,2.1,1.8c0.8,0.8,1.6,2,2.3,3.4c0.3,0.7,0.6,1.5,0.7,2.3c0.2,0.8,0.2,1.7,0.2,2.6
						c0,1.8-0.4,3.5-1,4.9c-0.6,1.4-1.4,2.6-2.3,3.4c-0.9,0.8-1.8,1.1-2.5,1.3c-0.3,0.1-0.6,0.1-0.7,0.1
						C76.7,42.6,76.6,42.6,76.6,42.6z"/>
				</g>
			</g>
		</g>
		<path class="st7" d="M50.4,60.8l0.1-0.1c4.6-4.9,13.2-6.6,13.2-6.6s0.5,3.2,5.3,3.6c4.8,0.4,8.3-4.5,8.3-4.5l6.4,0.9
			c0,0,3.2,0.4,5.2,1.6c4.5,2.7,6.9,11.8,6.9,11.8l-49.3,0.2L50.4,60.8z"/>
		<g>
			<path class="st2" d="M45.8,12.6c0,0-0.1,0-0.3,0c-0.1,0-0.3,0-0.4,0c-0.2,0-0.4,0.1-0.6,0.1c-0.9,0.2-2.2,0.5-3.6,1.6
				c-0.7,0.5-1.4,1.2-1.9,2.1c-0.6,0.9-1,2-1.1,3.2c-0.1,0.6-0.1,1.3-0.1,1.9c0,0.7,0,1.4,0,2.1c0,1.4,0,3,0,4.6
				c0,6.4,0,14.2,0,23.1c0,2.2,0,4.5,0,6.8c0,0.6,0,1.2,0,1.8c0,0.6,0.2,1.2,0.3,1.7c0.3,1.1,1,2.2,1.8,3.1c0.4,0.5,0.9,0.8,1.4,1.2
				c0.5,0.3,1.1,0.6,1.7,0.8l0.4,0.2l0.5,0.1c0.3,0.1,0.6,0.1,0.9,0.2c0.3,0,0.6,0,0.9,0.1c0.3,0,0.6,0,1,0c2.6,0,5.2,0,7.9,0l0.1,0
				l0,0.1c0,4,0,8.2,0,12.6l-0.2-0.1c2.1-2,4.2-4,6.4-6.1c2.1-2.1,4.3-4.2,6.4-6.5l0,0h0c6.7,0,13.7,0,20.8,0c2.1,0,4.3,0,6.4,0
				c0.5,0,1.1,0,1.6,0c0.5,0,1.1,0,1.6,0c1-0.1,2-0.4,3-0.8c1.8-0.9,3.3-2.6,3.9-4.5c0.3-1,0.4-2,0.4-3c0-1,0-2,0-3
				c0-8.1,0-15.9,0-23.3c0-3.7,0-7.3,0-10.9c0-0.9,0-1.7-0.2-2.6c-0.2-0.8-0.5-1.6-0.9-2.4c-0.4-0.7-1-1.4-1.6-1.9
				c-0.6-0.6-1.3-1-2.1-1.4c-0.7-0.3-1.5-0.6-2.3-0.7c-0.8-0.1-1.6-0.1-2.4-0.1c-1.6,0-3.2,0-4.7,0c-3.1,0-6,0-8.8,0
				c-11.2,0-20.3,0-26.6,0c-3.1,0-5.6,0-7.2,0c-0.8,0-1.5,0-1.9,0C46.1,12.6,45.8,12.6,45.8,12.6s0.2,0,0.6,0c0.4,0,1.1,0,1.9,0
				c1.7,0,4.1,0,7.2,0c6.3,0,15.4,0,26.6,0c2.8,0,5.8,0,8.8,0c1.5,0,3.1,0,4.7,0c0.8,0,1.6,0,2.4,0.1c0.8,0.1,1.6,0.3,2.4,0.7
				c0.8,0.3,1.5,0.8,2.1,1.4c0.6,0.6,1.2,1.2,1.6,2c0.4,0.8,0.7,1.6,0.9,2.4c0.2,0.9,0.2,1.8,0.2,2.6c0,3.5,0,7.1,0,10.9
				c0,7.4,0,15.2,0,23.3c0,1,0,2,0,3c0,1-0.1,2.1-0.4,3.1c-0.7,2-2.1,3.7-4,4.6c-0.9,0.5-2,0.8-3,0.9c-0.5,0-1.1,0-1.6,0
				c-0.5,0-1.1,0-1.6,0c-2.1,0-4.3,0-6.4,0c-7.1,0-14.1,0-20.8,0l0.1,0c-2.1,2.3-4.3,4.4-6.4,6.5c-2.1,2.1-4.3,4.1-6.4,6.1l-0.2,0.2
				l0-0.2c0-4.4,0-8.6,0-12.6l0.1,0.1c-2.7,0-5.3,0-7.9,0c-0.3,0-0.6,0-1,0c-0.3,0-0.7,0-1-0.1c-0.3-0.1-0.6-0.1-1-0.2l-0.5-0.1
				L43,67c-0.6-0.2-1.2-0.5-1.7-0.9c-0.5-0.4-1-0.8-1.4-1.2c-0.8-0.9-1.5-2-1.8-3.2c-0.2-0.6-0.3-1.2-0.3-1.8c0-0.6,0-1.2,0-1.8
				c0-2.3,0-4.6,0-6.8c0-8.9,0-16.6,0-23.1c0-1.6,0-3.1,0-4.6c0-0.7,0-1.4,0-2.1c0-0.7,0-1.3,0.1-1.9c0.2-1.2,0.6-2.4,1.2-3.3
				c0.6-0.9,1.3-1.6,1.9-2.1c1.4-1.1,2.7-1.4,3.6-1.6c0.2,0,0.4-0.1,0.6-0.1c0.2,0,0.3,0,0.4,0C45.7,12.6,45.8,12.6,45.8,12.6z"/>
		</g>
	</g>
	<g>
		<g>
			<g>
				<g>
					<g>
						<g>
							<g>
								<g>
									<path class="st2" d="M149.8,187.5l-50.9,0c-6.1,0-11.1-4.7-11.1-10.6l0-121.6c0-5.8,5-10.6,11.1-10.6l50.9,0
										c6.1,0,11.1,4.7,11.1,10.6l0,121.6C160.9,182.8,156,187.5,149.8,187.5z"/>
								</g>
							</g>
						</g>
					</g>
					<g>
						<g>
							<g>
								<g>
									<path class="st12" d="M149.8,49.1l-9.9,0c-1.3,0-2.4,1.1-2.4,2.4l0,1.7c0,1.3-1.1,2.4-2.4,2.4l-19.2,0
										c-1.3,0-2.4-1.1-2.4-2.4l0-1.7c0-1.3-1.1-2.4-2.4-2.4l-3.5,0l-8.6,0c-4.3,0-7.8,3.3-7.8,7.4l0,118.7c0,4.1,3.5,7.4,7.8,7.4
										l50.8,0c4.3,0,7.8-3.3,7.8-7.4l0-118.7C157.6,52.4,154.1,49.1,149.8,49.1z"/>
								</g>
							</g>
						</g>
					</g>
				</g>
			</g>
		</g>
		<g>
			<g>
				<path class="st2" d="M122.7,78.7c1.4-0.1,2.6-1.4,2.7-2.8c0-1.4-1.1-2.8-2.5-2.9c0.7-1,0.6-2.5-0.1-3.5c-0.8-1-2.2-1.4-3.4-1
					c-0.3-1.2-1.2-2.2-2.4-2.6c-1.2-0.4-2.6-0.1-3.5,0.7c-1.6-0.9-3.7-0.5-4.9,0.8c-1.2,0-2.4,0.9-2.7,2.1c-0.4,1.2,0.1,2.5,1.2,3.2
					"/>
				<path class="st16" d="M123.2,79c-1.7-6.2-7.9-10-14.1-8.8l-0.6,0.1c-6.7,1.7-9,8.3-7.1,14.9l4.7,24l0,0l13.7,10.6l3.6-8.8
					l-1.4-8c0,0,6.3-2.2,5.1-8.7C126.5,91.1,124.8,84.7,123.2,79z"/>
				<path class="st17" d="M121.9,103c0,0-4.1,1-9-0.9c0,0,2.8,4.4,9.2,2.6L121.9,103z"/>
				<path class="st2" d="M122.6,85.2c0.1,0.5-0.2,1-0.7,1.1c-0.5,0.1-1-0.2-1.1-0.7c-0.1-0.5,0.2-1,0.7-1.1
					C122,84.4,122.5,84.7,122.6,85.2z"/>
				<path class="st2" d="M122.4,82.4c-0.1,0.1-0.9-0.2-1.9-0.1c-1,0.2-1.6,0.8-1.8,0.7c-0.1,0,0-0.3,0.3-0.6
					c0.3-0.3,0.8-0.6,1.4-0.7c0.6-0.1,1.2,0,1.5,0.2C122.3,82.2,122.5,82.4,122.4,82.4z"/>
				<path class="st2" d="M113.6,87.1c0.1,0.5-0.2,1-0.7,1.1c-0.5,0.1-1-0.2-1.1-0.7c-0.1-0.5,0.2-1,0.7-1.1
					C113,86.3,113.5,86.6,113.6,87.1z"/>
				<path class="st2" d="M112.7,84.5c-0.1,0.1-0.9-0.2-1.9-0.1c-1,0.2-1.6,0.8-1.8,0.7c-0.1,0,0-0.3,0.3-0.6
					c0.3-0.3,0.8-0.6,1.4-0.7c0.6-0.1,1.2,0,1.5,0.2C112.6,84.2,112.7,84.4,112.7,84.5z"/>
				<path class="st2" d="M117.7,91.2c0-0.1,0.6-0.3,1.6-0.6c0.2-0.1,0.5-0.2,0.5-0.4c0-0.2-0.1-0.4-0.3-0.7
					c-0.4-0.6-0.7-1.2-1.1-1.8c-1.6-2.6-2.8-4.7-2.7-4.7c0.1-0.1,1.5,2,3,4.5c0.4,0.6,0.7,1.2,1.1,1.8c0.2,0.3,0.4,0.6,0.3,1
					c0,0.2-0.2,0.4-0.3,0.5c-0.2,0.1-0.3,0.1-0.4,0.1C118.3,91.1,117.7,91.2,117.7,91.2z"/>
				<path class="st2" d="M112.3,81c-0.1,0.3-1,0.2-2,0.3c-1.1,0.1-1.9,0.5-2.1,0.3c-0.1-0.1,0.1-0.4,0.4-0.7
					c0.3-0.3,0.9-0.5,1.5-0.6c0.6-0.1,1.2,0,1.6,0.2C112.1,80.7,112.3,80.9,112.3,81z"/>
				<path class="st2" d="M121.9,78.9c-0.2,0.3-1,0.2-2,0.4c-1,0.1-1.8,0.5-2,0.3c-0.1-0.1,0-0.4,0.3-0.6c0.3-0.3,0.9-0.6,1.6-0.7
					c0.7-0.1,1.3,0,1.7,0.1C121.8,78.5,121.9,78.7,121.9,78.9z"/>
				<path class="st16" d="M103.6,91.3c-0.2-1-1.2-1.6-2.2-1.3c-1.2,0.3-2.4,1.3-1.8,3.8c1,4.4,5.2,2.5,5.2,2.4
					C104.7,96,104,93.1,103.6,91.3z"/>
				<path class="st17" d="M103.3,94.7c0,0-0.1,0.1-0.2,0.2c-0.1,0.1-0.3,0.2-0.6,0.1c-0.5-0.1-1.1-0.7-1.3-1.5
					c-0.1-0.4-0.1-0.8,0-1.1c0.1-0.4,0.2-0.6,0.4-0.7c0.2-0.1,0.4,0,0.5,0.1c0.1,0.1,0.1,0.2,0.1,0.2c0,0,0.1-0.1,0-0.3
					c0-0.1-0.1-0.2-0.2-0.2c-0.1-0.1-0.3-0.1-0.4,0c-0.3,0.1-0.6,0.5-0.6,0.9c-0.1,0.4-0.1,0.8,0,1.3c0.2,0.9,0.9,1.6,1.5,1.7
					c0.3,0,0.6-0.1,0.7-0.3C103.4,94.8,103.4,94.7,103.3,94.7z"/>
				<path class="st2" d="M117.8,70.5c-0.1-0.1-0.1-0.2-0.2-0.3c-0.6-0.7-1.6-0.9-2.4-0.8c-0.6-0.2-1.1-0.3-1.7-0.4
					c-0.8-0.9-2.1-1.5-3.3-1.4c-1.4,0.1-2.7,1.1-3.3,2.4c-0.2,0.1-0.4,0.1-0.5,0.2c-1-0.5-2.3-0.5-3.3-0.1c-1.2,0.5-2.1,1.6-2.3,2.9
					c-1.1-0.1-2.3,0.6-2.8,1.6c-0.5,1-0.4,2.3,0.4,3.2c-0.7,0.6-1.2,1.5-1.1,2.4c0.1,0.9,1.1,1.6,1.9,1.3c0.2,2.2,1,4.6,1.5,6.8
					c0.4,1.5,2.5,2.1,2.9,3.1c1.7,5.2,2.9,1.9,1.5-9.3c0.1-0.1,0.2-0.2,0.3-0.3c0.2-0.3,0.2-0.5,0.4-0.8c0.2-0.3,0.7-0.3,1-0.4
					c1.3-0.1,2.5-1.3,2.5-2.6c0.4,0.4,1.2,0.3,1.6-0.2c0.4-0.4,0.7-1,1-1.5c0.3-0.5,0.8-1,1.4-1.1c0.3,0,0.7,0.1,1,0
					c0.6-0.2,0.7-0.9,0.7-1.5c0-0.5-0.1-1.1,0.2-1.5c0.3-0.2,0.7-0.4,1.1-0.5c0.2,0,0.5,0,0.7,0c0.1,0,0.2,0,0.3,0
					c0.1,0,0.3,0,0.4,0.1c2.1,0.6,4.6,4.3,4.6,4.3C121.7,73.5,119.9,71.7,117.8,70.5z"/>
				<path class="st7" d="M97.7,78.1C97.7,78.1,97.7,78.1,97.7,78.1c0.1-0.1,0.1-0.2,0.1-0.3c0.1-0.2,0.3-0.4,0.6-0.6
					c0.3-0.2,0.7-0.4,1.3-0.5c0.5-0.1,1.2,0,1.8,0.3l-0.1,0.1c0-0.9,0.5-1.9,1.4-2.6c0.4-0.3,0.9-0.6,1.5-0.8
					c0.6-0.2,1.2-0.2,1.8-0.2c1.2,0,2.3,0.4,3.2,0.8l-0.1,0.1c0.2-1.1,0.9-2,1.6-2.5c0.7-0.5,1.6-0.7,2.2-0.7c0.7,0,1.2,0.2,1.5,0.3
					c0.2,0.1,0.3,0.1,0.4,0.2c0.1,0,0.1,0.1,0.1,0.1c0,0-0.2-0.1-0.5-0.2c-0.3-0.1-0.8-0.3-1.5-0.2c-0.6,0-1.4,0.2-2.1,0.7
					c-0.7,0.5-1.3,1.4-1.5,2.4l0,0.1l-0.1,0c-0.9-0.4-2-0.8-3.2-0.8c-0.6,0-1.2,0-1.7,0.2c-0.5,0.2-1,0.4-1.4,0.7
					c-0.8,0.6-1.3,1.6-1.4,2.4l0,0.1l-0.1-0.1c-0.5-0.3-1.2-0.4-1.7-0.3c-0.5,0.1-0.9,0.3-1.2,0.5C97.8,77.7,97.7,78.1,97.7,78.1z"
					/>
				<path class="st7" d="M114.9,72.1c0,0,0,0.1,0,0.2c0,0.1-0.1,0.3-0.1,0.5c0,0.2,0,0.5,0,0.9c0,0.3,0,0.8-0.2,1.2
					c-0.1,0.2-0.3,0.4-0.6,0.4c-0.2,0.1-0.5,0.1-0.8,0.1c-0.3,0-0.5,0.1-0.7,0.2c-0.2,0.1-0.4,0.4-0.5,0.6c-0.2,0.2-0.3,0.5-0.4,0.8
					c-0.1,0.3-0.3,0.6-0.5,0.8c-0.2,0.2-0.6,0.4-0.9,0.5c-0.2,0-0.4,0.1-0.5,0.1c-0.2,0-0.4-0.1-0.5-0.2l0.2-0.1
					c0,0.3-0.1,0.5-0.2,0.8c-0.1,0.3-0.2,0.5-0.4,0.7c-0.4,0.4-0.9,0.8-1.4,0.9c-0.2,0.1-0.5,0.1-0.7,0.2c-0.2,0-0.5,0-0.6,0.1
					c-0.2,0.1-0.3,0.3-0.4,0.5c-0.1,0.2-0.2,0.4-0.4,0.6c-0.5,0.7-1.2,1.3-2.1,1.5c-0.8,0.1-1.6-0.1-2.2-0.5
					c-0.6-0.4-1.1-0.9-1.3-1.5l0.1,0c-0.5,0.2-1.1,0.1-1.5-0.1c-0.4-0.2-0.6-0.6-0.8-0.8c-0.1-0.3-0.1-0.5-0.1-0.7
					c0-0.1,0-0.1,0-0.2c0,0,0-0.1,0-0.1c0,0-0.1,0.4,0.2,0.9c0.1,0.3,0.4,0.6,0.7,0.8c0.4,0.2,0.9,0.3,1.4,0l0.1,0l0,0.1
					c0.2,0.5,0.7,1.1,1.3,1.4c0.6,0.4,1.4,0.6,2.1,0.5c0.8-0.2,1.5-0.7,2-1.4c0.1-0.2,0.2-0.4,0.3-0.6c0.1-0.2,0.3-0.4,0.5-0.5
					c0.1-0.1,0.2-0.1,0.4-0.1l0.3,0c0.2,0,0.5-0.1,0.7-0.2c0.5-0.2,1-0.5,1.3-0.9c0.2-0.2,0.3-0.4,0.4-0.7c0.1-0.2,0.1-0.5,0.1-0.7
					l0-0.2l0.1,0.2c0.2,0.2,0.6,0.2,0.9,0.1c0.3-0.1,0.6-0.2,0.8-0.5c0.2-0.2,0.4-0.5,0.5-0.8c0.2-0.3,0.3-0.5,0.5-0.8
					c0.2-0.3,0.3-0.5,0.6-0.7c0.3-0.2,0.6-0.2,0.8-0.2c0.3,0,0.5,0,0.7-0.1c0.2-0.1,0.4-0.2,0.5-0.4c0.2-0.4,0.2-0.8,0.2-1.1
					c0-0.3,0-0.6,0.1-0.9c0-0.2,0.1-0.4,0.1-0.5C114.9,72.1,114.9,72,114.9,72.1z"/>
				<path class="st17" d="M114.9,93.5c-0.2,1.2,0.3,2.4,1.5,2.8c0.4,0.1,0.9,0.1,1.2-0.1c0.5-0.2,0.9-0.6,1-1.1c0.1-0.5,0.2-1,0-1.5
					C117.6,93.5,116,93.6,114.9,93.5z"/>
				<g>
					<path class="st2" d="M118.4,95.6C118.4,95.6,118.4,95.7,118.4,95.6c-0.1,0.1-0.1,0.2-0.2,0.3c-0.2,0.2-0.5,0.4-0.9,0.5
						c-0.4,0.1-1,0-1.5-0.3c-0.5-0.3-0.9-0.9-1-1.6c0-0.2,0-0.3,0-0.5c0-0.2,0-0.3,0.1-0.5c0-0.1,0.1-0.1,0.2-0.2c0.1,0,0.2,0,0.3,0
						c0.1,0,0.3,0,0.4,0c0.6,0,1.1,0.1,1.5,0.1c0.8,0.1,1.4,0.1,1.4,0.1c0,0-0.5,0.1-1.4,0c-0.4,0-0.9-0.1-1.5-0.1
						c-0.1,0-0.3,0-0.4,0c-0.1,0-0.2,0-0.3,0.1c-0.1,0.1-0.1,0.2-0.1,0.4c0,0.1,0,0.3,0,0.5c0.1,0.6,0.5,1.1,0.9,1.4
						c0.4,0.3,1,0.4,1.4,0.3c0.4-0.1,0.7-0.2,0.9-0.4C118.3,95.7,118.4,95.6,118.4,95.6z"/>
				</g>
			</g>
			<g>
				<g>
					<g>
						<path class="st4" d="M143,81.6c0,0,5.2-0.6,12.9-6.8c7.8-6.2,12-15,12.8-14.8c0.9,0.1,4.8-1.3,10.6,15.2
							c5.8,16.4,2.6,19.8,1.1,19.7c-1.4-0.2-11-3.8-17.1-3.7c-6.2,0.1-14.3,2.6-14.3,2.6L143,81.6z"/>
					</g>
				</g>
				<g>
					<g>
						<polygon class="st7" points="133.8,93.8 136.5,93.2 135,89.6 132.7,90.8 						"/>
					</g>
				</g>
				<g>
					<g>
						<path class="st2" d="M134.1,89.5l1,3.1l0.6,1.5c0.9,2.1,3.2,3.2,5.4,2.4l11.2-3.2l-4.8-14.2l-11.1,4.7
							C134.2,84.8,133.2,87.3,134.1,89.5z"/>
					</g>
				</g>
				<g>
					<g>
						<path class="st2" d="M138.1,94.2l3.8,6.7l1.7-0.6l11.7,8.7l2.9-6.3c0,0-6.8-2.6-8.2-4.9c-1.3-2.3,0.1-2.9,0.1-2.9l-3.3-3.5
							L138.1,94.2z"/>
					</g>
				</g>
				<g>
					<g>
						<path class="st2" d="M178.8,75.3c3,8.9,3.9,16.7,2,17.3c-2,0.7-6-6-9.1-14.9c-3-8.9-3.9-16.7-2-17.3
							C171.7,59.7,175.8,66.4,178.8,75.3z"/>
					</g>
				</g>
				<g>
					<g>
						<path class="st8" d="M171.1,72.6c0,0,4.7-2.3,6.5,3.9c1.8,6.2-2.9,6.7-2.9,6.7C173.1,80.1,171.9,76.6,171.1,72.6z"/>
					</g>
				</g>
				<g>
					<g>
						<path class="st2" d="M167.1,65.1c0,0,0,0.4,0.1,1.2c0.1,0.7,0.2,1.8,0.3,3.1c0.1,0.7,0.3,1.4,0.4,2.1c0.1,0.4,0.2,0.8,0.2,1.2
							c0,0.2,0.1,0.4,0.1,0.6c0,0.2,0.1,0.4,0.2,0.6c0.2,0.8,0.5,1.7,0.8,2.7c0.1,0.2,0.1,0.5,0.2,0.7c0.1,0.2,0.2,0.5,0.2,0.7
							c0.2,0.5,0.3,0.9,0.5,1.4c0.2,0.5,0.4,0.9,0.5,1.4c0.1,0.2,0.2,0.5,0.3,0.7c0.1,0.2,0.2,0.4,0.3,0.7c0.4,0.9,0.8,1.7,1.2,2.5
							c0.1,0.2,0.2,0.4,0.3,0.6c0.1,0.2,0.2,0.4,0.3,0.6c0.2,0.4,0.4,0.7,0.6,1.1c0.4,0.7,0.8,1.3,1.1,1.9c0.7,1.1,1.4,2,1.8,2.6
							c0.4,0.6,0.7,0.9,0.7,0.9c0,0-0.2-0.4-0.6-1c-0.4-0.6-1-1.5-1.7-2.6c-0.3-0.6-0.7-1.2-1-1.9c-0.2-0.3-0.4-0.7-0.6-1.1
							c-0.1-0.2-0.2-0.4-0.3-0.5c-0.1-0.2-0.2-0.4-0.3-0.6c-0.4-0.8-0.8-1.6-1.2-2.5c-0.1-0.2-0.2-0.4-0.3-0.7
							c-0.1-0.2-0.2-0.5-0.3-0.7c-0.2-0.5-0.3-0.9-0.5-1.4c-0.2-0.5-0.4-0.9-0.5-1.4c-0.1-0.2-0.2-0.5-0.2-0.7
							c-0.1-0.2-0.1-0.5-0.2-0.7c-0.3-0.9-0.5-1.8-0.8-2.6c-0.1-0.2-0.1-0.4-0.2-0.6c0-0.2-0.1-0.4-0.1-0.6
							c-0.1-0.4-0.2-0.8-0.2-1.2c-0.2-0.8-0.3-1.5-0.5-2.1c-0.2-1.3-0.3-2.4-0.4-3.1C167.2,65.5,167.1,65.1,167.1,65.1z"/>
					</g>
				</g>
				<g>
					<path class="st7" d="M152.3,93.4c0,0-0.2,0.1-0.5,0.2c-0.4,0.1-0.8,0.2-1.4,0.4c-1.2,0.3-2.8,0.7-4.6,1.2
						c-1.8,0.5-3.4,0.9-4.6,1.2c-0.6,0.1-1.1,0.3-1.4,0.3c-0.3,0.1-0.5,0.1-0.5,0.1c0,0,0.2-0.1,0.5-0.2c0.4-0.1,0.8-0.2,1.4-0.4
						c1.2-0.3,2.8-0.8,4.6-1.3c1.8-0.5,3.4-0.9,4.6-1.2c0.6-0.1,1.1-0.2,1.4-0.3C152.2,93.4,152.3,93.4,152.3,93.4z"/>
				</g>
				<g>
					<path class="st7" d="M145.8,91.1c0,0-0.4,0.2-1.1,0.5c-0.7,0.3-1.6,0.6-2.7,0.9c-1.1,0.3-2.1,0.6-2.8,0.7
						c-0.7,0.2-1.2,0.2-1.2,0.2c0,0,0.4-0.2,1.1-0.4c0.7-0.2,1.7-0.5,2.7-0.8c1.1-0.3,2-0.6,2.7-0.8C145.3,91.2,145.7,91,145.8,91.1
						z"/>
				</g>
				<g>
					<path class="st7" d="M144,87.8c0,0.1-1.5,0.6-3.5,1.2c-1.9,0.6-3.5,1-3.5,1c0-0.1,1.5-0.6,3.5-1.2
						C142.4,88.2,144,87.8,144,87.8z"/>
				</g>
				<g>
					<path class="st7" d="M142.2,84.7c0,0.1-1.3,0.7-2.9,1.4c-1.6,0.7-3,1.3-3,1.2c0-0.1,1.3-0.7,2.9-1.4
						C140.9,85.2,142.2,84.7,142.2,84.7z"/>
				</g>
			</g>
			<g>
				<path class="st4" d="M129.6,119.8l-6.8-11.5l-17.6-0.7l0,1.6c0,0-4.8,4.9-6.4,11.5c-1.2,5,3.8,24.1,5.2,30.8
					c1.7,8.2,4.1,18.5,4.1,18.5c-0.4,1.8-2.7,3.3-2.5,5.7l39.1-0.4l-2-7.9L129.6,119.8z"/>
				<g>
					<path class="st12" d="M143.2,170.4c0,0.1-7.8,0.1-17.4,0.1c-9.6,0-17.4,0-17.4-0.1s7.8-0.1,17.4-0.1
						C135.4,170.3,143.2,170.3,143.2,170.4z"/>
				</g>
				<g>
					<path class="st12" d="M140.5,160.6c0,0.1-7.7,0.1-17.2,0.1c-9.5,0-17.2,0-17.2-0.1s7.7-0.1,17.2-0.1
						C132.8,160.4,140.5,160.5,140.5,160.6z"/>
				</g>
				<g>
					<path class="st12" d="M137.8,149.9c0,0.1-7.5,0.1-16.9,0.1c-9.3,0-16.9,0-16.9-0.1s7.5-0.1,16.9-0.1
						C130.3,149.8,137.8,149.8,137.8,149.9z"/>
				</g>
				<g>
					<path class="st12" d="M136,139.2c0,0.1-7.8,0.1-17.4,0.1c-9.6,0-17.4,0-17.4-0.1c0-0.1,7.8-0.1,17.4-0.1
						C128.2,139.1,136,139.1,136,139.2z"/>
				</g>
				<g>
					<path class="st12" d="M131.9,125.8c0,0.1-7.4,0.1-16.4,0.1c-9.1,0-16.4,0-16.4-0.1c0-0.1,7.4-0.1,16.4-0.1
						C124.5,125.7,131.9,125.8,131.9,125.8z"/>
				</g>
				<g>
					<path class="st12" d="M126.3,113.6c0,0.1-5.4,0.1-12.1,0.1c-6.7,0-12.1,0-12.1-0.1s5.4-0.1,12.1-0.1
						C120.9,113.5,126.3,113.6,126.3,113.6z"/>
				</g>
			</g>
			<g>
				<g>
					<path class="st9" d="M103.9,126.9c0,0,2.5,4.4,6.4,7.7c3.9,3.3,15.9,9.1,15.9,9.1l1-2.1l8.9,2.1l-1.7-5.5L103.9,126.9z"/>
					<path class="st16" d="M145.8,112.4l-3.1,16.9L116,116.6l-4.3,15c10.5,5.1,31.7,13.7,34.4,13.4c3.9-0.4,6.6-2.7,7.8-8.4
						c0.7-3.5,0.4-27.1,0.4-27.1L145.8,112.4z"/>
					<g>
						<path class="st4" d="M117.8,114.4c0,0-10-6.2-14.3,1.6c-3.1,7.6,0.3,13.6,8,17.4c3.7,1.8,8.7,4,13.8,6.2l7.4-16.5L117.8,114.4
							z"/>
						<g>
							<path class="st2" d="M117.8,114.4c0,0,0.1,0,0.3,0.1c0.2,0.1,0.4,0.3,0.8,0.4c0.7,0.4,1.7,1,3,1.7c2.6,1.5,6.3,3.7,10.9,6.3
								l0.1,0l0,0.1c-2.1,4.7-4.6,10.3-7.4,16.5l0,0.1l-0.1,0c-2.6-1.1-5.3-2.2-8-3.5c-1.2-0.5-2.4-1.1-3.6-1.6
								c-1.2-0.6-2.3-1.1-3.4-1.7c-0.5-0.3-1.1-0.6-1.6-1c-0.5-0.4-1-0.7-1.5-1.1c-1-0.8-1.8-1.7-2.5-2.6c-0.2-0.2-0.3-0.5-0.5-0.7
								c-0.2-0.2-0.3-0.5-0.4-0.8c-0.3-0.5-0.5-1-0.7-1.6c-0.1-0.3-0.2-0.5-0.2-0.8l-0.1-0.4c0-0.1-0.1-0.3-0.1-0.4
								c0-0.3-0.1-0.5-0.1-0.8c0-0.3,0-0.5-0.1-0.8c-0.1-0.5,0-1.1,0-1.6c0-0.5,0.2-1,0.2-1.5c0.1-0.5,0.2-1,0.4-1.4
								c0.2-0.5,0.3-0.9,0.5-1.3l0,0l0,0c0.6-1.1,1.4-2,2.4-2.7c0.9-0.7,2-1,3-1.2c2-0.3,3.7,0.1,5.1,0.5c1.3,0.4,2.3,0.9,3,1.2
								c0.3,0.2,0.6,0.3,0.7,0.4C117.7,114.3,117.8,114.4,117.8,114.4s-0.1,0-0.3-0.1c-0.2-0.1-0.4-0.2-0.8-0.4
								c-0.7-0.3-1.7-0.8-3-1.2c-1.3-0.4-3.1-0.7-5-0.5c-1,0.2-2,0.5-2.9,1.2c-0.9,0.6-1.7,1.6-2.3,2.6l0,0
								c-0.2,0.4-0.3,0.9-0.5,1.3c-0.1,0.5-0.2,0.9-0.4,1.4c-0.1,0.5-0.2,1-0.2,1.5c0,0.5-0.1,1,0,1.6c0,0.3,0,0.5,0.1,0.8
								c0,0.3,0.1,0.5,0.1,0.8c0,0.1,0,0.3,0.1,0.4l0.1,0.4c0.1,0.3,0.1,0.5,0.2,0.8c0.2,0.5,0.4,1,0.7,1.5c0.1,0.2,0.3,0.5,0.4,0.7
								c0.2,0.2,0.3,0.5,0.5,0.7c0.7,0.9,1.5,1.8,2.5,2.5c0.5,0.4,1,0.7,1.5,1.1c0.5,0.3,1.1,0.7,1.6,1c1.1,0.6,2.3,1.2,3.4,1.7
								c1.2,0.6,2.4,1.1,3.6,1.6c2.7,1.2,5.4,2.4,8,3.5l-0.1,0.1c2.8-6.1,5.3-11.8,7.4-16.5l0,0.1c-4.5-2.7-8.3-4.8-10.9-6.4
								c-1.3-0.8-2.3-1.4-3-1.8c-0.3-0.2-0.6-0.4-0.8-0.5C117.9,114.4,117.8,114.4,117.8,114.4z"/>
						</g>
					</g>
					<g>
						<g>
							<path class="st16" d="M145.4,115.3l0.6-6.3c0,0-2.4-4.8-2.4-5.3c0-0.5,0.2-3.2,0.2-3.2l6-5.4c0,0,1.9,0,2,1.9
								c0,0,1.9-0.4,1.9,1.9c0,0,2,0.1,2.1,1.7l0,0c0,0,1.2-0.2,1.2,1.6c0,1.2-0.6,6-0.6,6l-2.5,4.4l-0.2,4.4L145.4,115.3z"/>
						</g>
					</g>
					<g>
						<path class="st17" d="M146,135.5c-0.1,0-0.5-1.5-1.4-3.2c-0.9-1.7-2-2.9-1.9-3c0,0,0.3,0.3,0.7,0.8c0.4,0.5,0.9,1.2,1.4,2.1
							c0.5,0.9,0.8,1.7,1,2.3C146,135.1,146.1,135.5,146,135.5z"/>
					</g>
				</g>
				<g>
					<path class="st12" d="M111.7,112.3c0,0-0.1,0.2-0.3,0.6c-0.2,0.4-0.5,0.9-0.8,1.5c-0.7,1.3-1.7,3-2.8,4.9
						c-1.1,1.9-2.1,3.6-2.8,4.9c-0.3,0.6-0.6,1.1-0.9,1.5c-0.2,0.3-0.3,0.5-0.3,0.5c0,0,0.1-0.2,0.3-0.6c0.2-0.4,0.5-0.9,0.8-1.5
						c0.7-1.3,1.7-3,2.8-4.9c1.1-1.9,2.1-3.6,2.8-4.9c0.3-0.6,0.6-1.1,0.9-1.5C111.6,112.5,111.7,112.3,111.7,112.3z"/>
				</g>
				<g>
					<path class="st12" d="M119.9,115.8c0,0,0,0.1-0.1,0.2c-0.1,0.1-0.1,0.3-0.2,0.5c-0.2,0.4-0.5,1.1-0.9,1.9
						c-0.8,1.6-1.8,3.7-3.1,6c-1.3,2.3-2.5,4.4-3.3,5.9c-0.4,0.7-0.8,1.3-1.1,1.7c-0.1,0.2-0.2,0.3-0.3,0.5
						c-0.1,0.1-0.1,0.2-0.1,0.2c0,0,0-0.1,0.1-0.2c0.1-0.1,0.2-0.3,0.3-0.5c0.3-0.4,0.6-1,1-1.8c0.9-1.5,2-3.6,3.3-5.9
						c1.3-2.3,2.3-4.4,3.1-6c0.4-0.7,0.7-1.4,0.9-1.8c0.1-0.2,0.2-0.4,0.3-0.5C119.8,115.9,119.9,115.8,119.9,115.8z"/>
				</g>
				<g>
					<path class="st12" d="M129,120.9c0,0-0.1,0.2-0.2,0.7c-0.2,0.4-0.4,1-0.8,1.8c-0.7,1.5-1.7,3.6-2.9,5.8
						c-1.2,2.2-2.5,4.1-3.4,5.5c-0.5,0.7-0.9,1.2-1.1,1.6c-0.3,0.4-0.4,0.6-0.4,0.6c0,0,0.1-0.2,0.4-0.6c0.3-0.4,0.6-1,1.1-1.6
						c0.9-1.4,2.1-3.3,3.3-5.5c1.2-2.2,2.2-4.2,2.9-5.7c0.3-0.7,0.6-1.3,0.8-1.8C128.8,121.2,128.9,120.9,129,120.9z"/>
				</g>
			</g>
		</g>
		<polygon class="st2" points="105.3,183.2 106.1,175.7 143.4,175.3 144.4,183.2 		"/>
		<g>
			<path class="st7" d="M151.5,182.6c0,0.1-11.5,0.1-25.7,0.1c-14.2,0-25.7,0-25.7-0.1c0-0.1,11.5-0.1,25.7-0.1
				C140,182.5,151.5,182.5,151.5,182.6z"/>
		</g>
		<g>
			<path class="st7" d="M130.7,53.1h-13.9c-0.5,0-0.8-0.4-0.8-0.8v-0.6c0-0.5,0.4-0.8,0.8-0.8h13.9c0.5,0,0.8,0.4,0.8,0.8v0.6
				C131.5,52.7,131.1,53.1,130.7,53.1z"/>
			<path class="st7" d="M135.3,52c0,0.6-0.5,1.1-1.1,1.1S133,52.6,133,52c0-0.6,0.5-1.1,1.1-1.1S135.3,51.3,135.3,52z"/>
		</g>
		<path class="st2" d="M89.2,87.3h-0.9c-1.4,0-2.5-1.1-2.5-2.5V70.9c0-1.4,1.1-2.5,2.5-2.5h0.9V87.3z"/>
		<path class="st2" d="M89,114.8H88c-1.4,0-2.5-1.1-2.5-2.5V98.4c0-1.4,1.1-2.5,2.5-2.5H89V114.8z"/>
		<g>
			<g>
				<path class="st7" d="M88.1,123.9c-0.1,0-0.1-13.7-0.1-30.7c0-16.9,0-30.7,0.1-30.7s0.1,13.7,0.1,30.7
					C88.2,110.2,88.2,123.9,88.1,123.9z"/>
			</g>
		</g>
	</g>
	<g>
		<path class="st12" d="M75.4,146H36c-2.6,0-4.7-2.1-4.7-4.7v-30.2c0-2.6,2.1-4.7,4.7-4.7h39.3c2.6,0,4.7,2.1,4.7,4.7v30.2
			C80,143.9,77.9,146,75.4,146z"/>
		<path class="st4" d="M57.6,144.8C58.1,146,67.8,155,67.8,155v-10.3H57.6z"/>
		<path class="st2" d="M64.4,115.3c-0.5-1.5-1.6-2.9-3-3.6c-1.6-0.8-3.5-0.9-5.2-0.5c-1.7,0.4-3.3,1.2-4.8,2.2
			c-0.8,0.5-1.7,1.1-2.3,1.9c-1.1,1.4-2.1,3.8-2.2,5.6c0,1.5,0.6,5.1,1.3,6.4c0.2,0.5,0.8,0.9,1.4,1.2c0.7,1.3,1.6,2.5,2.7,3.4
			c0.3-1,0.6-2,0.9-3L64.4,115.3z"/>
		<path class="st2" d="M63.5,113.5l-2.9-0.4c1.7,3.7,2.4,12.3,3.4,16.2c1-1.6,3.4-6.3,3.2-8.2C67,119.2,66.9,113.1,63.5,113.5z"/>
		<path class="st3" d="M50,120.1c0.1-2.2,1.5-4,3.6-4.6l6.6-1.9c2.9-0.4,4.9,3.1,5.1,6c0.3,3.2,0.5,6.6,0.2,9
			c-0.6,4.8-4.3,5.5-4.3,5.5c0,0,0.1,2.3,0.1,3.7l-1.1,6.3l-8.7-7.4L50,120.1C50,120.1,50,120.2,50,120.1z"/>
		<path class="st2" d="M63.9,123.6c0,0.3-0.2,0.6-0.6,0.6c-0.3,0-0.6-0.2-0.7-0.5c0-0.3,0.2-0.6,0.6-0.6
			C63.6,123,63.9,123.2,63.9,123.6z"/>
		<path class="st2" d="M64.7,121.5c-0.1,0.1-0.6-0.2-1.2-0.2c-0.7,0-1.1,0.4-1.2,0.3c0,0,0-0.2,0.2-0.3c0.2-0.2,0.6-0.3,1-0.3
			c0.4,0,0.8,0.1,1,0.3C64.6,121.3,64.7,121.4,64.7,121.5z"/>
		<path class="st2" d="M57.9,123.6c0,0.3-0.2,0.6-0.6,0.6c-0.3,0-0.6-0.2-0.7-0.5c0-0.3,0.2-0.6,0.6-0.6
			C57.6,123,57.9,123.2,57.9,123.6z"/>
		<path class="st2" d="M58.4,121.6c-0.1,0.1-0.6-0.2-1.2-0.2c-0.7,0-1.1,0.4-1.2,0.3c0,0,0-0.2,0.2-0.3c0.2-0.2,0.6-0.3,1-0.3
			c0.4,0,0.8,0.1,1,0.3C58.4,121.5,58.4,121.6,58.4,121.6z"/>
		<path class="st2" d="M60.6,126.8c0,0,0.4-0.1,1.1-0.2c0.2,0,0.3-0.1,0.4-0.2c0-0.1,0-0.3-0.1-0.5c-0.2-0.4-0.4-0.8-0.5-1.3
			c-0.8-1.8-1.3-3.3-1.2-3.3c0.1,0,0.7,1.4,1.5,3.2c0.2,0.4,0.4,0.9,0.5,1.3c0.1,0.2,0.2,0.4,0.1,0.7c0,0.1-0.2,0.2-0.3,0.3
			c-0.1,0-0.2,0-0.3,0C61,126.8,60.6,126.8,60.6,126.8z"/>
		<path class="st10" d="M54.9,132.5c0,0,1.7,3.3,6.4,2.7l0-1.1C61.3,134.1,58.1,134.4,54.9,132.5z"/>
		<path class="st2" d="M58.1,119.3c-0.1,0.2-0.7,0.1-1.5,0.2c-0.8,0.1-1.4,0.3-1.5,0.2c0-0.1,0.1-0.2,0.3-0.4
			c0.2-0.2,0.6-0.4,1.1-0.4c0.5-0.1,0.9,0,1.2,0.1C58,119,58.1,119.2,58.1,119.3z"/>
		<path class="st2" d="M64.4,119.4c-0.1,0.2-0.6,0-1.1,0c-0.5,0-1,0.1-1.1,0c0-0.1,0-0.2,0.2-0.4c0.2-0.1,0.5-0.3,0.9-0.3
			c0.4,0,0.7,0.1,0.9,0.3C64.4,119.2,64.5,119.4,64.4,119.4z"/>
		<path class="st2" d="M63.9,115.2c-0.3-0.7-1.1-1.1-1.9-1.1c-0.8,0-1.5,0.3-2.2,0.7c-2.8,1.7-4.2,5.8-6.9,7.6
			c-0.7,0.4-1.6,0.1-2.2,0.7c-0.6,0.6-0.9,1.5-0.6,2.2c-0.4-0.5-0.8-1-1-1.6c-0.2-0.6-0.3-1.3,0-1.9c0.2-0.4,0.7-0.8,0.8-1.2
			c0.1-0.4-0.1-0.9-0.1-1.3c0-0.4,0.2-0.8,0.4-1.2c1-2,2.5-3.8,4.4-5c1.3-0.8,2.7-1.2,4.2-1.2c1.5,0,2.9,0.5,4.1,1.5
			C63.5,113.8,64.2,114.4,63.9,115.2"/>
		<g>
			<g>
				<path class="st3" d="M50.8,123.6c-0.1-0.1-2.6-1-2.5,1.7c0,2.6,2.6,2,2.6,1.9C50.9,127.1,50.8,123.6,50.8,123.6z"/>
			</g>
		</g>
		<g>
			<g>
				<g>
					<path class="st10" d="M50.1,126.2c0,0,0,0-0.1,0.1c-0.1,0-0.2,0.1-0.3,0c-0.3-0.1-0.5-0.5-0.5-1c0-0.2,0-0.5,0.1-0.6
						c0.1-0.2,0.2-0.3,0.3-0.4c0.1,0,0.2,0,0.3,0.1c0,0.1,0,0.1,0,0.1c0,0,0.1,0,0-0.2c0-0.1,0-0.1-0.1-0.2c-0.1,0-0.2-0.1-0.3-0.1
						c-0.2,0-0.4,0.2-0.5,0.4c-0.1,0.2-0.2,0.5-0.1,0.7c0,0.5,0.3,1,0.7,1.1c0.2,0,0.3,0,0.4-0.1C50.1,126.3,50.1,126.2,50.1,126.2z
						"/>
				</g>
			</g>
		</g>
		<path class="st12" d="M49.7,122.3c0,0,0.1,0,0.2-0.1c0.1-0.1,0.2-0.2,0.4-0.3c0.4-0.3,0.8-0.7,1.4-1.3c0.5-0.6,1.1-1.4,1.6-2.3
			c0.6-0.9,1.2-1.8,2.1-2.7c0.4-0.4,0.9-0.8,1.3-1.1c0.5-0.3,1-0.5,1.5-0.7c1-0.3,1.9-0.4,2.7-0.4c0.8,0,1.4,0.2,1.8,0.3
			c0.2,0.1,0.4,0.1,0.5,0.2c0.1,0,0.2,0.1,0.2,0.1c0,0-0.1,0-0.2-0.1c-0.1,0-0.3-0.1-0.5-0.2c-0.4-0.1-1.1-0.3-1.9-0.3
			c-0.8,0-1.8,0-2.8,0.4c-0.5,0.2-1,0.4-1.5,0.7c-0.5,0.3-0.9,0.7-1.4,1.1c-0.8,0.9-1.5,1.9-2.1,2.7c-0.6,0.9-1.1,1.7-1.6,2.3
			c-0.5,0.6-1,1-1.3,1.3c-0.2,0.1-0.3,0.2-0.4,0.3C49.8,122.2,49.7,122.3,49.7,122.3z"/>
		<path class="st2" d="M50.4,123c0,0.7,0,1.5,0.3,2.1c0.3,0.6,1.2,1,1.8,0.7c0.5-0.3,0.6-0.9,0.7-1.5c0.2-1.7,0.3-3.3,0.5-5
			L50.4,123z"/>
		<path class="st7" d="M63.2,114c0,0-0.2,0-0.6,0c-0.4,0-1,0.1-1.7,0.4c-0.3,0.1-0.7,0.3-1.1,0.6c-0.4,0.2-0.7,0.5-1.1,0.9
			c-0.7,0.7-1.5,1.5-2.1,2.4c-0.3,0.5-0.6,1-0.9,1.4c-0.3,0.4-0.6,0.9-1,1.2c-0.7,0.7-1.5,1.2-2.1,1.5c-0.7,0.4-1.2,0.6-1.6,0.8
			c-0.2,0.1-0.3,0.1-0.4,0.2c-0.1,0-0.2,0.1-0.2,0.1c0,0,0,0,0.1-0.1c0.1-0.1,0.3-0.1,0.4-0.2c0.4-0.2,0.9-0.5,1.5-0.8
			c0.6-0.4,1.4-0.9,2.1-1.5c0.4-0.3,0.7-0.7,1-1.2c0.3-0.4,0.6-0.9,0.9-1.4c0.6-1,1.4-1.8,2.1-2.4c0.4-0.3,0.7-0.6,1.1-0.9
			c0.4-0.3,0.7-0.4,1.1-0.6c0.7-0.3,1.3-0.3,1.7-0.3c0.2,0,0.4,0,0.5,0.1C63.2,114,63.3,114,63.2,114z"/>
		<path class="st12" d="M50.3,121.4c0,0-0.1,0.1-0.2,0.2c-0.2,0.1-0.4,0.2-0.6,0.4c-0.1,0-0.1,0.1-0.2,0.1c-0.1,0-0.2,0.1-0.3,0.1
			c-0.1,0-0.1,0-0.2,0c-0.1,0-0.1-0.1-0.1-0.2c0-0.1,0.1-0.2,0.1-0.3c0.2-0.4,0.5-0.8,0.7-1.2l0.1,0.1c-0.2,0.2-0.5,0.3-0.8,0.4
			c-0.3,0.1-0.6,0.1-0.9,0.1c-0.1,0-0.2,0-0.2,0c-0.1,0-0.2-0.1-0.2-0.2c0-0.1,0-0.2,0-0.3c0-0.1,0.1-0.1,0.1-0.2
			c0.4-0.4,0.7-0.8,0.8-1.1c0.4-0.7,0.5-1.2,0.5-1.2c0,0,0,0.1-0.1,0.4c-0.1,0.2-0.2,0.5-0.4,0.9c-0.2,0.4-0.5,0.8-0.8,1.2
			c-0.1,0.1-0.2,0.2-0.1,0.3c0,0.1,0.2,0.1,0.3,0.1c0.3,0,0.6,0,0.9-0.1c0.3-0.1,0.6-0.2,0.8-0.4l0.3-0.2l-0.2,0.3
			c-0.3,0.4-0.5,0.9-0.7,1.2c-0.1,0.1-0.1,0.2-0.1,0.3c0,0.1,0.1,0.1,0.2,0.1c0.2,0,0.3-0.1,0.5-0.2c0.3-0.1,0.5-0.3,0.7-0.4
			C50.2,121.4,50.3,121.4,50.3,121.4z"/>
		<path class="st10" d="M58.1,128.1c0.1-0.4,0.5-0.7,0.9-0.7c0.3,0,0.6,0.2,0.7,0.5c0.1,0.3,0.2,0.6,0.1,0.9l0,0.1
			c-0.3,0.3-0.7,0.4-1.1,0.3C58.3,128.9,58.1,128.5,58.1,128.1z"/>
		<path class="st2" d="M60.2,128.8c0-0.1-0.7,0-1.2-0.6c-0.5-0.5-0.5-1.3-0.6-1.3c0,0-0.1,0.2-0.1,0.5c0,0.3,0.1,0.7,0.5,1
			c0.3,0.3,0.7,0.4,1,0.4C60.1,128.9,60.3,128.8,60.2,128.8z"/>
		<path class="st4" d="M70.9,141.2L70.9,141.2c-3.4-3.6-9.6-4.8-9.6-4.8s-0.4,2.3-3.8,2.6c-3.4,0.3-6-3.3-6-3.3l-4.6,0.6
			c0,0-2.3,0.3-3.8,1.1c-3.2,1.9-5,8.5-5,8.5l35.5,0.1L70.9,141.2z"/>
		<g>
			<path class="st2" d="M74.2,106.5c0,0,0.1,0,0.2,0c0.2,0,0.4,0,0.7,0.1c0.6,0.1,1.6,0.4,2.6,1.1c0.5,0.4,1,0.9,1.4,1.5
				c0.4,0.7,0.7,1.5,0.8,2.4c0.1,0.5,0.1,0.9,0.1,1.4c0,0.5,0,1,0,1.5c0,1,0,2.1,0,3.3c0,4.6,0,10.2,0,16.6c0,1.6,0,3.2,0,4.9
				c0,0.4,0,0.8,0,1.3c0,0.4-0.1,0.9-0.2,1.3c-0.3,0.8-0.7,1.6-1.3,2.3c-0.6,0.7-1.4,1.2-2.3,1.5l-0.3,0.1l-0.3,0.1
				c-0.2,0.1-0.5,0.1-0.7,0.1c-0.5,0.1-0.9,0.1-1.4,0c-1.9,0-3.8,0-5.7,0l0.1-0.1c0,2.9,0,5.9,0,9.1l0,0.2l-0.2-0.2
				c-1.5-1.4-3-2.9-4.6-4.4c-1.5-1.5-3.1-3-4.6-4.7l0.1,0c-4.8,0-9.9,0-15,0c-1.5,0-3.1,0-4.6,0l-1.1,0c-0.4,0-0.8,0-1.1,0
				c-0.8-0.1-1.5-0.3-2.2-0.6c-1.4-0.7-2.4-1.9-2.9-3.4c-0.3-0.7-0.3-1.5-0.3-2.2c0-0.7,0-1.5,0-2.2c0-5.8,0-11.4,0-16.8
				c0-2.7,0-5.3,0-7.8c0-0.6,0-1.3,0.1-1.9c0.1-0.6,0.4-1.2,0.7-1.8c0.3-0.5,0.7-1,1.2-1.4c0.5-0.4,1-0.8,1.5-1
				c0.6-0.2,1.1-0.4,1.7-0.5c0.6-0.1,1.2,0,1.7,0c1.1,0,2.3,0,3.4,0c2.2,0,4.3,0,6.4,0c8.1,0,14.6,0,19.2,0c2.3,0,4,0,5.2,0
				c0.6,0,1,0,1.4,0C74,106.5,74.2,106.5,74.2,106.5s-0.2,0-0.5,0c-0.3,0-0.8,0-1.4,0c-1.2,0-3,0-5.2,0c-4.5,0-11.1,0-19.2,0
				c-2,0-4.1,0-6.4,0c-1.1,0-2.2,0-3.4,0c-0.6,0-1.2,0-1.7,0c-0.6,0.1-1.1,0.2-1.7,0.5c-0.5,0.2-1,0.6-1.5,1
				c-0.4,0.4-0.8,0.9-1.1,1.4c-0.3,0.5-0.5,1.1-0.6,1.7c-0.1,0.6-0.1,1.2-0.1,1.9c0,2.5,0,5.1,0,7.8c0,5.4,0,11,0,16.8
				c0,0.7,0,1.5,0,2.2c0,0.7,0.1,1.5,0.3,2.1c0.5,1.4,1.5,2.6,2.8,3.2c0.7,0.3,1.4,0.5,2.1,0.6c0.4,0,0.7,0,1.1,0l1.1,0
				c1.5,0,3.1,0,4.6,0c5.1,0,10.2,0,15,0h0l0,0c1.5,1.6,3.1,3.2,4.6,4.7c1.5,1.5,3.1,3,4.6,4.4l-0.2,0.1c0-3.1,0-6.2,0-9.1l0-0.1
				l0.1,0c1.9,0,3.8,0,5.7,0c0.5,0,0.9,0,1.4,0c0.2,0,0.4-0.1,0.7-0.1l0.3-0.1l0.3-0.1c0.8-0.3,1.6-0.8,2.2-1.5
				c0.6-0.6,1-1.4,1.3-2.2c0.1-0.4,0.2-0.8,0.2-1.3c0-0.4,0-0.8,0-1.3c0-1.7,0-3.3,0-4.9c0-6.4,0-12,0-16.6c0-1.2,0-2.3,0-3.3
				c0-0.5,0-1,0-1.5c0-0.5,0-1,0-1.4c-0.1-0.9-0.4-1.7-0.8-2.3c-0.4-0.6-0.9-1.2-1.4-1.5c-1-0.8-1.9-1-2.6-1.1
				c-0.3-0.1-0.6-0.1-0.7-0.1C74.3,106.5,74.2,106.5,74.2,106.5z"/>
		</g>
	</g>
	<g>
		<path class="st12" d="M167.6,156h46.3c2.6,0,4.7-2.1,4.7-4.7v-35.9c0-2.6-2.1-4.7-4.7-4.7h-46.3c-2.6,0-4.7,2.1-4.7,4.7v35.9
			C162.9,153.9,165,156,167.6,156z"/>
		<path class="st7" d="M188.5,154.6c-0.6,1.4-11.6,11.8-11.6,11.8v-11.8H188.5z"/>
		<g>
			<g>
				<g>
					<g>
						<g>
							<g>
								<g>
									<g>
										<g>
											<g>
												<g>
													<g>
														<g>
															<g>
																<g>
																	<g>
																		<g>
																			<g>
																				<g>
																					<path class="st3" d="M184.3,145.1c0-1.4,0-2.6,0-2.8c0,0-4.8-0.5-5.2-5.2c-0.2-2.3-0.1-7.1,0-11.4
																						c0.1-4.6,3.8-8.4,8.4-8.7l0.5,0c5,0,7.8,4.2,7.7,9.2l-0.2,18.7l-8.1,6.5l-0.6-0.1L184.3,145.1z"/>
																				</g>
																			</g>
																		</g>
																	</g>
																</g>
															</g>
														</g>
													</g>
												</g>
											</g>
										</g>
									</g>
								</g>
							</g>
						</g>
					</g>
				</g>
			</g>
			<g>
				<g>
					<g>
						<g>
							<g>
								<g>
									<g>
										<g>
											<g>
												<g>
													<g>
														<g>
															<g>
																<g>
																	<g>
																		<g>
																			<g>
																				<g>
																					<path class="st10" d="M184.3,142.4c0,0,3,0,6.1-2.2c0,0-1.3,3.6-6.1,3.4L184.3,142.4z"/>
																				</g>
																			</g>
																		</g>
																	</g>
																</g>
															</g>
														</g>
													</g>
												</g>
											</g>
										</g>
									</g>
								</g>
							</g>
						</g>
					</g>
				</g>
			</g>
			<g>
				<g>
					<g>
						<g>
							<g>
								<g>
									<g>
										<g>
											<g>
												<g>
													<g>
														<g>
															<g>
																<g>
																	<g>
																		<g>
																			<g>
																				<g>
																					<g>
																						<g>
																							<g>
																								<g>
																									<path class="st2" d="M187.2,127.8c0.1,0.1,0.7-0.3,1.5-0.3c0.8,0,1.4,0.4,1.5,0.3c0,0-0.1-0.2-0.3-0.4
																										c-0.3-0.2-0.7-0.4-1.2-0.4c-0.5,0-0.9,0.2-1.2,0.4C187.2,127.6,187.1,127.7,187.2,127.8z"/>
																								</g>
																							</g>
																						</g>
																					</g>
																				</g>
																			</g>
																		</g>
																	</g>
																</g>
															</g>
														</g>
													</g>
												</g>
											</g>
										</g>
									</g>
								</g>
							</g>
						</g>
					</g>
				</g>
			</g>
			<g>
				<g>
					<g>
						<g>
							<g>
								<g>
									<g>
										<g>
											<g>
												<g>
													<g>
														<g>
															<g>
																<g>
																	<g>
																		<g>
																			<g>
																				<g>
																					<g>
																						<g>
																							<g>
																								<path class="st2" d="M187.8,130c0,0.3,0.3,0.6,0.7,0.6c0.4,0,0.6-0.3,0.6-0.6c0-0.3-0.3-0.6-0.7-0.6
																									C188,129.3,187.8,129.6,187.8,130z"/>
																							</g>
																						</g>
																					</g>
																				</g>
																			</g>
																		</g>
																	</g>
																</g>
															</g>
														</g>
													</g>
												</g>
											</g>
										</g>
									</g>
								</g>
							</g>
						</g>
					</g>
				</g>
			</g>
			<g>
				<g>
					<g>
						<g>
							<g>
								<g>
									<g>
										<g>
											<g>
												<g>
													<g>
														<g>
															<g>
																<g>
																	<g>
																		<g>
																			<g>
																				<g>
																					<g>
																						<g>
																							<g>
																								<path class="st2" d="M185.1,133.3c0,0-0.5-0.1-1.2-0.1c-0.2,0-0.4,0-0.4-0.2c-0.1-0.1,0-0.3,0.1-0.6
																									c0.1-0.5,0.3-1,0.5-1.5c0.6-2.1,1.1-3.8,1-3.8c-0.1,0-0.7,1.6-1.3,3.7c-0.2,0.5-0.3,1-0.4,1.5
																									c-0.1,0.2-0.2,0.5-0.1,0.7c0.1,0.1,0.2,0.2,0.3,0.3c0.1,0,0.2,0,0.3,0C184.6,133.4,185.1,133.4,185.1,133.3
																									z"/>
																							</g>
																						</g>
																					</g>
																				</g>
																			</g>
																		</g>
																	</g>
																</g>
															</g>
														</g>
													</g>
												</g>
											</g>
										</g>
									</g>
								</g>
							</g>
						</g>
					</g>
				</g>
			</g>
			<g>
				<g>
					<g>
						<g>
							<g>
								<g>
									<g>
										<g>
											<g>
												<g>
													<g>
														<g>
															<g>
																<g>
																	<g>
																		<g>
																			<g>
																				<path class="st2" d="M187.6,125.2c0.1,0.2,0.7,0.1,1.5,0.1c0.8,0,1.4,0.2,1.5,0.1c0-0.1-0.1-0.2-0.3-0.4
																					c-0.3-0.2-0.7-0.3-1.1-0.3c-0.5,0-0.9,0.1-1.1,0.2C187.7,125,187.5,125.1,187.6,125.2z"/>
																			</g>
																		</g>
																	</g>
																</g>
															</g>
														</g>
													</g>
												</g>
											</g>
										</g>
									</g>
								</g>
							</g>
						</g>
					</g>
				</g>
			</g>
			<g>
				<g>
					<g>
						<g>
							<g>
								<g>
									<g>
										<g>
											<g>
												<g>
													<g>
														<g>
															<g>
																<g>
																	<g>
																		<g>
																			<g>
																				<path class="st2" d="M180.1,125.7c0.1,0.1,0.7,0,1.5,0c0.8,0,1.4,0.1,1.5-0.1c0-0.1-0.1-0.2-0.3-0.3
																					c-0.3-0.1-0.7-0.2-1.1-0.2c-0.5,0-0.9,0.1-1.1,0.3C180.2,125.5,180,125.6,180.1,125.7z"/>
																			</g>
																		</g>
																	</g>
																</g>
															</g>
														</g>
													</g>
												</g>
											</g>
										</g>
									</g>
								</g>
							</g>
						</g>
					</g>
				</g>
			</g>
			<g>
				<g>
					<g>
						<g>
							<g>
								<g>
									<g>
										<g>
											<g>
												<g>
													<g>
														<g>
															<g>
																<path class="st3" d="M195.4,129.8c0.1,0,3.2-1.2,3.3,2.1c0.1,3.3-3.2,2.7-3.2,2.6
																	C195.5,134.4,195.4,129.8,195.4,129.8z"/>
															</g>
														</g>
													</g>
												</g>
											</g>
										</g>
									</g>
								</g>
							</g>
						</g>
					</g>
				</g>
			</g>
			<g>
				<g>
					<g>
						<g>
							<g>
								<g>
									<g>
										<g>
											<g>
												<g>
													<g>
														<g>
															<g>
																<g>
																	<path class="st10" d="M196.4,133.2c0,0,0.1,0,0.2,0.1c0.1,0,0.3,0.1,0.4,0c0.3-0.1,0.6-0.7,0.6-1.3
																		c0-0.3-0.1-0.6-0.2-0.8c-0.1-0.2-0.3-0.4-0.4-0.4c-0.2,0-0.3,0.1-0.3,0.2c0,0.1,0,0.2,0,0.2c0,0-0.1-0.1,0-0.2
																		c0-0.1,0-0.1,0.1-0.2c0.1-0.1,0.2-0.1,0.3-0.1c0.3,0,0.5,0.2,0.6,0.5c0.1,0.3,0.2,0.6,0.2,0.9
																		c0,0.7-0.3,1.3-0.8,1.4c-0.2,0.1-0.4,0-0.5-0.1C196.5,133.3,196.4,133.2,196.4,133.2z"/>
																</g>
															</g>
														</g>
													</g>
												</g>
											</g>
										</g>
									</g>
								</g>
							</g>
						</g>
					</g>
				</g>
			</g>
			<g>
				<g>
					<g>
						<g>
							<g>
								<g>
									<path class="st2" d="M186.1,136.1c0-0.1,0.6-0.3,1.1-0.9c0.2-0.3,0.4-0.6,0.5-0.8c0.1-0.2,0.2-0.4,0.2-0.4c0,0,0,0.2,0,0.4
										c-0.1,0.3-0.2,0.6-0.4,1c-0.3,0.3-0.6,0.5-0.8,0.6C186.3,136.1,186.1,136.1,186.1,136.1z"/>
								</g>
							</g>
						</g>
					</g>
				</g>
			</g>
			<g>
				<g>
					<g>
						<g>
							<g>
								<g>
									<path class="st2" d="M199.8,124.5c-0.7-1.2-0.8-2.5-1.2-3.8c-0.4-1.3-1.1-2.6-2.3-3.1l0,0c-1.1-0.5-2.5-0.5-3.5,0.3
										c-0.2-1.7-1.7-3.1-3.3-3.5c-1.7-0.5-4.3-0.2-5.9,0.4c-1.2,0.5-2.4,1.5-3.9,3c-0.6,0.6-1.2,1.3-1.7,2l-1.5,4.4l1.2,2.4
										c0.1,0.2,0.1,0.3,0.2,0.5l0,0l1.1,4.9c0.1-1.3,0.1-6,0.1-7.4c2.1-0.1,4-0.9,5.4-2.4c0.7-0.8,1.3-1.8,2.3-2.3
										c1.3-0.6,2.8-0.1,4.1,0.3l-0.1-0.1c0.7,0.3,1.3,0.8,1.8,1.4c-0.3,2.6-0.1,5.4,0.7,7.9c0.1,0.4,0.5,1.2,0.8,1.3
										c0.7,0.3,0.9-0.5,1.4-0.8c0.3-0.3,0.8-0.3,1.3-0.3c0.3-0.8,0.7-2.2,0.9-3.4c0.4,0.1,0.9,0.2,1.4,0.1
										c-0.1-0.3-0.3-0.7-0.4-1c0.2,0.1,0.4,0.2,0.6,0.3c0.2,0,0.5,0,0.6-0.2C200.1,125,199.9,124.8,199.8,124.5z"/>
								</g>
							</g>
						</g>
					</g>
				</g>
			</g>
			<g>
				<g>
					<g>
						<g>
							<g>
								<g>
									<path class="st7" d="M191.3,118.4c0,0,0.2,0.1,0.5,0.4c0.3,0.3,0.6,0.9,0.7,1.6c0.1,0.4,0.1,0.8,0.1,1.2
										c0,0.4,0,0.9-0.1,1.4c0,0.5-0.1,1-0.1,1.6c0,0.3,0,0.6,0.1,0.8c0.1,0.3,0.1,0.6,0.3,0.8c0.2,0.2,0.4,0.3,0.7,0.2
										c0.2,0,0.5-0.2,0.6-0.3c0.3-0.4,0.4-0.8,0.5-1.2l-0.1,0c0.2,0.4,0.3,0.7,0.6,1c0.2,0.3,0.6,0.5,0.9,0.5
										c0.2,0,0.3,0,0.5-0.1c0.2-0.1,0.3-0.2,0.3-0.3c0.1-0.1,0.1-0.3,0.1-0.4c0-0.1-0.1-0.3-0.1-0.4l-0.1,0
										c0.4,0.4,0.7,0.7,1,0.8c0.1,0.1,0.2,0.1,0.3,0.1c0.1,0,0.1,0,0.1,0c0,0,0,0-0.1,0c-0.1,0-0.2-0.1-0.3-0.1
										c-0.3-0.1-0.6-0.4-1-0.8l-0.1,0c0.2,0.2,0.2,0.5,0,0.7c-0.1,0.1-0.2,0.2-0.3,0.3c-0.1,0.1-0.3,0.1-0.4,0.1
										c-0.3,0-0.6-0.2-0.9-0.5c-0.2-0.3-0.4-0.6-0.5-1l-0.1-0.2l0,0.2c-0.1,0.4-0.2,0.8-0.5,1.2c-0.1,0.2-0.3,0.3-0.5,0.3
										c-0.2,0-0.4,0-0.6-0.2c-0.2-0.2-0.2-0.5-0.3-0.8c-0.1-0.3-0.1-0.5-0.1-0.8c0-0.5,0-1.1,0-1.6c0-0.5,0.1-1,0.1-1.4
										c0-0.4,0-0.9-0.1-1.2c-0.1-0.7-0.5-1.3-0.8-1.6C191.5,118.5,191.3,118.4,191.3,118.4z"/>
								</g>
							</g>
						</g>
					</g>
				</g>
			</g>
			<g>
				<g>
					<g>
						<g>
							<g>
								<g>
									<path class="st7" d="M176.5,122.8C176.5,122.8,176.5,122.9,176.5,122.8c0.1,0.1,0.1,0.1,0.2,0.1c0.1,0,0.1,0.1,0.2,0.1
										c0.1,0,0.2,0.1,0.3,0.2c0.4,0.2,1.1,0.4,2,0.4c0.9,0,1.9-0.3,2.9-1c1-0.7,1.8-1.7,2.5-2.8c0.4-0.6,0.6-1.2,1-1.7
										c0.3-0.5,0.7-1,1.1-1.4c0.4-0.4,0.9-0.7,1.4-0.8c0.2-0.1,0.5-0.1,0.7-0.1c0.2,0,0.5,0.1,0.7,0.1c0.4,0.1,0.7,0.4,1,0.6
										c0.2,0.2,0.4,0.5,0.5,0.7c0.2,0.4,0.2,0.7,0.2,0.7c0,0,0,0,0-0.1c0,0,0-0.1,0-0.1c0-0.1-0.1-0.3-0.2-0.5
										c-0.1-0.2-0.3-0.5-0.5-0.7c-0.3-0.2-0.6-0.5-1-0.6c-0.2-0.1-0.4-0.1-0.7-0.1c-0.2,0-0.5,0-0.8,0.1c-0.5,0.1-1,0.4-1.4,0.8
										c-0.4,0.4-0.8,0.9-1.1,1.5c-0.3,0.5-0.6,1.1-1,1.7c-0.7,1.1-1.5,2.1-2.5,2.8c-0.9,0.7-2,1-2.8,1c-0.9,0.1-1.6-0.2-2-0.4
										C176.7,123,176.5,122.8,176.5,122.8z"/>
								</g>
							</g>
						</g>
					</g>
				</g>
			</g>
			<g>
				<g>
					<g>
						<g>
							<g>
								<g>
									<g>
										<g>
											<g>
												<path class="st2" d="M179.9,128c0.1,0.1,0.7-0.3,1.5-0.4c0.8,0,1.4,0.4,1.5,0.3c0,0-0.1-0.2-0.3-0.4
													c-0.3-0.2-0.7-0.4-1.2-0.4c-0.5,0-0.9,0.2-1.2,0.4C179.9,127.8,179.8,127.9,179.9,128z"/>
											</g>
										</g>
									</g>
								</g>
							</g>
						</g>
					</g>
				</g>
			</g>
			<g>
				<g>
					<g>
						<g>
							<g>
								<g>
									<g>
										<g>
											<path class="st2" d="M181.1,130.1c0,0.3,0.3,0.6,0.7,0.6c0.4,0,0.6-0.3,0.6-0.6c0-0.3-0.3-0.6-0.7-0.6
												C181.4,129.4,181.1,129.7,181.1,130.1z"/>
										</g>
									</g>
								</g>
							</g>
						</g>
					</g>
				</g>
			</g>
			<g>
				<g>
					<g>
						<g>
							<g>
								<g>
									<path class="st2" d="M178.4,119.1c-0.4,0.5-1,1-1.7,1c-0.2,0-0.7-0.2-0.7-0.2c-0.2,0.1-0.2,0.9,0,1.2
										c0.2,0.2,0.5,0.5,0.5,0.5c-0.8,0.4-1.5,0.2-2.3-0.1c0.1,1.4,1.1,2.7,2.4,3.3c0.4,0.2,0.9,0.3,1.3,0c0.3-0.2,0.5-0.6,0.6-1
										c0.4-1.4,0.6-2.9,0.6-4.4L178.4,119.1z"/>
								</g>
							</g>
						</g>
					</g>
				</g>
			</g>
		</g>
		<path class="st7" d="M173.3,150.5l0.1-0.1c3.8-4,10.9-5.4,10.9-5.4s0.4,2.7,4.4,2.9c3.9,0.3,6.8-3.7,6.8-3.7l5.3,0.7
			c0,0,2.7,0.3,4.3,1.3c3.7,2.2,5.7,9.7,5.7,9.7l-40.6,0.2L173.3,150.5z"/>
		<g>
			<path class="st2" d="M169.6,110.8c0,0-0.1,0-0.3,0c-0.1,0-0.2,0-0.4,0c-0.1,0-0.3,0-0.5,0.1c-0.7,0.1-1.8,0.4-2.9,1.3
				c-0.6,0.4-1.1,1-1.6,1.8c-0.5,0.7-0.8,1.6-0.9,2.7c-0.1,0.5-0.1,1-0.1,1.6c0,0.6,0,1.1,0,1.7c0,1.2,0,2.4,0,3.8
				c0,5.3,0,11.7,0,19c0,1.8,0,3.7,0,5.6c0,0.5,0,1,0,1.5c0,0.5,0.1,1,0.3,1.4c0.3,0.9,0.8,1.8,1.5,2.6c0.7,0.7,1.5,1.3,2.5,1.7
				l0.4,0.1l0.4,0.1c0.2,0.1,0.5,0.1,0.8,0.1c0.5,0.1,1,0.1,1.6,0.1c2.1,0,4.3,0,6.5,0l0.1,0l0,0.1c0,3.3,0,6.8,0,10.4l-0.2-0.1
				c1.7-1.6,3.5-3.3,5.2-5c1.8-1.7,3.6-3.5,5.3-5.4l0,0h0c5.5,0,11.3,0,17.2,0c1.8,0,3.5,0,5.3,0c0.4,0,0.9,0,1.3,0
				c0.4,0,0.9,0,1.3,0c0.9-0.1,1.7-0.3,2.4-0.7c1.5-0.8,2.7-2.1,3.2-3.7c0.3-0.8,0.4-1.6,0.4-2.5c0-0.8,0-1.7,0-2.5
				c0-6.7,0-13.1,0-19.2c0-3.1,0-6.1,0-9c0-0.7,0-1.4-0.1-2.1c-0.1-0.7-0.4-1.4-0.7-2c-0.3-0.6-0.8-1.1-1.3-1.6
				c-0.5-0.5-1.1-0.8-1.7-1.1c-0.6-0.3-1.3-0.5-1.9-0.5c-0.7-0.1-1.3-0.1-2-0.1c-1.3,0-2.6,0-3.9,0c-2.5,0-5,0-7.3,0
				c-9.3,0-16.8,0-22,0c-2.6,0-4.6,0-6,0c-0.7,0-1.2,0-1.6,0C169.8,110.8,169.6,110.8,169.6,110.8s0.2,0,0.5,0c0.4,0,0.9,0,1.6,0
				c1.4,0,3.4,0,6,0c5.2,0,12.7,0,22,0c2.3,0,4.7,0,7.3,0c1.3,0,2.6,0,3.9,0c0.7,0,1.3,0,2,0.1c0.7,0.1,1.3,0.3,2,0.6
				c0.6,0.3,1.2,0.7,1.7,1.1c0.5,0.5,1,1,1.3,1.6c0.4,0.6,0.6,1.3,0.8,2c0.1,0.7,0.1,1.5,0.1,2.2c0,2.9,0,5.9,0,9
				c0,6.1,0,12.6,0,19.2c0,0.8,0,1.7,0,2.5c0,0.8-0.1,1.7-0.4,2.5c-0.6,1.6-1.8,3-3.3,3.8c-0.8,0.4-1.6,0.6-2.5,0.7
				c-0.4,0-0.9,0-1.3,0c-0.4,0-0.9,0-1.3,0c-1.7,0-3.5,0-5.3,0c-5.9,0-11.6,0-17.2,0l0.1,0c-1.7,1.9-3.5,3.6-5.3,5.4
				c-1.8,1.7-3.5,3.4-5.2,5l-0.2,0.2l0-0.2c0-3.6,0-7.1,0-10.4l0.1,0.1c-2.2,0-4.4,0-6.5,0c-0.5,0-1.1,0-1.6-0.1
				c-0.3,0-0.5-0.1-0.8-0.1l-0.4-0.1l-0.4-0.1c-1-0.4-1.9-1-2.6-1.7c-0.7-0.8-1.2-1.7-1.5-2.6c-0.1-0.5-0.2-1-0.3-1.5
				c0-0.5,0-1,0-1.5c0-1.9,0-3.8,0-5.6c0-7.3,0-13.7,0-19c0-1.3,0-2.6,0-3.8c0-0.6,0-1.2,0-1.7c0-0.6,0-1.1,0.1-1.6
				c0.1-1,0.5-1.9,1-2.7c0.5-0.7,1-1.3,1.6-1.8c1.1-0.9,2.3-1.2,3-1.3c0.2,0,0.3-0.1,0.5-0.1c0.1,0,0.3,0,0.4,0
				C169.5,110.8,169.6,110.8,169.6,110.8z"/>
		</g>
	</g>
</g>
</svg>
