<?xml version="1.0" encoding="utf-8"?>
<!-- Generator: Adobe Illustrator 25.2.1, SVG Export Plug-In . SVG Version: 6.00 Build 0)  -->
<svg version="1.1" id="Layer_1" xmlns="http://www.w3.org/2000/svg" xmlns:xlink="http://www.w3.org/1999/xlink" x="0px" y="0px"
	 viewBox="0 0 250 200" style="enable-background:new 0 0 250 200;" xml:space="preserve">
<style type="text/css">
	.st0{fill:#ECECEC;}
	.st1{fill:#E1E1E1;}
	.st2{fill:#1A2E35;}
	.st3{fill:#FFBF9D;}
	.st4{fill:#49B8FF;}
	.st5{opacity:0.4;}
	.st6{opacity:0.2;}
	.st7{fill:#375A64;}
	.st8{fill:#FAFAFA;}
	.st9{opacity:0.3;}
	.st10{fill:#FF9A6C;}
	.st11{opacity:0.5;}
	.st12{fill:#FFFFFF;}
	.st13{fill:none;stroke:#E1E1E1;stroke-width:0.4079;stroke-miterlimit:10;}
	.st14{fill:#FFC8A5;}
	.st15{fill:#F68358;}
	.st16{fill:#D8765F;}
	.st17{fill:#8D4032;}
	.st18{fill:#F5F5F5;}
	.st19{fill:#F0F0F0;}
	.st20{fill:#E7E7E7;}
	.st21{fill:none;stroke:#FFFFFF;stroke-linecap:round;stroke-linejoin:round;stroke-miterlimit:10;}
	.st22{opacity:0.2;enable-background:new    ;}
	.st23{opacity:0.1;}
	.st24{opacity:0.6;fill:#FFFFFF;enable-background:new    ;}
	.st25{fill:#FFBE9C;}
	.st26{fill:#EE9E82;}
	.st27{opacity:0.4;fill:#FFFFFF;enable-background:new    ;}
	.st28{opacity:0.1;fill:#FFFFFF;enable-background:new    ;}
	.st29{fill:#0097D5;}
	.st30{fill:#E2E2E2;}
	.st31{fill:#B7B7B7;}
	.st32{fill:#BCBCBC;}
	.st33{fill:#B3B3B3;}
	.st34{fill:#AFDFFA;}
	.st35{fill:#7A7A7A;}
	.st36{fill:#E0E0E0;}
	.st37{fill:#E1F4FF;}
	.st38{fill:#A8A8A8;}
	.st39{opacity:0.6;}
	.st40{opacity:0.99;}
	.st41{clip-path:url(#SVGID_2_);}
	.st42{opacity:0.5;fill:#FFFFFF;}
	.st43{fill:#FF4F5B;}
	.st44{fill:none;stroke:#FF4F5B;stroke-width:0.4507;stroke-miterlimit:10;}
</style>
<g>
	<g>
		<g>
			<rect x="39" y="92" transform="matrix(0.328 -0.9447 0.9447 0.328 -78.2289 145.1799)" class="st0" width="47.9" height="71.1"/>
		</g>
		<g>
			<g>
				<path class="st1" d="M104.4,116.6c0,0-0.3,0.2-0.8,0.4c-0.6,0.2-1.4,0.6-2.4,1c-2.2,0.9-5.3,2.1-9,3.5
					c-7.7,2.9-18.2,7-29.9,11.4l-0.2,0.1l-0.1-0.2c-0.1-0.2-0.2-0.4-0.3-0.5c-6.7-10.7-12.8-20.4-17.2-27.5
					c-2.2-3.5-3.9-6.3-5.2-8.4c-0.6-1-1-1.7-1.4-2.3c-0.3-0.5-0.5-0.8-0.4-0.8c0,0,0.2,0.2,0.6,0.8c0.4,0.6,0.9,1.3,1.5,2.2
					c1.3,2,3.1,4.8,5.3,8.3c4.5,7.1,10.6,16.7,17.4,27.4c0.1,0.2,0.2,0.4,0.3,0.5l-0.4-0.1c11.7-4.4,22.3-8.4,30-11.3
					c3.8-1.4,6.9-2.5,9.1-3.3c1-0.4,1.9-0.7,2.5-0.9C104.1,116.7,104.4,116.6,104.4,116.6z"/>
			</g>
		</g>
		<g>
			<g>
				<path class="st1" d="M21.5,138.6c-0.1-0.2,7.1-4.6,16.1-9.9c9-5.3,16.3-9.5,16.4-9.4c0.1,0.2-7.1,4.6-16.1,9.9
					C28.9,134.5,21.6,138.7,21.5,138.6z"/>
			</g>
		</g>
		<g>
			<g>
				<path class="st1" d="M76.5,126.4c0.2-0.1,3,7.8,6.4,17.6c3.3,9.8,5.9,17.8,5.8,17.8c-0.2,0.1-3-7.8-6.4-17.6
					C78.9,134.5,76.4,126.5,76.5,126.4z"/>
			</g>
		</g>
	</g>
	<g>
		<g>
			<g>
				
					<rect x="172.3" y="86.8" transform="matrix(0.9859 -0.1671 0.1671 0.9859 -15.4074 35.9471)" class="st1" width="67.4" height="45.4"/>
			</g>
			<g>
				<g>
					<path class="st0" d="M235.4,81.5c0,0-0.2,0.3-0.5,0.7c-0.4,0.5-0.9,1.1-1.6,1.9c-1.4,1.7-3.4,4.1-5.9,7
						c-5.1,6-12,14.1-19.6,23.2l-0.2,0.2l-0.2-0.1c-0.2-0.1-0.3-0.2-0.5-0.3c-10.5-5.8-19.9-11.1-26.9-15c-3.4-1.9-6.1-3.5-8.1-4.6
						c-0.9-0.5-1.6-1-2.2-1.3c-0.5-0.3-0.8-0.5-0.7-0.5c0,0,0.3,0.1,0.8,0.4c0.6,0.3,1.3,0.7,2.2,1.2c2,1.1,4.8,2.6,8.2,4.4
						c7,3.8,16.5,9.1,27,14.8c0.2,0.1,0.4,0.2,0.5,0.3l-0.4,0.1c7.7-9,14.7-17.1,19.8-23c2.5-2.9,4.6-5.2,6-6.9
						c0.7-0.8,1.2-1.4,1.7-1.9C235.2,81.7,235.4,81.5,235.4,81.5z"/>
				</g>
			</g>
		</g>
		<g>
			<g>
				<path class="st0" d="M176.5,137.6c-0.1-0.1,3.8-7.1,8.8-15.6c5-8.5,9.2-15.4,9.4-15.3c0.1,0.1-3.8,7.1-8.8,15.6
					C180.9,130.8,176.7,137.7,176.5,137.6z"/>
			</g>
		</g>
		<g>
			<g>
				<path class="st0" d="M216.7,102.4c0.1-0.1,6.1,5.1,13.3,11.7c7.3,6.6,13,12.1,12.9,12.2c-0.1,0.1-6.1-5.1-13.3-11.7
					C222.4,108,216.6,102.5,216.7,102.4z"/>
			</g>
		</g>
	</g>
	<g>
		<g>
			
				<rect x="169.2" y="10.1" transform="matrix(0.3659 -0.9306 0.9306 0.3659 85.6426 194.4929)" class="st0" width="32.7" height="48.5"/>
		</g>
		<g>
			<g>
				<g>
					<path class="st1" d="M214.1,28.5c0,0-0.2,0.1-0.6,0.2c-0.4,0.2-1,0.4-1.7,0.6c-1.5,0.5-3.6,1.3-6.2,2.2
						c-5.3,1.8-12.6,4.3-20.7,7l-0.2,0.1l-0.1-0.2c-0.1-0.1-0.1-0.2-0.2-0.4c-4.3-7.5-8.2-14.3-11-19.2c-1.4-2.4-2.5-4.4-3.3-5.9
						c-0.4-0.7-0.7-1.2-0.9-1.6c-0.2-0.4-0.3-0.6-0.3-0.6c0,0,0.1,0.2,0.4,0.5c0.2,0.4,0.6,0.9,0.9,1.6c0.8,1.4,2,3.4,3.4,5.8
						c2.9,4.9,6.8,11.7,11.1,19.2c0.1,0.1,0.1,0.3,0.2,0.4l-0.3-0.1c8.1-2.7,15.4-5.1,20.8-6.9c2.6-0.8,4.8-1.5,6.3-2
						c0.7-0.2,1.3-0.4,1.7-0.5C213.9,28.5,214.1,28.5,214.1,28.5z"/>
				</g>
			</g>
		</g>
		<g>
			<g>
				<path class="st1" d="M157,41.2c-0.1-0.1,5-2.9,11.2-6.3c6.3-3.4,11.4-6.1,11.5-5.9c0.1,0.1-5,2.9-11.3,6.3
					C162.2,38.6,157,41.3,157,41.2z"/>
			</g>
		</g>
		<g>
			<g>
				<path class="st1" d="M194.9,34.4c0.1,0,1.8,5.4,3.9,12.2c2,6.8,3.6,12.3,3.4,12.3c-0.1,0-1.8-5.4-3.9-12.2
					C196.3,39.9,194.7,34.4,194.9,34.4z"/>
			</g>
		</g>
	</g>
	<g>
		<g>
			<path class="st2" d="M250,189.2c0,0.1-56,0.1-125,0.1c-69,0-125-0.1-125-0.1c0-0.1,56-0.1,125-0.1C194,189.1,250,189.1,250,189.2
				z"/>
		</g>
	</g>
	<g>
		<g>
			<g>
				<g>
					<path class="st3" d="M12.3,70.3l6.2-2.2l-2.7-3.6c0-0.2-0.2-1.1-0.2-2.4c0-0.4,0.1-0.8,0.2-1.2c0.2-0.5,0.4-1.1,0.7-1.4
						c0.3-0.4,0-0.9-0.4-0.8c-0.4,0.1-1.3,1.1-1.6,2.6c-0.4,1.5-1.4-0.7-1.8-1.5c-0.4-0.8-1.7-3.2-2-3.2c-0.5-0.1-0.7,0.4-0.3,1.2
						c0.4,0.8,1.4,3.2,1,3.4c-0.4,0.2-2.3-3.8-2.3-3.8s-0.3-0.9-0.8-0.7C7.5,56.9,9.8,61,10,61.4c0.2,0.3-0.3,0.5-0.4,0.2
						c-0.2-0.3-1.8-4-2.7-3.7c-0.7,0.3,1.9,3.4,1.8,4.4c-0.1,1-1.7-2.6-2.4-2.3c-0.2,0.1-0.4,0.2,0.8,2.1c0.4,0.6,1.2,1.6,2,2.6l0,0
						L12.3,70.3"/>
				</g>
				<g>
					<g>
						<g>
							<path class="st4" d="M68.5,77.9c0,0-3.1-7.2-5.2-10.7c-2-3.3-4.7-3.8-6.1-3.9c-1.1-0.3-1.8-0.4-1.8-0.4l-11.6-0.1
								c0,0-3.6-0.2-6.9,2.5c-0.5,0.4-4.5,5.1-9.8,11.7l-9.3-10l-5.5,3.3c0,0,6,20.7,13.5,19.3c4.5-0.8,8-4,8-4l5.9-4.7l0.1,0.8
								c0.1,1,0.4,2.5,0.6,3.4c0.7,3,1.1,6.9-0.4,9.4c0,0-2.1,1.6-0.4,3.4h21.7c0,0,3.1-2.1,0.3-4.4l-1.8-4.4l1.1-5.4l0.4-2.2
								l1.9,3.3c0,0,3.8,4.8,7.7,4.2c4.7-0.7,7.5-9.3,3.2-20.7l-5.1,1.6L68.5,77.9z"/>
						</g>
					</g>
				</g>
				<g class="st5">
					<polygon points="12.3,70.3 12.9,72 19,68.3 17.9,67 					"/>
				</g>
				<g class="st6">
					<g>
						<path d="M40,94.6c1.9-0.3,3.5-1.3,4.6-2.8c1.1-1.5,1.6-3.5,1.3-5.3c-0.1-0.7-0.3-1.3-0.9-1.7c-0.7-0.4-1.6-0.2-2.3-0.6
							c-0.6-0.3-0.9-0.9-1.3-1.5c-0.4-0.5-1-1.3-1.6-1.1c0,0,0.7,3.8,1,5.5c0.3,1.7,0.4,4.2-0.2,6C40.5,93.6,40.3,94.1,40,94.6z"/>
					</g>
				</g>
				<g>
					<g>
						<path class="st2" d="M26.3,80.6c-0.1,0,0-0.8,0.3-1.8c0.3-1,0.5-1.7,0.6-1.7c0.1,0,0,0.8-0.3,1.8
							C26.5,79.8,26.3,80.6,26.3,80.6z"/>
					</g>
				</g>
				<g>
					<g>
						<path class="st2" d="M27.6,79.6c-0.1,0-0.2-0.6-0.4-1.3C27.1,77.6,27,77,27.1,77c0.1,0,0.2,0.6,0.4,1.3
							C27.6,79,27.7,79.6,27.6,79.6z"/>
					</g>
				</g>
				<g>
					<polygon class="st7" points="69.1,54.2 61.2,67 67.4,68.8 74.3,58.1 					"/>
				</g>
				<g>
					<path class="st3" d="M68.6,65.1l0.3,1.9l1.1,1.4l0.1,1.2l4-1.2l-1.6-5.7c0,0,0.3-1.6,0.2-2.3l-1.1,1.4l-0.3-2.4L69,57.7
						c-0.2-0.2-0.6-0.1-0.8,0.1l0,0c-0.2,0.2-0.1,0.5,0.1,0.7l1.8,1.6l0.1,2l-1.3-1.2c-0.1-0.1-0.3-0.2-0.5-0.2l-1.8-0.4
						c-0.3-0.1-0.5,0.1-0.6,0.4l0,0c0,0.2,0.1,0.4,0.3,0.5l1.6,0.5l1.7,1.7l-1.6-0.6L65.9,63c-0.2,0-0.4,0.2-0.4,0.4l0,0
						c0,0.2,0.2,0.4,0.5,0.4l1.4-0.1l0.8,0.3l-1.9,0.5c-0.2,0-0.3,0.2-0.3,0.4l0,0c0,0.2,0.2,0.4,0.4,0.4L68.6,65.1z"/>
				</g>
				<g class="st5">
					<polygon points="69.1,69.9 69,72 75,70.3 74.3,68.3 					"/>
				</g>
				<g>
					<path class="st2" d="M61.2,67c0,0-0.5-0.7-0.5-0.8c0-0.1,7.5-12.4,7.5-12.4l0.9,0.5L61.2,67z"/>
				</g>
				<g>
					<path class="st2" d="M71.1,57.4c0.1-0.1,0.4-0.1,0.5,0.1c0.1,0.2-0.1,0.4-0.3,0.3C71,57.9,70.9,57.6,71.1,57.4"/>
				</g>
				<g>
					<g>
						<path class="st8" d="M66.1,73.2c0,0-0.1,0.1-0.2,0.3c-0.2,0.2-0.5,0.4-1,0.5c-0.5,0.1-1.1,0.1-1.7,0c-0.7-0.1-1.4-0.3-2.2-0.1
							c-0.8,0.2-1.6,0.7-2.4,1.3c-0.8,0.6-1.6,1.3-2.7,1.7c-0.6,0.2-1.1,0.2-1.7,0.1c-0.6-0.1-1.2-0.3-1.7-0.5
							c-1.1-0.4-2.2-1.1-3.4-1.5c-0.6-0.2-1.2-0.4-1.8-0.4c-0.6,0-1.2,0-1.8,0.2c-1.2,0.2-2.3,0.7-3.4,0.9c-2.2,0.5-4.3,0-5.8-0.8
							c-1.5-0.8-2.5-1.8-3-2.6c-0.5-0.8-0.7-1.3-0.7-1.3c0,0,0.2,0.5,0.8,1.2c0.6,0.7,1.5,1.7,3,2.5c1.5,0.8,3.5,1.2,5.7,0.7
							c1.1-0.2,2.2-0.7,3.4-0.9c0.6-0.1,1.2-0.2,1.9-0.2c0.6,0,1.3,0.2,1.9,0.4c1.2,0.4,2.3,1.1,3.4,1.5c0.6,0.2,1.1,0.4,1.7,0.5
							c0.6,0.1,1.1,0,1.7-0.1c1-0.3,1.9-1,2.7-1.6c0.8-0.6,1.6-1.1,2.4-1.3c0.9-0.2,1.6,0,2.3,0.1c0.7,0.1,1.2,0.1,1.7,0
							c0.5-0.1,0.8-0.3,1-0.4C66.1,73.3,66.1,73.2,66.1,73.2z"/>
					</g>
				</g>
			</g>
			<g>
				<g>
					<path class="st2" d="M68.6,81.5c-0.1,0-0.1-0.9-0.2-1.9c0-1.1,0-1.9,0.1-1.9c0.1,0,0.1,0.9,0.2,1.9
						C68.7,80.7,68.7,81.5,68.6,81.5z"/>
				</g>
			</g>
		</g>
		<g>
			<g>
				<path class="st3" d="M55,161.7c0.2,0.8,4.6,25.7,4.6,25.7l6.8-0.5l-1.2-25.5L55,161.7z"/>
			</g>
			<g>
				<g>
					<g>
						<g>
							<g>
								<g>
									<g>
										<path class="st4" d="M66.7,187.3l0-0.7l-7.3,0.2l0,2.4l0.4,0c2,0.1,10.2,0.2,11.5-0.2C72.8,188.5,66.7,187.3,66.7,187.3z"
											/>
									</g>
								</g>
							</g>
						</g>
						<g class="st9">
							<g>
								<g>
									<g>
										<path d="M62,189c-0.1-0.6-0.5-1.1-1-1.4c-0.5-0.3-1.1-0.5-1.7-0.5l0,1.9L62,189z"/>
									</g>
								</g>
							</g>
						</g>
					</g>
					<g>
						<g>
							<g class="st9">
								<g>
									<path d="M69.7,188c0,0,2.2,0.5,1.9,0.9c-0.3,0.3-8.5,0.5-12.2,0.3l0-0.2l9.6-0.1C69.1,188.9,69.3,188,69.7,188z"/>
								</g>
							</g>
						</g>
					</g>
					<g>
						<g>
							<g>
								<g>
									<g>
										<path class="st2" d="M59.3,189c0,0,0,0,0.1,0c0.1,0,0.2,0,0.4,0c0.4,0,0.8,0,1.3,0c1.1,0,2.6,0,4.3,0
											c1.7,0,3.2-0.1,4.3-0.1c0.5,0,1-0.1,1.3-0.1c0.1,0,0.2,0,0.4,0c0.1,0,0.1,0,0.1,0c0,0,0,0-0.1,0c-0.1,0-0.2,0-0.4,0
											c-0.4,0-0.8,0-1.3,0c-1.1,0-2.6,0.1-4.3,0.1c-1.7,0-3.2,0-4.3,0c-0.5,0-1,0-1.3,0c-0.1,0-0.3,0-0.4,0
											C59.4,189,59.3,189,59.3,189z"/>
									</g>
								</g>
							</g>
						</g>
					</g>
					<g>
						<g>
							<g>
								<g>
									<g>
										<path class="st2" d="M69.1,189c0,0,0-0.3,0.2-0.6c0.2-0.3,0.5-0.5,0.4-0.5c0,0-0.3,0.1-0.5,0.4C69,188.7,69,189,69.1,189z
											"/>
									</g>
								</g>
							</g>
						</g>
					</g>
					<g>
						<g>
							<g>
								<g>
									<g>
										<path class="st2" d="M66.9,188c0,0,0.1-0.1,0.2-0.3c0.1-0.2,0.2-0.3,0.1-0.3c0,0-0.1,0.1-0.2,0.3
											C66.9,187.9,66.9,188,66.9,188z"/>
									</g>
								</g>
							</g>
						</g>
					</g>
					<g>
						<g>
							<g>
								<g>
									<g>
										<path class="st2" d="M66.3,187.7c0,0,0.1-0.1,0.3-0.2c0.1-0.1,0.2-0.2,0.2-0.2c0,0-0.1,0.1-0.3,0.2
											C66.4,187.6,66.3,187.7,66.3,187.7z"/>
									</g>
								</g>
							</g>
						</g>
					</g>
					<g>
						<g>
							<g>
								<g>
									<g>
										<path class="st2" d="M65.9,187.1c0,0,0.2,0,0.4,0c0.2,0,0.4,0,0.4,0s-0.2,0-0.4,0C66.1,187.1,65.9,187.1,65.9,187.1z"/>
									</g>
								</g>
							</g>
						</g>
					</g>
					<g>
						<g>
							<g>
								<g>
									<g>
										<path class="st2" d="M65.8,186.7c0,0,0.2,0.1,0.4,0.1c0.2,0,0.4,0,0.4-0.1c0,0-0.2,0-0.4,0
											C66,186.7,65.8,186.6,65.8,186.7z"/>
									</g>
								</g>
							</g>
						</g>
					</g>
					<g>
						<g>
							<g>
								<g>
									<g>
										<path class="st2" d="M67.1,187.4c0,0,0.2,0,0.5,0c0.1,0,0.3-0.1,0.5-0.1c0.1,0,0.2-0.1,0.3-0.1c0,0,0.1-0.1,0.1-0.1
											c0-0.1,0-0.1-0.1-0.2c-0.4-0.2-0.9,0-1,0.3C67.3,187.2,67.2,187.3,67.1,187.4c0.1,0.1,0.1,0.1,0.1,0.1c0,0,0-0.2,0.2-0.4
											c0.1-0.1,0.2-0.2,0.4-0.2c0.2,0,0.4-0.1,0.6,0c0.1,0,0,0.1,0,0.2c-0.1,0-0.2,0.1-0.3,0.1c-0.2,0.1-0.3,0.1-0.5,0.1
											C67.3,187.4,67.1,187.4,67.1,187.4z"/>
									</g>
								</g>
							</g>
						</g>
					</g>
					<g>
						<g>
							<g>
								<g>
									<g>
										<path class="st2" d="M67.3,187.4c0,0,0.1-0.1,0-0.3c0-0.1-0.1-0.2-0.1-0.3c-0.1-0.1-0.2-0.2-0.4-0.2
											c-0.1,0-0.2,0.1-0.1,0.2c0,0.1,0,0.1,0.1,0.2c0.1,0.1,0.2,0.2,0.2,0.3C67.1,187.4,67.2,187.4,67.3,187.4
											c0,0-0.1-0.1-0.3-0.2c-0.1-0.1-0.1-0.2-0.2-0.3c-0.1-0.1-0.1-0.3,0-0.3c0.1,0,0.2,0.1,0.3,0.2c0.1,0.1,0.1,0.2,0.1,0.3
											C67.3,187.3,67.2,187.4,67.3,187.4z"/>
									</g>
								</g>
							</g>
						</g>
					</g>
					<g>
						<g>
							<g>
								<g>
									<g>
										<path class="st2" d="M59.4,187.1c0,0,0.2,0,0.5,0c0.3,0,0.8,0.1,1.2,0.4c0.4,0.3,0.6,0.7,0.7,0.9C62,188.8,62,189,62,189
											c0,0,0,0,0-0.1c0-0.1,0-0.2-0.1-0.4c-0.1-0.3-0.3-0.7-0.8-1c-0.4-0.3-0.9-0.4-1.2-0.4c-0.2,0-0.3,0-0.4,0
											C59.5,187.1,59.4,187.1,59.4,187.1z"/>
									</g>
								</g>
							</g>
						</g>
					</g>
					<g>
						<g>
							<g>
								<g>
									<g>
										<path class="st2" d="M62.9,188.4c0,0,0.5,0.1,1.1,0.1c0.6,0,1.1-0.1,1.1-0.1c0,0-0.5,0-1.1,0
											C63.4,188.4,62.9,188.3,62.9,188.4z"/>
									</g>
								</g>
							</g>
						</g>
					</g>
					<g>
						<g>
							<g>
								<g>
									<g>
										<path class="st2" d="M61.5,188.4c0,0,0,0.1,0.1,0.2c0.1,0.1,0.1,0.2,0.1,0.2c0,0,0-0.1,0-0.2
											C61.6,188.4,61.5,188.4,61.5,188.4z"/>
									</g>
								</g>
							</g>
						</g>
					</g>
					<g>
						<g>
							<g>
								<g>
									<g>
										<path class="st2" d="M61,187.8c0,0,0,0.1,0.1,0.2c0.1,0.1,0.2,0.1,0.2,0.1c0,0,0-0.1-0.1-0.2
											C61.1,187.8,61,187.8,61,187.8z"/>
									</g>
								</g>
							</g>
						</g>
					</g>
					<g>
						<g>
							<g>
								<g>
									<g>
										<path class="st2" d="M60.2,187.5c0,0,0.1,0,0.2,0.1c0.1,0,0.2,0.1,0.2,0.1c0,0,0-0.1-0.2-0.1
											C60.3,187.4,60.2,187.5,60.2,187.5z"/>
									</g>
								</g>
							</g>
						</g>
					</g>
					<g>
						<g>
							<g>
								<g>
									<g>
										<path class="st2" d="M59.6,187.4C59.6,187.4,59.7,187.4,59.6,187.4c0.2,0.1,0.2,0.1,0.2,0.1c0,0,0-0.1-0.1-0.1
											C59.7,187.4,59.7,187.4,59.6,187.4z"/>
									</g>
								</g>
							</g>
						</g>
					</g>
				</g>
			</g>
		</g>
		<g>
			<g>
				<path class="st3" d="M37.7,159.7c0,0.8-2.9,25.1-2.9,25.1l6.7,1.5l6.2-24.7L37.7,159.7z"/>
			</g>
			<g>
				<g>
					<g>
						<g>
							<g>
								<g>
									<g>
										<path class="st4" d="M41.8,186.9l0.1-0.7l-7.1-1.6l-0.5,2.3l0.4,0.1c1.9,0.5,9.8,2.6,11.2,2.5
											C47.5,189.5,41.8,186.9,41.8,186.9z"/>
									</g>
								</g>
							</g>
						</g>
						<g class="st9">
							<g>
								<g>
									<g>
										<path d="M36.9,187.4c0-0.6-0.2-1.2-0.6-1.6c-0.4-0.4-0.9-0.8-1.5-0.8l-0.4,1.8L36.9,187.4z"/>
									</g>
								</g>
							</g>
						</g>
					</g>
					<g>
						<g>
							<g class="st9">
								<g>
									<path d="M44.5,188.2c0,0,2,1,1.6,1.3c-0.3,0.3-8.4-1.6-11.9-2.6l0-0.1l9.4,2.2C43.7,188.9,44.1,188.1,44.5,188.2z"/>
								</g>
							</g>
						</g>
					</g>
					<g>
						<g>
							<g>
								<g>
									<g>
										<path class="st2" d="M34.2,186.7c0,0,0,0,0.1,0c0.1,0,0.2,0.1,0.3,0.1c0.3,0.1,0.8,0.2,1.3,0.3c1.1,0.3,2.6,0.7,4.2,1
											c1.7,0.4,3.2,0.7,4.2,0.9c0.5,0.1,0.9,0.2,1.3,0.2c0.1,0,0.2,0,0.4,0.1c0.1,0,0.1,0,0.1,0c0,0,0,0-0.1,0
											c-0.1,0-0.2,0-0.3-0.1c-0.3-0.1-0.8-0.2-1.3-0.3c-1.1-0.2-2.6-0.5-4.2-0.9c-1.7-0.4-3.1-0.7-4.2-1
											c-0.5-0.1-0.9-0.2-1.3-0.3c-0.1,0-0.2-0.1-0.3-0.1C34.3,186.7,34.2,186.7,34.2,186.7z"/>
									</g>
								</g>
							</g>
						</g>
					</g>
					<g>
						<g>
							<g>
								<g>
									<g>
										<path class="st2" d="M43.7,189c0,0,0.1-0.3,0.4-0.5c0.3-0.2,0.5-0.3,0.5-0.4c0,0-0.3,0-0.6,0.3
											C43.7,188.7,43.7,189,43.7,189z"/>
									</g>
								</g>
							</g>
						</g>
					</g>
					<g>
						<g>
							<g>
								<g>
									<g>
										<path class="st2" d="M41.8,187.6c0,0,0.1-0.1,0.3-0.2c0.1-0.1,0.2-0.2,0.2-0.3c0,0-0.1,0.1-0.3,0.2
											C41.9,187.4,41.8,187.6,41.8,187.6z"/>
									</g>
								</g>
							</g>
						</g>
					</g>
					<g>
						<g>
							<g>
								<g>
									<g>
										<path class="st2" d="M41.3,187.2c0,0,0.1,0,0.3-0.1c0.1-0.1,0.3-0.2,0.2-0.2c0,0-0.1,0-0.3,0.1
											C41.4,187.1,41.3,187.1,41.3,187.2z"/>
									</g>
								</g>
							</g>
						</g>
					</g>
					<g>
						<g>
							<g>
								<g>
									<g>
										<path class="st2" d="M41.1,186.5c0,0,0.2,0.1,0.4,0.1c0.2,0,0.4,0.1,0.4,0c0,0-0.2-0.1-0.4-0.1
											C41.3,186.5,41.1,186.4,41.1,186.5z"/>
									</g>
								</g>
							</g>
						</g>
					</g>
					<g>
						<g>
							<g>
								<g>
									<g>
										<path class="st2" d="M41.1,186c0,0,0.2,0.1,0.4,0.2c0.2,0.1,0.4,0.1,0.4,0c0,0-0.2-0.1-0.4-0.1
											C41.3,186.1,41.1,186,41.1,186z"/>
									</g>
								</g>
							</g>
						</g>
					</g>
					<g>
						<g>
							<g>
								<g>
									<g>
										<path class="st2" d="M42.2,187.1c0,0,0.2,0.1,0.5,0.1c0.1,0,0.3,0,0.5,0c0.1,0,0.2,0,0.3,0c0.1,0,0.1,0,0.1-0.1
											c0-0.1,0-0.1,0-0.2c-0.4-0.3-0.9-0.2-1.1,0C42.4,186.9,42.3,187,42.2,187.1c0,0.1,0,0.1,0,0.1c0,0,0.1-0.2,0.3-0.3
											c0.1-0.1,0.3-0.1,0.4-0.1c0.2,0,0.4,0,0.5,0.2c0.1,0.1,0,0.1-0.1,0.2c-0.1,0-0.2,0-0.3,0c-0.2,0-0.4,0-0.5,0
											C42.4,187.1,42.2,187,42.2,187.1z"/>
									</g>
								</g>
							</g>
						</g>
					</g>
					<g>
						<g>
							<g>
								<g>
									<g>
										<path class="st2" d="M42.3,187.1c0,0,0.1-0.1,0.1-0.3c0-0.1,0-0.2-0.1-0.3c-0.1-0.1-0.1-0.3-0.3-0.3
											c-0.1,0-0.2,0.1-0.2,0.2c0,0.1,0,0.1,0,0.2c0,0.1,0.1,0.2,0.2,0.3C42.2,187,42.3,187.1,42.3,187.1c0,0-0.1-0.1-0.2-0.3
											c0-0.1-0.1-0.2-0.1-0.3c0-0.1,0-0.3,0.1-0.3c0.1,0,0.2,0.1,0.3,0.2c0.1,0.1,0.1,0.2,0.1,0.3
											C42.4,187,42.3,187.1,42.3,187.1z"/>
									</g>
								</g>
							</g>
						</g>
					</g>
					<g>
						<g>
							<g>
								<g>
									<g>
										<path class="st2" d="M34.8,184.9c0,0,0.2,0,0.5,0.1c0.3,0.1,0.7,0.3,1,0.7c0.3,0.4,0.5,0.8,0.5,1.1c0,0.3,0,0.5,0,0.5
											c0,0,0,0,0-0.1c0-0.1,0-0.2,0-0.4c0-0.3-0.2-0.8-0.5-1.1c-0.3-0.4-0.8-0.6-1.1-0.7c-0.2,0-0.3-0.1-0.4-0.1
											C34.8,184.9,34.8,184.9,34.8,184.9z"/>
									</g>
								</g>
							</g>
						</g>
					</g>
					<g>
						<g>
							<g>
								<g>
									<g>
										<path class="st2" d="M37.9,187c0,0,0.4,0.2,1,0.3c0.6,0.1,1,0.2,1,0.2c0,0-0.5-0.1-1-0.2C38.4,187.1,37.9,186.9,37.9,187z
											"/>
									</g>
								</g>
							</g>
						</g>
					</g>
					<g>
						<g>
							<g>
								<g>
									<g>
										<path class="st2" d="M36.5,186.6c0,0,0,0.1,0,0.2c0,0.1,0,0.2,0.1,0.2c0,0,0.1-0.1,0-0.2
											C36.6,186.7,36.5,186.6,36.5,186.6z"/>
									</g>
								</g>
							</g>
						</g>
					</g>
					<g>
						<g>
							<g>
								<g>
									<g>
										<path class="st2" d="M36.1,185.9c0,0,0,0.1,0.1,0.2c0.1,0.1,0.1,0.1,0.1,0.1c0,0,0-0.1-0.1-0.2
											C36.2,186,36.1,185.9,36.1,185.9z"/>
									</g>
								</g>
							</g>
						</g>
					</g>
					<g>
						<g>
							<g>
								<g>
									<g>
										<path class="st2" d="M35.4,185.5c0,0,0.1,0,0.2,0.1c0.1,0.1,0.2,0.1,0.2,0.1c0,0,0-0.1-0.1-0.2
											C35.6,185.4,35.4,185.5,35.4,185.5z"/>
									</g>
								</g>
							</g>
						</g>
					</g>
					<g>
						<g>
							<g>
								<g>
									<g>
										<path class="st2" d="M34.9,185.2C34.9,185.3,35,185.3,34.9,185.2c0.1,0.1,0.2,0.1,0.2,0.1c0,0,0-0.1-0.1-0.1
											C35,185.2,35,185.2,34.9,185.2z"/>
									</g>
								</g>
							</g>
						</g>
					</g>
				</g>
			</g>
		</g>
		<g>
			<g>
				<path class="st2" d="M62.7,51.5c-0.2-0.5-0.6-0.9-0.8-1.4c-0.3-0.8-0.1-1.6,0-2.4c0.1-0.8-0.1-1.8-0.8-2.1
					c-0.3-0.1-0.7-0.1-1-0.3c-0.6-0.4-0.6-1.2-0.6-1.9c0-0.4-0.2-0.9-0.3-1.3c0,0,0.1,0,0.1,0c0.9-0.2,1.9,0.3,2.2,1.1
					c0.2,0.4,0.1,0.8-0.1,1.1c-0.2,0.3-0.6,0.4-0.8,0.3c-0.3-0.1-0.4-0.4-0.3-0.7c0.1-0.2,0.3-0.3,0.5-0.3c0.2,0,0.3,0.1,0.3,0.2
					c0,0.1,0.1,0.1,0.1,0.1c0,0,0-0.1,0-0.2c0-0.1-0.2-0.2-0.4-0.3c-0.1,0-0.2,0-0.3,0c-0.1,0-0.2,0.2-0.3,0.3
					c-0.1,0.3,0,0.7,0.4,0.9c0.4,0.2,0.8,0,1.1-0.3c0.3-0.4,0.3-0.9,0.1-1.3c-0.3-0.8-1.3-1.4-2.3-1.3c0.2-0.4,0.2-0.8,0.1-1.2
					c-0.2-0.5-0.6-0.8-1-1c-0.4-0.2-0.9-0.2-1.3-0.1c-0.4,0.1-0.7,0.3-1,0.4c-0.3,0.2-0.5,0.4-0.7,0.5c-0.2,0.1-0.4,0.2-0.6,0.2
					c-0.4,0-0.5-0.1-0.5-0.1c0,0,0.1,0.2,0.5,0.2c0.2,0,0.4-0.1,0.7-0.2c0.2-0.1,0.5-0.3,0.7-0.5c0.5-0.3,1.3-0.6,2.1-0.3
					c0.4,0.1,0.7,0.4,0.9,0.9c0.1,0.4,0,0.9-0.3,1.2c-0.2-0.4-0.5-0.7-0.9-1c-0.9-0.5-2.2-0.3-2.6,0.6L48.3,39
					c-0.9-0.8-2.2-1-3.3-0.7c0,0-0.1,0-0.1,0c-0.3,0-0.8,0-1.2,0.2c-0.5,0.2-0.8,0.6-1.2,1.1c-0.2,0.2-0.4,0.4-0.7,0.6
					c0,0-0.1,0-0.1,0.1c-0.3,0-0.6,0-1,0c-0.6-0.1-1.2-0.5-2-0.6c-0.4,0-0.8,0-1.2,0.1c-0.4,0.1-0.8,0.4-1.1,0.7
					c-0.3,0.3-0.5,0.8-0.5,1.3c0,0.3,0.1,0.7,0.2,1c-0.2,0.4-0.2,0.9-0.2,1.4c0,0.6,0.2,1.2,0.2,1.8c-0.2,0.1-0.4,0.2-0.6,0.3
					c-0.4,0.1-0.8,0.2-1.2,0.3c-0.8,0.3-1.3,1-1.5,1.6c-0.2,0.6-0.2,1.3,0.2,1.8c-0.2,0.8,0,1.7,0.5,2.3c0.3,0.4,0.8,0.7,1.1,1.2
					c0.5,0.7,0.4,1.7,0.5,2.5c0.1,0.9,0.6,1.8,1.5,1.9c0.7,0,1.3-0.5,2-0.5c1,0.1,1.4,1.3,1.9,2.1c0.7,1,2,1.6,3.2,1.4
					c0.9-0.1,1.8-0.6,2.6-0.4c1.1,0.3,1.8,1.6,2.9,1.7c0.8,0.1,1.6-0.4,2.2-1c0.6-0.6,1.2-1.2,2.1-1.4c1-0.2,2,0.4,3,0.6
					c1.3,0.2,2.7-0.5,3.3-1.7c0.6-1,0.5-2.2,1.1-3.2c0.3-0.7,0.9-1.2,1.3-1.9C62.6,53,62.9,52.2,62.7,51.5z M34,48.3
					c-0.2,0-0.2,0-0.2,0C33.7,48.3,33.8,48.3,34,48.3c-0.1,0.1-0.1,0.1-0.2,0.1c-0.4,0.3-0.7,0.8-0.8,1.3c-0.2-0.4-0.2-1,0-1.5
					c0.2-0.6,0.7-1.2,1.4-1.5c0.4-0.1,0.7-0.2,1.2-0.3c0.2,0,0.3-0.1,0.5-0.2c0,0.2-0.1,0.5-0.2,0.7C35.4,47.5,34.6,47.8,34,48.3z
					 M38.9,40.2c-1.2,0.2-2.2,1-2.7,2.1c0-0.2-0.1-0.4-0.1-0.6c0-0.4,0.1-0.8,0.4-1.1c0.5-0.6,1.4-0.8,2.1-0.7
					c0.4,0,0.8,0.2,1.2,0.3C39.5,40.2,39.2,40.2,38.9,40.2z M42.5,39.9c-0.1,0-0.2,0.1-0.3,0.1c0.1-0.1,0.3-0.2,0.4-0.4
					c0.4-0.5,0.7-0.9,1.1-1.1c0.4-0.2,0.7-0.2,1.1-0.2c-0.2,0.1-0.4,0.2-0.5,0.3C43.6,39,43.1,39.6,42.5,39.9z"/>
			</g>
			<g>
				<g>
					<g>
						<g>
							<g>
								<g>
									<g>
										<g>
											<path class="st3" d="M58,54.9c0.3-2.1,0.2-5.7,0.1-8.6c-0.2-2.6-2.5-4.5-5-4.3l-7.5,0.8c-0.8,0.1-1.4,0.8-1.4,1.5
												l0.8,18.4c-1,0-1.7,0-1.7,0v3.3c0,3.8,3.1,6.9,6.9,6.9c3.8,0,6.9-3.1,6.9-6.9v-2.9c0,0-1.8-0.6-2.9-0.5
												c-0.1,0-0.2,0-0.3,0c0-1.7,0.1-3,0.1-3S57.3,59.2,58,54.9z"/>
										</g>
										<g>
											<g>
												<g>
													<g>
														<g>
															<path class="st2" d="M56.9,49.2c0,0.3-0.2,0.5-0.5,0.6c-0.3,0-0.6-0.2-0.6-0.5c0-0.3,0.2-0.5,0.5-0.6
																C56.6,48.6,56.9,48.9,56.9,49.2z"/>
														</g>
													</g>
												</g>
											</g>
											<g>
												<g>
													<g>
														<g>
															<g>
																<path class="st2" d="M57.3,48.2c-0.1,0.1-0.5-0.2-1.1-0.2c-0.6,0-1,0.3-1.1,0.2c0,0,0-0.2,0.2-0.3
																	c0.2-0.1,0.5-0.3,0.9-0.3c0.4,0,0.7,0.1,0.9,0.3C57.2,48,57.3,48.2,57.3,48.2z"/>
															</g>
														</g>
													</g>
												</g>
											</g>
										</g>
										<g>
											<g>
												<g>
													<g>
														<g>
															<path class="st2" d="M51.1,49.2c0,0.3-0.2,0.5-0.5,0.6c-0.3,0-0.6-0.2-0.6-0.5c0-0.3,0.2-0.5,0.5-0.6
																C50.8,48.6,51.1,48.9,51.1,49.2z"/>
														</g>
													</g>
												</g>
											</g>
											<g>
												<g>
													<g>
														<g>
															<g>
																<path class="st2" d="M51.4,48.3c-0.1,0.1-0.5-0.2-1.1-0.2c-0.6,0-1,0.3-1.1,0.2c0,0,0-0.2,0.2-0.3
																	c0.2-0.1,0.5-0.3,0.9-0.3c0.4,0,0.7,0.1,0.9,0.3C51.4,48.1,51.4,48.3,51.4,48.3z"/>
															</g>
														</g>
													</g>
												</g>
											</g>
										</g>
										<g>
											<g>
												<g>
													<g>
														<g>
															<path class="st2" d="M53.6,52.7c0,0,0.4-0.1,1-0.2c0.2,0,0.3,0,0.3-0.1c0-0.1,0-0.3-0.1-0.5
																c-0.1-0.4-0.3-0.8-0.5-1.2c-0.6-1.7-1.1-3-1-3c0.1,0,0.6,1.3,1.3,2.9c0.2,0.4,0.3,0.8,0.4,1.2
																c0.1,0.2,0.2,0.4,0.1,0.6c0,0.1-0.2,0.2-0.3,0.2c-0.1,0-0.2,0-0.3,0C53.9,52.8,53.6,52.8,53.6,52.7z"/>
														</g>
													</g>
												</g>
											</g>
										</g>
										<g>
											<g>
												<g>
													<g>
														<path class="st10" d="M54,59.8c0,0-2.9,0.2-5.8-1.5c0,0,1.4,3,5.7,2.6L54,59.8z"/>
													</g>
												</g>
											</g>
										</g>
										<g>
											<g>
												<g>
													<g>
														<path class="st10" d="M53.3,54.2c-0.2-0.3-0.6-0.4-1-0.4c-0.3,0-0.5,0.2-0.7,0.4c-0.2,0.2-0.2,0.5,0,0.7
															c0.2,0.2,0.5,0.3,0.8,0.2c0.3-0.1,0.5-0.3,0.8-0.5c0.1-0.1,0.1-0.1,0.2-0.2C53.4,54.3,53.4,54.2,53.3,54.2"/>
													</g>
												</g>
											</g>
										</g>
										<g>
											<g>
												<g>
													<g>
														<g>
															<path class="st2" d="M51.8,53.1c0.1,0,0.1,0.6,0.7,1.1c0.6,0.5,1.2,0.4,1.2,0.5c0,0-0.2,0.1-0.4,0.1
																c-0.3,0-0.7-0.1-1-0.4c-0.3-0.3-0.5-0.7-0.5-0.9C51.7,53.3,51.8,53.1,51.8,53.1z"/>
														</g>
													</g>
												</g>
											</g>
										</g>
									</g>
								</g>
							</g>
							<g>
								<g>
									<g>
										<g>
											<path class="st2" d="M51.7,47.3c-0.1,0.2-0.7,0.1-1.4,0.2c-0.7,0.1-1.3,0.3-1.4,0.1c0-0.1,0.1-0.2,0.3-0.4
												c0.2-0.2,0.6-0.3,1-0.4c0.4,0,0.8,0,1.1,0.1C51.6,47.1,51.7,47.2,51.7,47.3z"/>
										</g>
									</g>
								</g>
							</g>
							<g>
								<g>
									<g>
										<g>
											<path class="st2" d="M57,47c-0.1,0.1-0.5,0-1,0c-0.5,0-0.9,0.1-1-0.1c0-0.1,0-0.2,0.2-0.3c0.2-0.1,0.5-0.2,0.8-0.2
												c0.3,0,0.6,0.1,0.8,0.3C57,46.8,57.1,46.9,57,47z"/>
										</g>
									</g>
								</g>
							</g>
						</g>
					</g>
				</g>
				<g>
					<path class="st2" d="M59.6,42.5c-0.3-1.2-1.2-2.2-2.3-2.4c-0.8-0.1-1.5,0.1-2.3,0c-0.6,0-0.9-0.5-1.5-0.7c-1-0.3-1.8-1.5-4-1.2
						c-0.6,0.1-1.3,0.7-1.9,1.5c-0.8-0.4-1.9,0-2.5,0.3c-1.3,0.5-2,2-2.3,3.4c-0.2,1.4,0,2.9,0.2,4.3c0.1,0.7,0.2,1.3,0.3,2
						c0.1,0.4,0.1,0.9,0.3,1.3l-1,9.3c2,0.7,4.5-0.6,4.9-2.7c0.4-1.8-0.6-3.7-0.5-5.5c0.1-1.1,0.7-2.1,0.7-3.2
						c0-0.3-0.1-0.7-0.2-1.1c0,0,0,0,0,0c1.8-1.4,2.2-2.6,2.1-3.9c0.5,0.4,1.2,0.6,1.8,0.6c0.9,0,1.9-0.3,2.8,0
						c0.6,0.2,1.1,0.8,1.5,1.2c0.5,0.5,1.1,0.9,1.8,0.8c0.3,0,0.6-0.2,0.9-0.3c0.3-0.1,0.7-0.2,0.9,0C59.8,44.9,59.9,43.7,59.6,42.5
						z"/>
				</g>
				<g>
					<g>
						<path class="st7" d="M33.8,52c0,0,0.4,0.4,1.4,0.8c0.5,0.2,1.1,0.4,1.9,0.4c0.7,0,1.6-0.2,2.4-0.7c0.8-0.5,1.4-1.4,1.5-2.5
							c0.1-0.5,0-1.1-0.3-1.6c-0.3-0.5-0.8-0.9-1.4-0.9c-0.3,0-0.6,0.1-0.8,0.3c-0.2,0.2-0.4,0.5-0.5,0.8c-0.2,0.6-0.1,1.3,0.3,1.8
							c0.4,0.5,1,0.8,1.7,1c0.7,0.2,1.4,0.2,2.1,0c0.7-0.1,1.4-0.4,1.9-0.9c0.5-0.4,1-1,1.2-1.6c0.2-0.6,0.3-1.3,0.2-1.9
							c-0.1-0.3-0.2-0.6-0.3-0.9c-0.2-0.3-0.3-0.5-0.6-0.7c-0.2-0.2-0.5-0.3-0.8-0.3c-0.3,0-0.5,0.1-0.7,0.4
							c-0.1,0.2-0.2,0.5-0.1,0.8c0.1,0.3,0.2,0.5,0.4,0.7c0.8,0.7,1.9,1,2.8,0.9c0.9-0.1,1.7-0.5,2.2-1.1c0.5-0.5,0.8-1.1,1-1.6
							c0.3-1,0.1-1.6,0.1-1.6c0,0,0,0.1,0.1,0.4c0,0.3,0,0.7-0.1,1.2c-0.1,0.5-0.4,1.1-1,1.7c-0.5,0.6-1.3,1-2.3,1.1
							c-1,0.1-2.1-0.1-3-0.9c-0.2-0.2-0.4-0.5-0.5-0.8c-0.1-0.3-0.1-0.6,0.1-0.9c0.2-0.3,0.5-0.5,0.8-0.5c0.3,0,0.7,0.1,0.9,0.3
							c0.3,0.2,0.5,0.5,0.7,0.8c0.2,0.3,0.3,0.6,0.4,1c0.1,0.7,0.1,1.4-0.2,2.1c-0.2,0.7-0.7,1.3-1.3,1.7c-0.6,0.5-1.3,0.8-2,0.9
							c-0.7,0.1-1.5,0.1-2.2,0c-0.7-0.2-1.4-0.5-1.8-1.1c-0.2-0.3-0.4-0.6-0.4-1c-0.1-0.4,0-0.7,0.1-1c0.1-0.3,0.3-0.6,0.6-0.9
							c0.3-0.2,0.6-0.3,1-0.3c0.7,0,1.3,0.4,1.6,1c0.3,0.5,0.4,1.2,0.3,1.7c-0.1,1.2-0.9,2.1-1.6,2.6c-0.8,0.6-1.7,0.7-2.5,0.7
							c-0.8,0-1.4-0.2-1.9-0.4c-0.5-0.2-0.8-0.5-1.1-0.6C34,52.2,33.9,52.1,33.8,52C33.8,52,33.8,52,33.8,52z"/>
					</g>
				</g>
				<g>
					<g>
						<path class="st7" d="M59.9,44.5c0,0-0.1,0.1-0.2,0.1c-0.1,0.1-0.4,0.2-0.7,0.3c-0.3,0.1-0.7,0.1-1.2,0
							c-0.4-0.1-0.9-0.3-1.4-0.7c-0.4-0.4-0.8-0.9-1.1-1.5c-0.1-0.3-0.2-0.7,0-1.1c0.1-0.2,0.2-0.3,0.4-0.4c0.2-0.1,0.4-0.1,0.6,0
							c0.4,0.2,0.6,0.7,0.4,1.1c-0.1,0.4-0.5,0.7-0.9,0.9c-0.8,0.4-1.7,0.3-2.5,0c-0.4-0.1-0.8-0.3-1.2-0.6c-0.4-0.2-0.7-0.5-1-0.8
							c-0.3-0.3-0.4-0.9-0.1-1.2c0.1-0.2,0.4-0.3,0.6-0.2c0.2,0,0.4,0.2,0.5,0.3c0.1,0.2,0.2,0.4,0.2,0.6c0,0.2-0.1,0.4-0.2,0.5
							c-0.2,0.3-0.6,0.5-1,0.5c-0.3,0-0.7,0-1-0.1c-0.3-0.1-0.6-0.2-0.8-0.3c-0.5-0.2-1-0.6-1.2-0.9C48,40.5,48,40.1,48,39.8
							c0-0.3,0.2-0.6,0.3-0.7c0.1-0.1,0.2-0.2,0.2-0.2c0,0-0.3,0.2-0.4,0.9c0,0.3,0.1,0.7,0.3,1c0.3,0.3,0.7,0.6,1.2,0.9
							c0.5,0.2,1.1,0.5,1.7,0.4c0.3,0,0.6-0.2,0.8-0.4c0.2-0.2,0.3-0.6,0.1-0.9c-0.2-0.3-0.6-0.4-0.8-0.1c-0.1,0.1-0.1,0.3-0.1,0.5
							c0,0.2,0.1,0.3,0.2,0.5c0.2,0.3,0.6,0.5,0.9,0.7c0.3,0.2,0.7,0.4,1.1,0.5c0.8,0.3,1.6,0.3,2.3,0c0.3-0.2,0.6-0.4,0.7-0.8
							c0.1-0.3-0.1-0.7-0.3-0.9c-0.3-0.2-0.6,0-0.7,0.3c-0.1,0.3-0.1,0.6,0,0.9c0.2,0.6,0.6,1.1,1,1.5c0.4,0.4,0.9,0.6,1.3,0.7
							c0.4,0.1,0.8,0.1,1.1,0.1C59.6,44.7,59.9,44.4,59.9,44.5z"/>
					</g>
				</g>
				<g>
					<g>
						<path class="st7" d="M47.3,54.6c0,0-0.1,0.1-0.2,0.1c-0.1,0.1-0.3,0.2-0.6,0.3c-0.3,0.1-0.7,0.1-1.1-0.1
							c-0.4-0.1-0.9-0.4-1.1-0.9c-0.1-0.3-0.1-0.6,0.2-0.9c0.3-0.2,0.7-0.2,0.9,0c0.5,0.4,0.8,1.2,0.7,1.9c-0.1,0.7-0.5,1.5-1.3,1.8
							c-0.7,0.3-1.6,0.2-2.3-0.2c-0.4-0.2-0.7-0.5-0.9-0.8c-0.2-0.3-0.3-0.8-0.2-1.2c0.1-0.2,0.2-0.4,0.3-0.5
							c0.2-0.1,0.4-0.2,0.6-0.2c0.4,0,0.8,0.3,0.9,0.6c0.2,0.3,0.2,0.7,0.3,1c0,0.3,0,0.7-0.1,1c-0.2,0.6-0.5,1.1-0.9,1.5
							c-0.4,0.4-0.9,0.6-1.3,0.6c-0.4,0-0.8-0.1-1.1-0.2c-0.3-0.1-0.5-0.3-0.6-0.4c-0.1-0.1-0.2-0.2-0.1-0.2c0,0,0.2,0.3,0.7,0.5
							c0.3,0.1,0.6,0.2,1,0.1c0.4,0,0.8-0.2,1.2-0.6c0.4-0.4,0.6-0.9,0.8-1.4c0.1-0.3,0.1-0.6,0.1-0.9c0-0.3-0.1-0.6-0.2-0.9
							c-0.1-0.3-0.4-0.5-0.7-0.5c-0.3,0-0.6,0.3-0.7,0.6c-0.1,0.3,0,0.7,0.2,1c0.2,0.3,0.5,0.6,0.8,0.8c0.7,0.4,1.5,0.5,2.1,0.2
							c0.7-0.3,1-1,1.1-1.6c0.1-0.6-0.1-1.3-0.6-1.7c-0.2-0.2-0.5-0.2-0.7,0c-0.2,0.2-0.2,0.4-0.1,0.7c0.2,0.5,0.6,0.7,1,0.9
							c0.4,0.1,0.7,0.1,1,0.1C47,54.8,47.3,54.6,47.3,54.6z"/>
					</g>
				</g>
			</g>
		</g>
		<g>
			<g>
				<path class="st2" d="M29.3,160.6c0,0,2.9,5.7,10.5,2.9c0,0,7.4,4,14.6-0.5c0,0,9.2,1.2,14.2-1.2l-6.5-55.7l-0.8-8.6H41
					c0,0-6,2.8-7,16.2c-1,13.4-3.1,31.9-3.1,31.9L29.3,160.6z"/>
			</g>
			<g>
				<g>
					<path class="st7" d="M53.9,163.2c0,0,0-0.1,0-0.2c0-0.1,0-0.3,0-0.5c0-0.4-0.1-1.1-0.1-1.9c-0.1-1.7-0.3-4-0.5-7
						c-0.4-5.9-0.7-14.1-0.9-23.1c-0.2-9-0.2-17.2-0.1-23.1c0-3,0.1-5.4,0.2-7c0-0.8,0-1.5,0.1-1.9c0-0.2,0-0.4,0-0.5
						c0-0.1,0-0.2,0-0.2c0,0,0,0.1,0,0.2c0,0.1,0,0.3,0,0.5c0,0.4,0,1.1,0,1.9c0,1.7,0,4.1-0.1,7c-0.1,5.9-0.1,14.1,0.1,23.1
						c0.2,9,0.5,17.2,0.9,23.1c0.2,2.9,0.3,5.3,0.4,7c0,0.8,0.1,1.5,0.1,1.9c0,0.2,0,0.4,0,0.5C54,163.2,54,163.2,53.9,163.2z"/>
				</g>
			</g>
			<g>
				<g>
					<path class="st7" d="M55.7,147.3c0,0,0-0.1,0.2-0.1c0.1,0,0.3,0,0.5,0.1c0.2,0.1,0.4,0.3,0.5,0.6c0.1,0.3-0.1,0.7-0.4,0.8
						c-0.3,0.2-0.7,0.2-0.9-0.1c-0.2-0.2-0.3-0.5-0.3-0.7c0-0.2,0.1-0.4,0.2-0.5c0.1-0.1,0.2-0.1,0.2-0.1c0,0-0.2,0.2-0.2,0.6
						c0,0.2,0.1,0.4,0.2,0.5c0.2,0.1,0.4,0.1,0.7,0c0.2-0.1,0.4-0.4,0.3-0.6c0-0.2-0.2-0.4-0.3-0.5C56,147.2,55.7,147.3,55.7,147.3z
						"/>
				</g>
			</g>
			<g>
				<g>
					<path class="st7" d="M55.3,130.8c0,0,0-0.1,0.2-0.1c0.1,0,0.3,0,0.5,0.1c0.2,0.1,0.4,0.3,0.5,0.6c0.1,0.3-0.1,0.7-0.4,0.8
						c-0.3,0.2-0.7,0.2-0.9-0.1c-0.2-0.2-0.3-0.5-0.3-0.7c0-0.2,0.1-0.4,0.2-0.5c0.1-0.1,0.2-0.1,0.2-0.1c0,0-0.2,0.2-0.2,0.6
						c0,0.2,0.1,0.4,0.2,0.5c0.2,0.1,0.4,0.1,0.7,0c0.2-0.1,0.4-0.4,0.3-0.6c0-0.2-0.2-0.4-0.3-0.5
						C55.5,130.7,55.3,130.8,55.3,130.8z"/>
				</g>
			</g>
			<g>
				<g>
					<path class="st7" d="M55,116.1c0,0,0-0.1,0.2-0.1c0.1,0,0.3,0,0.5,0.1c0.2,0.1,0.4,0.3,0.5,0.6c0.1,0.3-0.1,0.7-0.4,0.8
						c-0.3,0.2-0.7,0.2-0.9-0.1c-0.2-0.2-0.3-0.5-0.3-0.7c0-0.2,0.1-0.4,0.2-0.5c0.1-0.1,0.2-0.1,0.2-0.1c0,0-0.2,0.2-0.2,0.6
						c0,0.2,0.1,0.4,0.2,0.5c0.2,0.1,0.4,0.1,0.7,0c0.2-0.1,0.4-0.4,0.3-0.6c0-0.2-0.2-0.4-0.3-0.5C55.3,116.1,55,116.2,55,116.1z"
						/>
				</g>
			</g>
			<g>
				<g>
					<path class="st7" d="M54.5,100.5c0,0,0-0.1,0.2-0.1c0.1,0,0.3,0,0.5,0.1c0.2,0.1,0.4,0.3,0.5,0.6c0.1,0.3-0.1,0.7-0.4,0.8
						c-0.3,0.2-0.7,0.2-0.9-0.1c-0.2-0.2-0.3-0.5-0.3-0.7c0-0.2,0.1-0.4,0.2-0.5c0.1-0.1,0.2-0.1,0.2-0.1c0,0-0.2,0.2-0.2,0.6
						c0,0.2,0.1,0.4,0.2,0.5c0.2,0.1,0.4,0.1,0.7,0c0.2-0.1,0.4-0.4,0.3-0.6c0-0.2-0.2-0.4-0.3-0.5
						C54.8,100.4,54.5,100.5,54.5,100.5z"/>
				</g>
			</g>
		</g>
	</g>
	<g>
		<g>
			<g>
				<g>
					<g>
						<g>
							<g>
								<g>
									<polygon class="st4" points="81,83.6 183.9,82.8 186.8,152.8 80.3,151.8 									"/>
								</g>
							</g>
						</g>
						<g>
							<g>
								<g>
									<path class="st4" d="M81,83.6l48.7-39.4c2.1-1.7,5-1.7,7.1,0l47.1,38.6"/>
								</g>
							</g>
						</g>
						<g class="st9">
							<g>
								<g>
									<path d="M81,83.6l48.7-39.4c2.1-1.7,5-1.7,7.1,0l47.1,38.6"/>
								</g>
							</g>
						</g>
						<g>
							<g>
								<g>
									<g>
										<path class="st2" d="M80.3,151.8c-0.1-0.1,8.1-9.1,18.4-20.1c10.3-11,18.7-19.8,18.9-19.6c0.1,0.1-8.1,9.1-18.4,20.1
											C88.8,143.1,80.4,151.9,80.3,151.8z"/>
									</g>
								</g>
							</g>
						</g>
						<g>
							<g>
								<g>
									<g>
										<path class="st2" d="M186.8,152.8c-0.1,0.1-8.2-8.7-17.9-19.7c-9.8-11-17.6-20-17.4-20.1c0.1-0.1,8.2,8.7,17.9,19.7
											C179.1,143.7,186.9,152.7,186.8,152.8z"/>
									</g>
								</g>
							</g>
						</g>
						<g class="st11">
							<g>
								<g>
									<polyline points="183.9,82.8 132.3,124.1 81,83.6 									"/>
								</g>
							</g>
						</g>
					</g>
					<g>
						<g>
							<g>
								<g>
									<polygon class="st8" points="86.2,87.4 86.1,55.3 176.2,54.2 177.2,88 132.3,123.6 									"/>
								</g>
								<g>
									<g>
										<path class="st2" d="M86.2,87.4c0,0,0.3,0.2,0.8,0.6c0.6,0.4,1.4,1.1,2.4,1.9c2.1,1.7,5.3,4.1,9.3,7.3
											c8,6.3,19.5,15.3,33.5,26.3l-0.1,0c12.9-10.2,28.3-22.4,44.9-35.6l0,0.1c-0.2-6.5-0.4-13.2-0.6-20.1
											c-0.1-4.6-0.3-9.2-0.4-13.7l0.1,0.1c-36.3,0.4-68.3,0.8-90.1,1l0.1-0.1c0,10.1,0.1,18.1,0.1,23.6c0,2.8,0,4.9,0,6.3
											c0,0.7,0,1.3,0,1.6C86.2,87.2,86.2,87.4,86.2,87.4s0-0.2,0-0.5c0-0.4,0-0.9,0-1.6c0-1.4,0-3.6-0.1-6.3
											c0-5.5-0.1-13.5-0.2-23.7l0-0.1l0.1,0c21.8-0.3,53.8-0.7,90.1-1.1l0.1,0l0,0.1c0.1,4.5,0.3,9.1,0.4,13.7
											c0.2,6.9,0.4,13.7,0.6,20.1l0,0.1l0,0c-16.6,13.1-32,25.3-44.9,35.5l-0.1,0l-0.1,0c-14-11-25.5-20-33.5-26.4
											c-4-3.2-7.1-5.6-9.3-7.3c-1.1-0.8-1.9-1.5-2.4-1.9C86.5,87.6,86.2,87.4,86.2,87.4z"/>
									</g>
								</g>
							</g>
						</g>
					</g>
				</g>
			</g>
		</g>
		<g>
			<g>
				<path class="st2" d="M161.9,70.4c0,0.1-13.8,0.2-30.8,0.3c-17,0.1-30.8,0.1-30.8,0.1c0-0.1,13.8-0.2,30.8-0.3
					C148.1,70.3,161.9,70.3,161.9,70.4z"/>
			</g>
		</g>
		<g>
			<g>
				<path class="st2" d="M161.9,79.4c0,0.1-13.8,0.2-30.8,0.3c-17,0.1-30.8,0.1-30.8,0.1c0-0.1,13.8-0.2,30.8-0.3
					C148.1,79.4,161.9,79.4,161.9,79.4z"/>
			</g>
		</g>
		<g>
			<g>
				<path class="st2" d="M161.9,89.9c0,0.1-13.8,0.2-30.8,0.3c-17,0.1-30.8,0.1-30.8,0.1c0-0.1,13.8-0.2,30.8-0.3
					C148.1,89.9,161.9,89.8,161.9,89.9z"/>
			</g>
		</g>
		<g>
			<g>
				<path class="st2" d="M161.9,100.4c0,0.1-13.1,0.2-29.4,0.3c-16.2,0.1-29.4,0.1-29.4,0.1c0-0.1,13.1-0.2,29.4-0.3
					C148.8,100.3,161.9,100.3,161.9,100.4z"/>
			</g>
		</g>
		<g>
			<g>
				<path class="st2" d="M150.4,109.6c0,0-0.1,0-0.4,0c-0.3,0-0.6,0-1,0c-0.9,0-2.2,0-3.8,0.1c-3.2,0-7.7,0.1-12.6,0.2
					c-4.9,0.1-9.3,0.1-12.6,0.1c-1.6,0-2.9,0-3.8,0c-0.4,0-0.8,0-1,0c-0.2,0-0.4,0-0.4,0c0,0,0.1,0,0.4,0c0.3,0,0.6,0,1,0
					c0.9,0,2.2,0,3.8-0.1c3.2,0,7.7-0.1,12.6-0.2c4.9-0.1,9.3-0.1,12.6-0.1c1.6,0,2.9,0,3.8,0c0.4,0,0.8,0,1,0
					C150.3,109.5,150.4,109.5,150.4,109.6z"/>
			</g>
		</g>
		<g>
			<g>
				<path class="st2" d="M138.8,118.4c0,0.1-2.9,0.1-6.6,0.1c-3.6,0-6.6-0.1-6.6-0.1c0-0.1,2.9-0.1,6.6-0.1
					C135.9,118.3,138.8,118.3,138.8,118.4z"/>
			</g>
		</g>
		<g>
			<circle class="st2" cx="169.1" cy="100.4" r="10.9"/>
		</g>
		<g>
			<circle class="st7" cx="166.3" cy="100.4" r="10.9"/>
		</g>
		<g>
			<path class="st0" d="M167.7,95.3v9H166v-7.6h-1.9v-1.4H167.7z"/>
		</g>
	</g>
	<g>
		<g>
			<g>
				<path class="st4" d="M86.9,40.6l10,0L95.5,39l0-3.7c0-2-1.6-3.6-3.6-3.6l0,0c-2,0-3.6,1.6-3.6,3.6l0,3.5L86.9,40.6z"/>
			</g>
			<g>
				<path class="st4" d="M90.5,40.1c0,0.6,0.4,1.1,0.9,1.4c0.5,0.2,1.2,0.1,1.6-0.3c0.4-0.4,0.6-1,0.4-1.6"/>
			</g>
			<g>
				<rect x="91.5" y="30.2" class="st4" width="1" height="2.1"/>
			</g>
		</g>
		<g>
			<g>
				<g>
					<g>
						<path class="st2" d="M106.4,33.8c0,0,0-0.1-0.1-0.3c0-0.2-0.1-0.4-0.2-0.8c-0.1-0.3-0.2-0.7-0.4-1.2c-0.1-0.2-0.1-0.5-0.3-0.8
							c-0.1-0.3-0.2-0.5-0.4-0.8c-0.6-1.2-1.4-2.6-2.6-3.9c-1.3-1.3-2.9-2.6-5-3.5c-1-0.5-2.2-0.7-3.4-1c-1.2-0.1-2.5-0.2-3.8-0.1
							c-0.7,0-1.3,0.2-2,0.3c-0.3,0.1-0.6,0.2-1,0.3c-0.3,0.1-0.7,0.2-1,0.4c-1.3,0.5-2.5,1.3-3.7,2.2c-2.3,1.9-4.1,4.7-4.9,7.9
							c-0.4,1.6-0.5,3.3-0.3,5.1c0.2,1.7,0.7,3.4,1.5,5l0.3,0.5l0,0.1l0,0.1c-0.8,2.6-1.6,5.2-2.4,7.7l-0.2-0.2
							c2.1-1.1,4.2-2.2,6.2-3.2l0.1,0l0.1,0.1c2,1.5,4.3,2.5,6.6,2.8c2.3,0.4,4.5,0.1,6.4-0.4c2-0.6,3.7-1.6,5.1-2.7
							c1.4-1.2,2.5-2.5,3.3-3.8c0.8-1.3,1.3-2.7,1.6-3.9c0.3-1.2,0.4-2.3,0.4-3.1c0-0.4,0-0.8,0-1.1c0-0.3-0.1-0.6-0.1-0.8
							c0-0.2,0-0.4,0-0.5C106.4,33.8,106.4,33.8,106.4,33.8c0,0,0,0.1,0,0.2c0,0.1,0,0.3,0.1,0.5c0,0.2,0.1,0.5,0.1,0.8
							c0,0.3,0,0.7,0,1.2c0,0.9-0.1,1.9-0.4,3.2c-0.3,1.2-0.8,2.6-1.6,3.9c-0.8,1.4-1.9,2.7-3.3,3.9c-1.4,1.2-3.2,2.2-5.2,2.8
							c-2,0.6-4.2,0.8-6.6,0.5c-2.3-0.4-4.6-1.3-6.7-2.9l0.1,0c-2,1-4.1,2.1-6.2,3.3l-0.3,0.2l0.1-0.4c0.8-2.5,1.5-5.1,2.4-7.7
							l0,0.1l-0.3-0.5c-0.8-1.6-1.4-3.4-1.5-5.1c-0.2-1.8-0.1-3.5,0.3-5.2c0.8-3.3,2.7-6.1,5-8c1.2-0.9,2.4-1.7,3.8-2.2
							c0.3-0.2,0.7-0.3,1-0.4c0.3-0.1,0.7-0.2,1-0.3c0.7-0.1,1.3-0.3,2-0.3c1.3-0.2,2.6-0.1,3.8,0.1c1.2,0.2,2.4,0.5,3.4,1
							c2.1,0.9,3.8,2.2,5.1,3.5c1.3,1.4,2.1,2.8,2.6,4c0.1,0.3,0.2,0.6,0.4,0.9c0.1,0.3,0.2,0.5,0.3,0.8c0.2,0.5,0.3,0.9,0.3,1.2
							c0.1,0.3,0.1,0.6,0.1,0.8C106.4,33.7,106.4,33.8,106.4,33.8z"/>
					</g>
				</g>
			</g>
		</g>
	</g>
	<g>
		<g>
			<g>
				<path class="st4" d="M226.8,137.4c1.4,4.8,0.3,11-1.4,15.7c-1.7,4.7-5,8.9-9.2,11.6c-0.5,0.3-1.1,0.6-1.6,0.3
					c-0.4-0.2-0.6-0.7-0.6-1.2c-1-5.2-0.3-10.7,2-15.4C218.2,143.7,222.1,139.8,226.8,137.4"/>
			</g>
		</g>
	</g>
	<g class="st6">
		<g>
			<g>
				<path d="M226.8,137.4c1.4,4.8,0.3,11-1.4,15.7c-1.7,4.7-5,8.9-9.2,11.6c-0.5,0.3-1.1,0.6-1.6,0.3c-0.4-0.2-0.6-0.7-0.6-1.2
					c-1-5.2-0.3-10.7,2-15.4C218.2,143.7,222.1,139.8,226.8,137.4"/>
			</g>
		</g>
	</g>
	<g>
		<g>
			<g>
				<g>
					<g>
						<g>
							<path class="st4" d="M205.3,114.5c3-0.1,5,3.3,5.3,6.2c0.3,3-0.4,6.1,0.5,9c1.1,3.6,4.5,6.3,5.6,9.9
								c1.2,4.3-1.2,8.8-1.3,13.3c-0.1,2.2,0.4,4.4,0,6.6c-0.7,3.6-4.1,6.5-7.8,6.6c-3.7,0-7.2-2.8-8-6.4c-0.7-3.4,0.8-7-0.1-10.3
								c-0.7-2.5-2.6-4.5-2.7-7.1c-0.2-3,2.2-5.6,2.6-8.6c0.4-3-1.1-5.9-1.3-8.9C197.7,119.3,199.9,115.1,205.3,114.5"/>
						</g>
					</g>
				</g>
				<g>
					<g>
						<g>
							<g>
								<path class="st2" d="M211.9,176.2c0,0,0-0.1,0.1-0.3c0.1-0.2,0.1-0.5,0.2-0.9c0.2-0.8,0.4-1.9,0.7-3.2
									c0.7-2.7,1.7-6.4,3.1-10.4c1.4-4,3-7.5,4.2-10c0.6-1.3,1.1-2.3,1.4-2.9c0.2-0.3,0.3-0.6,0.4-0.8c0.1-0.2,0.1-0.3,0.1-0.3
									c0,0-0.1,0.1-0.2,0.3c-0.1,0.2-0.3,0.5-0.4,0.8c-0.4,0.7-0.9,1.7-1.5,2.9c-1.2,2.5-2.8,6-4.2,10c-1.4,4-2.4,7.7-3,10.4
									c-0.3,1.4-0.5,2.5-0.7,3.2c-0.1,0.4-0.1,0.6-0.1,0.9C211.9,176.1,211.9,176.2,211.9,176.2z"/>
							</g>
						</g>
					</g>
				</g>
				<g>
					<g>
						<g>
							<g>
								<path class="st2" d="M205.5,129.3c0,0,0,0.2,0,0.5c0,0.3,0.1,0.8,0.2,1.4c0.2,1.2,0.4,2.9,0.7,5c0.6,4.3,1.3,10.1,2.2,16.6
									c0.8,6.5,1.5,12.4,2,16.6c0.3,2.1,0.5,3.8,0.6,5c0.1,0.6,0.1,1,0.2,1.4c0,0.3,0.1,0.5,0.1,0.5c0,0,0-0.2,0-0.5
									c0-0.3-0.1-0.8-0.1-1.4c-0.1-1.2-0.3-2.9-0.5-5.1c-0.5-4.3-1.1-10.2-1.9-16.7c-0.8-6.5-1.6-12.4-2.2-16.6
									c-0.3-2.1-0.6-3.8-0.8-5c-0.1-0.6-0.2-1-0.2-1.4C205.5,129.4,205.5,129.3,205.5,129.3z"/>
							</g>
						</g>
					</g>
				</g>
			</g>
		</g>
		<g>
			<g>
				<rect x="199.6" y="170.3" class="st2" width="22.8" height="2.7"/>
			</g>
			<g>
				<polygon class="st2" points="201.7,172.9 204.4,189.1 218.5,189.1 220.4,172.9 				"/>
			</g>
			<g>
				<g>
					<path class="st7" d="M220.5,172.8c0,0.1-4.2,0.2-9.4,0.2c-5.2,0.1-9.4,0.1-9.4,0c0-0.1,4.2-0.2,9.4-0.2
						C216.2,172.8,220.5,172.8,220.5,172.8z"/>
				</g>
			</g>
			<g>
				<g>
					<path class="st7" d="M219.7,180.9c0,0,0,0-0.1,0c-0.1,0-0.2,0-0.4,0c-0.3,0-0.8,0-1.5-0.1c-0.6-0.1-1.4-0.3-2.2-0.8
						c-0.4-0.3-0.7-0.6-0.9-1.1c-0.2-0.5-0.3-1.1-0.1-1.6c0.2-0.6,0.7-1.1,1.4-1c0.3,0,0.7,0.2,0.9,0.4c0.2,0.3,0.4,0.6,0.4,0.9
						c0.3,1.4-0.7,2.9-2.2,3.4c-1.5,0.5-3.3-0.3-4-1.9c-0.2-0.4-0.3-0.8-0.3-1.2c0-0.4,0.1-0.9,0.3-1.3c0.3-0.4,0.7-0.6,1.1-0.7
						c0.5,0,0.9,0.2,1.2,0.6c0.3,0.4,0.4,0.8,0.4,1.3c0,0.4-0.1,0.9-0.3,1.3c-0.4,0.8-1.1,1.4-1.8,1.7c-0.7,0.4-1.5,0.6-2.3,0.7
						c-0.8,0.1-1.6,0.1-2.3-0.2c-0.7-0.3-1.4-0.7-1.7-1.4c-0.4-0.6-0.5-1.4-0.2-2.1c0.2-0.7,0.8-1.2,1.4-1.3
						c0.6-0.1,1.3,0.2,1.7,0.6c0.4,0.5,0.4,1.1,0.1,1.6c-0.2,0.5-0.6,0.8-1,1.1c-0.4,0.3-0.8,0.4-1.1,0.6c-0.4,0.1-0.7,0.2-1,0.3
						c-0.6,0.2-1.1,0.3-1.4,0.3c-0.2,0-0.3,0-0.4,0.1c-0.1,0-0.1,0-0.1,0c0,0,0,0,0.1,0c0.1,0,0.2,0,0.4-0.1
						c0.3-0.1,0.8-0.2,1.4-0.4c0.3-0.1,0.6-0.2,1-0.3c0.4-0.1,0.7-0.3,1.1-0.6c0.4-0.2,0.7-0.6,0.9-1c0.2-0.4,0.2-1-0.1-1.4
						c-0.3-0.4-0.9-0.6-1.5-0.5c-0.6,0.1-1.1,0.6-1.3,1.2c-0.2,0.6-0.2,1.3,0.2,1.9c0.4,0.6,1,1,1.6,1.3c0.7,0.2,1.5,0.3,2.2,0.2
						c0.8-0.1,1.5-0.3,2.3-0.6c0.7-0.3,1.3-0.9,1.7-1.6c0.4-0.7,0.4-1.6,0-2.3c-0.2-0.3-0.6-0.5-1-0.5c-0.4,0-0.7,0.3-1,0.6
						c-0.2,0.3-0.3,0.7-0.3,1.1c0,0.4,0.1,0.8,0.3,1.1c0.7,1.4,2.4,2.2,3.8,1.8c1.4-0.4,2.3-1.9,2-3.2c-0.1-0.3-0.2-0.6-0.4-0.8
						c-0.2-0.2-0.5-0.4-0.8-0.4c-0.6,0-1.1,0.4-1.3,0.9c-0.2,0.5-0.1,1.1,0.1,1.5c0.2,0.4,0.5,0.8,0.9,1.1c0.7,0.5,1.5,0.7,2.1,0.8
						c0.6,0.1,1.1,0.1,1.4,0.1c0.2,0,0.3,0,0.4,0C219.6,180.9,219.7,180.9,219.7,180.9z"/>
				</g>
			</g>
		</g>
	</g>
</g>
</svg>
