<svg id="Layer_1" data-name="Layer 1" xmlns="http://www.w3.org/2000/svg" viewBox="0 0 250 150"><defs><style>.cls-1{fill:#fff;}.cls-2{fill:#cacaca;}.cls-3{fill:#e6e6e6;}.cls-4{fill:#f4d0c3;}.cls-5{fill:#a8c79e;}.cls-6{fill:#2f2e41;}.cls-7{fill:#f2f2f2;}</style></defs><title>cs</title><rect class="cls-1" x="102.99" y="16.04" width="98.6" height="131.46" rx="0.94"/><path class="cls-2" d="M200.65,147.5H103.93a.94.94,0,0,1-.94-.94V17a.94.94,0,0,1,.94-.93h96.72a.94.94,0,0,1,.94.93V146.56A.94.94,0,0,1,200.65,147.5Zm-96.72-131a.47.47,0,0,0-.47.46V146.56a.47.47,0,0,0,.47.47h96.72a.47.47,0,0,0,.47-.47V17a.47.47,0,0,0-.47-.46Z"/><path id="a6f80ec2-9665-4b0d-9b96-9f178d319553-1240" class="cls-3" d="M186.8,45.47h-69a1.76,1.76,0,0,1,0-3.52h69a1.76,1.76,0,0,1,0,3.52Z"/><path id="af435bc5-0b88-4d77-bfed-030ae9fdf7f6-1241" class="cls-3" d="M186.8,56.85h-69a1.76,1.76,0,0,1,0-3.52h69a1.76,1.76,0,0,1,0,3.52Z"/><path id="e557133a-77b8-499f-bd16-c334895c1269-1242" class="cls-3" d="M186.8,68.24h-69a1.76,1.76,0,0,1,0-3.52h69a1.76,1.76,0,0,1,0,3.52Z"/><path id="ec19a4b8-f44f-4645-b4d7-76344dff0125-1243" class="cls-3" d="M186.8,79.62h-69a1.76,1.76,0,0,1,0-3.52h69a1.76,1.76,0,0,1,0,3.52Z"/><path id="e86d23b2-1618-4af8-9c24-b5d1e0a773ab-1244" class="cls-3" d="M186.8,91h-69a1.76,1.76,0,0,1,0-3.52h69a1.76,1.76,0,0,1,0,3.52Z"/><path class="cls-4" d="M117.69,67.41a2.39,2.39,0,0,0-.09.45L105.36,74l-2.79-1.82-3.29,3.84,4.62,3.7a2.21,2.21,0,0,0,2.65.09l12.76-9a2.9,2.9,0,1,0-1.5-3.82,2.3,2.3,0,0,0-.12.34Z"/><path class="cls-5" d="M105,74.27l-4,4.79a1.25,1.25,0,0,1-1.76.15L99,79.08l-4.13-4.7a3.45,3.45,0,0,1,4.47-5.26l5.31,3.29a1.25,1.25,0,0,1,.4,1.71l-.11.15Z"/><polygon class="cls-4" points="89.69 144.56 92.57 144.56 93.94 133.46 89.69 133.46 89.69 144.56"/><path class="cls-6" d="M89,143.62h5.67a3.61,3.61,0,0,1,3.61,3.61v.12H89Z"/><polygon class="cls-4" points="89.04 113.64 89.86 116.4 100.89 114.56 99.69 110.48 89.04 113.64"/><path class="cls-6" d="M89.74,112.67l1.61,5.43h0a3.62,3.62,0,0,1-2.44,4.49l-.11,0-2.64-8.9Z"/><path id="b5225405-dc09-4398-8f75-a858b019bf8f-1245" class="cls-3" d="M187.39,116.61H141.6c-.64,0-1.16-.79-1.16-1.76s.52-1.76,1.16-1.76h45.79c.65,0,1.17.79,1.17,1.76S188,116.61,187.39,116.61Z"/><path id="a2f1c4f7-b8f3-4baf-98d5-81fcbaba2af5-1246" class="cls-3" d="M187.39,126.71H141.6c-.64,0-1.16-.79-1.16-1.76s.52-1.76,1.16-1.76h45.79c.65,0,1.17.78,1.17,1.76S188,126.71,187.39,126.71Z"/><circle id="e62fa462-3819-44fb-9424-9fc2fe7133de" class="cls-5" cx="201.59" cy="16.04" r="13.54"/><path id="b20583ce-2285-4a88-ae2b-42b53348cdcc-1247" class="cls-1" d="M196,15.14a.9.9,0,0,0,0,1.79h4.75v4.75a.89.89,0,0,0,1.78,0V16.93h4.75a.9.9,0,0,0,0-1.79h-4.75V10.4a.89.89,0,1,0-1.78,0v4.74Z"/><path id="a69a945f-f2e5-47e0-ba72-38a008e8891a-1248" class="cls-6" d="M118.78,108h0a4.72,4.72,0,0,1-4,2.29l-17.29,5.54-.8-4.59,10.48-5.68L97,98.21l7.44-8.7L118,102.1A4.7,4.7,0,0,1,118.78,108Z"/><path id="e980cf0f-d800-4ee3-940e-45939556ba77-1249" class="cls-6" d="M93.69,139.34H89.42c-3.84-26.29-7.74-52.65,3.79-62.49l13.61,2.22-1.74,11.55-7.59,8.7Z"/><path id="eba62579-0c8c-463a-8046-e804be002a11-1250" class="cls-5" d="M106,83.83c-5.76,3.93-13.2,3-16.3-2.84,4.46-7.52,5.4-12.92,1.81-15.38a8.51,8.51,0,0,1,5.19-10.27h0l6.81,2.85c5.77,4.71,6.91,9.81,4.74,15.18Z"/><rect id="e895ce6e-6fd8-41df-ae63-d595344ec23b" class="cls-2" x="30.04" y="147.03" width="189.92" height="0.47"/><path id="e192092a-ee6f-4331-8843-6655178f0707-1251" class="cls-3" d="M66,136.33a5.4,5.4,0,0,0,5.2-.92c1.83-1.53,2.4-4,2.86-6.39l1.38-6.9-2.88,2a21.07,21.07,0,0,0-5.62,5c-1.44,2.07-2.06,4.89-.91,7.13"/><path id="a858933f-d134-4d1f-a5b1-d2ecd5f2e072-1252" class="cls-7" d="M66.48,145.17a35.12,35.12,0,0,1-.48-8,12.64,12.64,0,0,1,2.42-6.59,11.33,11.33,0,0,1,2.81-2.54c.29-.18.54.27.26.44a10.42,10.42,0,0,0-4.11,5,16.56,16.56,0,0,0-.89,7.19c.09,1.47.29,2.92.49,4.38a.28.28,0,0,1-.18.32.27.27,0,0,1-.32-.18Z"/><path id="f4641f1e-7695-45f0-a79a-94f4839885fa-1253" class="cls-3" d="M43.38,141.22a4,4,0,0,0,3.68,1.37c1.75-.3,3.06-1.7,4.24-3l3.48-3.91-2.59.19a15.61,15.61,0,0,0-5.48,1.06,5.31,5.31,0,0,0-3.26,4.23"/><path id="e7fd6c30-5753-49ca-a2fc-43310e28e2be-1254" class="cls-7" d="M40.39,146.68a20.92,20.92,0,0,1,2.17-4.27,7.5,7.5,0,0,1,3.24-2.66,6.53,6.53,0,0,1,2.22-.47.16.16,0,0,1,0,.31,6.29,6.29,0,0,0-3.63,1.32,9.88,9.88,0,0,0-2.63,3.44c-.39.78-.73,1.6-1.07,2.41a.15.15,0,0,1-.19.1A.15.15,0,0,1,40.39,146.68Z"/><path id="b52aaf37-3203-4cbf-9b60-86692d62068e-1255" class="cls-3" d="M69.09,140.93a4,4,0,0,0,3.46,1.78c1.75-.08,3.21-1.3,4.52-2.46L81,136.82l-2.57-.13a15.43,15.43,0,0,0-5.51.4,5.26,5.26,0,0,0-3.71,3.77"/><path id="beff4645-a309-4245-bc03-2fdcf4e7d6c8-1256" class="cls-7" d="M65.46,146.68c1.74-3.08,3.77-6.52,7.39-7.61a7.94,7.94,0,0,1,3.1-.32c.33,0,.25.53-.08.5a7.69,7.69,0,0,0-5,1.32,13,13,0,0,0-3.41,3.67c-.56.86-1.07,1.76-1.57,2.65C65.77,147.18,65.3,147,65.46,146.68Z"/><path id="a434c3a5-879f-494a-805a-60016a50852d-1257" class="cls-3" d="M215.41,141.87a4.18,4.18,0,0,1-4-.71c-1.4-1.18-1.85-3.12-2.2-4.93l-1.07-5.32,2.23,1.53a16.11,16.11,0,0,1,4.34,3.83,5.5,5.5,0,0,1,.7,5.49"/><path id="eeef24b5-3622-48e4-8c10-5591845ab2d9-1258" class="cls-7" d="M214.8,146.93a19.48,19.48,0,0,0,.26-4.31,6.84,6.84,0,0,0-1.31-3.55,5.69,5.69,0,0,0-1.52-1.37c-.15-.1-.29.14-.14.24a5.5,5.5,0,0,1,2.22,2.68,8.81,8.81,0,0,1,.48,3.88c0,.79-.15,1.57-.26,2.35a.15.15,0,0,0,.1.18.16.16,0,0,0,.17-.1Z"/><path class="cls-4" d="M84.73,88.47a2.53,2.53,0,0,0,1.89-3,3,3,0,0,0-.14-.42l9.3-21-5.32-1.34L83,83.74a2.54,2.54,0,0,0,1.74,4.73Z"/><path class="cls-5" d="M94.52,67.77l-5.17-2.42a1.13,1.13,0,0,1-.55-1.5.71.71,0,0,1,.08-.15L92,59a3.14,3.14,0,0,1,5.68,2.68l-1.63,5.44a1.13,1.13,0,0,1-1.41.76l-.15-.06Z"/><path class="cls-6" d="M106,53.79H92.38a1.05,1.05,0,0,1-1.06-1V46.87a7.87,7.87,0,1,1,15.73,0v5.87A1.06,1.06,0,0,1,106,53.79Z"/><circle class="cls-4" cx="101.12" cy="47.94" r="5.77"/><path class="cls-6" d="M108.91,47.46h-8.33l-.08-1.2-.43,1.2H98.79l-.17-2.37-.85,2.37H95.29v-.12a6.23,6.23,0,0,1,6.22-6.22h1.18a6.23,6.23,0,0,1,6.22,6.22Z"/></svg>