<svg id="Layer_1" data-name="Layer 1" xmlns="http://www.w3.org/2000/svg" viewBox="0 0 250 150"><defs><style>.cls-1{fill:#f2f2f2;}.cls-2{fill:#fff;}.cls-3{fill:#3f3d56;}.cls-4{fill:#a8c79e;}.cls-5{fill:#a0616a;}.cls-6{fill:#2f2e41;}.cls-7{fill:#e6e6e6;}.cls-8{fill:#f4d0c3;}.cls-9{opacity:0.2;isolation:isolate;}</style></defs><title>cs</title><path class="cls-1" d="M203.75,106.39l5.91-.67a19.17,19.17,0,0,0,1.65-9.08c-3.21,4.52-10,4.45-14.53,7.68a11.58,11.58,0,0,0-4.74,8.81l-1.95,3.74a19.33,19.33,0,0,0,15.36-5.14,18.81,18.81,0,0,0,3-3.64C206.07,107.39,203.75,106.39,203.75,106.39Z"/><path class="cls-1" d="M199.25,97.88l5-3.24a19.19,19.19,0,0,0-2.57-8.86c-.86,5.48-7,8.45-9.58,13.36a11.54,11.54,0,0,0-.31,10l-.08,4.22a19.35,19.35,0,0,0,11.45-11.46,18.79,18.79,0,0,0,1-4.57C201.77,97.74,199.25,97.88,199.25,97.88Z"/><circle class="cls-2" cx="177.58" cy="119.57" r="17.91"/><path class="cls-3" d="M177.58,137.7a18.13,18.13,0,1,1,18.13-18.13A18.13,18.13,0,0,1,177.58,137.7Zm0-35.82a17.69,17.69,0,1,0,17.69,17.69h0A17.7,17.7,0,0,0,177.58,101.88Z"/><path class="cls-4" d="M176.24,126.73h-.11a2.33,2.33,0,0,1-1.74-.9l-3-3.85a2.33,2.33,0,0,1,.41-3.28h0l.11-.08a2.34,2.34,0,0,1,3.28.41h0a1.69,1.69,0,0,0,2.39.3,1,1,0,0,0,.19-.17l6.08-6.42a2.34,2.34,0,0,1,3.31-.09l.1.1a2.34,2.34,0,0,1,.09,3.31h0L177.94,126A2.32,2.32,0,0,1,176.24,126.73Z"/><polygon class="cls-5" points="168.21 142.46 165.73 142.73 163.38 133.1 167.04 132.69 168.21 142.46"/><path class="cls-6" d="M184.58,99.13l-.25-.22a24.12,24.12,0,0,0-2-1.49c-.79-.52-1.67-1.06-2.68-1.61-.48-.27-1-.54-1.53-.82l-.84-.42,0,0-.08,0-6,5-.43.34,1.12,1.37-.1,1.09-1.1,2.75h0l-3.93,1.8-4.05,1.84-2.17,1a4.13,4.13,0,0,0-2.19,2.36,4.31,4.31,0,0,0,.14,3.36c.05.1.1.21.16.31l.9,5.68a34.06,34.06,0,0,0,3.12,9.78l1.38,5.31.21-.1,3.12-1.56.82-.42.16-3.57c0-.4,0-.81,0-1.22a14.88,14.88,0,0,0-.19-2l-1.79-11.14.94-.39c1.43-.6,2.79-1.2,4.07-1.81A52.39,52.39,0,0,0,181.63,108c.77-.63,1.5-1.27,2.19-1.93l.73-.73.16-.16a4.23,4.23,0,0,0,1-3.91A4.27,4.27,0,0,0,184.58,99.13Z"/><path class="cls-6" d="M168,140.77l-2.69.3-.42,0,.28,1.6-3.13,3a1,1,0,0,0,0,1.43,1,1,0,0,0,.9.3l4.44-.76.49-1.72.57,1.53,1.67-.28-1.43-5.56Z"/><path class="cls-5" d="M170.57,85.48l2.3-2.44-3.25-7.11-.48-2.5a1.89,1.89,0,0,0-2.21-1.49,1.91,1.91,0,0,0-.87.42h0a1.88,1.88,0,0,0-.24,2.61l1.79,2.24Z"/><path class="cls-7" d="M172.87,81.94l-2.62,2.63.5,3.83a3,3,0,0,0,2.2,2h0a3,3,0,0,0,3.32-1.39l5.91-10.12a3.11,3.11,0,0,0-1-4.23h0a3.11,3.11,0,0,0-4.3,1,2.69,2.69,0,0,0-.16.29l-3.6,7.68Z"/><path class="cls-5" d="M170.23,120.66c-.14.14-.27.28-.41.41-.27.28-.55.55-.83.82l-.42.4h0l-.24.12-.58-.86-.26-.39-.38-.56-.7-1-3.65-5.38,3.28-1.69.25.5h0l.12.25,2.4,4.64.49,1v0l.3.57.25.49.28.55Z"/><path class="cls-6" d="M169.55,118.92l-2.28,1.46-.36.22,1,1.31L166.41,126a1,1,0,0,0,.62,1.3,1,1,0,0,0,.93-.14l3.65-2.64-.32-1.76,1.19,1.12,1.37-1-3.74-4.35Z"/><path class="cls-1" d="M90.38,38.3l1.75-5.68a19.12,19.12,0,0,0-7.67-5.14c2.87,4.75.09,11,1.25,16.39a11.5,11.5,0,0,0,6.18,7.86L94.54,55A19.36,19.36,0,0,0,96,38.88a18.68,18.68,0,0,0-2.16-4.16C92.22,36.57,90.38,38.3,90.38,38.3Z"/><path class="cls-1" d="M80.78,39l-1-5.87A19.21,19.21,0,0,0,70.65,32c4.69,3,5,9.77,8.43,14.11a11.53,11.53,0,0,0,9,4.29L92,52.13A19.31,19.31,0,0,0,86,37.06a18.67,18.67,0,0,0-3.79-2.76C81.66,36.66,80.78,39,80.78,39Z"/><path class="cls-8" d="M114.2,21.8,116,19.55a1.88,1.88,0,0,0-.24-2.61h0a1.89,1.89,0,0,0-2.66.21,1.82,1.82,0,0,0-.42.87l-.49,2.49-1.83,4.95,2.2,1.1Z"/><path class="cls-6" d="M108.7,28.21l-3.6-7.67a3.12,3.12,0,0,0-4.17-1.43l-.29.17h0a3.11,3.11,0,0,0-1,4.23l5.9,10.12a3.07,3.07,0,0,0,3.33,1.4h0a3.08,3.08,0,0,0,2.2-2l2.22-7-2.93-1.46Z"/><path class="cls-3" d="M115.5,25.74l-2.36-.2A1.39,1.39,0,0,1,111.86,24l.91-10.83a1.4,1.4,0,0,1,1.51-1.28l2.36.2a1.4,1.4,0,0,1,1.28,1.51L117,24.46A1.4,1.4,0,0,1,115.5,25.74Z"/><path class="cls-4" d="M114,12.45a.75.75,0,0,0-.82.69L112.23,24a.76.76,0,0,0,.69.81l2.36.2a.75.75,0,0,0,.82-.69L117,13.46a.76.76,0,0,0-.69-.81Z"/><rect class="cls-8" x="99.31" y="35.49" width="9.82" height="9.82"/><circle class="cls-6" cx="111.04" cy="34.12" r="0.53"/><polygon class="cls-8" points="119.8 76.96 122.42 76.96 123.67 66.86 119.8 66.86 119.8 76.96"/><path class="cls-6" d="M119.15,75.67l4.14-.25V77.2l3.94,2.71a1.12,1.12,0,0,1,.28,1.55,1.11,1.11,0,0,1-.91.47h-4.93l-.85-1.75-.33,1.75h-1.86Z"/><polygon class="cls-8" points="100.37 84.17 102.61 85.52 108.88 77.5 105.57 75.51 100.37 84.17"/><path class="cls-6" d="M100.48,82.73l3.67,1.92-.91,1.52,2,4.36a1.1,1.1,0,0,1-1.57,1.4L99.41,89.4l.17-1.94L98.4,88.79l-1.6-1Z"/><path class="cls-4" d="M47.71,83.29h-.08a1.88,1.88,0,0,1-1.52-.86,21,21,0,0,0-4.5-4.87c-1-.85-2.15-1.63-3.22-2.39-2.75-2-5.34-3.8-6.78-6.35-3.14-5.55.55-13.28,5.83-16.75,5.92-3.89,13.7-4.5,21.23-4.58H61a223.25,223.25,0,0,1,40.46,3.7c4.44.81,9.08,1.82,12.81,4.25s6,6.23,5.75,9.71c-.32,5.08-5.7,8.87-10.6,9.86-4.67.94-9.53.31-14.66-.37l-3.47-.44C78.71,72.74,55,77.23,54,77.42l-1,.19-3.86,5A1.8,1.8,0,0,1,47.71,83.29Z"/><path class="cls-2" d="M103.83,58.53H50.56a1.16,1.16,0,0,1,0-2.32h53.27a1.16,1.16,0,0,1,0,2.32Z"/><path class="cls-2" d="M103.83,65.64H50.56a1.16,1.16,0,0,1,0-2.32h53.27a1.16,1.16,0,0,1,0,2.32Z"/><path class="cls-2" d="M56.77,72.76H50.56a1.16,1.16,0,1,1,0-2.32h6.21a1.16,1.16,0,0,1,0,2.32Z"/><path class="cls-6" d="M109.48,42.5,99,41.24l.3,2S92.17,49,97,55.28l2.35,2.29-.22,1.08h1.51l.16,1.3,6.49,5.37.37,1.1h1.07l-.52,1.25-4.82,11.21,4,1.86,7.36-14.1-1.89-4.25-6.77-8.57L116.61,58l.18.91,1-.18L117.57,60l2.05,10.54L124,70l-.44-13.11a4.07,4.07,0,0,0-2.22-3.43c-2.22-1.14-10.43-4.32-10.43-4.32Z"/><path class="cls-3" d="M105.27,19.53l-2-2.54-2.82-.12-.29,2.39-1.39.64a37.37,37.37,0,0,0-.63,16.23h0a1.45,1.45,0,0,1,.41,1.41l-.09.36h0a2.19,2.19,0,0,1,.28,1.58h0L96.22,44c5.43,2.21,9.4-1.91,13.08-7.32l2.28-7.89Z"/><polygon class="cls-6" points="111.21 34.14 111.75 28.82 104.68 18.36 104.39 18.55 111.38 28.91 110.86 34.1 111.21 34.14"/><circle class="cls-8" cx="103.43" cy="11.57" r="5.21"/><path class="cls-6" d="M104.1,5.21l-.65,0h-.22l-2.49.08a4.26,4.26,0,0,0-3.85,4.62c-1.62,1.73-1,3.8.34,6a26.16,26.16,0,0,1,7,1.63l.27-1.35.68,1.75c.56.25,1.11.52,1.67.82a21.92,21.92,0,0,1-.72-8.22l1.14,0,0-1.25.42,1.24,2.07-.07h0a5.45,5.45,0,0,0-5.61-5.26Z"/><circle class="cls-6" cx="99.6" cy="4.95" r="2.45"/><path class="cls-8" d="M115.73,24.42l1.79-2.24a1.88,1.88,0,0,0-.24-2.61h0a1.88,1.88,0,0,0-2.66.2,1.82,1.82,0,0,0-.42.87l-.49,2.5-1.83,4.95,2.2,1.1Z"/><path class="cls-6" d="M110.23,30.84l-3.6-7.68a3.12,3.12,0,0,0-4.17-1.42,2.69,2.69,0,0,0-.29.16h0a3.12,3.12,0,0,0-1,4.24l5.9,10.11a3.06,3.06,0,0,0,3.33,1.4h0a3.06,3.06,0,0,0,2.2-2l2.22-7-2.93-1.47Z"/><path class="cls-6" d="M186,103.57c-.22.37-.46.73-.69,1.09-.43.67-.88,1.33-1.34,2h0a4.6,4.6,0,0,1-.88.64l0,0a2.78,2.78,0,0,1-.74.29l-.28.07q-.5.12-1,.21c-.59.1-1.17.18-1.74.23h-.14a27.11,27.11,0,0,1-7.09-.57c-1.19-.22-2.4-.49-3.66-.77l-1.24-.28-.1,0-1.82-.39c-.78-.16-.38-.17-1.22-.31a15.27,15.27,0,0,1,2.26,2.81,4.61,4.61,0,0,1,0,3.6l1.86,3.64-6.46,1.1c-3.56-7-6.4-11.56-5.13-14.27a2.53,2.53,0,0,1,0-.38,4.38,4.38,0,0,1,1.65-2.92,4.2,4.2,0,0,1,3.11-.85l1.27.17,9.83-.48.38-1.58.07,0,2.27-.83L183,92.9h0l.51-.19.07.1a.41.41,0,0,0,.05.09,15.84,15.84,0,0,1,1.24,2.87,47.13,47.13,0,0,1,1.3,5,1.18,1.18,0,0,0,0,.2h0a.18.18,0,0,1,0,.06A4.62,4.62,0,0,1,186,103.57Z"/><path class="cls-7" d="M184.34,73l-.05-3.14-5-.58-.52,2.65-5.23,4.92c-3.71,4.54-1,7.67-.85,8.14l.46,5.73.29,2-1.13,5.44,14.25,3.06c.45-3.77-.05-7.27-3-10.08l1.5-4.68h0a9.53,9.53,0,0,0,1.4-4l.06-.49C187.83,77.77,187.05,76.37,184.34,73Z"/><path class="cls-6" d="M191.32,63.16v.24A5.57,5.57,0,0,1,184,68.68l-1-.33h0l-1.68-.55a.74.74,0,0,1,0-.21c-2.51-1.08,1-4.6,1.82-7.25.14-.41-4.47-.11-4.26-.46l-.14-.07a6.82,6.82,0,0,1,7.54-2.94l.11,0c3.28.08,5,2.36,5,5.32A7.46,7.46,0,0,1,191.32,63.16Z"/><path class="cls-5" d="M188.48,64.33a5.32,5.32,0,0,1-6.72,3.41l-.45-.16a5.34,5.34,0,0,1-3-6.56,5.45,5.45,0,0,1,.53-1.15,5.34,5.34,0,0,1,9.61,4.46Z"/><path class="cls-6" d="M183,68.35h0l-1.68-.55c0-.07-3.1,2-3.09,1.9.05-.55,3.53-3.25,4.05-3.88a3.21,3.21,0,0,0-.4-4.54,3,3,0,0,0-1-.58l0,0c-.33-.11-.64-.23-.93-.34-.15-.61-.22-.41-.57-.92.07.47-.52.82-.53,1.29l-.34-.17-.14-.08a2.21,2.21,0,0,1-.86-.68c.84-2.59,4.06-4.66,6.65-3.82l1,.32a4.86,4.86,0,0,1,2.85,2.43A5.5,5.5,0,0,1,183,68.35Z"/><circle class="cls-6" cx="190.09" cy="58.84" r="2.32"/><path class="cls-6" d="M219.55,63.57A15.39,15.39,0,0,1,211.43,74c-.26.13-.52.25-.79.36a5.3,5.3,0,0,0-.89-3,9,9,0,0,1,0,2.2,10.33,10.33,0,0,1-.2,1.24,15.31,15.31,0,0,1-5.33.77,5.18,5.18,0,0,0-.84-2.24,9,9,0,0,1,0,2.2,15.11,15.11,0,0,1-5.23-1.41A5.54,5.54,0,0,1,196,72.4a5,5,0,0,1-.67-3.63,35.71,35.71,0,0,1,.94-3.66,7,7,0,0,0,.12-3.73A3.22,3.22,0,0,0,193.7,59c-.57,0-1.15.11-1.72.06s-1.19-.44-1.21-1l.55-.9a5.37,5.37,0,0,1,2.4-3.9,3.42,3.42,0,0,1,4.29.62c.82,1,.79,2.49,1.06,3.8a10,10,0,0,0,5.85,6.73,21,21,0,0,0,9.06,1.5,10.71,10.71,0,0,0,3.14-.41A4.16,4.16,0,0,0,219.55,63.57Z"/><path class="cls-3" d="M167,77.5l-.91-10.83a1.4,1.4,0,0,1,1.28-1.51l2.36-.2a1.41,1.41,0,0,1,1.52,1.28l.91,10.83a1.4,1.4,0,0,1-1.28,1.51l-2.36.2A1.4,1.4,0,0,1,167,77.5Z"/><path class="cls-4" d="M167.66,65.69a.74.74,0,0,0-.69.81l.9,10.83a.75.75,0,0,0,.82.69l2.36-.2a.75.75,0,0,0,.69-.81l-.91-10.83a.75.75,0,0,0-.81-.69Z"/><path class="cls-5" d="M171.64,81.22l2.29-.88-1.33-5.11-.24-2.53a1.87,1.87,0,0,0-2.05-1.7,1.82,1.82,0,0,0-.9.33h0a1.88,1.88,0,0,0-.51,2.57l1.57,2.41Z"/><path class="cls-7" d="M174,79.43,171,80.6l1.53,7.16a3.05,3.05,0,0,0,2,2.25h0a3.07,3.07,0,0,0,3.45-1.07l6.87-9.48a3.11,3.11,0,0,0-.58-4.31h0a3.12,3.12,0,0,0-4.37.53,2.75,2.75,0,0,0-.19.28l-4.35,7.28Z"/><path class="cls-9" d="M171.53,83.28l1.55,6.29.32.39a2.51,2.51,0,0,0,3.53.35,2.47,2.47,0,0,0,.55-.65l4.91-8.16L178,87.63a2.51,2.51,0,0,1-4.23-.28Z"/></svg>