<svg id="Layer_1" data-name="Layer 1" xmlns="http://www.w3.org/2000/svg" viewBox="0 0 250 150"><defs><style>.cls-1{fill:#f2f2f2;}.cls-2{fill:#f4d0c3;}.cls-3{fill:#2f2e41;}.cls-4{fill:#3f3d56;}.cls-5{fill:#a0616a;}.cls-6{fill:#a8c79e;}.cls-7{fill:#fd6584;}.cls-8{fill:#e6e6e6;}.cls-9{fill:#ccc;}.cls-10{fill:#fff;}</style></defs><title>cs</title><path class="cls-1" d="M110.85,128.47l1.84-6a20.27,20.27,0,0,0-8.08-5.41c3,5,.09,11.54,1.32,17.26a12.11,12.11,0,0,0,6.51,8.28l2.79,3.46a20.37,20.37,0,0,0,1.5-17,20,20,0,0,0-2.28-4.38C112.79,126.65,110.85,128.47,110.85,128.47Z"/><path class="cls-1" d="M100.74,129.23l-1-6.18a20.36,20.36,0,0,0-9.65-1.24C95,125,95.3,132.1,98.94,136.67a12.16,12.16,0,0,0,9.53,4.52l4,1.85a20.39,20.39,0,0,0-6.24-15.88,19.57,19.57,0,0,0-4-2.9C101.66,126.74,100.74,129.23,100.74,129.23Z"/><polygon class="cls-2" points="160.93 144.53 158.09 144.53 156.75 133.61 160.93 133.61 160.93 144.53"/><path class="cls-3" d="M161.65,147.28h-9.13v-.12a3.55,3.55,0,0,1,3.55-3.55h0l1.67-1.27,3.11,1.27h.8Z"/><polygon class="cls-2" points="206.68 134.2 204.75 136.27 195.84 129.81 198.69 126.75 206.68 134.2"/><path class="cls-3" d="M209.18,135.55,203,142.23l-.09-.08a3.57,3.57,0,0,1-.17-5h0l.21-2.08,3.05-1.41.54-.59Z"/><path class="cls-3" d="M202.49,128.06l-3,6.26-18.39-12.17-2.67-3.64-8.77-12-3.57,5.65-2.48,5.92h0a6.57,6.57,0,0,0-2.92,4.75l-.11,1.05L162.16,138l-6,1.83-3.42-18.93,1.12-4.1,1.15-5.76,5.8-18.19h15.51l8.9,18.94.65,3.86,2.52,2.89Z"/><path class="cls-4" d="M170.25,63.1l2.61,2,3.15,1s1.3,18.31,2.48,19.49.11,1.2.35,2.73.81,4.65.81,4.65c-7.92,4.19-14.75,4.3-20.23-.61a1.36,1.36,0,0,1,.74-1.54c1-.54-.94-3.07-.11-3.49s-.34-4.09-.34-4.09l.77-7.65-.6-1.22,1.48-7.48,2.58-.94,1-2.48Z"/><path class="cls-2" d="M171.89,95.66a2.27,2.27,0,0,1,2.18-2.35l.4,0,3.68-7.15,2,3.64-3.81,6.24a2.27,2.27,0,0,1-4.5-.4Z"/><path class="cls-4" d="M178.08,93.91,186,81.67l0-.06c0-.06-1.81-3.92-3.55-7.46-.26-.54-.53-1.08-.79-1.59-.11-.23-.22-.44-.32-.66-.73-1.43-1.37-2.61-1.75-3.18A6.67,6.67,0,0,0,176,66h-.07a3.4,3.4,0,0,0-2,3.73,24.06,24.06,0,0,0,4.46,10.08l1.28,1.68L175.2,91.2Z"/><path class="cls-2" d="M150.94,47a2.26,2.26,0,0,1-.22,3.19,1.72,1.72,0,0,1-.32.23L152,58.31l-3.89-1.54-1-7.24A2.27,2.27,0,0,1,150.94,47Z"/><path class="cls-4" d="M147.23,52.27l1.57,14.47,0,0c.05,0,2,1,4.48,2.16.42.2.36,1,.79,1.25s1.08-.36,1.38-.22c2.67,1.25,5.37,2.46,6.45,2.79a6.7,6.7,0,0,0,4.44-.14l0,0v0a3.38,3.38,0,0,0-.78-4.17,24,24,0,0,0-9.8-5l-2.06-.51-2.63-10.31Z"/><circle class="cls-2" cx="167.47" cy="57.12" r="5.17"/><path class="cls-3" d="M162.34,53.66c.42-1.24,2.54-2.1,6-2.22s4.3,3.92,4.3,3.92c2.29,1.86-2.44,6.83-2.67,6.65l.1-.93c.17-1.55.9-2.76,0-4.37h-.89l-3.43.66,1.36-1.19,0-.06a5.23,5.23,0,0,1-1.85.56,2,2,0,0,1-1.87-.88,1.43,1.43,0,0,1-.16-.57,3,3,0,0,0-1.43,1.6A17.9,17.9,0,0,1,162.34,53.66Z"/><path class="cls-3" d="M61.63,54a2.85,2.85,0,0,0-.23-.26l.06-.08Z"/><path class="cls-3" d="M62.63,74.74a6.4,6.4,0,0,1-4.2,2.75,10.59,10.59,0,0,1-5.72-.11c-.23-.08-.47-.16-.7-.26a5.47,5.47,0,0,0,.26-.9A5.83,5.83,0,0,0,52.4,75a4.31,4.31,0,0,1-.71,1,3.88,3.88,0,0,1-.75.6,7.25,7.25,0,0,1-2.18-2c0-.09.08-.18.11-.27a9,9,0,0,0,.42-1.46,10,10,0,0,0,.21-2,6.3,6.3,0,0,1-1.16,1.6,6.14,6.14,0,0,1-.45.43,5.94,5.94,0,0,1,.35-4.53c1-1.79,2.86-2.86,4.54-4s3.37-2.74,3.51-4.78c.1-1.38-.54-2.76-.29-4.11a3.18,3.18,0,0,1,3.72-2.54,3.12,3.12,0,0,1,1.68.9,13,13,0,0,0-2.28,4.36,4.68,4.68,0,0,0,1.21,4.64,6.77,6.77,0,0,1,1.33,1.1A4.23,4.23,0,0,1,62.19,66c.15,1.48.63,2.9.89,4.37A6.49,6.49,0,0,1,62.63,74.74Z"/><polygon class="cls-5" points="45.31 135.66 47.55 137.39 55.3 129.57 51.99 127.01 45.31 135.66"/><path class="cls-3" d="M45.41,134l3.7,2.52L47.94,138l1.57,4.93a1.19,1.19,0,0,1-1.87,1.31L43.42,141l.43-2.06-1.44,1.28L40.82,139Z"/><path class="cls-3" d="M56.69,58.33a5.35,5.35,0,1,0,9.2-3.71l0,0-.13-.13h0a1.22,1.22,0,0,0-.17-.15A5.94,5.94,0,0,0,62,52.58C59,52.58,56.69,55.37,56.69,58.33Z"/><path class="cls-5" d="M87.19,55.58a2,2,0,0,1-1.78,2.13h-.35l-13.25,12-2.28-3.6L83.28,55.44a2,2,0,0,1,3.91.14Z"/><path class="cls-6" d="M66.15,73.28s.49.92,2.18-.49c1.35-1.13,7.81-6,9.2-8a1.53,1.53,0,0,0,1.81-.52l-3.81-3.34c-1.14.13-1.12.9-1,1.33l-2.88,1.3-7.42,4.75,1.55,4.34Z"/><polygon class="cls-5" points="58.95 81.67 58.68 83 58.44 87.88 68.82 88.45 68.5 80.94 67.5 79.29 58.95 81.67"/><circle class="cls-5" cx="63.36" cy="59.57" r="4.49"/><path class="cls-6" d="M55.39,76.12l0-3.73A6,6,0,0,1,60,66.6h0l.88-1.2,3.61.36.66,1.35,2.61,1.56,1,3.23a3.84,3.84,0,0,1,1.65,2.56A7.1,7.1,0,0,1,69,79.08l-.47,2.63-10.18,1.8H58.3Z"/><path class="cls-3" d="M68.85,58.77a15.18,15.18,0,0,1-1.63.89,9.4,9.4,0,0,1-1.77.65,6.23,6.23,0,0,0-.64-1.09,4.09,4.09,0,0,1,0,1.21,6.2,6.2,0,0,1-3-.25l-.85-1.41-.06,1.58-2.1.37-.12,0a5.88,5.88,0,0,1,1.55-5.42,5,5,0,0,1,5.19-1c.11,0,.22.09.33.15h0c.07,0,.12.11.19.1C69,54.22,69.09,56.6,68.85,58.77Z"/><polygon class="cls-5" points="61.38 129.87 63.63 131.6 71.36 123.76 68.05 121.21 61.38 129.87"/><path class="cls-3" d="M61.68,128.34l3.71,2.52-1.17,1.52,1.58,4.92a1.2,1.2,0,0,1-1.87,1.32l-4.23-3.25.43-2.07-1.44,1.29-1.59-1.23Z"/><path class="cls-3" d="M54.1,120.31v0l1.06-1.84-1.09-2.39,0-6.13.18-.92a7.94,7.94,0,0,0-.2-3.72h0l0-3.73c0-.94,1.41-1.76,1.07-2.54-3.2-7.37,3.26-13,3.3-13l.13-.13.72.54h.68l9.19,1.67.07.13a14.56,14.56,0,0,1,1.1,4.07c.46.53,5.68,6.57,6.14,7,3.13,2.83,4.93,7.53,5.72,10.07a4,4,0,0,1-.69,3.72L69.56,126l-3.19-3,6.42-11.7-.46-1.19A3.65,3.65,0,0,1,70.2,109l-1.3-1.54a2.91,2.91,0,0,1-.66-1.51l-.79-.09-2.82-3-2,17.75-.54,1.4-9.27,10.91-3.93-2.46Z"/><path class="cls-5" d="M52.68,44.11A2,2,0,0,0,53,46.86a1.32,1.32,0,0,0,.29.19l-3,8.74L52.74,65l3.89-1.75-2.4-7L56,46.14a2,2,0,0,0-3.34-2Z"/><path class="cls-6" d="M56.23,72.67s-.91.49-1.54-1.61c-.51-1.68-4-10.81-4-13.25a1.55,1.55,0,0,1-1.23-1.44l5-.69c.88.74.43,1.36.1,1.66l1.71,2.9,3.57,7.82L56.9,72.33Z"/><path class="cls-7" d="M58.78,60.72a9.12,9.12,0,0,1,7-6.1l0,0,.06,0-.19-.1h0a1.22,1.22,0,0,0-.17-.15H65.4S59.68,53.41,58.78,60.72Z"/><ellipse class="cls-1" cx="130.6" cy="109.43" rx="2.04" ry="2.35" transform="translate(-32.85 157.55) rotate(-56.36)"/><ellipse class="cls-1" cx="117.93" cy="74.42" rx="2.04" ry="2.35" transform="matrix(0.55, -0.83, 0.83, 0.55, -9.35, 131.39)"/><ellipse class="cls-1" cx="170.9" cy="128.31" rx="2.04" ry="2.35" transform="translate(-30.59 199.53) rotate(-56.36)"/><ellipse class="cls-1" cx="63.81" cy="15.69" rx="2.04" ry="2.35" transform="translate(15.4 60.13) rotate(-56.36)"/><ellipse class="cls-1" cx="113.79" cy="4.64" rx="2.04" ry="2.35" transform="translate(46.9 96.81) rotate(-56.36)"/><ellipse class="cls-8" cx="90.14" cy="97.38" rx="2.04" ry="2.35" transform="translate(-40.87 118.49) rotate(-56.36)"/><path class="cls-9" d="M195.18,147.5H45.42a.27.27,0,0,1-.28-.28.28.28,0,0,1,.28-.27H195.18a.28.28,0,0,1,.27.28A.27.27,0,0,1,195.18,147.5Z"/><path class="cls-8" d="M73.29,56.43a5.14,5.14,0,0,1-5.08-4.57L65.29,24.71a5.13,5.13,0,0,1,4.54-5.64l86.81-9.34a5.11,5.11,0,0,1,5.63,4.53l2.93,27.16a5.13,5.13,0,0,1-4.54,5.63v0L73.85,56.4A5.25,5.25,0,0,1,73.29,56.43Z"/><path class="cls-10" d="M155.68,11l-.48,0L71.51,20a4.48,4.48,0,0,0-4,4.94h0L69,38.69A17,17,0,0,0,87.74,53.77h0l58.84-6.34a16.93,16.93,0,0,0,15-18.66h0L160.13,15a4.48,4.48,0,0,0-4.45-4Z"/><path class="cls-6" d="M138.06,25.28l-46.77,5a1,1,0,1,1-.22-2h0l46.77-5a1,1,0,0,1,.22,2Z"/><path class="cls-6" d="M138.73,31.52,92,36.56a1,1,0,0,1-.22-2l46.77-5a1,1,0,1,1,.22,2Z"/><path class="cls-6" d="M98.09,42.22l-5.46.58a1,1,0,1,1-.21-2h0l5.45-.59a1,1,0,0,1,.22,2Z"/><circle class="cls-4" cx="71.45" cy="24.01" r="1.84"/><circle class="cls-4" cx="153.9" cy="14.8" r="1.84"/><path class="cls-6" d="M129,54.46a1.55,1.55,0,0,1-.52-1.19,20,20,0,0,0-1.29-7.85,1.52,1.52,0,0,1,.1-1.3,1.49,1.49,0,0,1,1-.72,8.2,8.2,0,0,1,6.52-1.08,1.49,1.49,0,0,1,1.65,1A33.33,33.33,0,0,1,138,52.23a1.5,1.5,0,0,1-1.26,1.51l-6.48,1.07A1.43,1.43,0,0,1,129,54.46Z"/><path class="cls-10" d="M129.56,46.67l5.46-.9a.35.35,0,0,0-.11-.69h0l-5.46.91a.33.33,0,0,0-.28.39A.35.35,0,0,0,129.56,46.67Z"/><path class="cls-10" d="M130,49.39l5.45-.9a.34.34,0,0,0-.11-.68l-5.46.9a.34.34,0,0,0-.28.4.34.34,0,0,0,.39.28Z"/><path class="cls-10" d="M130.47,52.12l5.45-.9a.34.34,0,0,0,.28-.4.34.34,0,0,0-.39-.28l-5.46.9a.34.34,0,0,0,.11.68Z"/></svg>