<svg id="Layer_1" data-name="Layer 1" xmlns="http://www.w3.org/2000/svg" viewBox="0 0 250 150"><defs><style>.cls-1{fill:#f2f2f2;}.cls-2{fill:#fff;}.cls-3{fill:#ccc;}.cls-4{fill:#e6e6e6;}.cls-5{fill:#a8c79e;}.cls-6{fill:#3f3d56;}.cls-7{fill:#f4d0c3;}.cls-8{fill:#2f2e41;}</style></defs><title>cs</title><path class="cls-1" d="M143.06,84.8l-58.2,15a7.79,7.79,0,0,1-9.4-5.5L57.86,25.8a7.79,7.79,0,0,1,5.5-9.4l54.2-13.9,13.9,6.2,17.2,66.7A7.85,7.85,0,0,1,143.06,84.8Z"/><path class="cls-2" d="M63.86,18.6A5.42,5.42,0,0,0,60,25.3l17.6,68.4a5.46,5.46,0,0,0,6.7,3.9l58.2-15a5.46,5.46,0,0,0,3.9-6.7l-16.9-65.7-12.2-5.5Z"/><path class="cls-1" d="M131.26,9.1l-9,2.3a2.57,2.57,0,0,1-3.1-1.8l-1.7-6.7c0-.1,0-.2.1-.2h.1l13.7,6.1s.1.1-.1.3C131.36,9,131.36,9.1,131.26,9.1Z"/><path class="cls-3" d="M126.56,67.5l-26.5,6.8a1.3,1.3,0,0,1-.7-2.5h0l26.5-6.8a1.3,1.3,0,0,1,.7,2.5Z"/><path class="cls-3" d="M132.76,70.3l-31.6,8.2a1.3,1.3,0,1,1-.7-2.5l31.6-8.1a1.28,1.28,0,0,1,1.6.9A1.15,1.15,0,0,1,132.76,70.3Z"/><circle id="a597741b-ffcf-4aba-98b0-6652ef5d57c9" class="cls-4" cx="89.16" cy="78" r="4.5"/><path class="cls-2" d="M123.66,55.6l-35.2,9.1a3.94,3.94,0,0,1-4.8-2.8l-7.4-28.7a3.94,3.94,0,0,1,2.8-4.8l35.3-9.1a3.94,3.94,0,0,1,4.8,2.8l7.4,28.7A3.93,3.93,0,0,1,123.66,55.6Z"/><path class="cls-4" d="M123.66,55.6l-35.2,9.1a3.94,3.94,0,0,1-4.8-2.8l-7.4-28.7a3.94,3.94,0,0,1,2.8-4.8l35.3-9.1a3.94,3.94,0,0,1,4.8,2.8l7.4,28.7A3.93,3.93,0,0,1,123.66,55.6ZM79.26,28.8a3.49,3.49,0,0,0-2.5,4.3l7.4,28.7a3.49,3.49,0,0,0,4.3,2.5l35.2-9.1a3.49,3.49,0,0,0,2.5-4.3l-7.4-28.7a3.49,3.49,0,0,0-4.3-2.5Z"/><path id="b056fd3f-f1a0-44f0-b006-deff0bee637d" class="cls-1" d="M112.56,28.9l-17.8,4.6a.63.63,0,0,1-.4-1.2h0l18.1-4.7c.8.4.6,1.2.1,1.3Z"/><path id="f1ea6668-a825-428d-96fe-a2c4e1b5a672" class="cls-1" d="M113.36,32l-17.8,4.6a.63.63,0,0,1-.4-1.2h0l18.1-4.7c.8.5.6,1.2.1,1.3Z"/><path id="ee9aa382-a9c9-40d0-8ed3-22ec2dd616d6" class="cls-4" d="M92.16,39.4l-5.4,1.4a.62.62,0,0,1-.8-.5l-1.7-6.4a.62.62,0,0,1,.5-.8l5.4-1.4a.62.62,0,0,1,.8.5l1.7,6.4a.66.66,0,0,1-.5.8Z"/><path id="be954d2b-d8b8-4d26-80a0-a319e99a4b10" class="cls-1" d="M115,38.4l-27.1,7a.63.63,0,0,1-.4-1.2h0L115,37.1c.7.4.5,1.2,0,1.3Z"/><path id="baaae9e4-1b4d-40c2-8a9d-f2abb078b489" class="cls-1" d="M115.76,41.6l-27.1,7a.63.63,0,1,1-.4-1.2h0l27.4-7.1c.8.4.6,1.1.1,1.3Z"/><path id="a91bf4c9-37f6-4391-92ed-1882bd0ce21c" class="cls-1" d="M116.56,44.7l-27.1,7a.63.63,0,1,1-.4-1.2h0l27.4-7.1c.8.4.6,1.1.1,1.3Z"/><path id="efb98e07-468b-4c85-9a64-ee4cc5493d6f" class="cls-1" d="M117.36,47.8l-27.1,7a.63.63,0,0,1-.4-1.2h0l27.4-7.1C118.06,46.9,117.86,47.7,117.36,47.8Z"/><path id="aeb1db98-32e5-40b8-ab89-fdad6a3263dc" class="cls-1" d="M118.16,50.9l-27.1,7a.63.63,0,0,1-.4-1.2h0l27.4-7.1C118.86,50,118.66,50.8,118.16,50.9Z"/><path id="be265de5-288f-49a7-867d-c42e7cdbf4db" class="cls-2" d="M89.56,79.6h-.3L88,79.1a.47.47,0,0,1,.3-.9h0l.8.3,1-2.5a.71.71,0,0,1,.6-.3h0a.71.71,0,0,1,.3.6l-1.2,2.9c0,.3-.1.4-.2.4Z"/><path class="cls-4" d="M165.46,110.8h-60.2a7.77,7.77,0,0,1-7.7-7.7V32.5a7.77,7.77,0,0,1,7.7-7.7h56l11.9,9.5v68.9A7.68,7.68,0,0,1,165.46,110.8Z"/><path class="cls-2" d="M105.26,27a5.48,5.48,0,0,0-5.5,5.5v70.6a5.48,5.48,0,0,0,5.5,5.5h60.2a5.48,5.48,0,0,0,5.5-5.5V35.4L160.46,27Z"/><path class="cls-5" d="M153.76,47.6h-27.4a1.3,1.3,0,1,1,0-2.6h27.4a1.3,1.3,0,1,1,0,2.6Z"/><path class="cls-5" d="M159,51.9h-32.7a1.3,1.3,0,0,1,0-2.6H159a1.3,1.3,0,1,1,0,2.6Z"/><path class="cls-3" d="M153.76,64.4h-27.4a1.3,1.3,0,0,0,0,2.6h27.4a1.3,1.3,0,1,0,0-2.6Z"/><path class="cls-3" d="M159,68.7h-32.7a1.3,1.3,0,0,0,0,2.6H159a1.3,1.3,0,0,0,0-2.6Z"/><path class="cls-3" d="M153.76,86.3h-27.4a1.3,1.3,0,0,1,0-2.6h27.4a1.3,1.3,0,1,1,0,2.6Z"/><path class="cls-3" d="M159,90.7h-32.7a1.3,1.3,0,0,1,0-2.6H159a1.3,1.3,0,1,1,0,2.6Z"/><circle id="abdb8e2f-a218-463c-85f4-c869fef49971" class="cls-5" cx="114.96" cy="48.5" r="4.5"/><path id="ba7dbbd6-0052-44b1-a552-47a8298b8d3e" class="cls-2" d="M114.46,50.2a.37.37,0,0,1-.3-.1h0l-1.1-.8a.5.5,0,0,1,.6-.8h0l.7.5,1.6-2.1a.49.49,0,0,1,.7-.1h0a.49.49,0,0,1,.1.7l-1.9,2.5a.52.52,0,0,1-.4.2Z"/><path class="cls-3" d="M119.86,67.8a4.48,4.48,0,0,1-4.5,4.5h-.1a4.5,4.5,0,1,1,4.6-4.5Z"/><circle id="e4a71040-498e-4958-ad41-c2d79154b8f7" class="cls-3" cx="114.96" cy="87.2" r="4.5"/><path class="cls-3" d="M172.86,34.6h-9.3A2.58,2.58,0,0,1,161,32h0V25.1a.22.22,0,0,1,.2-.2h.1L173,34.2c.1,0,.1.2,0,.2C173,34.6,173,34.6,172.86,34.6Z"/><path class="cls-5" d="M119.86,67.8a4.48,4.48,0,0,1-4.5,4.5h-.1a9.61,9.61,0,0,1,.9-9A4.51,4.51,0,0,1,119.86,67.8Z"/><path class="cls-5" d="M125.06,65.7a1.32,1.32,0,0,1,1.3-1.3h6.8A7.86,7.86,0,0,1,134,67h-7.7A1.39,1.39,0,0,1,125.06,65.7Z"/><path class="cls-5" d="M134.16,68.7a11.53,11.53,0,0,1-.3,2.6h-7.5a1.3,1.3,0,0,1,0-2.6h7.8Z"/><path class="cls-6" d="M151.06,84.5a1.36,1.36,0,0,1-1.9.5l-16.3-10a1.39,1.39,0,0,1,1.4-2.4l16.3,10A1.34,1.34,0,0,1,151.06,84.5Z"/><path class="cls-6" d="M134.66,74.5A11.2,11.2,0,1,1,131,59.1h0A11.15,11.15,0,0,1,134.66,74.5ZM118,64.4a8.37,8.37,0,1,0,11.5-2.8A8.32,8.32,0,0,0,118,64.4Z"/><circle class="cls-7" cx="170.56" cy="64.8" r="5.7"/><path class="cls-7" d="M170.16,96.9a2.51,2.51,0,0,1,1.7-3.2.37.37,0,0,0,.3-.1h.3l6-9.7L173,78.6a2.19,2.19,0,1,1,3-3.2h0l7.6,7.5h0a2.11,2.11,0,0,1-.1,2.4l-8.4,10c0,.1,0,.2.1.2a2.47,2.47,0,0,1-2,3h-.5A2.27,2.27,0,0,1,170.16,96.9Z"/><polygon class="cls-7" points="161.16 144.5 158.26 144.5 156.96 133.5 161.16 133.5 161.16 144.5"/><path class="cls-8" d="M161.86,147.3h-9.2v-.1a3.59,3.59,0,0,1,3.6-3.6h5.6v3.7Z"/><polygon class="cls-7" points="189.56 140.5 187.06 142 180.26 133.2 183.86 131.1 189.56 140.5"/><path class="cls-8" d="M191.56,142.6l-7.9,4.7-.1-.1a3.56,3.56,0,0,1,1.2-4.9h0l4.8-2.9Z"/><path class="cls-8" d="M156.56,139.6c-1.9-22.5-3.1-43.5,3.9-52v-.1l11.8,4.7h0c0,.1,4,8.7,3.1,14.5l2.9,13.4,9.5,15.9a1,1,0,0,1-.4,1.4.1.1,0,0,0-.1.1l-4.1,1.8a1.09,1.09,0,0,1-1.3-.4l-10.3-16.8-5.8-12.9a.37.37,0,0,0-.5-.2c-.1,0-.2.2-.2.3l-3.2,30.3a1,1,0,0,1-1,.9h-3.2A.9.9,0,0,1,156.56,139.6Z"/><path class="cls-5" d="M160.56,87.8h0a19.24,19.24,0,0,1,1.5-10.3,8,8,0,0,1,9.4-4.8h0a8.06,8.06,0,0,1,5.2,4,8,8,0,0,1,.6,6.4A78.18,78.18,0,0,1,173,93.6v.1Z"/><path class="cls-7" d="M147.66,80.1a2.55,2.55,0,0,1,3.6.4c.1.1.1.2.2.2s.1.2.2.3l11.2,2.3,3-7A2.22,2.22,0,1,1,170,78h0l-4.4,9.7h0a2,2,0,0,1-2.3.7L150.86,84c-.1,0-.1.1-.2.1a2.56,2.56,0,0,1-3.5-.8c0-.1-.1-.2-.1-.3s-.1-.1-.1-.2A2.26,2.26,0,0,1,147.66,80.1Z"/><path class="cls-8" d="M191.26,70.9a4.63,4.63,0,0,0-2.4-2.2c-1.4-.5-2.9,0-4.3.4a7.39,7.39,0,0,1-3.3.2,4.24,4.24,0,0,1-2.7-1.8c-.7-1.5-.1-3.2-.2-4.9a6,6,0,0,0-6.1-5.8,6.75,6.75,0,0,0-1.4.2c-1.4-.4-2.6-.4-3.4.6a4,4,0,0,0-4,4h3.8a3.47,3.47,0,0,0,.6,2.8c.7,1,1.8,1.7,2.1,2.9s-.6,2.2-1.4,3a6.29,6.29,0,0,0-2,2.8,3.2,3.2,0,0,0,.5,2.5,7.72,7.72,0,0,0,1.7,1.9,25.68,25.68,0,0,0,10.5,5.4,12.45,12.45,0,0,0,8.3-.4,8.22,8.22,0,0,0,3.9-10.9A1.45,1.45,0,0,0,191.26,70.9Z"/><path class="cls-3" d="M192.16,147.5h-44.3a.2.2,0,0,1,0-.4h44.3a.2.2,0,0,1,0,.4Z"/></svg>