<?xml version="1.0" encoding="utf-8"?>
<!-- Generator: Adobe Illustrator 25.2.1, SVG Export Plug-In . SVG Version: 6.00 Build 0)  -->
<svg version="1.1" id="Layer_1" xmlns="http://www.w3.org/2000/svg" xmlns:xlink="http://www.w3.org/1999/xlink" x="0px" y="0px"
	 viewBox="0 0 250 150" style="enable-background:new 0 0 250 150;" xml:space="preserve">
<style type="text/css">
	.st0{fill:#F1F1F1;}
	.st1{fill:#F4C9AB;}
	.st2{fill:#99E1F8;}
	.st3{fill:#3F3D56;}
	.st4{fill:#E5E5E5;}
	.st5{fill:#FFFFFF;}
	.st6{fill:#F2F2F2;}
	.st7{fill:#CCCCCC;}
	.st8{fill:#2F2E41;}
	.st9{opacity:0.2;enable-background:new    ;}
	.st10{fill:#CBCBCB;}
</style>
<g>
	<path id="a163713d-a7fc-4807-a77b-111ad75719e9" class="st0" d="M18.8,136.2c0.1,3.7,0.7,7.3,1.8,10.8c0,0.1,0,0.2,0.1,0.2h6.9
		c0-0.1,0-0.1,0-0.2c-0.4-5.2,2.2-36.7,5.3-42.2C32.5,105.3,18.2,119.5,18.8,136.2z"/>
	<path id="a1d5a274-7181-45f3-aae5-db776f20014a" class="st0" d="M19.3,147c0,0.1,0.1,0.2,0.2,0.2h5.1c0-0.1-0.1-0.1-0.1-0.2
		c-0.8-1.5-3.4-6.1-5.7-10.8c-2.5-5.1-4.8-10.4-4.6-12.3C14.1,124.3,12.4,137.5,19.3,147z"/>
	<path class="st1" d="M168.4,32.3c0.7,1.8,2.8,2.7,4.7,2c0.2-0.1,0.4-0.2,0.6-0.3l9.9,7.9l0.6-6.6l-9.5-6.5c-1.2-1.6-3.4-2-5-0.8
		C168.3,29,167.7,30.8,168.4,32.3z"/>
	<polygon class="st2" points="183.7,34.8 180,32.2 175.8,37 180.7,39.9 	"/>
	<path class="st3" d="M182.9,33l12.4,4.8l12-7.8c2.8-1.8,6.6-1.1,8.4,1.8c1.5,2.3,1.3,5.3-0.6,7.4l-0.1,0.1l-18.4,9.9l-20.1-9.2
		L182.9,33z"/>
	<polygon class="st4" points="179.4,146.8 49.7,146.8 54.4,55 74.7,55 93.4,68.1 184.1,68.1 	"/>
	<path class="st5" d="M147.6,118.8L72.7,87.9c-0.5-0.2-0.8-0.8-0.6-1.4l34-82.4c0.2-0.5,0.8-0.8,1.4-0.6l74.9,30.9
		c0.5,0.2,0.8,0.8,0.6,1.4l-34,82.5C148.8,118.7,148.2,119,147.6,118.8z"/>
	<path class="st3" d="M147.6,118.8L72.7,87.9c-0.5-0.2-0.8-0.8-0.6-1.4l34-82.4c0.2-0.5,0.8-0.8,1.4-0.6l74.9,30.9
		c0.5,0.2,0.8,0.8,0.6,1.4l-34,82.5C148.8,118.7,148.2,119,147.6,118.8z M107.3,3.9c-0.3-0.1-0.7,0-0.8,0.3L72.5,86.7
		c-0.1,0.3,0,0.7,0.3,0.8l74.9,30.9c0.3,0.1,0.7,0,0.8-0.3l33.9-82.4c0.1-0.3,0-0.7-0.3-0.8L107.3,3.9z"/>
	<path class="st6" d="M128.5,44.3l-18.6-7.6c-0.5-0.2-0.8-0.8-0.6-1.4l7.6-18.6c0.2-0.5,0.8-0.8,1.4-0.6l18.6,7.6
		c0.5,0.2,0.8,0.8,0.6,1.4l-7.6,18.6C129.7,44.2,129,44.5,128.5,44.3z M118.2,16.5c-0.3-0.1-0.7,0-0.8,0.3l-7.6,18.6
		c-0.1,0.3,0,0.7,0.3,0.8l18.6,7.6c0.3,0.1,0.7,0,0.8-0.3l7.6-18.6c0.1-0.3,0-0.7-0.3-0.8L118.2,16.5z"/>
	<path class="st2" d="M122.2,44.4l-18.6-7.6c-0.5-0.2-0.7-0.8-0.5-1.3l7.6-18.6c0.2-0.5,0.8-0.7,1.3-0.5l18.6,7.6
		c0.5,0.2,0.7,0.8,0.5,1.3l-7.6,18.6C123.2,44.3,122.7,44.6,122.2,44.4z"/>
	<path class="st7" d="M158,69.7L99.9,45.8c-0.5-0.2-0.7-0.8-0.5-1.3c0.2-0.5,0.8-0.7,1.3-0.5l0,0l58.1,24c0.5,0.2,0.7,0.8,0.5,1.3
		C159,69.7,158.5,70,158,69.7L158,69.7z"/>
	<path class="st7" d="M141.4,70.1L97.3,51.9c-0.5-0.2-0.7-0.8-0.5-1.3c0.2-0.5,0.8-0.7,1.3-0.5l0,0l44.1,18.2
		c0.5,0.2,0.7,0.8,0.5,1.3C142.5,70.1,141.9,70.3,141.4,70.1z"/>
	<path class="st7" d="M167.1,47.1l-25.7-10.6c-0.5-0.2-0.7-0.8-0.5-1.3c0.2-0.5,0.8-0.7,1.3-0.5l0,0l25.7,10.6
		c0.5,0.2,0.7,0.8,0.5,1.3S167.6,47.3,167.1,47.1L167.1,47.1z"/>
	<path class="st7" d="M158.1,50.6l-19.3-7.9c-0.5-0.2-0.7-0.8-0.5-1.3c0.2-0.5,0.8-0.7,1.3-0.5l19.3,7.9c0.5,0.2,0.7,0.8,0.5,1.3
		C159.2,50.6,158.6,50.8,158.1,50.6L158.1,50.6L158.1,50.6z"/>
	<path class="st7" d="M153,82l-58.1-24c-0.5-0.2-0.7-0.8-0.5-1.3c0.2-0.5,0.8-0.7,1.3-0.5l0,0l58.1,24c0.5,0.2,0.7,0.8,0.5,1.3
		C154,82,153.4,82.2,153,82L153,82z"/>
	<path class="st7" d="M136.4,82.3L92.3,64.2c-0.5-0.2-0.7-0.8-0.5-1.3c0.2-0.5,0.8-0.7,1.3-0.5l0,0l44.1,18.2
		c0.5,0.2,0.7,0.8,0.5,1.3C137.4,82.3,136.9,82.5,136.4,82.3L136.4,82.3L136.4,82.3z"/>
	<path class="st7" d="M147.9,94.3l-58.1-24c-0.5-0.2-0.7-0.8-0.5-1.3c0.2-0.5,0.8-0.7,1.3-0.5l58.1,24c0.5,0.2,0.7,0.8,0.5,1.3
		C149,94.2,148.4,94.5,147.9,94.3z"/>
	<path class="st7" d="M145.4,100.4l-58.1-24c-0.5-0.2-0.7-0.8-0.5-1.3c0.2-0.5,0.8-0.7,1.3-0.5l58.1,24c0.5,0.2,0.7,0.8,0.5,1.3
		C146.4,100.4,145.9,100.6,145.4,100.4L145.4,100.4z"/>
	<path class="st2" d="M117,99.9c1.2,0,2.3,0,3.5-0.1c1-0.1,2.1-0.3,3-0.8c0.8-0.4,1.3-1.3,1.4-2.2c0.1-0.9-0.4-1.7-1.2-2.1
		c-0.8-0.3-1.8-0.2-2.5,0.3c-0.7,0.6-1.1,1.6-1.1,2.6c0,2,1.6,3.9,3.4,4.8c2,0.9,4.6,0.1,5.1-2.2c0.1-0.5-0.5-0.6-0.8-0.3
		c-0.8,0.9-0.7,2.3,0.1,3c0.8,0.7,2,0.7,2.9,0l-0.7-0.3c0.4,1.8,1.8,3.2,3.6,3.8c0.4,0.1,0.9,0.2,1.3,0.2c0.5,0,1.1,0.3,1.6,0.4
		l3.8,1.2c0.5,0.2,0.9-0.7,0.3-0.8l-3.4-1.1c-0.6-0.2-1.1-0.4-1.7-0.5c-0.4-0.1-0.9,0-1.3-0.1c-1.6-0.3-2.9-1.5-3.3-3.1
		c0-0.2-0.3-0.4-0.5-0.4c-0.1,0-0.1,0-0.2,0.1c-0.5,0.5-1.3,0.4-1.8,0c-0.5-0.5-0.4-1.3,0-1.8l-0.8-0.3c-0.3,1.5-2.1,2-3.4,1.6
		c-1.5-0.5-2.7-1.9-3.1-3.3c-0.2-0.7-0.2-1.5,0.2-2.1c0.3-0.6,1-0.9,1.7-0.8c0.6,0.1,1,0.6,1,1.3c-0.1,0.7-0.5,1.3-1.1,1.6
		c-0.8,0.4-1.8,0.5-2.7,0.6c-1,0.1-2.1,0.1-3.1,0.1C116.5,99,116.4,99.9,117,99.9L117,99.9z"/>
	<polygon class="st5" points="179.4,74.3 179.4,146.8 49.7,146.8 49.7,61.1 70,61.1 88.7,74.3 	"/>
	<rect x="57.6" y="133.1" class="st2" width="53" height="4.2"/>
	<rect x="57.6" y="125" class="st2" width="26.5" height="4.2"/>
	<path class="st3" d="M179.6,147H49.5V60.9h20.6L88.8,74h90.8V147z M50,146.5h129.2v-72H88.7L69.9,61.4H50V146.5z"/>
	<polygon class="st1" points="232.2,138.2 227.8,139.8 219.6,123.6 226.1,121.3 	"/>
	<path class="st8" d="M220.7,147.2l-0.1-0.2c-1.1-3,0.5-6.4,3.5-7.5l8.6-3.1l2,5.7L220.7,147.2z"/>
	<polygon class="st1" points="203.6,142.6 199,142.6 196.8,124.6 203.7,124.6 	"/>
	<path class="st8" d="M204.8,147.1h-15v-0.2c0-3.2,2.6-5.8,5.8-5.8l0,0l0,0h9.2L204.8,147.1z"/>
	<path class="st2" d="M214.3,27.8l-2-4c0,0-7.5,1.9-8.2,6.3L214.3,27.8z"/>
	<polygon class="st8" points="222.6,73.6 217.1,104.3 231.7,130.2 223,133.6 208.2,108.5 206.3,101.7 205.1,137.4 197.3,137.2 
		193.6,103.8 199.5,72.8 	"/>
	<path class="st3" d="M221.5,59.7l-0.2-18c0-7.6-5-13.3-5.7-13.8c-0.3-1-0.9-1.8-1.8-2.2c-1.7-0.8-3.7,0.1-3.8,0.2l-6.2,2.3l0,0.1
		c-0.1,0.2-6.3,20.6-7.8,25.7c-0.2,0.7-0.3,1.2-0.3,1.2s0,1.2,0.1,3c0.1,6.3,0.5,20.4,0.6,21c0,0,11.4,1.7,15.9,1.7
		c8.1,0,13.2-1.6,13.3-1.6l0.2,0L221.5,59.7z"/>
	<circle class="st1" cx="205.9" cy="14.2" r="8.3"/>
	<path class="st9" d="M206.9,55.8l-11.2,2.3c0-1.8-0.1-3-0.1-3s0.1-0.4,0.3-1.2L206.9,55.8z"/>
	<path class="st1" d="M173.8,53.5c1.5,1.3,3.8,1.1,5-0.4c0.1-0.1,0.2-0.3,0.4-0.5l12.4,2.5l-2.5-6.1l-11.4-1.4
		c-1.8-0.9-3.9-0.2-4.8,1.6C172.2,50.6,172.6,52.4,173.8,53.5z"/>
	<polygon class="st2" points="188.6,48.6 184.1,48 182.6,54.2 188.2,54.5 	"/>
	<path class="st3" d="M187,47.4l13.3-1.5l7-12.5c1.7-2.9,5.4-4,8.3-2.3c2.4,1.4,3.6,4.2,2.9,6.8l0,0.1l-11.8,17.2l-22.1,1.1
		L187,47.4z"/>
	<path class="st8" d="M213,21.4l-6.9,0.2c-0.4,0-1.6-4.5-1.7-5.5c-0.2-1.3-1.4-2.2-2.7-2.1c-0.5,0-1.8-0.9-3.2-2.1
		C196,9.9,196.2,5.8,199,4c0.1,0,0.1-0.1,0.2-0.1c1.8-1,3.8-1.3,5.9-1.3c1.8,0,3.7,0.2,5.3,1.1c2.9,1.6,4.5,5,4.6,8.3
		s-0.9,6.5-2.1,9.6"/>
	<path class="st10" d="M242.5,147.5H7.5c-0.1,0-0.2-0.1-0.2-0.2s0.1-0.2,0.2-0.2h235.1c0.1,0,0.2,0.1,0.2,0.2
		S242.7,147.5,242.5,147.5z"/>
</g>
</svg>
