<?xml version="1.0" encoding="utf-8"?>
<!-- Generator: Adobe Illustrator 25.2.1, SVG Export Plug-In . SVG Version: 6.00 Build 0)  -->
<svg version="1.1" id="Layer_1" xmlns="http://www.w3.org/2000/svg" xmlns:xlink="http://www.w3.org/1999/xlink" x="0px" y="0px"
	 viewBox="0 0 250 150" style="enable-background:new 0 0 250 150;" xml:space="preserve">
<style type="text/css">
	.st0{fill:#2F2E41;}
	.st1{fill:#F4C9AB;}
	.st2{fill:#E6E6E6;}
	.st3{fill:#F0F0F0;}
	.st4{fill:#FFFFFF;}
	.st5{fill:#99E1F8;}
	.st6{fill:#3F3D56;}
	.st7{fill:#E4E4E4;}
	.st8{fill:#CCCCCC;}
</style>
<g>
	<path class="st0" d="M76.3,22.3c1-3,3.1-5.8,6.1-6.8c3-1,7.3,0.5,9.5,2.8c4.1,4.1,5.1,18,2.3,22.5c-0.6,0-2.5-0.1-3-0.1L90.3,38
		v2.6c-4.4-0.1-9-0.1-13.6,0C76.4,37.5,75.4,25.2,76.3,22.3z"/>
	<path class="st1" d="M120,68.8c-1.5-0.2-2.6-1.6-2.4-3.1c0-0.2,0.1-0.3,0.1-0.5l-7.8-5.8l4.8-1.7l6.6,5.8c1.4,0.6,2.1,2.1,1.5,3.6
		C122.4,68.2,121.2,69,120,68.8L120,68.8z"/>
	<path class="st2" d="M89.1,38.2l0.8-2.6c0,0,1.9-0.6,5,1.7c3.2,2.3,22.7,22.8,22.7,22.8l-5.8,0.8L93.9,48.2L89.1,38.2z"/>
	<path class="st3" d="M210.8,138.7c11.9-6.1,21.4-18.3,21.1-31.6c-11.1,9.3-25.2,14.4-39.7,14.4c-5.6,0-11.8-0.6-16.2,2.9
		c-2.7,2.2-4.1,5.7-4.6,9.1c-0.4,3.5,0.1,7,0.5,10.4l-0.3,0.8C185,145.7,198.9,144.8,210.8,138.7z"/>
	<path class="st4" d="M231.7,107.1c-5.2,9.6-13.5,17.7-23.4,22.4c-2.1,1-4.4,1.9-6.8,2.2c-2.3,0.3-4.6-0.1-6.8-1
		c-2-0.8-3.9-1.9-6.1-2.2c-2.3-0.3-4.5,0.4-6.2,1.9c-2.2,1.8-3.6,4.2-4.9,6.6c-1.4,2.7-2.9,5.5-5.4,7.4c-0.3,0.2,0.1,0.7,0.4,0.5
		c4.4-3.2,5.5-9,9.1-12.9c1.7-1.8,3.9-3.1,6.5-2.9c2.2,0.2,4.2,1.3,6.3,2.1c2.1,0.9,4.3,1.4,6.6,1.2c2.4-0.2,4.7-1,6.8-1.9
		c4.9-2.2,9.4-5.2,13.3-8.8c4.5-4.1,8.3-8.9,11.2-14.3C232.4,107,231.8,106.8,231.7,107.1L231.7,107.1z"/>
	<path class="st4" d="M211.6,128.1c2.1,3.2,6.3,4.4,9.8,2.8c0.3-0.1,0.1-0.7-0.2-0.6c-3.3,1.5-7.2,0.4-9.1-2.6
		C211.8,127.5,211.4,127.8,211.6,128.1z"/>
	<path class="st4" d="M195.7,131.3c0.7-3.8,2.8-7.1,5.9-9.4c0.3-0.2-0.1-0.7-0.4-0.5c-3.2,2.4-5.4,5.9-6.2,9.8
		C195.1,131.5,195.6,131.6,195.7,131.3L195.7,131.3z"/>
	<path class="st4" d="M224.8,117.2c-1.1-1-1.5-2.6-1.2-4.1c0.1-0.4-0.5-0.4-0.6-0.1c-0.3,1.6,0.2,3.3,1.4,4.5
		c0.1,0.1,0.3,0.1,0.4,0.1C224.9,117.5,224.9,117.3,224.8,117.2L224.8,117.2z"/>
	<path class="st3" d="M196.5,79c-0.1,0.2-0.1,0.5-0.2,0.7c-0.7,3.1-1.7,6.2-3,9.1c-0.1,0.2-0.2,0.5-0.3,0.7c-3,7.1-7.4,13.5-12.7,19
		c-2.1,2.2-4.4,4.2-6.9,6c-3.4,2.5-7.3,5-9.5,8.4c-0.2,0.3-0.5,0.7-0.7,1.1l7.4,20.5c0,0,0.1,0.1,0.1,0.1l0.3,0.8
		c0.1-0.1,0.3-0.2,0.4-0.3c0.1-0.1,0.1-0.1,0.2-0.1c0.1,0,0.1-0.1,0.1-0.1c0,0,0,0,0.1,0c0.1,0,0.1-0.1,0.1-0.1
		c0.8-0.5,1.5-1,2.3-1.5l0,0c5.8-4,11.2-8.5,15.8-13.7c0.1-0.1,0.3-0.3,0.4-0.5c2.1-2.4,3.9-4.9,5.6-7.5c0.9-1.5,1.7-3,2.5-4.5
		c1.9-4,3.2-8.3,3.8-12.6c1.2-8.8-0.4-17.8-5.6-24.8C196.8,79.3,196.6,79.1,196.5,79z"/>
	<path class="st4" d="M196.3,79.1c1.7,10.8-0.1,22.2-5.2,32c-1.1,2.1-2.4,4.1-4.1,5.8c-1.7,1.6-3.7,2.8-6,3.3
		c-2.1,0.6-4.3,0.9-6.2,1.9c-2,1.1-3.3,3-3.9,5.2c-0.7,2.7-0.3,5.5,0.1,8.2c0.5,3,1,6.2,0.1,9.1c-0.1,0.4,0.5,0.5,0.6,0.1
		c1.6-5.2-1.1-10.5-0.5-15.8c0.3-2.5,1.2-4.8,3.4-6.2c1.9-1.2,4.1-1.5,6.3-2.1c2.2-0.6,4.2-1.5,6-3c1.8-1.6,3.2-3.6,4.3-5.6
		c2.6-4.7,4.4-9.8,5.3-15c1.2-6,1.2-12.2,0.3-18.2C196.8,78.6,196.2,78.7,196.3,79.1L196.3,79.1z"/>
	<path class="st4" d="M192.9,108c3.7,1.3,7.7-0.3,9.5-3.7c0.2-0.3-0.3-0.6-0.5-0.3c-1.7,3.2-5.5,4.6-8.9,3.4
		C192.7,107.3,192.6,107.9,192.9,108L192.9,108z"/>
	<path class="st4" d="M182.1,120c-1.7-3.4-2-7.4-0.9-11.1c0.1-0.4-0.5-0.5-0.6-0.1c-1.1,3.8-0.8,7.9,1,11.5
		C181.8,120.7,182.3,120.4,182.1,120z"/>
	<path class="st4" d="M196.9,91.3c-1.5-0.2-2.8-1.1-3.4-2.5c-0.2-0.3-0.7,0-0.5,0.3c0.7,1.5,2.1,2.5,3.8,2.8c0.1,0,0.3-0.1,0.3-0.2
		C197.1,91.5,197.1,91.4,196.9,91.3L196.9,91.3z"/>
	<path class="st3" d="M67.7,42.1c-10.2-8.6-25.1-12.7-37.3-7.3C43.3,41.5,53.4,52.5,59,65.9c2.1,5.2,4,11.2,8.9,13.8
		c3.1,1.7,6.8,1.6,10.2,0.7c3.4-1,6.4-2.7,9.4-4.5l0.9-0.1C84,63.2,77.9,50.7,67.7,42.1z"/>
	<path class="st4" d="M30.4,35.1c10.9,1.1,21.5,5.6,29.7,12.9c1.8,1.6,3.4,3.3,4.6,5.4c1.2,2,1.7,4.3,1.7,6.6c0,2.2-0.2,4.4,0.3,6.5
		c0.6,2.2,2.1,4,4.1,5c2.5,1.3,5.3,1.7,8,1.9c3,0.3,6.2,0.5,8.9,2.1c0.3,0.2,0.6-0.3,0.3-0.5c-4.7-2.8-10.4-1.6-15.4-3.4
		c-2.3-0.8-4.4-2.4-5.2-4.8c-0.7-2.1-0.4-4.4-0.4-6.6c0-2.3-0.4-4.5-1.4-6.5c-1.1-2.1-2.7-3.9-4.4-5.5c-3.9-3.6-8.4-6.6-13.3-8.9
		c-5.5-2.6-11.5-4.2-17.6-4.8C30,34.4,30.1,35.1,30.4,35.1L30.4,35.1z"/>
	<path class="st4" d="M57.6,45.5c2.1-3.2,1.7-7.5-1.2-10.2c-0.3-0.3-0.7,0.2-0.4,0.4c2.6,2.5,3.1,6.5,1.1,9.5
		C56.8,45.5,57.4,45.8,57.6,45.5z"/>
	<path class="st4" d="M66.6,58.9c-3.7,0.8-7.7,0.1-10.9-1.9c-0.3-0.2-0.6,0.3-0.3,0.5c3.4,2,7.5,2.7,11.4,1.9
		C67.1,59.4,66.9,58.8,66.6,58.9L66.6,58.9z"/>
	<path class="st4" d="M42.4,37.5c-0.6,1.4-1.8,2.4-3.2,2.7c-0.4,0.1-0.2,0.6,0.2,0.6c1.6-0.3,3-1.5,3.6-3c0.1-0.1,0-0.3-0.1-0.4
		C42.6,37.3,42.5,37.4,42.4,37.5L42.4,37.5z"/>
	<path class="st3" d="M18,78.3c0.2,0,0.5-0.1,0.7-0.1c3.1-0.5,6.3-0.8,9.5-0.8c0.2,0,0.5,0,0.8,0c7.7,0.1,15.3,1.6,22.4,4.4
		c2.8,1.1,5.6,2.5,8.2,4.1c3.6,2.1,7.4,4.8,11.4,5.6c0.4,0.1,0.8,0.1,1.3,0.2l16-14.8c0-0.1,0-0.1,0.1-0.1l0.7-0.6
		c-0.1-0.1-0.3-0.2-0.4-0.3c-0.1-0.1-0.1-0.1-0.2-0.1c-0.1,0-0.1-0.1-0.1-0.1c0,0,0,0-0.1,0c-0.1,0-0.1-0.1-0.1-0.1
		c-0.8-0.5-1.5-1-2.3-1.5l0,0C79.9,70.3,73.6,67,67,64.8c-0.2-0.1-0.4-0.1-0.6-0.2c-3-1-6-1.8-9.1-2.3c-1.7-0.3-3.4-0.5-5.1-0.6
		c-4.4-0.3-8.9,0.2-13.1,1.3c-8.5,2.3-16.3,7.2-20.7,14.7C18.2,78,18.1,78.1,18,78.3z"/>
	<path class="st4" d="M18.2,78.5c9.3-5.7,20.6-8.5,31.5-7.5c2.4,0.2,4.7,0.6,6.9,1.5c2.1,0.9,4,2.4,5.3,4.3c1.3,1.7,2.5,3.6,4.2,5
		c1.8,1.5,4.1,1.9,6.3,1.5c2.8-0.4,5.2-1.8,7.5-3.3c2.6-1.6,5.3-3.3,8.4-3.7c0.4,0,0.3-0.6-0.1-0.6c-5.4,0.6-9.3,5-14.3,6.6
		c-2.4,0.7-5,0.7-7.1-0.7c-1.8-1.3-3-3.2-4.3-5c-1.4-1.8-3-3.4-5.1-4.4c-2.1-1-4.5-1.5-6.8-1.8C45.4,70,40,70.3,34.8,71.4
		c-6,1.2-11.7,3.5-16.9,6.7C17.6,78.2,17.9,78.7,18.2,78.5L18.2,78.5z"/>
	<path class="st4" d="M46.2,70.5c-0.2-3.9-3.2-7-7.1-7.4c-0.4,0-0.5,0.6-0.1,0.6c3.6,0.4,6.4,3.3,6.6,6.9
		C45.6,70.9,46.2,70.9,46.2,70.5L46.2,70.5z"/>
	<path class="st4" d="M61.5,75.8c-2.5,2.9-6,4.7-9.8,5.1c-0.4,0-0.3,0.6,0.1,0.6c4-0.4,7.6-2.3,10.2-5.3
		C62.2,75.9,61.7,75.5,61.5,75.8L61.5,75.8z"/>
	<path class="st4" d="M29.3,73.2c0.4,1.5,0,3-1,4.1c-0.3,0.3,0.2,0.6,0.5,0.3c1.1-1.2,1.5-3,1.1-4.6c0-0.1-0.2-0.3-0.3-0.3
		C29.4,72.9,29.2,73.1,29.3,73.2L29.3,73.2z"/>
	<path class="st4" d="M176,93.8c-0.1-1.5-1.3-2.8-2.8-3l-45.6-5.1c-0.4-0.1-0.9,0-1.3,0.1l-10.4,3.3l-6,1.9l-11.1,3.5
		c-1.4,0.4-2.3,1.7-2.2,3.2l1.9,44.4c0.1,1.5,1.2,2.7,2.7,3l46.5,0.1c0.2,0,0.4,0.1,0.7,0c0.3,0,0.6-0.1,0.9-0.2l27.3-0.2
		c1.3-0.5,2.1-1.8,2.1-3.1L176,93.8z"/>
	<path class="st5" d="M101.5,142.3l46.5,0.1c0.1,0,0.1,0,0.2,0l27.3-0.2c0.2-0.1,0.3-0.2,0.3-0.4l-2.6-47.8c0-0.2-0.1-0.3-0.3-0.4
		l-0.3,0l-45.3-5.1c0,0,0,0-0.1,0s-0.1,0-0.1,0l-25.5,8l-2,0.6c-0.2,0.1-0.3,0.2-0.3,0.4l1.9,44.4
		C101.2,142.1,101.4,142.3,101.5,142.3z"/>
	<path class="st0" d="M101.7,96.5l25.5-8c0,0,0.1,0,0.1,0c0,0,0,0,0.1,0l45.3,5.1l-10.9,3.5l-4.1,1.3l-11.6,3.8c0,0-0.1,0-0.1,0
		c0,0-0.1,0-0.1,0L101.7,96.5z"/>
	<path class="st6" d="M101.1,145l46.5,0.1c0.2,0,0.4,0.1,0.7,0c0.3,0,0.6-0.1,1-0.2l27.3-0.2c1.3-0.5,2.1-1.8,2.1-3.2L176,93.8
		c0-0.6-0.2-1.1-0.5-1.6c0-0.1-0.1-0.1-0.1-0.2c-0.3-0.4-0.8-0.8-1.2-1c-0.3-0.1-0.6-0.2-0.9-0.2h-0.1l-45.5-5.1c-0.2,0-0.4,0-0.6,0
		c-0.3,0-0.5,0.1-0.8,0.1l-10.4,3.3l-6,1.9l-11.1,3.5c-0.5,0.1-0.9,0.4-1.2,0.7c0,0-0.1,0.1-0.1,0.1c0,0,0,0-0.1,0.1
		c-0.6,0.6-0.9,1.5-0.9,2.4l1.9,44.4C98.5,143.5,99.6,144.8,101.1,145z M97.4,97.6c0-0.4,0.1-0.9,0.3-1.3c0.1-0.1,0.1-0.2,0.2-0.3
		c0.2-0.3,0.6-0.5,0.9-0.7c0.1,0,0.1-0.1,0.2-0.1l18.6-5.8l8.9-2.8c0.1,0,0.1,0,0.2-0.1c0.1,0,0.3-0.1,0.4-0.1s0.3,0,0.4,0l45.6,5.1
		c0,0,0.1,0,0.1,0c0.4,0.1,0.8,0.2,1.1,0.5c0.5,0.4,0.8,1,0.9,1.7l2.6,47.8c0.1,1-0.6,2-1.5,2.4l-27.3,0.2c-0.4,0.1-0.8,0.2-1.2,0.1
		l-46.5-0.1c-1.1-0.2-1.9-1.1-2-2.2L97.4,97.6z"/>
	<path class="st6" d="M148.4,145.2c-0.2,0-0.4-0.1-0.4-0.4l-2.6-43c0-0.2,0.1-0.4,0.4-0.4l0,0c0.2,0,0.4,0.1,0.4,0.4l2.6,43
		C148.8,145,148.7,145.2,148.4,145.2L148.4,145.2z"/>
	<path class="st6" d="M164.5,142.3l-4.5,0l-4.2-44.1c0,0,5.4-2.2,5.6-1.8C161.6,96.6,164.5,142,164.5,142.3z"/>
	<path class="st6" d="M174.6,92.6l-0.3-0.3c-0.3-0.3-0.7-0.4-1.2-0.5l-45.6-5.1c-0.3,0-0.5,0-0.8,0l-0.2,0l0-0.7l7.5-8.4
		c0.9-1,2.2-1.5,3.6-1.4l30.8,2.7c1.9,0.2,3.5,1.5,3.9,3.4L174.6,92.6z"/>
	<path class="st4" d="M105.7,126.2c0.1,0,0.1,0,0.1,0l14,0.8c0.4,0,0.6,0.3,0.6,0.7c0,0.4-0.3,0.6-0.7,0.6l-14-0.8
		c-0.4,0-0.6-0.3-0.6-0.7C105.2,126.5,105.4,126.2,105.7,126.2z"/>
	<path class="st4" d="M105.9,131.1c0.1,0,0.1,0,0.1,0l14,0.8c0.4,0,0.6,0.3,0.6,0.7c0,0.4-0.3,0.6-0.7,0.6l-14-0.8
		c-0.4,0-0.6-0.3-0.6-0.7C105.4,131.4,105.6,131.2,105.9,131.1z"/>
	<path class="st4" d="M173,72.3L146,87l-11.1-20.4l27-14.7L173,72.3z"/>
	<path class="st2" d="M173,72.3L146,87l-11.1-20.4l27-14.7L173,72.3z M146.2,86.2L172.2,72l-10.6-19.4l-26.1,14.2L146.2,86.2z"/>
	
		<rect id="b82aa17c-2bd1-4dd4-b063-2892a3259be6" x="140.4" y="64.7" transform="matrix(0.8783 -0.4782 0.4782 0.8783 -12.8201 80.5406)" class="st5" width="22.7" height="1.5"/>
	
		<rect id="bd7e3eb5-3d7e-4ea2-8dab-23e6077e8725" x="142.6" y="68.7" transform="matrix(0.8783 -0.4782 0.4782 0.8783 -14.4552 82.0625)" class="st5" width="22.7" height="1.5"/>
	
		<rect id="e4c2d8ec-e50a-4e03-bbe3-57c6894f2519" x="144.8" y="72.7" transform="matrix(0.8783 -0.4782 0.4782 0.8783 -16.1107 83.5835)" class="st5" width="22.7" height="1.5"/>
	<path class="st5" d="M139.8,82.1"/>
	<path class="st4" d="M111.3,54.3c-0.3-0.3-0.4-0.3-0.5-0.3L95.5,64.6c-0.1,0.1-0.1,0.2,0.1,0.5c0.5,0.8,1.1,1.7,1.8,2.7l19.8,28.7
		c1.9,2.7,3.5,4.8,3.6,4.7l15.4-10.6c0.1-0.1-1.3-2.4-3.1-5l-19.8-28.7C112.5,55.9,111.9,55,111.3,54.3z"/>
	<path class="st7" d="M113.4,57c-0.3-0.5-0.7-1-1-1.3c-0.3-0.5-0.6-0.8-0.9-1.1c-0.1-0.1-0.1-0.2-0.2-0.2c-0.3-0.3-0.4-0.3-0.5-0.3
		L95.5,64.6c-0.1,0.1-0.1,0.2,0.1,0.5c0,0.1,0.1,0.2,0.1,0.3c0.2,0.3,0.4,0.7,0.7,1.2c0.5,0.8,1.2,1.9,2,3l18.8,27.3
		c0.8,1.2,1.7,2.4,2.3,3.2c1.1,1.4,1.2,1.4,1.3,1.3l15.4-10.6c0.1-0.1,0.2-0.1-0.7-1.7c-0.6-0.9-1.3-2.1-2.2-3.3l-18.8-27.3
		C114.1,58,113.8,57.5,113.4,57z M98.6,69.5c-0.7-1.1-1.4-2.1-2-3c-0.3-0.5-0.6-0.9-0.7-1.2c-0.1-0.1-0.2-0.3-0.3-0.5l15.3-10.5
		c0.1,0.1,0.3,0.3,0.4,0.4c0.1,0.1,0.2,0.3,0.4,0.5c0.1,0.2,0.3,0.4,0.5,0.6c0.6,0.8,1.3,1.8,2.1,2.9l18.8,27.3
		c1.8,2.6,2.8,4.3,2.9,4.6l-15.3,10.5c-0.3-0.2-1.5-1.8-3.3-4.4L98.6,69.5z"/>
	<path class="st5" d="M108.1,63.1l-2.9,2c-0.3,0.2-0.4,0.6-0.2,0.9l1.7,2.5c0.2,0.3,0.6,0.4,0.9,0.2l2.9-2c0.3-0.2,0.4-0.6,0.2-0.9
		l-1.7-2.5C108.8,63,108.4,62.9,108.1,63.1z"/>
	<path class="st7" d="M115.3,65.9l-10.2,7c-0.1,0.1-0.2,0.3-0.1,0.4c0.1,0.1,0.3,0.2,0.4,0.1l10.2-7c0.1-0.1,0.2-0.3,0.1-0.4
		C115.6,65.8,115.5,65.8,115.3,65.9L115.3,65.9z"/>
	<path class="st7" d="M109.8,71.4l-3.9,2.7c-0.1,0.1-0.2,0.3-0.1,0.4c0.1,0.1,0.3,0.2,0.4,0.1l3.9-2.7c0.1-0.1,0.2-0.3,0.1-0.4
		C110.2,71.3,110,71.3,109.8,71.4z"/>
	<path class="st5" d="M115.6,74l-2.9,2c-0.3,0.2-0.4,0.6-0.2,0.9l1.7,2.5c0.2,0.3,0.6,0.4,0.9,0.2l2.9-2c0.3-0.2,0.4-0.6,0.2-0.9
		l-1.7-2.5C116.3,73.9,115.9,73.8,115.6,74z"/>
	<path class="st7" d="M122.9,76.8l-10.2,7c-0.1,0.1-0.2,0.3-0.1,0.4c0.1,0.1,0.3,0.2,0.4,0.1l10.2-7c0.1-0.1,0.2-0.3,0.1-0.4
		C123.2,76.7,123,76.7,122.9,76.8L122.9,76.8z"/>
	<path class="st7" d="M117.4,82.3l-3.9,2.7c-0.1,0.1-0.2,0.3-0.1,0.4c0.1,0.1,0.3,0.2,0.4,0.1l3.9-2.7c0.1-0.1,0.2-0.3,0.1-0.4
		C117.7,82.3,117.5,82.2,117.4,82.3z"/>
	<path class="st5" d="M123.1,85l-2.9,2c-0.3,0.2-0.4,0.6-0.2,0.9l1.7,2.5c0.2,0.3,0.6,0.4,0.9,0.2l2.9-2c0.3-0.2,0.4-0.6,0.2-0.9
		l-1.7-2.5C123.9,84.8,123.4,84.7,123.1,85z"/>
	<path class="st7" d="M130.4,87.7l-10.2,7c-0.1,0.1-0.2,0.3-0.1,0.4c0.1,0.1,0.3,0.2,0.4,0.1l10.2-7c0.1-0.1,0.2-0.3,0.1-0.4
		C130.7,87.6,130.5,87.6,130.4,87.7L130.4,87.7L130.4,87.7z"/>
	<path class="st7" d="M124.9,93.2l-3.9,2.7c-0.1,0.1-0.2,0.3-0.1,0.4c0.1,0.1,0.3,0.2,0.4,0.1l3.9-2.7c0.1-0.1,0.2-0.3,0.1-0.4
		C125.2,93.2,125,93.2,124.9,93.2L124.9,93.2z"/>
	<path class="st4" d="M157.2,67.1c-0.1-1.5-0.1-2.5-0.3-2.5h-39.3c-0.1,0-0.2,1-0.3,2.5c0,1-0.1,2.4-0.1,3.7v27.4l0.2,0l6.5,0.8
		l6.7,0.9l3.1,0.4l6.6,0.9l5.5,0.7c0,0,0.1,0,0.1,0c0,0,0.1,0,0.1,0l2.1-0.7l2.5-0.8l6.5-2.1l0.1-0.1V70.9
		C157.3,69.5,157.2,68.2,157.2,67.1z"/>
	<path class="st7" d="M157.3,66.5c0-0.4,0-0.7-0.1-1c0-0.3-0.1-0.5-0.1-0.8c-0.1-0.2-0.1-0.2-0.2-0.2h-39.3c-0.1,0-0.1,0-0.2,0.2
		c-0.1,0.3-0.1,0.6-0.1,0.8c0,0.2,0,0.6-0.1,0.9c-0.1,1.2-0.1,2.7-0.1,4.4v27.4l0.1,0l0.2,0V70.9c0-1.5,0-2.7,0.1-3.6
		c0-0.8,0.1-1.6,0.2-2.4h39.1c0.1,0.8,0.2,1.6,0.2,2.4c0,1,0.1,2.2,0.1,3.6v27.4l0.3-0.1V70.9C157.5,69.2,157.4,67.6,157.3,66.5z"/>
	<path class="st5" d="M129.7,73h-5c-0.5,0-1,0.4-1,1l0,0v4.4c0,0.5,0.4,1,1,1l0,0h5c0.5,0,1-0.4,1-1V74
		C130.7,73.4,130.3,73,129.7,73z"/>
	<path class="st7" d="M150.4,74.7h-17.5c-0.2,0-0.4,0.2-0.4,0.4s0.2,0.4,0.4,0.4h17.5c0.2,0,0.4-0.2,0.4-0.4
		C150.8,74.9,150.6,74.7,150.4,74.7z"/>
	<path class="st7" d="M139.6,76.7h-6.6c-0.2,0-0.4,0.2-0.4,0.4s0.2,0.4,0.4,0.4h6.6c0.2,0,0.4-0.2,0.4-0.4S139.8,76.7,139.6,76.7
		L139.6,76.7z"/>
	<path class="st5" d="M129.7,85.9h-5c-0.5,0-1,0.4-1,1v4.4c0,0.5,0.4,1,1,1h5c0.5,0,1-0.4,1-1v-4.4
		C130.7,86.3,130.3,85.9,129.7,85.9z"/>
	<path class="st7" d="M150.4,87.5h-17.5c-0.2,0-0.4,0.2-0.4,0.4c0,0.2,0.2,0.4,0.4,0.4l0,0h17.5c0.2,0,0.4-0.2,0.4-0.4
		C150.8,87.7,150.6,87.5,150.4,87.5z"/>
	<path class="st7" d="M139.6,89.5h-6.6c-0.2,0-0.4,0.2-0.4,0.4c0,0.2,0.2,0.4,0.4,0.4l0,0h6.6c0.2,0,0.4-0.2,0.4-0.4
		C140,89.7,139.8,89.5,139.6,89.5z"/>
	<path class="st5" d="M130.6,99.1c-0.2-0.3-0.5-0.5-0.8-0.5h-5c-0.3,0-0.6,0.1-0.8,0.4l6.7,0.9v-0.3
		C130.7,99.5,130.6,99.3,130.6,99.1z"/>
	<path class="st7" d="M150.4,100.4h-16.7l6.6,0.9h7.8l2.5-0.8C150.5,100.4,150.5,100.4,150.4,100.4z"/>
	<path class="st6" d="M174.9,92.8C174.9,92.8,174.8,92.8,174.9,92.8l-1.5,0.5l-11.7,3.8l-4.1,1.3l-0.1,0.1l-0.3,0.1l-6.5,2.1
		l-2.5,0.8l-2.1,0.7c0,0-0.1,0-0.1,0c0,0-0.1,0-0.1,0l-5.5-0.7l-6.6-0.9l-3.1-0.4l-6.7-0.9l-6.5-0.8l-0.2,0l-0.1,0L98,96l-0.2,0
		c0,0-0.1,0-0.1,0c-0.1-0.1-0.3-0.2-0.2-0.4c0-0.1,0-0.1,0.1-0.2c0,0,0,0,0.1-0.1c0,0,0,0,0.1,0c0.1-0.1,0.2-0.1,0.3-0.1l1,0.1
		l18.4,2.4l0.1,0l0.2,0l9.5,1.2l3.5,0.5l9.3,1.2l5.9,0.8l2.4-0.8l7.6-2.5l1.3-0.4l0.1-0.1l0.1-0.1l4-1.3l11.8-3.9l1.1-0.3l0.2-0.1
		c0.2-0.1,0.4,0,0.5,0.2c0,0,0,0,0,0.1C175.1,92.5,175,92.7,174.9,92.8z"/>
	<path class="st6" d="M134.8,120.1c-0.3,0-0.5,0-0.8-0.1l-29.1-4.6c-2.1-0.3-3.7-1.9-4.1-3.9l-3.2-15.8l0.2,0l48.7,5.9l-7.1,15.5
		C138.5,119,136.8,120.1,134.8,120.1z"/>
	<polygon class="st1" points="84.3,138.4 87.8,137.6 86.6,123.6 81.4,124.7 	"/>
	<path class="st0" d="M82.7,136.9l1.1,8.6v0l0.1,0l2.4-0.5l-0.1-2.5l1.7,2.1l1.6-0.3l0,0l3.2-0.7l0.3-0.1l1-0.2l0.7-0.1
		c0.8-0.2,1.4-1,1.2-1.8c-0.1-0.2-0.1-0.4-0.3-0.6c-0.1-0.1-0.3-0.3-0.4-0.4c0,0-0.1,0-0.1,0l0,0c0,0-0.1,0-0.1-0.1l-0.1,0l-1-0.4
		l0,0l-2.8-1.2l-2.2-1l-0.5-2.4l-0.6,0.2l-3.7,1L82.7,136.9z"/>
	<polygon class="st1" points="59.9,126.9 62.6,129.3 73,119.8 69,116.3 	"/>
	<path class="st0" d="M55.9,132.5l1.9-1.5l-0.7,2.6l5.2,4.4c0.1,0.1,0.3,0.2,0.5,0.3c0.1,0.1,0.3,0.1,0.4,0.1c0.8,0,1.5-0.6,1.6-1.5
		c0-0.1,0-0.3-0.1-0.4l-1.7-6.4l1.6-1.9l-0.5-0.4l-3.1-2.4l-1-0.8l-6.2,6.1L55.9,132.5z"/>
	<polygon class="st1" points="73.8,70.9 90.9,70.2 91.5,52.9 77.1,53.4 	"/>
	<circle class="st1" cx="86.6" cy="25.7" r="6.5"/>
	<path class="st0" d="M81,20l7.5-3.7l0,0c3.1,1.4,5.2,4.4,5.5,7.8l0.2,2.2L91,25.5l-0.3-2.9l-0.5,2.6l-1.5-0.4v-4.4l-1.5,4.4
		l-5.2-1.2L81,20z"/>
	<path class="st0" d="M91.2,66.3c0,0,5.7,9.9,0.2,24.9L83.6,111l-13.5,13.7l-7.3-4.3l13.5-11.4l-6-20.4c-1.4-4.6-1.8-9.5-1.2-14.3
		c0.4-3.6,3.7-6.4,5.9-9.8C82.4,69.3,90.9,68.5,91.2,66.3z"/>
	<polygon class="st0" points="83.6,106 88.7,129.5 81.4,130.9 77.2,111.1 	"/>
	<path class="st2" d="M81.8,34.4l8.4,0.1L93,38l0,0c2.7,0.6,4.7,2.8,5.2,5.5l0.3,1.5c0.5,3.1,0,6.3-1.6,9l0,0l-5.1,4.8l0.2,0.4
		c0.2,0.4,0.1,0.9-0.3,1.2l0,0l0,0c0.1,0.4,0.2,0.8,0.1,1.2L91.5,62c0,0,2.9,0.8-14.9-1.9c-0.8-0.1-1.4-0.7-1.5-1.5l0,0
		c-0.4-0.4-0.5-1-0.2-1.5l0-0.1l-0.2-0.2c-0.4-0.5-0.4-1.2-0.1-1.7l0,0l-0.1-10.2c-0.4-3.2,1.5-6.2,4.5-7.1l0,0L81.8,34.4z"/>
	<path class="st1" d="M105.7,77.9c0-1.5-1.2-2.7-2.8-2.7c-0.2,0-0.3,0-0.5,0.1l-4.8-8.5l-2.3,4.5l4.9,7.3c0.4,1.5,1.9,2.4,3.4,2
		C104.9,80.3,105.8,79.1,105.7,77.9L105.7,77.9z"/>
	<path class="st2" d="M79.1,43.5l-2.7,0.4c0,0-0.8,1.8,1.1,5.2c1.9,3.4,19.8,25.3,19.8,25.3l1.5-5.7L88.4,49.5L79.1,43.5z"/>
	<path class="st8" d="M249.7,145.6H0.3c-0.2,0-0.3-0.1-0.3-0.3c0-0.2,0.1-0.3,0.3-0.3h249.3c0.2,0,0.3,0.1,0.3,0.3
		C250,145.4,249.8,145.6,249.7,145.6z"/>
</g>
</svg>
