<?xml version="1.0" encoding="utf-8"?>
<!-- Generator: Adobe Illustrator 25.2.1, SVG Export Plug-In . SVG Version: 6.00 Build 0)  -->
<svg version="1.1" id="Layer_1" xmlns="http://www.w3.org/2000/svg" xmlns:xlink="http://www.w3.org/1999/xlink" x="0px" y="0px"
	 viewBox="0 0 250 150" style="enable-background:new 0 0 250 150;" xml:space="preserve">
<style type="text/css">
	.st0{fill:#F2F2F2;}
	.st1{fill:#FFFFFF;}
	.st2{fill:#CCCCCC;}
	.st3{fill:#E6E6E6;}
	.st4{fill:#99E1F8;}
	.st5{fill:#3F3D56;}
	.st6{fill:#F4C9AB;}
	.st7{fill:#2F2E41;}
</style>
<g>
	<path class="st0" d="M143.1,84.8l-58.2,15c-4.1,1-8.3-1.4-9.4-5.5L57.9,25.8c-1-4.1,1.4-8.3,5.5-9.4l54.2-13.9l13.9,6.2l17.2,66.7
		C149.7,79.5,147.2,83.7,143.1,84.8z"/>
	<path class="st1" d="M63.9,18.6c-2.9,0.7-4.7,3.7-3.9,6.7l17.6,68.4c0.7,2.9,3.8,4.7,6.7,3.9l58.2-15c2.9-0.7,4.7-3.8,3.9-6.7
		l-16.9-65.7l-12.2-5.5L63.9,18.6z"/>
	<path class="st0" d="M131.3,9.1l-9,2.3c-1.4,0.3-2.8-0.5-3.1-1.8l-1.7-6.7c0-0.1,0-0.2,0.1-0.2c0,0,0.1,0,0.1,0l13.7,6.1
		C131.4,8.8,131.5,8.9,131.3,9.1C131.4,9,131.4,9.1,131.3,9.1z"/>
	<path class="st2" d="M126.6,67.5l-26.5,6.8c-0.7,0.2-1.4-0.2-1.6-0.9c-0.2-0.7,0.2-1.4,0.9-1.6l0,0l26.5-6.8
		c0.7-0.2,1.4,0.2,1.6,0.9C127.7,66.6,127.3,67.3,126.6,67.5z"/>
	<path class="st2" d="M132.8,70.3l-31.6,8.2c-0.7,0.2-1.4-0.2-1.6-0.9c-0.2-0.7,0.2-1.4,0.9-1.6l31.6-8.1c0.7-0.2,1.4,0.2,1.6,0.9
		C133.9,69.5,133.5,70.2,132.8,70.3z"/>
	<ellipse id="a597741b-ffcf-4aba-98b0-6652ef5d57c9" class="st3" cx="89.2" cy="78" rx="4.5" ry="4.5"/>
	<path class="st1" d="M123.7,55.6l-35.2,9.1c-2.1,0.5-4.3-0.7-4.8-2.8l-7.4-28.7c-0.5-2.1,0.7-4.3,2.8-4.8l35.3-9.1
		c2.1-0.5,4.3,0.7,4.8,2.8l7.4,28.7C127.1,52.9,125.9,55.1,123.7,55.6z"/>
	<path class="st3" d="M123.7,55.6l-35.2,9.1c-2.1,0.5-4.3-0.7-4.8-2.8l-7.4-28.7c-0.5-2.1,0.7-4.3,2.8-4.8l35.3-9.1
		c2.1-0.5,4.3,0.7,4.8,2.8l7.4,28.7C127.1,52.9,125.9,55.1,123.7,55.6z M79.3,28.8c-1.9,0.5-3,2.4-2.5,4.3l7.4,28.7
		c0.5,1.9,2.4,3,4.3,2.5l35.2-9.1c1.9-0.5,3-2.4,2.5-4.3l-7.4-28.7c-0.5-1.9-2.4-3-4.3-2.5L79.3,28.8z"/>
	<path id="b056fd3f-f1a0-44f0-b006-deff0bee637d" class="st0" d="M112.6,28.9l-17.8,4.6c-0.3,0.1-0.7-0.1-0.8-0.4
		c-0.1-0.3,0.1-0.7,0.4-0.8h0l18.1-4.7C113.3,28,113.1,28.8,112.6,28.9L112.6,28.9z"/>
	<path id="f1ea6668-a825-428d-96fe-a2c4e1b5a672" class="st0" d="M113.4,32l-17.8,4.6c-0.3,0.1-0.7-0.1-0.8-0.4
		c-0.1-0.3,0.1-0.7,0.4-0.8h0l18.1-4.7C114.1,31.2,113.9,31.9,113.4,32L113.4,32z"/>
	<path id="ee9aa382-a9c9-40d0-8ed3-22ec2dd616d6" class="st3" d="M92.2,39.4l-5.4,1.4c-0.4,0.1-0.7-0.1-0.8-0.5l-1.7-6.4
		c-0.1-0.4,0.1-0.7,0.5-0.8l5.4-1.4c0.4-0.1,0.7,0.1,0.8,0.5l1.7,6.4C92.8,38.9,92.6,39.3,92.2,39.4L92.2,39.4z"/>
	<path id="be954d2b-d8b8-4d26-80a0-a319e99a4b10" class="st0" d="M115,38.4l-27.1,7c-0.3,0.1-0.7-0.1-0.8-0.4
		c-0.1-0.3,0.1-0.7,0.4-0.8h0l27.5-7.1C115.7,37.5,115.5,38.3,115,38.4L115,38.4z"/>
	<path id="baaae9e4-1b4d-40c2-8a9d-f2abb078b489" class="st0" d="M115.8,41.6l-27.1,7c-0.3,0.1-0.7-0.1-0.8-0.4
		c-0.1-0.3,0.1-0.7,0.4-0.8h0l27.4-7.1C116.5,40.7,116.3,41.4,115.8,41.6L115.8,41.6z"/>
	<path id="a91bf4c9-37f6-4391-92ed-1882bd0ce21c" class="st0" d="M116.6,44.7l-27.1,7c-0.3,0.1-0.7-0.1-0.8-0.4
		c-0.1-0.3,0.1-0.7,0.4-0.8h0l27.4-7.1C117.3,43.8,117.1,44.5,116.6,44.7L116.6,44.7z"/>
	<path id="efb98e07-468b-4c85-9a64-ee4cc5493d6f" class="st0" d="M117.4,47.8l-27.1,7c-0.3,0.1-0.7-0.1-0.8-0.4
		c-0.1-0.3,0.1-0.7,0.4-0.8h0l27.4-7.1C118.1,46.9,117.9,47.7,117.4,47.8z"/>
	<path id="aeb1db98-32e5-40b8-ab89-fdad6a3263dc" class="st0" d="M118.2,50.9l-27.1,7c-0.3,0.1-0.7-0.1-0.8-0.4
		c-0.1-0.3,0.1-0.7,0.4-0.8h0l27.4-7.1C118.9,50,118.7,50.8,118.2,50.9z"/>
	<path id="be265de5-288f-49a7-867d-c42e7cdbf4db" class="st1" d="M89.6,79.6c-0.1,0-0.2,0-0.3,0l0,0L88,79.1
		c-0.2-0.1-0.3-0.4-0.3-0.6c0.1-0.2,0.4-0.3,0.6-0.3l0,0l0.8,0.3l1-2.5c0.1-0.2,0.4-0.3,0.6-0.3l0,0l0,0v0v0
		c0.2,0.1,0.3,0.4,0.3,0.6l-1.2,2.9C89.8,79.5,89.7,79.6,89.6,79.6L89.6,79.6z"/>
	<path class="st3" d="M165.5,110.8h-60.2c-4.2,0-7.7-3.5-7.7-7.7V32.5c0-4.2,3.5-7.7,7.7-7.7h56l11.9,9.5v68.9
		C173.2,107.4,169.7,110.8,165.5,110.8z"/>
	<path class="st1" d="M105.3,27c-3,0-5.5,2.4-5.5,5.5v70.6c0,3,2.4,5.5,5.5,5.5h60.2c3,0,5.5-2.4,5.5-5.5V35.4L160.5,27H105.3z"/>
	<path class="st4" d="M153.8,47.6h-27.4c-0.7,0-1.3-0.6-1.3-1.3s0.6-1.3,1.3-1.3h27.4c0.7,0,1.3,0.6,1.3,1.3S154.5,47.6,153.8,47.6
		L153.8,47.6z"/>
	<path class="st4" d="M159,51.9h-32.7c-0.7,0-1.3-0.6-1.3-1.3c0-0.7,0.6-1.3,1.3-1.3H159c0.7,0,1.3,0.6,1.3,1.3
		C160.3,51.3,159.7,51.9,159,51.9z"/>
	<path class="st2" d="M153.8,64.4h-27.4c-0.7,0-1.3,0.6-1.3,1.3s0.6,1.3,1.3,1.3l0,0h27.4c0.7,0,1.3-0.6,1.3-1.3
		S154.5,64.4,153.8,64.4z"/>
	<path class="st2" d="M159,68.7h-32.7c-0.7,0-1.3,0.6-1.3,1.3c0,0.7,0.6,1.3,1.3,1.3l0,0H159c0.7,0,1.3-0.6,1.3-1.3
		C160.3,69.3,159.7,68.7,159,68.7z"/>
	<path class="st2" d="M153.8,86.3h-27.4c-0.7,0-1.3-0.6-1.3-1.3s0.6-1.3,1.3-1.3h27.4c0.7,0,1.3,0.6,1.3,1.3
		C155,85.8,154.5,86.3,153.8,86.3L153.8,86.3z"/>
	<path class="st2" d="M159,90.7h-32.7c-0.7,0-1.3-0.6-1.3-1.3s0.6-1.3,1.3-1.3H159c0.7,0,1.3,0.6,1.3,1.3S159.7,90.7,159,90.7z"/>
	<circle id="abdb8e2f-a218-463c-85f4-c869fef49971" class="st4" cx="115" cy="48.5" r="4.5"/>
	<path id="ba7dbbd6-0052-44b1-a552-47a8298b8d3e" class="st1" d="M114.5,50.2c-0.1,0-0.2,0-0.3-0.1l0,0l-1.1-0.8
		c-0.2-0.2-0.3-0.5-0.1-0.7c0.2-0.2,0.5-0.3,0.7-0.1l0,0l0.7,0.5l1.6-2.1c0.2-0.2,0.5-0.3,0.7-0.1l0,0l0,0v0v0
		c0.2,0.2,0.3,0.5,0.1,0.7l-1.9,2.5C114.8,50.1,114.7,50.2,114.5,50.2L114.5,50.2z"/>
	<path class="st2" d="M119.9,67.8c0,2.5-2,4.5-4.5,4.5l0,0c0,0-0.1,0-0.1,0c-2.5-0.1-4.5-2.1-4.4-4.6s2.1-4.5,4.6-4.4
		C118,63.4,119.9,65.4,119.9,67.8z"/>
	<circle id="e4a71040-498e-4958-ad41-c2d79154b8f7" class="st2" cx="115" cy="87.2" r="4.5"/>
	<path class="st2" d="M172.9,34.6h-9.3c-1.4,0-2.6-1.1-2.6-2.6l0,0v-6.9c0-0.1,0.1-0.2,0.2-0.2c0,0,0.1,0,0.1,0l11.7,9.3
		c0.1,0,0.1,0.2,0,0.2C173,34.6,173,34.6,172.9,34.6z"/>
	<path class="st4" d="M119.9,67.8c0,2.5-2,4.5-4.5,4.5l0,0c0,0-0.1,0-0.1,0c-1.2-3-0.9-6.3,0.9-9C118.4,63.7,119.9,65.6,119.9,67.8z
		"/>
	<path class="st4" d="M125.1,65.7c0-0.7,0.6-1.3,1.3-1.3h6.8c0.4,0.8,0.7,1.7,0.8,2.6h-7.7C125.7,66.9,125.1,66.4,125.1,65.7z"/>
	<path class="st4" d="M134.2,68.7c0,0.9-0.1,1.7-0.3,2.6h-7.5c-0.7,0-1.3-0.6-1.3-1.3c0-0.7,0.6-1.3,1.3-1.3l0,0H134.2z"/>
	<path class="st5" d="M151.1,84.5c-0.4,0.7-1.3,0.9-1.9,0.5l-16.3-10c-0.7-0.4-0.9-1.3-0.5-1.9c0.4-0.7,1.3-0.9,1.9-0.5l16.3,10
		C151.3,83,151.5,83.8,151.1,84.5z"/>
	<path class="st5" d="M134.7,74.5c-3.2,5.3-10.1,6.9-15.4,3.7c-5.3-3.2-6.9-10.1-3.7-15.4c3.2-5.3,10.1-6.9,15.4-3.7l0,0
		C136.3,62.4,138,69.3,134.7,74.5z M118,64.4c-2.4,4-1.2,9.1,2.8,11.5c4,2.4,9.1,1.2,11.5-2.8s1.2-9.1-2.8-11.5
		C125.6,59.2,120.5,60.4,118,64.4z"/>
	<circle class="st6" cx="170.6" cy="64.8" r="5.7"/>
	<path class="st6" d="M170.2,96.9c-0.4-1.4,0.3-2.8,1.7-3.2c0.1,0,0.2,0,0.3-0.1c0.1,0,0.2,0,0.3,0l6-9.7l-5.5-5.3
		c-0.9-0.8-0.9-2.2-0.1-3.1c0.8-0.9,2.2-0.9,3.1-0.1l0,0l7.6,7.5l0,0c0.5,0.7,0.4,1.7-0.1,2.4l-8.4,10c0,0.1,0,0.2,0.1,0.2
		c0.3,1.4-0.6,2.8-2,3c-0.1,0-0.2,0-0.3,0c-0.1,0-0.1,0-0.2,0C171.6,98.7,170.6,98,170.2,96.9z"/>
	<polygon class="st6" points="161.2,144.5 158.3,144.5 157,133.5 161.2,133.5 	"/>
	<path class="st7" d="M161.9,147.3h-9.2v-0.1c0-2,1.6-3.6,3.6-3.6l0,0l0,0h5.6V147.3z"/>
	<polygon class="st6" points="189.6,140.5 187.1,142 180.3,133.2 183.9,131.1 	"/>
	<path class="st7" d="M191.6,142.6l-7.9,4.7l-0.1-0.1c-1-1.7-0.5-3.9,1.2-4.9l0,0l0,0l4.8-2.9L191.6,142.6z"/>
	<path class="st7" d="M156.6,139.6c-1.9-22.5-3.1-43.5,3.9-52l0-0.1l11.8,4.7l0,0c0,0.1,4,8.7,3.1,14.5l2.9,13.4l9.5,15.9
		c0.3,0.5,0.1,1.1-0.4,1.4c0,0-0.1,0-0.1,0.1l-4.1,1.8c-0.5,0.2-1,0-1.3-0.4l-10.3-16.8l-5.8-12.9c-0.1-0.2-0.3-0.3-0.5-0.2
		c-0.1,0-0.2,0.2-0.2,0.3l-3.2,30.3c0,0.5-0.5,0.9-1,0.9h-3.2C157.1,140.6,156.6,140.2,156.6,139.6z"/>
	<path class="st4" d="M160.6,87.8L160.6,87.8L160.6,87.8c-0.5-3.2,0-6.6,1.5-10.3c1.5-3.7,5.5-5.8,9.4-4.8l0,0c2.2,0.5,4.1,2,5.2,4
		c1.1,2,1.3,4.3,0.6,6.4c-1.8,5.4-4.2,10.5-4.3,10.5l0,0.1L160.6,87.8z"/>
	<path class="st6" d="M147.7,80.1c1.1-0.9,2.7-0.7,3.6,0.4c0.1,0.1,0.1,0.2,0.2,0.2c0.1,0.1,0.1,0.2,0.2,0.3l11.2,2.3l3-7
		c0.5-1.1,1.8-1.6,2.9-1.2c1.1,0.5,1.6,1.8,1.2,2.9c0,0,0,0,0,0l-4.4,9.7l0,0c-0.5,0.7-1.4,1-2.3,0.7l-12.4-4.4
		c-0.1,0-0.1,0.1-0.2,0.1c-1.2,0.7-2.8,0.4-3.5-0.8c0-0.1-0.1-0.2-0.1-0.3c0-0.1-0.1-0.1-0.1-0.2C146.5,82,146.9,80.8,147.7,80.1z"
		/>
	<path class="st7" d="M191.3,70.9c-0.6-1-1.4-1.9-2.4-2.2c-1.4-0.5-2.9,0-4.3,0.4c-1.1,0.3-2.2,0.4-3.3,0.2
		c-1.1-0.2-2.1-0.9-2.7-1.8c-0.7-1.5-0.1-3.2-0.2-4.9c-0.1-3.3-2.8-5.8-6.1-5.8c-0.5,0-0.9,0.1-1.4,0.2c-1.4-0.4-2.6-0.4-3.4,0.6
		c-2.2,0-4,1.8-4,4h3.8c-0.2,1,0,2,0.6,2.8c0.7,1,1.8,1.7,2.1,2.9c0.2,1.1-0.6,2.2-1.4,3c-0.8,0.8-1.7,1.6-2,2.8
		c-0.2,0.9,0,1.7,0.5,2.5c0.5,0.7,1,1.4,1.7,1.9c3,2.6,6.6,4.4,10.5,5.4c2.7,0.7,5.7,0.8,8.3-0.4c4.1-2,5.8-6.8,3.9-10.9
		C191.5,71.3,191.4,71.1,191.3,70.9z"/>
	<path class="st2" d="M192.2,147.5h-44.3c-0.1,0-0.2-0.1-0.2-0.2s0.1-0.2,0.2-0.2h44.3c0.1,0,0.2,0.1,0.2,0.2
		S192.3,147.5,192.2,147.5z"/>
</g>
</svg>
