<?xml version="1.0" encoding="utf-8"?>
<!-- Generator: Adobe Illustrator 25.2.1, SVG Export Plug-In . SVG Version: 6.00 Build 0)  -->
<svg version="1.1" id="Layer_1" xmlns="http://www.w3.org/2000/svg" xmlns:xlink="http://www.w3.org/1999/xlink" x="0px" y="0px"
	 viewBox="0 0 250 150" style="enable-background:new 0 0 250 150;" xml:space="preserve">
<style type="text/css">
	.st0{fill:#F2F2F2;}
	.st1{fill:#FFFFFF;}
	.st2{fill:#CCCCCC;}
	.st3{fill:#99E1F8;}
	.st4{fill:#3F3D56;}
	.st5{fill:#F4C9AB;}
	.st6{fill:#2F2E41;}
</style>
<g>
	<path class="st0" d="M247,114.1c-1.3,8.2-5.3,16.1-11.8,21.1c-6.5,5-14.7,6.7-22.7,8.2c-9.6,1.8-19.2,3.5-28.8,5
		c-1.4,0.2-2.7,0.4-4.1,0.6h-56.1c-0.1-0.1-0.1-0.2-0.2-0.2c-0.1-0.1-0.2-0.3-0.3-0.4c-0.1-0.1-0.1-0.2-0.2-0.2H158
		c2.1,0,3.8-1.7,3.8-3.8v-47c0.2-0.7,0.4-1.4,0.6-2.1c0.9-3.4,1.5-6.8,1.7-10.3c0.2-2.4,0.3-4.9,0.2-7.3c-0.1-6.7-1-13.4-1.9-20
		c-0.1-0.5-0.1-1-0.2-1.5c-0.7-4.6-1.3-9.6,1-13.7c2.6-4.6,8.5-6.6,13.9-6.1c9.6,0.9,17.6,8.2,21.8,16.8c4.2,8.6,5.1,18.4,5.5,28
		c0.2,5.1,0.2,10.4-0.5,15.5c2.4-5.5,4.8-11,7.2-16.4c1.3-2.9,2.6-5.9,5-8.1c5-4.5,13.1-3.6,18.4,0.5c5.3,4.1,8.2,10.5,10.1,16.9
		C247.1,97.5,248.3,105.9,247,114.1z"/>
	<path class="st1" d="M225.8,69.8c3.5,6.1,5,13.2,5,20.2c-0.1,7-1.6,13.8-4.5,20.1c-2.6,5.7-6.3,10.9-10.9,15.2
		c-4.5,4.4-9.8,7.8-15.6,10c-6.7,2.5-14.1,3.2-21.2,2c-1-0.2-2-0.4-2.9-0.6c-0.6-0.2-0.9,0.8-0.3,0.9c7.4,1.8,15.2,1.6,22.5-0.6
		c6.1-2,11.7-5.1,16.5-9.4c4.9-4.2,8.8-9.3,11.8-15c3.2-6.2,5.1-13.1,5.5-20.1c0.4-7.1-0.8-14.4-3.9-20.8c-0.4-0.8-0.8-1.5-1.2-2.3
		c-0.1-0.2-0.4-0.3-0.7-0.2C225.8,69.3,225.7,69.6,225.8,69.8L225.8,69.8z"/>
	<path class="st1" d="M175.6,36.3c3.8,7.1,6.8,14.6,8.9,22.4c4.2,15.6,4.8,31.9,1.8,47.8c-1.5,7.9-3.9,15.6-7.2,23
		c-3.3,7.3-8,15-16.1,17.5c-0.9,0.3-1.9,0.5-2.8,0.6c-0.6,0.1-0.3,1,0.3,0.9c8.4-1.1,14.2-8.1,17.8-15.2c3.8-7.3,6.5-15.3,8.2-23.3
		c3.5-16,3.4-32.6-0.4-48.6c-1.9-7.9-4.7-15.7-8.4-23c-0.5-0.9-0.9-1.8-1.4-2.7C176.2,35.3,175.4,35.7,175.6,36.3z"/>
	<path class="st2" d="M136.1,34.9H79.4c-2.4,0-4.3,2-4.4,4.4v28.4h8.7c1.3,0,2.5,0.7,3.2,1.8l3,4.8l2.9,4.6l0.5,0.9l3.3,5.3l0,0.1
		h43.6V39.2C140.4,36.8,138.5,34.9,136.1,34.9z"/>
	<path class="st1" d="M113.6,43.6H85.6c-1.5,0-2.8,1.3-2.8,2.8c0,1.5,1.3,2.8,2.8,2.8h28.1c1.5,0,2.8-1.3,2.8-2.8
		C116.4,44.9,115.2,43.6,113.6,43.6z"/>
	<path class="st1" d="M129.2,57.3H85.8c-1.7,0-3.1,1.4-3.1,3.1c0,1.7,1.4,3.1,3.1,3.1h43.4c1.7,0,3.1-1.4,3.1-3.1
		C132.3,58.7,130.9,57.3,129.2,57.3z"/>
	<path class="st1" d="M132,69.8c-0.5-1.1-1.6-1.8-2.8-1.8H85.8c-0.1,0-0.1,0-0.2,0c0.6,0.3,1,0.8,1.4,1.3l3,4.8h39.2
		c1.7,0,3.1-1.4,3.1-3.1C132.3,70.7,132.2,70.2,132,69.8z"/>
	<path class="st1" d="M132.2,81.4c-0.2-1.5-1.5-2.6-3-2.6H92.9l0.5,0.9l3.3,5.3h32.4c0.6,0,1.3-0.2,1.8-0.6c0.8-0.6,1.3-1.5,1.3-2.5
		C132.3,81.7,132.3,81.6,132.2,81.4z"/>
	<path class="st3" d="M166.8,59.4l-4.4-1.7l-22-8.6l-26.3-10.3c-2.2-0.9-4.7,0.3-5.6,2.5l-0.9,2.4l-2.2,5.6l-3.2,8.2l-2.4,6.1
		L98,68.1l-2.4,6.1l-1.8,4.6l-0.1,0.1l-0.3,0.7l3.3,5.3l0,0.1H158c1.1,0,2.2,0.5,2.9,1.4l0.3-0.7l3.2-8.1l5-12.6
		C170.2,62.7,169.1,60.2,166.8,59.4z"/>
	<path class="st1" d="M142.8,59.3l-2.4-0.9L116.6,49c-1.5-0.6-3.1,0.2-3.6,1.6c-0.6,1.5,0.2,3.1,1.6,3.6l7.9,3.1l9.7,3.8l8.3,3.2
		l0.3,0.1c1.5,0.6,3.1-0.2,3.6-1.6C144.9,61.4,144.2,59.8,142.8,59.3z"/>
	<path class="st1" d="M152.3,77.7l-11.9-4.6l-8.5-3.3l-4.5-1.8l-11.8-4.6l-3.8-1.5c-1.5-0.6-3.2,0.1-3.8,1.5c0,0.1-0.1,0.2-0.1,0.3
		c-0.6,1.6,0.2,3.3,1.7,4l0,0l1,0.4l15.7,6.1l14.1,5.5l9.6,3.8c0.3,0.1,0.7,0.2,1.1,0.2c1.7,0,3.1-1.4,3.1-3.1
		C154.2,79.3,153.4,78.2,152.3,77.7L152.3,77.7z"/>
	<path class="st1" d="M140.4,84.6l-0.8-0.3l-7.4-2.9l-6.8-2.6l-11.8-4.6L108,72c-1.6-0.6-3.3,0.2-4,1.7s0.2,3.3,1.7,4l0,0l2.8,1.1
		l14.2,5.5l1.5,0.6l0.2,0.1h16.8L140.4,84.6z"/>
	<path class="st1" d="M111.7,84.9l-1.5-0.6l-6.1-2.4c-1.6-0.6-3.3,0.2-4,1.7c-0.1,0.2-0.1,0.4-0.2,0.7c0,0.2,0,0.4,0,0.6
		c0,0,0,0,0,0.1h11.9L111.7,84.9z"/>
	<path class="st4" d="M124.3,84.9l-1.5-0.6H99.9c0,0.2,0,0.4,0,0.6h-3.1l0,0.1h27.6L124.3,84.9z M124.3,84.9H96.8l0,0.1h27.6
		L124.3,84.9z M124.3,84.9H96.8l0,0.1h27.6L124.3,84.9z M124.4,85l-0.2-0.1H96.8l0,0.1H124.4z M69.3,148.1c-2.1,0-3.8-1.7-3.8-3.8
		v-73c0-2.1,1.7-3.8,3.8-3.8h5.9V67h-5.9c-2.4,0-4.4,2-4.4,4.4v73c0,1.7,1,3.3,2.6,4H123c-0.1-0.1-0.1-0.2-0.2-0.2H69.3z
		 M161.2,85.7c-0.8-0.9-2-1.4-3.2-1.4H97.2l-3.4-5.4l-0.1-0.1l-2.9-4.6L87.5,69c-0.8-1.3-2.2-2-3.7-2H69.2c-2.4,0-4.4,2-4.4,4.4v73
		c0,1.7,1,3.3,2.6,4c0.6,0.3,1.2,0.4,1.8,0.4H158c0.6,0,1.3-0.1,1.8-0.4c1.6-0.7,2.6-2.3,2.6-4V88.7C162.4,87.6,162,86.5,161.2,85.7
		L161.2,85.7z M161.8,144.3c0,2.1-1.7,3.8-3.8,3.8H69.3c-2.1,0-3.8-1.7-3.8-3.8v-73c0-2.1,1.7-3.8,3.8-3.8h14.6
		c1.3,0,2.5,0.7,3.2,1.8l3,4.8l2.9,4.6l0.5,0.9l3.3,5.3l0,0.1H158c2.1,0,3.8,1.7,3.8,3.8L161.8,144.3L161.8,144.3z M124.3,84.9H96.8
		l0,0.1h27.6L124.3,84.9z M124.3,84.9H96.8l0,0.1h27.6L124.3,84.9z M124.3,84.9H96.8l0,0.1h27.6L124.3,84.9z M124.3,84.9l-1.5-0.6
		H97.2l-3.4-5.4l-0.3,0.7l3.3,5.3l0,0.1h27.6L124.3,84.9z"/>
	<polygon class="st5" points="52,111.1 50.2,114.8 34.8,109.7 37.4,104.1 	"/>
	<path class="st6" d="M47.7,117.4l3.7-7.6l0,0l4.6,2.2l0,0l-5.7,11.9l0,0l-0.3-0.2C47.5,122.5,46.5,119.7,47.7,117.4z"/>
	<polygon class="st5" points="55.6,144.8 51.4,144.6 51.2,128.3 56.2,128.6 	"/>
	<path class="st6" d="M48.1,143.3l8.5,0.3l0,0l-0.2,5.1l0,0l-13.1-0.4l0,0v-0.4C43.3,145.3,45.5,143.2,48.1,143.3z"/>
	<path class="st6" d="M62.3,76.6c0,0-12.8-3.2-18.6,1.5l-3.2,9.4l-13,18.4l18.8,11.3l3.4-8.5l-8.2-4.1l9.9-8.5l-1.7,45.1l6.5,1
		C56.2,142.2,70.5,86.5,62.3,76.6z"/>
	<path class="st3" d="M42.9,79.6l0.2-0.3c1.6-2.9,1.4-7.7,0.9-11.2c-0.4-2.9-0.4-8-0.3-11.9c0-2.6,1.9-4.9,4.5-5.4
		c3.9-0.8,8.7-1,11.2-1V50v-0.2c1.4,0,2.6,1.1,2.6,2.5c0.1,4.1,0.1,11.5-1,15.5c-1.5,5.9,0.9,10,0.9,10l0.2,0.3L42.9,79.6z"/>
	<path class="st5" d="M36.3,95.9c1.6-0.8,2.2-2.6,1.5-4.2c-0.1-0.2-0.2-0.3-0.3-0.5l7.2-31.2h-5.5l-6.4,30.6
		c-1.4,1.1-1.5,3.1-0.4,4.5C33.4,96.2,35,96.6,36.3,95.9z"/>
	<path class="st5" d="M80.3,65.3l-12-11.4L65,58.4l8.1,7.2l-10.7,8.5c-0.1,0-0.2,0-0.2,0c-1.9,0-3.4,1.5-3.4,3.4s1.5,3.4,3.4,3.4
		c1.7,0,3.2-1.3,3.4-3l0,0L80.3,65.3z"/>
	<path class="st3" d="M47.3,51.2c0,0-7.5-1.2-8.2,4.6s-1,5.8-1,5.8s5.5-1,6.8,0.3C46.4,63.3,47.3,51.2,47.3,51.2z"/>
	<path class="st3" d="M58.6,50.3c0,0,6.1-1,8.9,1.7c2.7,2.7,4.1,3.4,4.1,3.4s-6.1,3.4-3.8,6.5c0,0-6.5-3.1-7.5-2
		C59.3,60.9,58.6,50.3,58.6,50.3z"/>
	<path class="st6" d="M53.2,30.5c-1.9-1.5-2.5-4.5-1.3-6.7s3.7-3.5,6.1-3.4s4.8,1.5,6.2,3.5c2,2.8,2.4,6.8,5.1,9c2.4,2,5.9,2,9,1.8
		c1.1-0.1,2.1-0.1,3.1-0.6c0.9-0.5,1.7-1.5,1.6-2.5c0.8,1.3,0.3,3-0.7,4c-1.1,1-2.6,1.5-4,1.6c-5.3,0.6-10.4-1.7-13.6-6
		c-1.1-1.5-1.9-3.3-3.4-4.4c-1.5-1.1-4-1.2-4.9,0.4c-0.4,0.8-0.4,1.8-0.8,2.6s-1.8,1.3-2.2,0.4"/>
	<circle class="st6" cx="52.9" cy="37.5" r="9.5"/>
	<circle class="st5" cx="52.9" cy="40" r="7.8"/>
	<path class="st6" d="M45.8,34.3c1,0.2,0.7,2,1.5,2.7c0.8,0.6,1.8,0,2.8-0.3c1.2-0.3,2.4,0.1,3.5,0.7c1.1,0.5,2.2,1.2,3.4,1.5
		c1.2,0.3,2.6,0,3.3-1.1c0.6-1,0.4-2.3-0.1-3.4c-1.9-3.9-6.5-5.5-10.4-3.7c-1.5,0.7-2.8,2-3.6,3.5"/>
	<path class="st4" d="M228.3,148.7c0,0.2-0.1,0.3-0.3,0.3H2.8c-0.2,0-0.3-0.1-0.3-0.3s0.1-0.3,0.3-0.3h225.1
		C228.1,148.3,228.3,148.5,228.3,148.7z"/>
</g>
</svg>
