<?xml version="1.0" encoding="utf-8"?>
<!-- Generator: Adobe Illustrator 23.0.3, SVG Export Plug-In . SVG Version: 6.00 Build 0)  -->
<svg version="1.1" id="Layer_1" xmlns="http://www.w3.org/2000/svg" xmlns:xlink="http://www.w3.org/1999/xlink" x="0px" y="0px" viewBox="0 0 815 210" style="enable-background:new 0 0 815 210;" xml:space="preserve">
	<style type="text/css">
	.st0{fill:#fff;}
</style>
	<g>
		<path class="st0" d="M59.3,54.83c0.55-0.12,1.1-0.34,1.65-0.34c8.04-0.02,16.09,0.01,24.13-0.03c0.92,0,1.39,0.21,1.8,1.08
		c12.19,25.64,24.41,51.26,36.63,76.88c0.2,0.42,0.45,0.82,0.75,1.34c0.25-0.43,0.46-0.72,0.61-1.05
		c10.82-22.83,21.65-45.66,32.44-68.51c1.33-2.82,2.48-5.72,3.62-8.62c0.35-0.9,0.81-1.13,1.75-1.12c8.2,0.04,16.41,0.05,24.61-0.02
		c1.37-0.01,1.91,0.33,1.88,1.76c-0.05,2.6,0.01,2.56-2.62,2.7c-2.32,0.12-4.65,0.27-6.95,0.58c-2.24,0.3-3.68,1.64-3.85,3.97
		c-0.21,2.9-0.41,5.81-0.42,8.71c-0.05,21.71-0.07,43.41-0.05,65.12c0,2.59,0.27,5.18,0.53,7.76c0.26,2.61,1.51,3.89,4.13,4.2
		c2.41,0.28,4.85,0.42,7.28,0.57c2.01,0.13,2.01,0.17,1.94,2.98c-0.04,1.73-1.16,1.43-2.21,1.39c-6.35-0.19-12.7-0.53-19.04-0.54
		c-5.82,0-11.64,0.33-17.46,0.57c-1.25,0.05-2.01-0.09-2-1.64c0.03-2.6,0-2.65,1.85-2.76c2.32-0.15,4.65-0.27,6.96-0.54
		c3.1-0.36,4.37-1.72,4.67-4.81c0.13-1.37,0.26-2.75,0.26-4.12c0.11-23.29,0.21-46.59,0.3-69.88c0-0.3-0.04-0.6-0.08-1.2
		c-0.31,0.39-0.5,0.54-0.59,0.74c-12.61,26.96-26.11,53.5-37.68,80.93c-0.43,1.02-0.87,2.04-1.26,3.08
		c-0.33,0.85-0.56,1.57-1.8,1.57c-1.26,0.01-1.68-0.55-2.16-1.56c-11.94-25.28-23.92-50.55-35.9-75.82
		c-1.03-2.17-2.09-4.33-3.4-6.42c-0.03,0.45-0.08,0.9-0.07,1.35c0.01,19.48,0,38.97,0.07,58.45c0.02,4.33,0.27,8.67,0.57,13
		c0.2,2.93,1.67,4.34,4.64,4.63c2.31,0.22,4.65,0.29,6.97,0.4c1.79,0.08,1.89,0.31,1.78,3.16c-0.06,1.45-0.92,1.4-1.95,1.32
		c-10-0.74-20-0.52-29.99-0.02c-0.78,0.04-1.56-0.07-2.34-0.12c0-1.27,0-2.54,0-3.81c0.64-0.18,1.28-0.46,1.93-0.51
		c2.27-0.18,4.55-0.2,6.81-0.41c2.93-0.28,4.33-1.71,4.69-4.65c0.12-1,0.25-2,0.25-3c0.1-20.33,0.23-40.66,0.25-60.99
		c0.01-5.24-0.26-10.48-0.52-15.71c-0.2-4.08-1.56-5.35-5.69-5.66c-2.57-0.19-5.15-0.37-7.72-0.56C59.3,57.37,59.3,56.1,59.3,54.83z
		" />
		<path class="st0" d="M684.69,77.56c-0.31,0.65-0.55,1.1-0.74,1.57c-10.03,24.96-20.16,49.88-28.86,75.36
		c-0.36,1.05-0.84,1.45-1.91,1.32c-0.68-0.08-1.37-0.02-2.06-0.02c-3.56,0-3.5-0.01-4.31-3.55c-6.44-28.24-12.83-56.49-19.4-84.69
		c-1.76-7.56-2.12-6.94-9.16-8.06c-1.76-0.28-2.89-2.56-1.81-3.94c0.24-0.31,0.94-0.39,1.42-0.38c3.07,0.08,6.14,0.33,9.2,0.31
		c7.67-0.05,15.35-0.22,23.02-0.3c0.65-0.01,1.81,0.25,1.88,0.58c0.22,0.99,0.09,2.08-0.07,3.11c-0.03,0.2-0.81,0.36-1.26,0.4
		c-2.32,0.2-4.65,0.32-6.96,0.54c-2.56,0.24-3.36,1.18-2.93,3.8c0.98,6,1.91,12.02,3.21,17.95c3.65,16.68,7.48,33.31,11.24,49.97
		c0.1,0.44,0.24,0.86,0.49,1.75c0.44-1.04,0.71-1.65,0.96-2.26c9.96-25.16,20.49-50.1,29.32-75.7c0.31-0.9,0.77-1.2,1.71-1.2
		c3.17-0.01,3.09-0.02,4.15,3.03c8.83,25.24,17.68,50.47,26.53,75.71c0.11,0.32,0.3,0.61,0.58,1.17c0.24-0.63,0.41-0.99,0.51-1.36
		c5.51-20.02,11.03-40.04,16.5-60.08c0.78-2.85,1.35-5.76,1.94-8.66c0.58-2.86-0.12-3.86-2.97-4.14c-2.47-0.25-4.96-0.34-7.44-0.49
		c-1.85-0.11-1.83-0.19-1.87-2.61c-0.03-1.52,0.79-1.55,1.92-1.53c6.4,0.13,12.8,0.26,19.2,0.3c2.48,0.02,4.97-0.16,7.46-0.31
		c1.11-0.06,1.64,0.39,1.46,1.47c-0.16,0.98,0.74,2.54-1.3,2.61c-0.16,0-0.32,0.02-0.48,0.02c-4.28-0.05-6.84,1.97-8.08,6.12
		c-3.82,12.7-8.01,25.29-11.66,38.05c-4.77,16.72-9.19,33.54-13.66,50.34c-0.44,1.64-1.04,2.3-2.74,2.09
		c-1.61-0.2-3.67,0.43-4.76-0.37c-1.09-0.8-1.22-2.91-1.77-4.45c-8.65-24.07-17.3-48.14-25.96-72.21
		C685.1,78.46,684.94,78.13,684.69,77.56z" />
		<path class="st0" d="M611.19,101.95c-0.23,10.85-2.53,21.12-8.27,30.43c-8.31,13.46-20.72,20.85-35.99,23.69
		c-9.48,1.76-18.97,1.51-28.29-1.24c-13.83-4.08-23.56-12.86-29.03-26.13c-5.31-12.88-6.23-26.2-2.46-39.65
		c4.33-15.43,14.37-26.09,29.12-31.79c16.06-6.21,32.46-5.92,48.26,0.94c15.35,6.67,23.83,18.93,25.96,35.53
		C610.85,96.46,610.97,99.21,611.19,101.95z M519.38,102c0.17,8.4,1.87,17.73,5.99,26.47c4.76,10.08,11.97,17.62,22.96,20.92
		c4.56,1.37,9.26,1.75,13.98,1.41c13.48-0.98,23.9-6.86,29.18-19.7c7.23-17.59,6.64-35.22-1.35-52.45
		c-4.13-8.91-11.25-14.63-20.62-17.6c-6.9-2.19-13.93-2.65-21.01-1.43c-12.46,2.15-21.17,9.06-25.78,20.94
		C520.21,87.05,519.54,93.87,519.38,102z" />
		<path class="st0" d="M393.45,116.1c3.27-0.1,8.46-0.29,13.64-0.39c0.63-0.01,1.81,0.45,1.8,0.66c-0.03,0.98-0.2,2.06-0.7,2.87
		c-0.36,0.6-1.26,0.94-1.99,1.24c-2.01,0.85-2.7,2.39-2.85,4.48c-0.52,7.36-0.58,14.7,0.21,22.04c0.27,2.46,0.28,2.46-2.04,3.31
		c-13.43,4.93-27.3,7.26-41.57,6.59c-13.4-0.63-25.74-4.43-35.92-13.61c-8.69-7.83-13.57-17.7-14.99-29.29
		c-1.26-10.26-0.49-20.33,3.68-29.88c5.92-13.58,16.56-22.06,30.19-27.09c7.57-2.8,15.48-3.89,23.51-4.03
		c12.17-0.21,24.05,1.42,35.45,5.93c2.26,0.89,2.18,0.88,1.8,3.34c-0.8,5.28-1.55,10.57-2.25,15.86c-0.32,2.38-1.48,3.26-3.7,2.4
		c-0.44-0.17-0.81-1.05-0.86-1.62c-0.21-2.69-0.38-5.39-0.39-8.09c-0.01-2.26-0.98-3.8-2.93-4.85c-9.81-5.29-20.26-7.51-31.37-6.7
		c-5.21,0.38-10.25,1.47-15.07,3.49c-9.02,3.79-15.65,10.1-19.3,19.17c-6.89,17.1-5.8,33.83,3.76,49.62
		c6.84,11.3,17.34,17.39,30.43,18.88c8.36,0.95,16.59,0.15,24.58-2.58c3.68-1.26,3.8-1.39,3.86-5.27c0.08-5.77,0.09-11.54-0.01-17.3
		c-0.06-3.3-1.13-4.46-4.45-4.82c-3.36-0.36-6.75-0.48-10.13-0.65c-1.96-0.09-1.94-0.12-1.99-2.64c-0.04-1.71,0.91-1.7,2.15-1.65
		C381.16,115.71,386.34,115.87,393.45,116.1z" />
		<path class="st0" d="M222.91,157.02c-8.63,0.01-16.49-1.33-24.02-4.5c-1.24-0.52-1.76-1.18-1.67-2.61
		c0.39-6.13,0.67-12.26,0.93-18.39c0.05-1.12,0.21-1.77,1.57-1.76c2.78,0.02,2.78-0.05,2.91,1.69c0.18,2.37,0.45,4.75,0.5,7.12
		c0.06,2.92,1.42,4.99,3.72,6.63c3.25,2.32,6.93,3.61,10.78,4.42c7.62,1.61,15.15,1.54,22.37-1.78c9.79-4.5,14.82-15.72,11.74-26.04
		c-1.68-5.64-5.62-9.08-11.12-10.51c-5.21-1.35-10.57-2.08-15.83-3.24c-4.12-0.91-8.29-1.75-12.25-3.16
		c-12.21-4.34-14.98-15.65-14.55-24.06c0.78-15.35,12.69-26.33,28.61-27.64c10.39-0.86,20.32,0.93,29.88,5.05
		c1.51,0.65,1.74,1.47,1.54,3.06c-0.65,5.14-1.01,10.31-1.55,15.46c-0.07,0.63-0.48,1.7-0.83,1.74c-1.22,0.14-2.48-0.04-3.71-0.23
		c-0.16-0.03-0.26-0.85-0.28-1.31c-0.12-2.8-0.07-5.62-0.38-8.4c-0.13-1.14-0.75-2.52-1.61-3.23c-8.58-7.07-20.72-8.52-30.22-3.56
		c-5.57,2.91-8.08,8-9.26,13.89c-0.6,3-0.52,6.02,0.44,8.95c1.87,5.74,6.02,9,11.76,10.16c6.16,1.25,12.4,2.11,18.58,3.28
		c2.95,0.56,5.9,1.27,8.75,2.21c8.82,2.88,14.36,10.49,14.81,19.75c0.61,12.5-4.67,21.97-14.7,29.03
		C241.61,154.82,232.37,157.17,222.91,157.02z" />
		<path class="st0" d="M459.52,154.42c-7.94,0-15.89-0.04-23.83,0.02c-3.33,0.02-6.66,0.27-10,0.39c-0.72,0.03-1.76,0.59-1.95-0.62
		c-0.16-1.04-0.45-2.26,0.86-2.94c1.03-0.54,2.03-1.15,3.06-1.67c0.97-0.49,1.53-1.16,1.59-2.33c0.23-4.28,0.77-8.55,0.78-12.83
		c0.08-21.76,0.04-43.52,0.02-65.28c0-1.53-0.14-3.07-0.3-4.59c-0.31-2.98-1.37-4.13-4.35-4.5c-2.52-0.31-5.06-0.48-7.59-0.6
		c-1.1-0.05-1.56-0.44-1.47-1.52c0.03-0.37,0.04-0.75,0-1.11c-0.18-1.38,0.37-1.82,1.79-1.8c9.15,0.16,18.31,0.27,27.47,0.32
		c3.44,0.02,6.88-0.15,10.32-0.31c1.27-0.06,1.76,0.4,1.64,1.64c-0.04,0.42-0.03,0.85,0,1.27c0.06,1.08-0.43,1.45-1.51,1.51
		c-2.64,0.13-5.29,0.28-7.9,0.62c-2.65,0.35-3.49,1.18-3.88,3.84c-0.33,2.24-0.53,4.53-0.54,6.79c-0.05,21.23-0.06,42.46-0.04,63.7
		c0,4.23,0.24,8.47,0.3,12.7c0.02,1.06,0.42,1.35,1.41,1.34c10.91-0.12,21.81-0.11,32.72-0.38c2.81-0.07,5.59-1,8.39-1.56
		c1.15-0.23,1.79-0.94,2.06-2.11c0.93-4.07,1.95-8.12,2.87-12.19c0.45-1.97,2.37-3.03,4.16-2.1c0.28,0.15,0.47,0.78,0.44,1.17
		c-0.5,7.44-1.07,14.88-1.56,22.32c-0.08,1.29-0.76,1.4-1.78,1.39C481.65,154.77,470.59,154.6,459.52,154.42z" />
	</g>
</svg>